# Rhino

g Cascais_Final
o object_1
v 14.999980926513672 30 15.00001049041748
v -15.000019073486328 30 -14.99998950958252
v 14.999980926513672 30 -14.99998950958252
v 11.999980926513672 30 -10.49998950958252
v -1.500018835067749 30 -10.49998950958252
v -15.000019073486328 30 -10.49998950958252
v 14.999980926513672 30 1.0855450454982929E-05
v -1.8878146875067614E-05 30 -14.99998950958252
v 11.999980926513672 30 15.00001049041748
v 11.999980926513672 30 2.2500109672546387
v -15.000019073486328 30 -14.99998950958252
v -15.000019073486328 0 -14.99998950958252
v 14.999980926513672 30 -14.99998950958252
v 14.999980926513672 0 -14.99998950958252
v -1.8878146875067614E-05 30 -14.99998950958252
v 14.999980926513672 15 -14.99998950958252
v -15.000019073486328 15 -14.99998950958252
v -1.8878146875067614E-05 0 -14.99998950958252
v 14.999980926513672 5 15.00001049041748
v 14.999980926513672 25 15.00001049041748
v 14.999980926513672 5 -9.9999895095825195
v 14.999980926513672 25 -9.9999895095825195
v 14.999980926513672 5 2.5000109672546387
v 14.999980926513672 15 -9.9999895095825195
v 14.999980926513672 25 2.5000109672546387
v 14.999980926513672 15 15.00001049041748
v 14.999980926513672 30 -14.99998950958252
v 14.999980926513672 0 -14.99998950958252
v 14.999980926513672 0 15.00001049041748
v 14.999980926513672 30 1.0855450454982929E-05
v 14.999980926513672 5 -9.9999895095825195
v 14.999980926513672 5 2.5000109672546387
v 14.999980926513672 5 15.00001049041748
v 14.999980926513672 25 -9.9999895095825195
v 14.999980926513672 15 -9.9999895095825195
v 14.999980926513672 15 -14.99998950958252
v 14.999980926513672 25 15.00001049041748
v 14.999980926513672 25 2.5000109672546387
v 14.999980926513672 0 1.0855450454982929E-05
v 14.999980926513672 30 15.00001049041748
v -15.000019073486328 0 -14.99998950958252
v -15.000019073486328 0 15.00001049041748
v 14.999980926513672 0 -14.99998950958252
v 14.999980926513672 0 15.00001049041748
v 14.999980926513672 0 1.0855450454982929E-05
v -1.8878146875067614E-05 0 -14.99998950958252
v -1.8878146875067614E-05 0 15.00001049041748
v -15.000019073486328 0 1.0855450454982929E-05
v -15.000019073486328 0 15.00001049041748
v -15.000019073486328 30 15.00001049041748
v -15.000019073486328 0 -14.99998950958252
v -15.000019073486328 30 -14.99998950958252
v -15.000019073486328 30 -10.49998950958252
v -15.000019073486328 15 -14.99998950958252
v -15.000019073486328 15 1.0855450454982929E-05
v -15.000019073486328 22.5 1.0855450454982929E-05
v -15.000019073486328 15 -7.4999890327453613
v -15.000019073486328 22.5 -7.4999890327453613
v -15.000019073486328 0 1.0855450454982929E-05
v -15.000019073486328 15 15.00001049041748
v -15.000019073486328 30 2.2500109672546387
v 14.999980926513672 0 15.00001049041748
v 14.999980926513672 30 15.00001049041748
v -15.000019073486328 0 15.00001049041748
v -15.000019073486328 30 15.00001049041748
v 11.999980926513672 30 15.00001049041748
v -15.000019073486328 15 15.00001049041748
v 14.999980926513672 15 15.00001049041748
v -1.8878146875067614E-05 0 15.00001049041748
v -1.8878146875067614E-05 15 15.00001049041748
v -1.8878146875067614E-05 22.5 15.00001049041748
v 7.4999809265136719 15 15.00001049041748
v 7.4999809265136719 22.5 15.00001049041748
v 14.999980926513672 25 15.00001049041748
v 14.999980926513672 5 15.00001049041748
v -1.500018835067749 30 15.00001049041748
v -15.000019073486328 30 15.00001049041748
v -15.000019073486328 30 -10.49998950958252
v 11.999980926513672 30 15.00001049041748
v 11.999980926513672 30 -10.49998950958252
v -1.500018835067749 30 -10.49998950958252
v 11.999980926513672 30 2.2500109672546387
v -15.000019073486328 30 2.2500109672546387
v -1.500018835067749 30 15.00001049041748
vt 0.3333333432674408 0.96520179510116577
vt 0.66520184278488159 0.63333332538604736
vt 0.66520184278488159 0.96520179510116577
vt 0.61542153358459473 0.93201494216918945
vt 0.61542153358459473 0.78267413377761841
vt 0.61542153358459473 0.63333332538604736
vt 0.499267578125 0.96520179510116577
vt 0.66520184278488159 0.79926759004592896
vt 0.3333333432674408 0.93201494216918945
vt 0.47437745332717896 0.93201494216918945
vt 0.3318684995174408 0.48333331942558289
vt 0 0.48333331942558289
vt 0.3318684995174408 0.81666666269302368
vt 0 0.81666666269302368
vt 0.3318684995174408 0.64999997615814209
vt 0.1659342497587204 0.81666666269302368
vt 0.1659342497587204 0.48333331942558289
vt 0 0.64999997615814209
vt 0.55555558204650879 0
vt 0.3333333432674408 0
vt 0.55555558204650879 0.27777779102325439
vt 0.3333333432674408 0.27777779102325439
vt 0.55555558204650879 0.1388888955116272
vt 0.4444444477558136 0.27777779102325439
vt 0.3333333432674408 0.1388888955116272
vt 0.4444444477558136 0
vt 0.99853515625 0.30000001192092896
vt 0.66666668653488159 0.30000001192092896
vt 0.66666668653488159 0.63186848163604736
vt 0.99853515625 0.46593424677848816
vt 0.72197806835174561 0.35531142354011536
vt 0.72197806835174561 0.49358993768692017
vt 0.72197806835174561 0.63186848163604736
vt 0.94322371482849121 0.35531142354011536
vt 0.83260089159011841 0.35531142354011536
vt 0.83260089159011841 0.30000001192092896
vt 0.94322371482849121 0.63186848163604736
vt 0.94322371482849121 0.49358993768692017
vt 0.66666668653488159 0.46593424677848816
vt 0.99853515625 0.63186848163604736
vt 0.3333333432674408 0.30000001192092896
vt 0.3333333432674408 0.63186848163604736
vt 0.66520184278488159 0.30000001192092896
vt 0.66520184278488159 0.63186848163604736
vt 0.66520184278488159 0.46593424677848816
vt 0.499267578125 0.30000001192092896
vt 0.499267578125 0.63186848163604736
vt 0.3333333432674408 0.46593424677848816
vt 0.99853515625 0.63333332538604736
vt 0.66666668653488159 0.63333332538604736
vt 0.99853515625 0.96520179510116577
vt 0.66666668653488159 0.96520179510116577
vt 0.66666668653488159 0.91542154550552368
vt 0.83260089159011841 0.96520179510116577
vt 0.83260089159011841 0.79926759004592896
vt 0.7496337890625 0.79926759004592896
vt 0.83260089159011841 0.88223469257354736
vt 0.7496337890625 0.88223469257354736
vt 0.99853515625 0.79926759004592896
vt 0.83260089159011841 0.63333332538604736
vt 0.66666668653488159 0.77437746524810791
vt 0.3318684995174408 0
vt 0 0
vt 0.3318684995174408 0.3333333432674408
vt 0 0.3333333432674408
vt 0 0.033333335071802139
vt 0.1659342497587204 0.3333333432674408
vt 0.1659342497587204 0
vt 0.3318684995174408 0.1666666716337204
vt 0.1659342497587204 0.1666666716337204
vt 0.082967124879360199 0.1666666716337204
vt 0.1659342497587204 0.083333335816860199
vt 0.082967124879360199 0.083333335816860199
vt 0.055311422795057297 0
vt 0.27655708789825439 0
vt 0 0.18333333730697632
vt 0.90970695018768311 0
vt 0.62637364864349365 0
vt 0.90970695018768311 0.29853516817092896
vt 0.62637364864349365 0.29853516817092896
vt 0.62637364864349365 0.14926758408546448
vt 0.76804029941558838 0.29853516817092896
vt 0.76804029941558838 0
vt 0.90970695018768311 0.14926758408546448
vn 0 1 0
vn 0 1 0
vn 0 1 0
vn 0 1 0
vn 0 1 0
vn 0 1 0
vn 0 1 0
vn 0 1 0
vn 0 1 0
vn 0 1 0
vn 0 0 -1
vn 0 0 -1
vn 0 0 -1
vn 0 0 -1
vn 0 0 -1
vn 0 0 -1
vn 0 0 -1
vn 0 0 -1
vn 1 0 0
vn 1 0 0
vn 1 0 0
vn 1 0 0
vn 1 0 0
vn 1 0 0
vn 1 0 0
vn 1 0 0
vn 1 0 0
vn 1 0 0
vn 1 0 0
vn 1 0 0
vn 1 0 0
vn 1 0 0
vn 1 0 0
vn 1 0 0
vn 1 0 0
vn 1 0 0
vn 1 0 0
vn 1 0 0
vn 1 0 0
vn 1 0 0
vn 0 -1 0
vn 0 -1 0
vn 0 -1 0
vn 0 -1 0
vn 0 -1 0
vn 0 -1 0
vn 0 -1 0
vn 0 -1 0
vn -1 0 0
vn -1 0 0
vn -1 0 0
vn -1 0 0
vn -1 0 0
vn -1 0 0
vn -1 0 0
vn -1 0 0
vn -1 0 0
vn -1 0 0
vn -1 0 0
vn -1 0 0
vn -1 0 0
vn 0 0 1
vn 0 0 1
vn 0 0 1
vn 0 0 1
vn 0 0 1
vn 0 0 1
vn 0 0 1
vn 0 0 1
vn 0 0 1
vn 0 0 1
vn 0 0 1
vn 0 0 1
vn 0 0 1
vn 0 0 1
vn 0 0 1
vn 0 1 0
vn 0 1 0
vn 0 1 0
vn 0 1 0
vn 0 1 0
vn 0 1 0
vn 0 1 0
vn 0 1 0
f 7/7/7 10/10/10 9/9/9 1/1/1
f 10/10/10 7/7/7 3/3/3 4/4/4
f 2/2/2 6/6/6 5/5/5 8/8/8
f 8/8/8 5/5/5 4/4/4 3/3/3
f 17/17/17 11/11/11 15/15/15
f 17/17/17 18/18/18 12/12/12
f 16/16/16 17/17/17 15/15/15
f 17/17/17 16/16/16 18/18/18
f 16/16/16 14/14/14 18/18/18
f 13/13/13 16/16/16 15/15/15
f 26/26/26 19/19/19 23/23/23
f 26/26/26 25/25/25 20/20/20
f 25/25/25 26/26/26 23/23/23
f 23/23/23 24/24/24 25/25/25
f 24/24/24 22/22/22 25/25/25
f 21/21/21 24/24/24 23/23/23
f 27/27/27 30/30/30 38/38/38 34/34/34
f 36/36/36 27/27/27 34/34/34 35/35/35
f 28/28/28 36/36/36 35/35/35 31/31/31
f 39/39/39 28/28/28 31/31/31 32/32/32
f 37/37/37 38/38/38 30/30/30 40/40/40
f 29/29/29 39/39/39 32/32/32 33/33/33
f 48/48/48 41/41/41 46/46/46
f 48/48/48 47/47/47 42/42/42
f 45/45/45 48/48/48 46/46/46
f 48/48/48 45/45/45 47/47/47
f 45/45/45 44/44/44 47/47/47
f 43/43/43 45/45/45 46/46/46
f 58/58/58 57/57/57 55/55/55 56/56/56
f 60/60/60 55/55/55 49/49/49
f 59/59/59 49/49/49 55/55/55
f 56/56/56 55/55/55 60/60/60
f 61/61/61 56/56/56 50/50/50
f 60/60/60 50/50/50 56/56/56
f 56/56/56 61/61/61 53/53/53 58/58/58
f 59/59/59 57/57/57 54/54/54 51/51/51
f 52/52/52 58/58/58 53/53/53
f 58/58/58 52/52/52 54/54/54
f 54/54/54 57/57/57 58/58/58
f 59/59/59 55/55/55 57/57/57
f 71/71/71 70/70/70 72/72/72 73/73/73
f 69/69/69 75/75/75 72/72/72
f 72/72/72 75/75/75 68/68/68
f 66/66/66 74/74/74 63/63/63
f 72/72/72 68/68/68 74/74/74 73/73/73
f 66/66/66 73/73/73 74/74/74
f 69/69/69 62/62/62 75/75/75
f 70/70/70 67/67/67 64/64/64 69/69/69
f 71/71/71 67/67/67 70/70/70
f 76/76/76 71/71/71 73/73/73
f 71/71/71 76/76/76 65/65/65
f 65/65/65 67/67/67 71/71/71
f 66/66/66 76/76/76 73/73/73
f 69/69/69 72/72/72 70/70/70
f 83/83/83 77/77/77 84/84/84
f 83/83/83 81/81/81 78/78/78
f 82/82/82 83/83/83 84/84/84
f 83/83/83 82/82/82 81/81/81
f 82/82/82 80/80/80 81/81/81
f 79/79/79 82/82/82 84/84/84
