# Rhino

g Cascais_Final
o object_1
v 14.999980926513672 0 15.00001049041748
v 14.999980926513672 0 -14.99998950958252
v 14.999980926513672 2.5 -14.99998950958252
v 14.999980926513672 2.5 15.00001049041748
v 14.999980926513672 0 7.5000109672546387
v 14.999980926513672 0 1.0855450454982929E-05
v 14.999980926513672 0 -7.4999890327453613
v 14.999980926513672 2.5 -7.4999890327453613
v 14.999980926513672 2.5 1.0855450454982929E-05
v 14.999980926513672 2.5 7.5000109672546387
v 14.999980926513672 2.5 -14.99998950958252
v 14.999980926513672 2.5 15.00001049041748
v -12.000019073486328 2.5 -14.99998950958252
v -12.000019073486328 2.5 -4.9999890327453613
v -12.000019073486328 2.5 5.0000109672546387
v -12.000019073486328 2.5 15.00001049041748
v -3.000018835067749 2.5 15.00001049041748
v 5.9999809265136719 2.5 15.00001049041748
v 5.9999809265136719 2.5 -14.99998950958252
v -3.000018835067749 2.5 -14.99998950958252
v 14.999980926513672 2.5 7.5000109672546387
v 14.999980926513672 2.5 1.0855450454982929E-05
v 14.999980926513672 2.5 -7.4999890327453613
v -12.000019073486328 2.5 15.00001049041748
v -12.000019073486328 0 15.00001049041748
v 14.999980926513672 2.5 15.00001049041748
v 14.999980926513672 0 15.00001049041748
v -3.000018835067749 2.5 15.00001049041748
v 5.9999809265136719 2.5 15.00001049041748
v 5.9999809265136719 0 15.00001049041748
v -3.000018835067749 0 15.00001049041748
v -12.000019073486328 2.5 -14.99998950958252
v -12.000019073486328 0 -14.99998950958252
v 14.999980926513672 2.5 -14.99998950958252
v 14.999980926513672 0 -14.99998950958252
v -3.000018835067749 2.5 -14.99998950958252
v 5.9999809265136719 2.5 -14.99998950958252
v 5.9999809265136719 0 -14.99998950958252
v -3.000018835067749 0 -14.99998950958252
v -12.000019073486328 0 15.00001049041748
v 14.999980926513672 0 15.00001049041748
v -12.000019073486328 0 -14.99998950958252
v 14.999980926513672 0 -14.99998950958252
v 14.999980926513672 0 -7.4999890327453613
v 14.999980926513672 0 1.0855450454982929E-05
v 14.999980926513672 0 7.5000109672546387
v 5.9999809265136719 0 15.00001049041748
v -3.000018835067749 0 15.00001049041748
v -3.000018835067749 0 -14.99998950958252
v 5.9999809265136719 0 -14.99998950958252
v -12.000019073486328 0 5.0000109672546387
v -12.000019073486328 0 -4.9999890327453613
v -12.000019073486328 0 15.00001049041748
v -12.000019073486328 2.5 15.00001049041748
v -12.000019073486328 0 -14.99998950958252
v -12.000019073486328 2.5 -14.99998950958252
v -12.000019073486328 2.5 -4.9999890327453613
v -12.000019073486328 2.5 5.0000109672546387
v -12.000019073486328 0 5.0000109672546387
v -12.000019073486328 0 -4.9999890327453613
vt 0.1374240517616272 0
vt 0.1374240517616272 0.55555558204650879
vt 0.092592589557170868 0.55555558204650879
vt 0.092592589557170868 0
vt 0.1374240517616272 0.1388888955116272
vt 0.1374240517616272 0.27777779102325439
vt 0.1374240517616272 0.4166666567325592
vt 0.092592589557170868 0.4166666567325592
vt 0.092592589557170868 0.27777779102325439
vt 0.092592589557170868 0.1388888955116272
vt 0.18518517911434174 0.49853515625
vt 0.73927587270736694 0.49853515625
vt 0.18518517911434174 0
vt 0.36988210678100586 0
vt 0.55457901954650879 0
vt 0.73927587270736694 0
vt 0.73927587270736694 0.1661783903837204
vt 0.73927587270736694 0.3323567807674408
vt 0.18518517911434174 0.3323567807674408
vt 0.18518517911434174 0.1661783903837204
vt 0.60075324773788452 0.49853515625
vt 0.46223053336143494 0.49853515625
vt 0.32370784878730774 0.49853515625
vt 0.091127745807170868 0
vt 0.046296294778585434 0
vt 0.091127745807170868 0.5
vt 0.046296294778585434 0.5
vt 0.091127745807170868 0.1666666716337204
vt 0.091127745807170868 0.3333333432674408
vt 0.046296294778585434 0.3333333432674408
vt 0.046296294778585434 0.1666666716337204
vt 0.044831451028585434 0
vt 0 0
vt 0.044831451028585434 0.5
vt 0 0.5
vt 0.044831451028585434 0.1666666716337204
vt 0.044831451028585434 0.3333333432674408
vt 0 0.3333333432674408
vt 0 0.1666666716337204
vt 0.18518517911434174 0.5
vt 0.18518517911434174 0.99853515625
vt 0.73927587270736694 0.5
vt 0.73927587270736694 0.99853515625
vt 0.60075324773788452 0.99853515625
vt 0.46223053336143494 0.99853515625
vt 0.32370784878730774 0.99853515625
vt 0.18518517911434174 0.83235675096511841
vt 0.18518517911434174 0.66617840528488159
vt 0.73927587270736694 0.66617840528488159
vt 0.73927587270736694 0.83235675096511841
vt 0.36988210678100586 0.5
vt 0.55457901954650879 0.5
vt 0.18372033536434174 0
vt 0.1388888955116272 0
vt 0.18372033536434174 0.55555558204650879
vt 0.1388888955116272 0.55555558204650879
vt 0.1388888955116272 0.37037038803100586
vt 0.1388888955116272 0.18518519401550293
vt 0.18372033536434174 0.18518519401550293
vt 0.18372033536434174 0.37037038803100586
vn 1 0 0
vn 1 0 0
vn 1 0 0
vn 1 0 0
vn 1 0 0
vn 1 0 0
vn 1 0 0
vn 1 0 0
vn 1 0 0
vn 1 0 0
vn 0 1 0
vn 0 1 0
vn 0 1 0
vn 0 1 0
vn 0 1 0
vn 0 1 0
vn 0 1 0
vn 0 1 0
vn 0 1 0
vn 0 1 0
vn 0 1 0
vn 0 1 0
vn 0 1 0
vn 0 0 1
vn 0 0 1
vn 0 0 1
vn 0 0 1
vn 0 0 1
vn 0 0 1
vn 0 0 1
vn 0 0 1
vn 0 0 -1
vn 0 0 -1
vn 0 0 -1
vn 0 0 -1
vn 0 0 -1
vn 0 0 -1
vn 0 0 -1
vn 0 0 -1
vn 0 -1 0
vn 0 -1 0
vn 0 -1 0
vn 0 -1 0
vn 0 -1 0
vn 0 -1 0
vn 0 -1 0
vn 0 -1 0
vn 0 -1 0
vn 0 -1 0
vn 0 -1 0
vn 0 -1 0
vn 0 -1 0
vn -1 0 0
vn -1 0 0
vn -1 0 0
vn -1 0 0
vn -1 0 0
vn -1 0 0
vn -1 0 0
vn -1 0 0
f 1/1/1 5/5/5 10/10/10 4/4/4
f 5/5/5 6/6/6 9/9/9 10/10/10
f 7/7/7 2/2/2 3/3/3 8/8/8
f 8/8/8 9/9/9 6/6/6 7/7/7
f 20/20/20 13/13/13 14/14/14
f 22/22/22 19/19/19 20/20/20
f 11/11/11 19/19/19 23/23/23
f 19/19/19 22/22/22 23/23/23
f 14/14/14 22/22/22 20/20/20
f 17/17/17 15/15/15 16/16/16
f 22/22/22 15/15/15 17/17/17
f 18/18/18 21/21/21 22/22/22
f 21/21/21 18/18/18 12/12/12
f 18/18/18 22/22/22 17/17/17
f 14/14/14 15/15/15 22/22/22
f 24/24/24 25/25/25 31/31/31 28/28/28
f 30/30/30 29/29/29 28/28/28 31/31/31
f 29/29/29 30/30/30 27/27/27 26/26/26
f 36/36/36 39/39/39 33/33/33 32/32/32
f 38/38/38 39/39/39 36/36/36 37/37/37
f 37/37/37 34/34/34 35/35/35 38/38/38
f 48/48/48 40/40/40 51/51/51
f 45/45/45 47/47/47 48/48/48
f 41/41/41 47/47/47 46/46/46
f 47/47/47 45/45/45 46/46/46
f 51/51/51 45/45/45 48/48/48
f 49/49/49 52/52/52 42/42/42
f 45/45/45 52/52/52 49/49/49
f 50/50/50 44/44/44 45/45/45
f 44/44/44 50/50/50 43/43/43
f 50/50/50 45/45/45 49/49/49
f 51/51/51 52/52/52 45/45/45
f 53/53/53 54/54/54 58/58/58 59/59/59
f 57/57/57 60/60/60 59/59/59 58/58/58
f 60/60/60 57/57/57 56/56/56 55/55/55
