# Rhino

g Cubos_Final
o object_1
v -14.999946594238281 0 -14.99998664855957
v -14.999946594238281 1 -14.99998664855957
v -4.999946117401123 0 15.00001335144043
v -13.888862609863281 0 -11.66667366027832
v -12.777778625488281 0 -8.3333606719970703
v -11.666694641113281 0 -4.9999866485595703
v -10.555610656738281 0 -1.6666735410690308
v -9.4444046020507813 0 1.6666394472122192
v -8.3333206176757813 0 5.0000133514404297
v -7.222236156463623 0 8.3333263397216797
v -6.111152172088623 0 11.66663932800293
v -4.999946117401123 1 15.00001335144043
v -6.111152172088623 1 11.66663932800293
v -7.222236156463623 1 8.3333263397216797
v -8.3333206176757813 1 5.0000133514404297
v -9.4444046020507813 1 1.6666394472122192
v -10.555610656738281 1 -1.6666735410690308
v -11.666694641113281 1 -4.9999866485595703
v -12.777778625488281 1 -8.3333606719970703
v -13.888862609863281 1 -11.66667366027832
v 15.000053405761719 0 -14.99998664855957
v 15.000053405761719 1 -14.99998664855957
v -14.999946594238281 0 -14.99998664855957
v -14.999946594238281 1 -14.99998664855957
v 11.250053405761719 0 -14.99998664855957
v 7.500053882598877 0 -14.99998664855957
v 3.750053882598877 0 -14.99998664855957
v 5.3838357416680083E-05 0 -14.99998664855957
v -3.749946117401123 0 -14.99998664855957
v -7.499946117401123 0 -14.99998664855957
v -11.249946594238281 0 -14.99998664855957
v -11.249946594238281 1 -14.99998664855957
v -7.499946117401123 1 -14.99998664855957
v -3.749946117401123 1 -14.99998664855957
v 5.3838357416680083E-05 1 -14.99998664855957
v 3.750053882598877 1 -14.99998664855957
v 7.500053882598877 1 -14.99998664855957
v 11.250053405761719 1 -14.99998664855957
v -14.999946594238281 0 -14.99998664855957
v -11.249946594238281 0 -14.99998664855957
v -7.499946117401123 0 -14.99998664855957
v -3.749946117401123 0 -14.99998664855957
v 5.3838357416680083E-05 0 -14.99998664855957
v 3.750053882598877 0 -14.99998664855957
v 7.500053882598877 0 -14.99998664855957
v 11.250053405761719 0 -14.99998664855957
v 15.000053405761719 0 -14.99998664855957
v -0.29999497532844543 0 -0.29997429251670837
v -0.29999497532844543 0 -7.9499988555908203
v -7.950019359588623 0 -0.29997429251670837
v -7.950019359588623 0 -7.9499988555908203
v 7.350029468536377 0 -0.29997429251670837
v 7.350029468536377 0 -7.9499988555908203
v 15.000053405761719 0 -10.71428108215332
v 15.000053405761719 0 -6.4285755157470703
v 15.000053405761719 0 -2.1428697109222412
v 15.000053405761719 0 2.1428358554840088
v 15.000053405761719 0 6.4285411834716797
v 15.000053405761719 0 10.71430778503418
v -0.29999497532844543 0 7.3499889373779297
v 7.350029468536377 0 7.3499889373779297
v 15.000053405761719 0 15.00001335144043
v 11.666679382324219 0 15.00001335144043
v 8.3333053588867188 0 15.00001335144043
v 5.000053882598877 0 15.00001335144043
v 1.666679859161377 0 15.00001335144043
v -1.666694164276123 0 15.00001335144043
v -4.999946117401123 0 15.00001335144043
v -6.111152172088623 0 11.66663932800293
v -7.222236156463623 0 8.3333263397216797
v -8.3333206176757813 0 5.0000133514404297
v -9.4444046020507813 0 1.6666394472122192
v -10.555610656738281 0 -1.6666735410690308
v -11.666694641113281 0 -4.9999866485595703
v -12.777778625488281 0 -8.3333606719970703
v -13.888862609863281 0 -11.66667366027832
v -14.999946594238281 1 -14.99998664855957
v -11.249946594238281 1 -14.99998664855957
v -7.499946117401123 1 -14.99998664855957
v -3.749946117401123 1 -14.99998664855957
v 5.3838357416680083E-05 1 -14.99998664855957
v 3.750053882598877 1 -14.99998664855957
v 7.500053882598877 1 -14.99998664855957
v 11.250053405761719 1 -14.99998664855957
v 15.000053405761719 1 -14.99998664855957
v -0.29999497532844543 1 -0.29997429251670837
v -0.29999497532844543 1 -7.9499988555908203
v -7.950019359588623 1 -0.29997429251670837
v -7.950019359588623 1 -7.9499988555908203
v 7.350029468536377 1 -0.29997429251670837
v 7.350029468536377 1 -7.9499988555908203
v 15.000053405761719 1 -10.71428108215332
v 15.000053405761719 1 -6.4285755157470703
v 15.000053405761719 1 -2.1428697109222412
v 15.000053405761719 1 2.1428358554840088
v 15.000053405761719 1 6.4285411834716797
v 15.000053405761719 1 10.71430778503418
v -0.29999497532844543 1 7.3499889373779297
v 7.350029468536377 1 7.3499889373779297
v 15.000053405761719 1 15.00001335144043
v 11.666679382324219 1 15.00001335144043
v 8.3333053588867188 1 15.00001335144043
v 5.000053882598877 1 15.00001335144043
v 1.666679859161377 1 15.00001335144043
v -1.666694164276123 1 15.00001335144043
v -4.999946117401123 1 15.00001335144043
v -6.111152172088623 1 11.66663932800293
v -7.222236156463623 1 8.3333263397216797
v -8.3333206176757813 1 5.0000133514404297
v -9.4444046020507813 1 1.6666394472122192
v -10.555610656738281 1 -1.6666735410690308
v -11.666694641113281 1 -4.9999866485595703
v -12.777778625488281 1 -8.3333606719970703
v -13.888862609863281 1 -11.66667366027832
v 15.000053405761719 1 -14.99998664855957
v 15.000053405761719 0 -14.99998664855957
v 15.000053405761719 1 15.00001335144043
v 15.000053405761719 0 15.00001335144043
v 15.000053405761719 0 10.71430778503418
v 15.000053405761719 0 6.4285411834716797
v 15.000053405761719 0 2.1428358554840088
v 15.000053405761719 0 -2.1428697109222412
v 15.000053405761719 0 -6.4285755157470703
v 15.000053405761719 0 -10.71428108215332
v 15.000053405761719 1 -10.71428108215332
v 15.000053405761719 1 -6.4285755157470703
v 15.000053405761719 1 -2.1428697109222412
v 15.000053405761719 1 2.1428358554840088
v 15.000053405761719 1 6.4285411834716797
v 15.000053405761719 1 10.71430778503418
v 15.000053405761719 0 15.00001335144043
v 15.000053405761719 1 15.00001335144043
v -4.999946117401123 0 15.00001335144043
v -4.999946117401123 1 15.00001335144043
v 11.666679382324219 0 15.00001335144043
v 8.3333053588867188 0 15.00001335144043
v 5.000053882598877 0 15.00001335144043
v 1.666679859161377 0 15.00001335144043
v -1.666694164276123 0 15.00001335144043
v -1.666694164276123 1 15.00001335144043
v 1.666679859161377 1 15.00001335144043
v 5.000053882598877 1 15.00001335144043
v 8.3333053588867188 1 15.00001335144043
v 11.666679382324219 1 15.00001335144043
vt 0.063894636929035187 0
vt 0.049019608646631241 0
vt 0.063894636929035187 0.5167120099067688
vt 0.063894636929035187 0.057412449270486832
vt 0.063894636929035187 0.11482489854097366
vt 0.063894636929035187 0.17223735153675079
vt 0.063894636929035187 0.22964979708194733
vt 0.063894636929035187 0.28706225752830505
vt 0.063894636929035187 0.34447470307350159
vt 0.063894636929035187 0.40188714861869812
vt 0.063894636929035187 0.45929959416389465
vt 0.049019608646631241 0.5167120099067688
vt 0.049019608646631241 0.45929959416389465
vt 0.049019608646631241 0.40188714861869812
vt 0.049019608646631241 0.34447470307350159
vt 0.049019608646631241 0.28706225752830505
vt 0.049019608646631241 0.22964979708194733
vt 0.049019608646631241 0.17223735153675079
vt 0.049019608646631241 0.11482489854097366
vt 0.049019608646631241 0.057412449270486832
vt 0.047554764896631241 0
vt 0.032679740339517593 0
vt 0.047554764896631241 0.49019607901573181
vt 0.032679740339517593 0.49019607901573181
vt 0.047554764896631241 0.061274509876966476
vt 0.047554764896631241 0.12254901975393295
vt 0.047554764896631241 0.18382352590560913
vt 0.047554764896631241 0.24509803950786591
vt 0.047554764896631241 0.30637255311012268
vt 0.047554764896631241 0.36764705181121826
vt 0.047554764896631241 0.42892158031463623
vt 0.032679740339517593 0.42892158031463623
vt 0.032679740339517593 0.36764705181121826
vt 0.032679740339517593 0.30637255311012268
vt 0.032679740339517593 0.24509803950786591
vt 0.032679740339517593 0.18382352590560913
vt 0.032679740339517593 0.12254901975393295
vt 0.032679740339517593 0.061274509876966476
vt 0.55411940813064575 0.50977522134780884
vt 0.55411940813064575 0.57087022066116333
vt 0.55411940813064575 0.63196521997451782
vt 0.55411940813064575 0.69306015968322754
vt 0.55411940813064575 0.75415521860122681
vt 0.55411940813064575 0.81525015830993652
vt 0.55411940813064575 0.87634515762329102
vt 0.55411940813064575 0.93744015693664551
vt 0.55411940813064575 0.99853515625
vt 0.31462705135345459 0.749267578125
vt 0.43926084041595459 0.749267578125
vt 0.31462705135345459 0.6246337890625
vt 0.43926084041595459 0.6246337890625
vt 0.31462705135345459 0.8739013671875
vt 0.43926084041595459 0.8739013671875
vt 0.48429659008979797 0.99853515625
vt 0.41447371244430542 0.99853515625
vt 0.34465086460113525 0.99853515625
vt 0.27482801675796509 0.99853515625
vt 0.20500516891479492 0.99853515625
vt 0.13518232107162476 0.99853515625
vt 0.18999326229095459 0.749267578125
vt 0.18999326229095459 0.8739013671875
vt 0.065359480679035187 0.99853515625
vt 0.065359480679035187 0.94422852993011475
vt 0.065359480679035187 0.88992184400558472
vt 0.065359480679035187 0.83561515808105469
vt 0.065359480679035187 0.78130847215652466
vt 0.065359480679035187 0.7270018458366394
vt 0.065359480679035187 0.67269515991210938
vt 0.11966612935066223 0.65459299087524414
vt 0.17397280037403107 0.63649076223373413
vt 0.22827945649623871 0.61838853359222412
vt 0.28258612751960754 0.60028630495071411
vt 0.33689278364181519 0.5821840763092041
vt 0.39119943976402283 0.56408184766769409
vt 0.44550609588623047 0.54597961902618408
vt 0.4998127818107605 0.52787739038467407
vt 0.55411940813064575 0.0097751999273896217
vt 0.55411940813064575 0.070870198309421539
vt 0.55411940813064575 0.13196519017219543
vt 0.55411940813064575 0.19306017458438873
vt 0.55411940813064575 0.25415518879890442
vt 0.55411940813064575 0.31525018811225891
vt 0.55411940813064575 0.37634515762329102
vt 0.55411940813064575 0.4374401867389679
vt 0.55411940813064575 0.49853515625
vt 0.31462705135345459 0.249267578125
vt 0.43926084041595459 0.249267578125
vt 0.31462705135345459 0.1246337890625
vt 0.43926084041595459 0.1246337890625
vt 0.31462705135345459 0.3739013671875
vt 0.43926084041595459 0.3739013671875
vt 0.48429659008979797 0.49853515625
vt 0.41447371244430542 0.49853515625
vt 0.34465086460113525 0.49853515625
vt 0.27482801675796509 0.49853515625
vt 0.20500516891479492 0.49853515625
vt 0.13518232107162476 0.49853515625
vt 0.18999326229095459 0.249267578125
vt 0.18999326229095459 0.3739013671875
vt 0.065359480679035187 0.49853515625
vt 0.065359480679035187 0.44422850012779236
vt 0.065359480679035187 0.38992181420326233
vt 0.065359480679035187 0.33561518788337708
vt 0.065359480679035187 0.28130850195884705
vt 0.065359480679035187 0.2270018458366394
vt 0.065359480679035187 0.17269518971443176
vt 0.11966612935066223 0.15459296107292175
vt 0.17397280037403107 0.13649074733257294
vt 0.22827945649623871 0.11838852614164352
vt 0.28258612751960754 0.10028630495071411
vt 0.33689278364181519 0.082184083759784698
vt 0.39119943976402283 0.064081862568855286
vt 0.44550609588623047 0.045979641377925873
vt 0.4998127818107605 0.02787742018699646
vt 0.031214894726872444 0
vt 0.016339870169758797 0
vt 0.031214894726872444 0.49019607901573181
vt 0.016339870169758797 0.49019607901573181
vt 0.016339870169758797 0.42016807198524475
vt 0.016339870169758797 0.35014006495475769
vt 0.016339870169758797 0.28011205792427063
vt 0.016339870169758797 0.21008403599262238
vt 0.016339870169758797 0.14005602896213531
vt 0.016339870169758797 0.070028014481067657
vt 0.031214894726872444 0.070028014481067657
vt 0.031214894726872444 0.14005602896213531
vt 0.031214894726872444 0.21008403599262238
vt 0.031214894726872444 0.28011205792427063
vt 0.031214894726872444 0.35014006495475769
vt 0.031214894726872444 0.42016807198524475
vt 0.014875025488436222 0
vt 0 0
vt 0.014875025488436222 0.32679739594459534
vt 0 0.32679739594459534
vt 0.014875025488436222 0.054466232657432556
vt 0.014875025488436222 0.10893246531486511
vt 0.014875025488436222 0.16339869797229767
vt 0.014875025488436222 0.21786493062973022
vt 0.014875025488436222 0.27233114838600159
vt 0 0.27233114838600159
vt 0 0.21786493062973022
vt 0 0.16339869797229767
vt 0 0.10893246531486511
vt 0 0.054466232657432556
vn -0.94868332147598267 0 0.31622776389122009
vn -0.94868332147598267 0 0.31622776389122009
vn -0.94868332147598267 0 0.31622776389122009
vn -0.94868332147598267 0 0.31622776389122009
vn -0.94868332147598267 0 0.31622776389122009
vn -0.94868332147598267 0 0.31622776389122009
vn -0.94868332147598267 0 0.31622776389122009
vn -0.94868332147598267 0 0.31622776389122009
vn -0.94868332147598267 0 0.31622776389122009
vn -0.94868332147598267 0 0.31622776389122009
vn -0.94868332147598267 0 0.31622776389122009
vn -0.94868332147598267 0 0.31622776389122009
vn -0.94868332147598267 0 0.31622776389122009
vn -0.94868332147598267 0 0.31622776389122009
vn -0.94868332147598267 0 0.31622776389122009
vn -0.94868332147598267 0 0.31622776389122009
vn -0.94868332147598267 0 0.31622776389122009
vn -0.94868332147598267 0 0.31622776389122009
vn -0.94868332147598267 0 0.31622776389122009
vn -0.94868332147598267 0 0.31622776389122009
vn 0 0 -1
vn 0 0 -1
vn 0 0 -1
vn 0 0 -1
vn 0 0 -1
vn 0 0 -1
vn 0 0 -1
vn 0 0 -1
vn 0 0 -1
vn 0 0 -1
vn 0 0 -1
vn 0 0 -1
vn 0 0 -1
vn 0 0 -1
vn 0 0 -1
vn 0 0 -1
vn 0 0 -1
vn 0 0 -1
vn 0 -1 0
vn 0 -1 0
vn 0 -1 0
vn 0 -1 0
vn 0 -1 0
vn 0 -1 0
vn 0 -1 0
vn 0 -1 0
vn 0 -1 0
vn 0 -1 0
vn 0 -1 0
vn 0 -1 0
vn 0 -1 0
vn 0 -1 0
vn 0 -1 0
vn 0 -1 0
vn 0 -1 0
vn 0 -1 0
vn 0 -1 0
vn 0 -1 0
vn 0 -1 0
vn 0 -1 0
vn 0 -1 0
vn 0 -1 0
vn 0 -1 0
vn 0 -1 0
vn 0 -1 0
vn 0 -1 0
vn 0 -1 0
vn 0 -1 0
vn 0 -1 0
vn 0 -1 0
vn 0 -1 0
vn 0 -1 0
vn 0 -1 0
vn 0 -1 0
vn 0 -1 0
vn 0 -1 0
vn 0 1 0
vn 0 1 0
vn 0 1 0
vn 0 1 0
vn 0 1 0
vn 0 1 0
vn 0 1 0
vn 0 1 0
vn 0 1 0
vn 0 1 0
vn 0 1 0
vn 0 1 0
vn 0 1 0
vn 0 1 0
vn 0 1 0
vn 0 1 0
vn 0 1 0
vn 0 1 0
vn 0 1 0
vn 0 1 0
vn 0 1 0
vn 0 1 0
vn 0 1 0
vn 0 1 0
vn 0 1 0
vn 0 1 0
vn 0 1 0
vn 0 1 0
vn 0 1 0
vn 0 1 0
vn 0 1 0
vn 0 1 0
vn 0 1 0
vn 0 1 0
vn 0 1 0
vn 0 1 0
vn 0 1 0
vn 0 1 0
vn 1 0 0
vn 1 0 0
vn 1 0 0
vn 1 0 0
vn 1 0 0
vn 1 0 0
vn 1 0 0
vn 1 0 0
vn 1 0 0
vn 1 0 0
vn 1 0 0
vn 1 0 0
vn 1 0 0
vn 1 0 0
vn 1 0 0
vn 1 0 0
vn 0 0 1
vn 0 0 1
vn 0 0 1
vn 0 0 1
vn 0 0 1
vn 0 0 1
vn 0 0 1
vn 0 0 1
vn 0 0 1
vn 0 0 1
vn 0 0 1
vn 0 0 1
vn 0 0 1
vn 0 0 1
f 1/1/1 4/4/4 20/20/20 2/2/2
f 5/5/5 6/6/6 18/18/18 19/19/19
f 6/6/6 7/7/7 17/17/17 18/18/18
f 4/4/4 5/5/5 19/19/19 20/20/20
f 16/16/16 17/17/17 7/7/7 8/8/8
f 8/8/8 9/9/9 15/15/15 16/16/16
f 10/10/10 11/11/11 13/13/13 14/14/14
f 11/11/11 3/3/3 12/12/12 13/13/13
f 9/9/9 10/10/10 14/14/14 15/15/15
f 25/25/25 38/38/38 22/22/22 21/21/21
f 27/27/27 36/36/36 37/37/37 26/26/26
f 26/26/26 37/37/37 38/38/38 25/25/25
f 28/28/28 35/35/35 36/36/36 27/27/27
f 30/30/30 33/33/33 34/34/34 29/29/29
f 23/23/23 24/24/24 32/32/32 31/31/31
f 31/31/31 32/32/32 33/33/33 30/30/30
f 29/29/29 34/34/34 35/35/35 28/28/28
f 61/61/61 60/60/60 48/48/48 52/52/52
f 48/48/48 50/50/50 51/51/51 49/49/49
f 52/52/52 48/48/48 49/49/49 53/53/53
f 51/51/51 75/75/75 76/76/76
f 51/51/51 74/74/74 75/75/75
f 40/40/40 76/76/76 39/39/39
f 51/51/51 40/40/40 41/41/41
f 49/49/49 51/51/51 41/41/41 42/42/42
f 43/43/43 49/49/49 42/42/42
f 73/73/73 74/74/74 51/51/51
f 76/76/76 40/40/40 51/51/51
f 72/72/72 73/73/73 50/50/50
f 50/50/50 73/73/73 51/51/51
f 72/72/72 50/50/50 71/71/71
f 60/60/60 70/70/70 71/71/71
f 48/48/48 71/71/71 50/50/50
f 70/70/70 60/60/60 69/69/69
f 68/68/68 69/69/69 67/67/67
f 60/60/60 67/67/67 69/69/69
f 67/67/67 60/60/60 66/66/66
f 48/48/48 60/60/60 71/71/71
f 53/53/53 49/49/49 43/43/43 44/44/44
f 46/46/46 53/53/53 45/45/45
f 44/44/44 45/45/45 53/53/53
f 54/54/54 46/46/46 47/47/47
f 54/54/54 55/55/55 53/53/53
f 55/55/55 56/56/56 52/52/52 53/53/53
f 54/54/54 53/53/53 46/46/46
f 60/60/60 61/61/61 65/65/65 66/66/66
f 63/63/63 64/64/64 61/61/61
f 61/61/61 64/64/64 65/65/65
f 61/61/61 52/52/52 57/57/57 58/58/58
f 58/58/58 59/59/59 61/61/61
f 62/62/62 63/63/63 59/59/59
f 59/59/59 63/63/63 61/61/61
f 57/57/57 52/52/52 56/56/56
f 99/99/99 90/90/90 86/86/86 98/98/98
f 86/86/86 87/87/87 89/89/89 88/88/88
f 90/90/90 91/91/91 87/87/87 86/86/86
f 89/89/89 114/114/114 113/113/113
f 89/89/89 113/113/113 112/112/112
f 78/78/78 77/77/77 114/114/114
f 89/89/89 79/79/79 78/78/78
f 87/87/87 80/80/80 79/79/79 89/89/89
f 81/81/81 80/80/80 87/87/87
f 111/111/111 89/89/89 112/112/112
f 114/114/114 89/89/89 78/78/78
f 110/110/110 88/88/88 111/111/111
f 88/88/88 89/89/89 111/111/111
f 110/110/110 109/109/109 88/88/88
f 98/98/98 109/109/109 108/108/108
f 86/86/86 88/88/88 109/109/109
f 108/108/108 107/107/107 98/98/98
f 106/106/106 105/105/105 107/107/107
f 98/98/98 107/107/107 105/105/105
f 105/105/105 104/104/104 98/98/98
f 86/86/86 109/109/109 98/98/98
f 91/91/91 82/82/82 81/81/81 87/87/87
f 84/84/84 83/83/83 91/91/91
f 82/82/82 91/91/91 83/83/83
f 92/92/92 85/85/85 84/84/84
f 92/92/92 91/91/91 93/93/93
f 93/93/93 91/91/91 90/90/90 94/94/94
f 92/92/92 84/84/84 91/91/91
f 98/98/98 104/104/104 103/103/103 99/99/99
f 101/101/101 99/99/99 102/102/102
f 99/99/99 103/103/103 102/102/102
f 99/99/99 96/96/96 95/95/95 90/90/90
f 96/96/96 99/99/99 97/97/97
f 100/100/100 97/97/97 101/101/101
f 97/97/97 99/99/99 101/101/101
f 95/95/95 94/94/94 90/90/90
f 115/115/115 125/125/125 124/124/124 116/116/116
f 126/126/126 127/127/127 122/122/122 123/123/123
f 125/125/125 126/126/126 123/123/123 124/124/124
f 121/121/121 122/122/122 127/127/127 128/128/128
f 128/128/128 129/129/129 120/120/120 121/121/121
f 130/130/130 117/117/117 118/118/118 119/119/119
f 129/129/129 130/130/130 119/119/119 120/120/120
f 131/131/131 132/132/132 144/144/144 135/135/135
f 135/135/135 144/144/144 143/143/143 136/136/136
f 137/137/137 136/136/136 143/143/143 142/142/142
f 138/138/138 141/141/141 140/140/140 139/139/139
f 139/139/139 140/140/140 134/134/134 133/133/133
f 138/138/138 137/137/137 142/142/142 141/141/141
