# Rhino

g Cubos_Final
o object_1
v 1.897392749786377 0 -0.63243281841278076
v 5.3838357416680083E-05 0 1.3497629879566375E-05
v 2.500053882598877 0 7.5000133514404297
v 5.000053882598877 0 15.00001335144043
v 6.897392749786377 0 14.36756706237793
v 4.397392749786377 0 6.8675670623779297
vt 0.27508565783500671 1
vt 0 0.95954215526580811
vt 0.36245718598365784 0.47977107763290405
vt 0.72491437196731567 0
vt 1 0.040457848459482193
vt 0.63754284381866455 0.52022892236709595
vn 0 1 0
vn 0 1 0
vn 0 1 0
vn 0 1 0
vn 0 1 0
vn 0 1 0
f 1/1/1 2/2/2 3/3/3
f 6/6/6 1/1/1 3/3/3
f 5/5/5 6/6/6 4/4/4
f 3/3/3 4/4/4 6/6/6
o object_2
v 1.897392749786377 15 -0.63243281841278076
v 5.3838357416680083E-05 30 1.3497629879566375E-05
v 1.897392749786377 30 -0.63243281841278076
v 5.3838357416680083E-05 15 1.3497629879566375E-05
v 5.3838357416680083E-05 20 1.3497629879566375E-05
v 5.3838357416680083E-05 25 1.3497629879566375E-05
v 1.897392749786377 25 -0.63243281841278076
v 1.897392749786377 20 -0.63243281841278076
v 5.000053882598877 30 15.00001335144043
v 6.897392749786377 30 14.36756706237793
v 6.897392749786377 15 14.36756706237793
v 5.000053882598877 15 15.00001335144043
v 5.000053882598877 25 15.00001335144043
v 5.000053882598877 20 15.00001335144043
v 6.897392749786377 20 14.36756706237793
v 6.897392749786377 25 14.36756706237793
v 5.000053882598877 30 15.00001335144043
v 5.3838357416680083E-05 30 1.3497629879566375E-05
v 5.3838357416680083E-05 15 1.3497629879566375E-05
v 3.333305835723877 30 10.00001335144043
v 1.666679859161377 30 5.0000133514404297
v 5.3838357416680083E-05 25 1.3497629879566375E-05
v 5.3838357416680083E-05 20 1.3497629879566375E-05
v 2.500053882598877 15 7.5000133514404297
v 5.000053882598877 15 15.00001335144043
v 5.000053882598877 20 15.00001335144043
v 5.000053882598877 25 15.00001335144043
v 6.897392749786377 30 14.36756706237793
v 1.897392749786377 30 -0.63243281841278076
v 1.897392749786377 15 -0.63243281841278076
v 5.230644702911377 30 9.3675670623779297
v 3.564018726348877 30 4.3675670623779297
v 1.897392749786377 25 -0.63243281841278076
v 1.897392749786377 20 -0.63243281841278076
v 4.397392749786377 15 6.8675670623779297
v 6.897392749786377 15 14.36756706237793
v 6.897392749786377 20 14.36756706237793
v 6.897392749786377 25 14.36756706237793
v 1.897392749786377 15 -0.63243281841278076
v 5.3838357416680083E-05 15 1.3497629879566375E-05
v 5.000053882598877 15 15.00001335144043
v 6.897392749786377 15 14.36756706237793
v 2.500053882598877 15 7.5000133514404297
v 4.397392749786377 15 6.8675670623779297
v 5.3838357416680083E-05 30 1.3497629879566375E-05
v 1.897392749786377 30 -0.63243281841278076
v 5.000053882598877 30 15.00001335144043
v 6.897392749786377 30 14.36756706237793
v 1.666679859161377 30 5.0000133514404297
v 3.333305835723877 30 10.00001335144043
v 5.230644702911377 30 9.3675670623779297
v 3.564018726348877 30 4.3675670623779297
vt 0.066666670143604279 0
vt 0.13186849653720856 0.5
vt 0.066666670143604279 0.5
vt 0.13186849653720856 0
vt 0.13186849653720856 0.1666666716337204
vt 0.13186849653720856 0.3333333432674408
vt 0.066666670143604279 0.3333333432674408
vt 0.066666670143604279 0.1666666716337204
vt 0.065201826393604279 0
vt 0 0
vt 0 0.5
vt 0.065201826393604279 0.5
vt 0.065201826393604279 0.1666666716337204
vt 0.065201826393604279 0.3333333432674408
vt 0 0.3333333432674408
vt 0 0.1666666716337204
vt 0.42991220951080322 0
vt 0.95549362897872925 0
vt 0.95549362897872925 0.49853515625
vt 0.60510605573654175 0
vt 0.7802998423576355 0
vt 0.95549362897872925 0.1661783903837204
vt 0.95549362897872925 0.3323567807674408
vt 0.69270294904708862 0.49853515625
vt 0.42991220951080322 0.49853515625
vt 0.42991220951080322 0.3323567807674408
vt 0.42991220951080322 0.1661783903837204
vt 0.42991220951080322 0.5
vt 0.95549362897872925 0.5
vt 0.95549362897872925 0.99853515625
vt 0.60510605573654175 0.5
vt 0.7802998423576355 0.5
vt 0.95549362897872925 0.66617840528488159
vt 0.95549362897872925 0.83235675096511841
vt 0.69270294904708862 0.99853515625
vt 0.42991220951080322 0.99853515625
vt 0.42991220951080322 0.83235675096511841
vt 0.42991220951080322 0.66617840528488159
vt 0.26284259557723999 0.52108186483383179
vt 0.20000000298023224 0.5
vt 0.36560478806495667 0
vt 0.42844736576080322 0.021081849932670593
vt 0.28280240297317505 0.25
vt 0.34564498066902161 0.2710818350315094
vt 0.19853515923023224 0
vt 0.13333334028720856 0
vt 0.19853515923023224 0.52704626321792603
vt 0.13333334028720856 0.52704626321792603
vt 0.19853515923023224 0.17568209767341614
vt 0.19853515923023224 0.35136419534683228
vt 0.13333334028720856 0.35136419534683228
vt 0.13333334028720856 0.17568209767341614
vn -0.31622776389122009 0 -0.94868332147598267
vn -0.31622776389122009 0 -0.94868332147598267
vn -0.31622776389122009 0 -0.94868332147598267
vn -0.31622776389122009 0 -0.94868332147598267
vn -0.31622776389122009 0 -0.94868332147598267
vn -0.31622776389122009 0 -0.94868332147598267
vn -0.31622776389122009 0 -0.94868332147598267
vn -0.31622776389122009 0 -0.94868332147598267
vn 0.31622776389122009 0 0.94868332147598267
vn 0.31622776389122009 0 0.94868332147598267
vn 0.31622776389122009 0 0.94868332147598267
vn 0.31622776389122009 0 0.94868332147598267
vn 0.31622776389122009 0 0.94868332147598267
vn 0.31622776389122009 0 0.94868332147598267
vn 0.31622776389122009 0 0.94868332147598267
vn 0.31622776389122009 0 0.94868332147598267
vn -0.94868332147598267 0 0.31622776389122009
vn -0.94868332147598267 0 0.31622776389122009
vn -0.94868332147598267 0 0.31622776389122009
vn -0.94868332147598267 0 0.31622776389122009
vn -0.94868332147598267 0 0.31622776389122009
vn -0.94868332147598267 0 0.31622776389122009
vn -0.94868332147598267 0 0.31622776389122009
vn -0.94868332147598267 0 0.31622776389122009
vn -0.94868332147598267 0 0.31622776389122009
vn -0.94868332147598267 0 0.31622776389122009
vn -0.94868332147598267 0 0.31622776389122009
vn 0.94868332147598267 0 -0.31622776389122009
vn 0.94868332147598267 0 -0.31622776389122009
vn 0.94868332147598267 0 -0.31622776389122009
vn 0.94868332147598267 0 -0.31622776389122009
vn 0.94868332147598267 0 -0.31622776389122009
vn 0.94868332147598267 0 -0.31622776389122009
vn 0.94868332147598267 0 -0.31622776389122009
vn 0.94868332147598267 0 -0.31622776389122009
vn 0.94868332147598267 0 -0.31622776389122009
vn 0.94868332147598267 0 -0.31622776389122009
vn 0.94868332147598267 0 -0.31622776389122009
vn 0 -1 0
vn 0 -1 0
vn 0 -1 0
vn 0 -1 0
vn 0 -1 0
vn 0 -1 0
vn 0 1 0
vn 0 1 0
vn 0 1 0
vn 0 1 0
vn 0 1 0
vn 0 1 0
vn 0 1 0
vn 0 1 0
f 10/10/10 11/11/11 14/14/14 7/7/7
f 13/13/13 14/14/14 11/11/11 12/12/12
f 12/12/12 8/8/8 9/9/9 13/13/13
f 15/15/15 19/19/19 22/22/22 16/16/16
f 19/19/19 20/20/20 21/21/21 22/22/22
f 20/20/20 18/18/18 17/17/17 21/21/21
f 33/33/33 23/23/23 26/26/26
f 33/33/33 30/30/30 32/32/32
f 32/32/32 30/30/30 31/31/31
f 26/26/26 30/30/30 33/33/33
f 28/28/28 27/27/27 24/24/24
f 30/30/30 27/27/27 28/28/28
f 25/25/25 30/30/30 29/29/29
f 28/28/28 29/29/29 30/30/30
f 26/26/26 27/27/27 30/30/30
f 44/44/44 37/37/37 34/34/34
f 44/44/44 43/43/43 41/41/41
f 43/43/43 42/42/42 41/41/41
f 37/37/37 44/44/44 41/41/41
f 39/39/39 35/35/35 38/38/38
f 41/41/41 39/39/39 38/38/38
f 36/36/36 40/40/40 41/41/41
f 39/39/39 41/41/41 40/40/40
f 37/37/37 41/41/41 38/38/38
f 45/45/45 49/49/49 46/46/46
f 50/50/50 49/49/49 45/45/45
f 48/48/48 47/47/47 50/50/50
f 49/49/49 50/50/50 47/47/47
f 51/51/51 55/55/55 58/58/58 52/52/52
f 55/55/55 56/56/56 57/57/57 58/58/58
f 56/56/56 53/53/53 54/54/54 57/57/57
o object_3
v 15.000053405761719 15 -14.99998664855957
v 15.000053405761719 0 -14.99998664855957
v -4.999946117401123 15 -14.99998664855957
v -4.999946117401123 0 -14.99998664855957
v 5.000053882598877 15 -14.99998664855957
v 5.000053882598877 0 -14.99998664855957
v 15.000053405761719 15 15.00001335144043
v 15.000053405761719 15 -14.99998664855957
v 15.000053405761719 0 15.00001335144043
v 15.000053405761719 0 -14.99998664855957
v 15.000053405761719 7.5 15.00001335144043
v 15.000053405761719 0 1.3497629879566375E-05
v 15.000053405761719 15 1.3497629879566375E-05
v -4.999946117401123 0 -14.99998664855957
v 15.000053405761719 0 -14.99998664855957
v 5.000053882598877 0 -14.99998664855957
v 15.000053405761719 0 15.00001335144043
v 15.000053405761719 0 1.3497629879566375E-05
v 5.000053882598877 0 15.00001335144043
v 5.3838357416680083E-05 0 1.3497629879566375E-05
v -4.999946117401123 0 -14.99998664855957
v 5.000053882598877 15 15.00001335144043
v -4.999946117401123 15 -14.99998664855957
v 5.000053882598877 0 15.00001335144043
v 5.000053882598877 7.5 15.00001335144043
v 5.3838357416680083E-05 15 1.3497629879566375E-05
v 5.3838357416680083E-05 0 1.3497629879566375E-05
v -4.999946117401123 15 -14.99998664855957
v 15.000053405761719 15 15.00001335144043
v 15.000053405761719 15 -14.99998664855957
v 5.000053882598877 15 -14.99998664855957
v 15.000053405761719 15 1.3497629879566375E-05
v 5.000053882598877 15 15.00001335144043
v 5.3838357416680083E-05 15 1.3497629879566375E-05
v 5.000053882598877 15 15.00001335144043
v 5.000053882598877 0 15.00001335144043
v 15.000053405761719 15 15.00001335144043
v 15.000053405761719 0 15.00001335144043
v 15.000053405761719 7.5 15.00001335144043
v 5.000053882598877 7.5 15.00001335144043
vt 0 0.69999998807907104
vt 0 0.94999998807907104
vt 0.3318684995174408 0.69999998807907104
vt 0.3318684995174408 0.94999998807907104
vt 0.1659342497587204 0.69999998807907104
vt 0.1659342497587204 0.94999998807907104
vt 0.5 0
vt 0 0
vt 0.5 0.24853515625
vt 0 0.24853515625
vt 0.5 0.124267578125
vt 0.25 0.24853515625
vt 0.25 0
vt 0.66666668653488159 0.5
vt 0.99853515625 0.5
vt 0.83260089159011841 0.5
vt 0.99853515625 0
vt 0.99853515625 0.25
vt 0.83260089159011841 0
vt 0.7496337890625 0.25
vt 0 0.25
vt 0.52704626321792603 0.49853515625
vt 0 0.49853515625
vt 0.52704626321792603 0.25
vt 0.52704626321792603 0.374267578125
vt 0.26352313160896301 0.49853515625
vt 0.26352313160896301 0.25
vt 0.3333333432674408 0.99853515625
vt 0.66520184278488159 0.5
vt 0.66520184278488159 0.99853515625
vt 0.499267578125 0.99853515625
vt 0.66520184278488159 0.749267578125
vt 0.499267578125 0.5
vt 0.4163004457950592 0.749267578125
vt 0.25 0.5
vt 0 0.5
vt 0.25 0.66666668653488159
vt 0 0.66666668653488159
vt 0.125 0.66666668653488159
vt 0.125 0.5
vn 0 0 -1
vn 0 0 -1
vn 0 0 -1
vn 0 0 -1
vn 0 0 -1
vn 0 0 -1
vn 1 0 0
vn 1 0 0
vn 1 0 0
vn 1 0 0
vn 1 0 0
vn 1 0 0
vn 1 0 0
vn 0 -1 0
vn 0 -1 0
vn 0 -1 0
vn 0 -1 0
vn 0 -1 0
vn 0 -1 0
vn 0 -1 0
vn -0.94868332147598267 0 0.31622776389122009
vn -0.94868332147598267 0 0.31622776389122009
vn -0.94868332147598267 0 0.31622776389122009
vn -0.94868332147598267 0 0.31622776389122009
vn -0.94868332147598267 0 0.31622776389122009
vn -0.94868332147598267 0 0.31622776389122009
vn -0.94868332147598267 0 0.31622776389122009
vn 0 1 0
vn 0 1 0
vn 0 1 0
vn 0 1 0
vn 0 1 0
vn 0 1 0
vn 0 1 0
vn 0 0 1
vn 0 0 1
vn 0 0 1
vn 0 0 1
vn 0 0 1
vn 0 0 1
f 60/60/60 64/64/64 63/63/63 59/59/59
f 61/61/61 63/63/63 64/64/64 62/62/62
f 69/69/69 71/71/71 65/65/65
f 66/66/66 71/71/71 70/70/70 68/68/68
f 70/70/70 69/69/69 67/67/67
f 69/69/69 70/70/70 71/71/71
f 74/74/74 78/78/78 72/72/72
f 76/76/76 78/78/78 74/74/74
f 76/76/76 75/75/75 77/77/77
f 76/76/76 74/74/74 73/73/73
f 77/77/77 78/78/78 76/76/76
f 79/79/79 85/85/85 84/84/84 81/81/81
f 85/85/85 83/83/83 84/84/84
f 83/83/83 80/80/80 84/84/84
f 82/82/82 83/83/83 85/85/85
f 89/89/89 86/86/86 92/92/92
f 90/90/90 89/89/89 92/92/92
f 90/90/90 91/91/91 87/87/87
f 90/90/90 88/88/88 89/89/89
f 91/91/91 90/90/90 92/92/92
f 98/98/98 97/97/97 95/95/95 93/93/93
f 94/94/94 96/96/96 97/97/97 98/98/98
o object_4
v -3.246650218963623 17.75 -14.99998664855957
v -3.246650218963623 16.75 -14.99998664855957
v -4.999946117401123 17.75 -14.99998664855957
v -4.999946117401123 16.75 -14.99998664855957
v -4.123359203338623 17.75 -14.99998664855957
v -4.123359203338623 16.75 -14.99998664855957
v 5.3838357416680083E-05 17.75 1.3497629879566375E-05
v 5.3838357416680083E-05 16.75 1.3497629879566375E-05
v -4.999946117401123 16.75 -14.99998664855957
v -4.999946117401123 17.75 -14.99998664855957
v -1.249946117401123 17.75 -3.7499864101409912
v -2.499946117401123 17.75 -7.4999866485595703
v -3.749946117401123 17.75 -11.24998664855957
v -3.749946117401123 16.75 -11.24998664855957
v -2.499946117401123 16.75 -7.4999866485595703
v -1.249946117401123 16.75 -3.7499864101409912
v 1.897392749786377 17.75 -0.63243281841278076
v 1.897392749786377 16.75 -0.63243281841278076
v 5.3838357416680083E-05 17.75 1.3497629879566375E-05
v 5.3838357416680083E-05 16.75 1.3497629879566375E-05
v 0.94866222143173218 17.75 -0.31627067923545837
v 0.94866222143173218 16.75 -0.31627067923545837
v -3.246650218963623 16.75 -14.99998664855957
v 1.897392749786377 17.75 -0.63243281841278076
v 1.897392749786377 16.75 -0.63243281841278076
v -3.246650218963623 17.75 -14.99998664855957
v -1.960639476776123 17.75 -11.40812873840332
v -0.67462879419326782 17.75 -7.8162097930908203
v 0.61138194799423218 17.75 -4.2243518829345703
v 0.61138194799423218 16.75 -4.2243518829345703
v -0.67462879419326782 16.75 -7.8162097930908203
v -1.960639476776123 16.75 -11.40812873840332
v -3.246650218963623 17.75 -14.99998664855957
v -4.123359203338623 17.75 -14.99998664855957
v 5.3838357416680083E-05 17.75 1.3497629879566375E-05
v 0.94866222143173218 17.75 -0.31627067923545837
v 1.897392749786377 17.75 -0.63243281841278076
v 0.61138194799423218 17.75 -4.2243518829345703
v -0.67462879419326782 17.75 -7.8162097930908203
v -1.960639476776123 17.75 -11.40812873840332
v -4.999946117401123 17.75 -14.99998664855957
v -3.749946117401123 17.75 -11.24998664855957
v -2.499946117401123 17.75 -7.4999866485595703
v -1.249946117401123 17.75 -3.7499864101409912
v -4.999946117401123 16.75 -14.99998664855957
v -3.246650218963623 16.75 -14.99998664855957
v -4.123359203338623 16.75 -14.99998664855957
v 5.3838357416680083E-05 16.75 1.3497629879566375E-05
v 0.94866222143173218 16.75 -0.31627067923545837
v 1.897392749786377 16.75 -0.63243281841278076
v 0.61138194799423218 16.75 -4.2243518829345703
v -0.67462879419326782 16.75 -7.8162097930908203
v -1.960639476776123 16.75 -11.40812873840332
v -3.749946117401123 16.75 -11.24998664855957
v -2.499946117401123 16.75 -7.4999866485595703
v -1.249946117401123 16.75 -3.7499864101409912
vt 0.057306591421365738 0
vt 0 0
vt 0.057306591421365738 0.10047735273838043
vt 0 0.10047735273838043
vt 0.057306591421365738 0.050238676369190216
vt 0 0.050238676369190216
vt 0.92304408550262451 0
vt 0.86720234155654907 0
vt 0.86720234155654907 0.90609675645828247
vt 0.92304408550262451 0.90609675645828247
vt 0.92304408550262451 0.22652418911457062
vt 0.92304408550262451 0.45304837822914124
vt 0.92304408550262451 0.67957258224487305
vt 0.86720234155654907 0.67957258224487305
vt 0.86720234155654907 0.45304837822914124
vt 0.86720234155654907 0.22652418911457062
vt 0.25978052616119385 0
vt 0.20247393846511841 0
vt 0.25978052616119385 0.11314833909273148
vt 0.20247393846511841 0.11314833909273148
vt 0.25978052616119385 0.056574169546365738
vt 0.20247393846511841 0.056574169546365738
vt 0.80989575386047363 0
vt 0.86573749780654907 0.87453585863113403
vt 0.80989575386047363 0.87453585863113403
vt 0.86573749780654907 0
vt 0.86573749780654907 0.21863396465778351
vt 0.86573749780654907 0.43726792931556702
vt 0.86573749780654907 0.65590184926986694
vt 0.80989575386047363 0.65590184926986694
vt 0.80989575386047363 0.43726792931556702
vt 0.80989575386047363 0.21863396465778351
vt 0.1001138910651207 0.99853515625
vt 0.050056945532560349 0.99853515625
vt 0.28549644351005554 0.14035847783088684
vt 0.33966562151908875 0.15845043957233429
vt 0.39383473992347717 0.17654238641262054
vt 0.3204045295715332 0.3820405900478363
vt 0.24697431921958923 0.58753877878189087
vt 0.17354410886764526 0.79303699731826782
vt 0 0.99853515625
vt 0.071374110877513885 0.78399097919464111
vt 0.14274822175502777 0.56944680213928223
vt 0.21412234008312225 0.35490265488624573
vt 0.40494787693023682 0.88538682460784912
vt 0.50506174564361572 0.88538682460784912
vt 0.45500481128692627 0.88538682460784912
vt 0.69044435024261475 0.025787966325879097
vt 0.74461346864700317 0.043909899890422821
vt 0.7987825870513916 0.062031835317611694
vt 0.72535240650177002 0.26787057518959045
vt 0.65192216634750366 0.47370931506156921
vt 0.57849198579788208 0.67954808473587036
vt 0.47632196545600891 0.67048710584640503
vt 0.54769611358642578 0.45558735728263855
vt 0.61907023191452026 0.24068766832351685
vn 0 0 -1
vn 0 0 -1
vn 0 0 -1
vn 0 0 -1
vn 0 0 -1
vn 0 0 -1
vn -0.94868332147598267 0 0.31622776389122009
vn -0.94868332147598267 0 0.31622776389122009
vn -0.94868332147598267 0 0.31622776389122009
vn -0.94868332147598267 0 0.31622776389122009
vn -0.94868332147598267 0 0.31622776389122009
vn -0.94868332147598267 0 0.31622776389122009
vn -0.94868332147598267 0 0.31622776389122009
vn -0.94868332147598267 0 0.31622776389122009
vn -0.94868332147598267 0 0.31622776389122009
vn -0.94868332147598267 0 0.31622776389122009
vn 0.31622776389122009 0 0.94868332147598267
vn 0.31622776389122009 0 0.94868332147598267
vn 0.31622776389122009 0 0.94868332147598267
vn 0.31622776389122009 0 0.94868332147598267
vn 0.31622776389122009 0 0.94868332147598267
vn 0.31622776389122009 0 0.94868332147598267
vn 0.94147652387619019 0 -0.33707848191261292
vn 0.94147652387619019 0 -0.33707848191261292
vn 0.94147652387619019 0 -0.33707848191261292
vn 0.94147652387619019 0 -0.33707848191261292
vn 0.94147652387619019 0 -0.33707848191261292
vn 0.94147652387619019 0 -0.33707848191261292
vn 0.94147652387619019 0 -0.33707848191261292
vn 0.94147652387619019 0 -0.33707848191261292
vn 0.94147652387619019 0 -0.33707848191261292
vn 0.94147652387619019 0 -0.33707848191261292
vn 0 1 0
vn 0 1 0
vn 0 1 0
vn 0 1 0
vn 0 1 0
vn 0 1 0
vn 0 1 0
vn 0 1 0
vn 0 1 0
vn 0 1 0
vn 0 1 0
vn 0 1 0
vn 0 -1 0
vn 0 -1 0
vn 0 -1 0
vn 0 -1 0
vn 0 -1 0
vn 0 -1 0
vn 0 -1 0
vn 0 -1 0
vn 0 -1 0
vn 0 -1 0
vn 0 -1 0
vn 0 -1 0
f 99/99/99 100/100/100 104/104/104 103/103/103
f 102/102/102 101/101/101 103/103/103 104/104/104
f 105/105/105 109/109/109 114/114/114 106/106/106
f 109/109/109 110/110/110 113/113/113 114/114/114
f 111/111/111 108/108/108 107/107/107 112/112/112
f 112/112/112 113/113/113 110/110/110 111/111/111
f 120/120/120 116/116/116 115/115/115 119/119/119
f 119/119/119 117/117/117 118/118/118 120/120/120
f 124/124/124 125/125/125 130/130/130 121/121/121
f 129/129/129 130/130/130 125/125/125 126/126/126
f 127/127/127 122/122/122 123/123/123 128/128/128
f 128/128/128 129/129/129 126/126/126 127/127/127
f 138/138/138 140/140/140 141/141/141
f 137/137/137 138/138/138 141/141/141
f 131/131/131 140/140/140 138/138/138
f 140/140/140 132/132/132 139/139/139
f 140/140/140 131/131/131 132/132/132
f 134/134/134 136/136/136 133/133/133
f 135/135/135 136/136/136 134/134/134
f 137/137/137 142/142/142 136/136/136
f 133/133/133 136/136/136 142/142/142
f 141/141/141 142/142/142 137/137/137
f 151/151/151 153/153/153 152/152/152
f 150/150/150 153/153/153 151/151/151
f 144/144/144 151/151/151 152/152/152
f 152/152/152 143/143/143 145/145/145
f 152/152/152 145/145/145 144/144/144
f 147/147/147 146/146/146 149/149/149
f 148/148/148 147/147/147 149/149/149
f 150/150/150 149/149/149 154/154/154
f 146/146/146 154/154/154 149/149/149
f 153/153/153 150/150/150 154/154/154
