# Rhino

g Cubos_Final
o object_1
v 15.000053405761719 0 15.00001335144043
v 15.000053405761719 0 1.3497639884008095E-05
v -14.999946594238281 0 -14.99998664855957
v -14.999946594238281 0 1.3497639884008095E-05
v 15.000053405761719 0 -14.99998664855957
v 5.3838357416680083E-05 0 -14.99998664855957
v -14.999946594238281 0 15.00001335144043
v 5.3838357416680083E-05 0 15.00001335144043
v 15.000053405761719 15 15.00001335144043
v 15.000053405761719 0 -14.99998664855957
v 15.000053405761719 0 15.00001335144043
v 15.000053405761719 0 1.3497639884008095E-05
v 15.000053405761719 15 -14.99998664855957
v 15.000053405761719 15 1.3497639884008095E-05
v 15.000053405761719 15 15.00001335144043
v 15.000053405761719 15 -14.99998664855957
v 15.000053405761719 15 1.3497639884008095E-05
v 5.3838357416680083E-05 15 -14.99998664855957
v -14.999946594238281 15 15.00001335144043
v 5.3838357416680083E-05 15 15.00001335144043
v -14.999946594238281 15 -14.99998664855957
v -14.999946594238281 15 1.3497639884008095E-05
v -14.999946594238281 15 15.00001335144043
v -14.999946594238281 0 -14.99998664855957
v -14.999946594238281 15 -14.99998664855957
v -14.999946594238281 15 1.3497639884008095E-05
v -14.999946594238281 0 15.00001335144043
v -14.999946594238281 0 1.3497639884008095E-05
v 15.000053405761719 15 -14.99998664855957
v 15.000053405761719 0 -14.99998664855957
v -14.999946594238281 15 -14.99998664855957
v -14.999946594238281 0 -14.99998664855957
v 5.3838357416680083E-05 15 -14.99998664855957
v 5.3838357416680083E-05 0 -14.99998664855957
v 15.000053405761719 15 15.00001335144043
v 15.000053405761719 0 15.00001335144043
v -14.999946594238281 15 15.00001335144043
v -14.999946594238281 0 15.00001335144043
v 5.3838357416680083E-05 15 15.00001335144043
v 5.3838357416680083E-05 0 15.00001335144043
vt 0.99853515625 0.99853515625
vt 0.749267578125 0.99853515625
vt 0.5 0.5
vt 0.749267578125 0.5
vt 0.5 0.99853515625
vt 0.5 0.749267578125
vt 0.99853515625 0.5
vt 0.99853515625 0.749267578125
vt 0 0.99853515625
vt 0.49853515625 0.75
vt 0 0.75
vt 0.249267578125 0.75
vt 0.49853515625 0.99853515625
vt 0.249267578125 0.99853515625
vt 0.99853515625 0.49853515625
vt 0.5 0.49853515625
vt 0.749267578125 0.49853515625
vt 0.5 0.249267578125
vt 0.99853515625 0
vt 0.99853515625 0.249267578125
vt 0.5 0
vt 0.749267578125 0
vt 0 0.74853515625
vt 0.49853515625 0.5
vt 0.49853515625 0.74853515625
vt 0.249267578125 0.74853515625
vt 0 0.5
vt 0.249267578125 0.5
vt 0 0.25
vt 0 0.49853515625
vt 0.49853515625 0.25
vt 0.49853515625 0.49853515625
vt 0.249267578125 0.25
vt 0.249267578125 0.49853515625
vt 0 0
vt 0 0.24853515625
vt 0.49853515625 0
vt 0.49853515625 0.24853515625
vt 0.249267578125 0
vt 0.249267578125 0.24853515625
vn 0 -1 0
vn 0 -1 0
vn 0 -1 0
vn 0 -1 0
vn 0 -1 0
vn 0 -1 0
vn 0 -1 0
vn 0 -1 0
vn 1 0 0
vn 1 0 0
vn 1 0 0
vn 1 0 0
vn 1 0 0
vn 1 0 0
vn 0 1 0
vn 0 1 0
vn 0 1 0
vn 0 1 0
vn 0 1 0
vn 0 1 0
vn 0 1 0
vn 0 1 0
vn -1 0 0
vn -1 0 0
vn -1 0 0
vn -1 0 0
vn -1 0 0
vn -1 0 0
vn 0 0 -1
vn 0 0 -1
vn 0 0 -1
vn 0 0 -1
vn 0 0 -1
vn 0 0 -1
vn 0 0 1
vn 0 0 1
vn 0 0 1
vn 0 0 1
vn 0 0 1
vn 0 0 1
f 4/4/4 8/8/8 7/7/7
f 4/4/4 3/3/3 6/6/6
f 6/6/6 8/8/8 4/4/4
f 8/8/8 6/6/6 2/2/2
f 2/2/2 6/6/6 5/5/5
f 1/1/1 8/8/8 2/2/2
f 14/14/14 9/9/9 11/11/11 12/12/12
f 12/12/12 10/10/10 13/13/13 14/14/14
f 22/22/22 19/19/19 20/20/20
f 22/22/22 18/18/18 21/21/21
f 17/17/17 22/22/22 20/20/20
f 22/22/22 17/17/17 18/18/18
f 17/17/17 16/16/16 18/18/18
f 15/15/15 17/17/17 20/20/20
f 26/26/26 28/28/28 27/27/27 23/23/23
f 28/28/28 26/26/26 25/25/25 24/24/24
f 29/29/29 30/30/30 34/34/34 33/33/33
f 32/32/32 31/31/31 33/33/33 34/34/34
f 36/36/36 35/35/35 39/39/39 40/40/40
f 37/37/37 38/38/38 40/40/40 39/39/39
