# Rhino

g Cubos_Final
o object_1
v -4.999946117401123 30 -14.99998664855957
v 5.000053882598877 0 15.00001335144043
v -4.999946117401123 0 -14.99998664855957
v -4.999946117401123 15 -14.99998664855957
v 5.000053882598877 30 15.00001335144043
v 5.000053882598877 15 15.00001335144043
v 5.3838357416680083E-05 30 1.3497629879566375E-05
v 1.666679859161377 0 5.0000133514404297
v -1.666694164276123 0 -4.9999866485595703
v -4.999946117401123 30 -14.99998664855957
v 15.000053405761719 26.25 -14.99998664855957
v 5.000053882598877 30 15.00001335144043
v 15.000053405761719 27.857139587402344 15.00001335144043
v 15.000053405761719 27.413787841796875 7.5024547576904297
v 15.000053405761719 26.999908447265625 0.0030652554705739021
v 15.000053405761719 26.612869262695313 -7.4979114532470703
v 5.3838357416680083E-05 30 1.3497629879566375E-05
v 15.000053405761719 0 -14.99998664855957
v 5.000053882598877 0 15.00001335144043
v 1.666679859161377 0 5.0000133514404297
v -1.666694164276123 0 -4.9999866485595703
v 15.000053405761719 0 15.00001335144043
v 15.000053405761719 0 1.3497629879566375E-05
v -4.999946117401123 0 -14.99998664855957
v 5.000053882598877 0 -14.99998664855957
v 5.000053882598877 30 15.00001335144043
v 15.000053405761719 27.857139587402344 15.00001335144043
v 5.000053882598877 0 15.00001335144043
v 15.000053405761719 0 15.00001335144043
v 5.000053882598877 15 15.00001335144043
v 15.000053405761719 13.928573608398438 15.00001335144043
v 15.000053405761719 26.25 -14.99998664855957
v 15.000053405761719 0 -14.99998664855957
v 15.000053405761719 27.857139587402344 15.00001335144043
v 15.000053405761719 0 15.00001335144043
v 15.000053405761719 13.928573608398438 15.00001335144043
v 15.000053405761719 0 1.3497629879566375E-05
v 15.000053405761719 13.125 -14.99998664855957
v -4.999946117401123 0 -14.99998664855957
v -4.999946117401123 30 -14.99998664855957
v 15.000053405761719 0 -14.99998664855957
v 15.000053405761719 26.25 -14.99998664855957
v -4.999946117401123 15 -14.99998664855957
v 15.000053405761719 13.125 -14.99998664855957
v 5.000053882598877 0 -14.99998664855957
vt 0 0.41225078701972961
vt 0.43791550397872925 0.82908356189727783
vt 0 0.82908356189727783
vt 0 0.62066715955734253
vt 0.43791550397872925 0.41225078701972961
vt 0.43791550397872925 0.62066715955734253
vt 0.21895775198936462 0.41225078701972961
vt 0.29194369912147522 0.82908356189727783
vt 0.14597184956073761 0.82908356189727783
vt 0.71726888418197632 0.85474830865859985
vt 0.99853515625 0.85474830865859985
vt 0.71726888418197632 0.41683280467987061
vt 0.87799245119094849 0.41683280467987061
vt 0.91123491525650024 0.52627575397491455
vt 0.94226986169815063 0.63574659824371338
vt 0.97130823135375977 0.74523937702178955
vt 0.71726888418197632 0.63579058647155762
vt 0.71580404043197632 0.41683280467987061
vt 0.43938034772872925 0.85474830865859985
vt 0.43938034772872925 0.70877647399902344
vt 0.43938034772872925 0.56280463933944702
vt 0.61214518547058105 0.85474830865859985
vt 0.66978645324707031 0.63580846786499023
vt 0.43938034772872925 0.41683280467987061
vt 0.57759219408035278 0.41683280467987061
vt 0.58147889375686646 0
vt 0.43938034772872925 0
vt 0.58147889375686646 0.41536796092987061
vt 0.43938034772872925 0.41536796092987061
vt 0.58147889375686646 0.2076839804649353
vt 0.43938034772872925 0.2076839804649353
vt 0 0
vt 0 0.38705903291702271
vt 0.41743052005767822 0
vt 0.41743052005767822 0.38705903291702271
vt 0.41743052005767822 0.19352951645851135
vt 0.20871526002883911 0.38705903291702271
vt 0 0.19352951645851135
vt 0.62689840793609619 0
vt 0.62689840793609619 0.41536796092987061
vt 0.90962952375411987 0
vt 0.90962952375411987 0.41536796092987061
vt 0.62689840793609619 0.2076839804649353
vt 0.90962952375411987 0.2076839804649353
vt 0.76826393604278564 0
vn -0.94868332147598267 0 0.31622776389122009
vn -0.94868332147598267 0 0.31622776389122009
vn -0.94868332147598267 0 0.31622776389122009
vn -0.94868332147598267 0 0.31622776389122009
vn -0.94868332147598267 0 0.31622776389122009
vn -0.94868332147598267 0 0.31622776389122009
vn -0.94868332147598267 0 0.31622776389122009
vn -0.94868332147598267 0 0.31622776389122009
vn -0.94868332147598267 0 0.31622776389122009
vn 0.1839417964220047 0.98102295398712158 -0.061313934624195099
vn 0.18409325182437897 0.98183071613311768 -0.046023312956094742
vn 0.20901989936828613 0.97542619705200195 -0.069673299789428711
vn 0.2091546356678009 0.97605496644973755 -0.059758465737104416
vn 0.2022920697927475 0.97773396968841553 -0.055805351585149765
vn 0.19585099816322327 0.97924190759658813 -0.052227631211280823
vn 0.18979546427726746 0.98060119152069092 -0.048979900777339935
vn 0.19569842517375946 0.97849208116531372 -0.065232805907726288
vn 0 -1 0
vn 0 -1 0
vn 0 -1 0
vn 0 -1 0
vn 0 -1 0
vn 0 -1 0
vn 0 -1 0
vn 0 -1 0
vn 0 0 1
vn 0 0 1
vn 0 0 1
vn 0 0 1
vn 0 0 1
vn 0 0 1
vn 1 0 0
vn 1 0 0
vn 1 0 0
vn 1 0 0
vn 1 0 0
vn 1 0 0
vn 1 0 0
vn 0 0 -1
vn 0 0 -1
vn 0 0 -1
vn 0 0 -1
vn 0 0 -1
vn 0 0 -1
vn 0 0 -1
f 7/7/7 4/4/4 9/9/9
f 4/4/4 3/3/3 9/9/9
f 7/7/7 1/1/1 4/4/4
f 6/6/6 5/5/5 7/7/7
f 2/2/2 6/6/6 8/8/8
f 7/7/7 8/8/8 6/6/6
f 9/9/9 8/8/8 7/7/7
f 17/17/17 12/12/12 13/13/13
f 17/17/17 15/15/15 10/10/10
f 14/14/14 17/17/17 13/13/13
f 10/10/10 15/15/15 16/16/16
f 16/16/16 11/11/11 10/10/10
f 15/15/15 17/17/17 14/14/14
f 23/23/23 21/21/21 25/25/25
f 25/25/25 21/21/21 24/24/24
f 23/23/23 25/25/25 18/18/18
f 20/20/20 23/23/23 22/22/22
f 22/22/22 19/19/19 20/20/20
f 21/21/21 23/23/23 20/20/20
f 27/27/27 26/26/26 30/30/30 31/31/31
f 28/28/28 29/29/29 31/31/31 30/30/30
f 38/38/38 32/32/32 34/34/34 36/36/36
f 37/37/37 33/33/33 38/38/38
f 38/38/38 36/36/36 37/37/37
f 36/36/36 35/35/35 37/37/37
f 45/45/45 39/39/39 43/43/43
f 40/40/40 42/42/42 44/44/44 43/43/43
f 44/44/44 41/41/41 45/45/45
f 45/45/45 43/43/43 44/44/44
