# Rhino

g Cubos_Final
o object_1
v 15.000053405761719 0 -14.99998664855957
v 15.000053405761719 0 15.00001335144043
v 15.000053405761719 0 1.3497639884008095E-05
v -14.999946594238281 0 -14.99998664855957
v 5.3838357416680083E-05 0 -14.99998664855957
v -14.999946594238281 0 15.00001335144043
v -14.999946594238281 0 1.3497639884008095E-05
v 5.3838357416680083E-05 0 15.00001335144043
v 15.000053405761719 0 -14.99998664855957
v -14.999946594238281 25 -14.99998664855957
v 5.3838357416680083E-05 0 -14.99998664855957
v 15.000053405761719 20 -14.99998664855957
v 5.3838357416680083E-05 22.5 -14.99998664855957
v -14.999946594238281 0 -14.99998664855957
v -14.999946594238281 12.5 -14.99998664855957
v 15.000053405761719 20 -14.99998664855957
v 15.000053405761719 20.625 15.00001335144043
v 15.000053405761719 20.454513549804688 7.5003185272216797
v 15.000053405761719 20.294059753417969 0.00037970856647007167
v -14.999946594238281 26.25 15.00001335144043
v 5.3838357416680083E-05 23.4375 15.00001335144043
v -14.999946594238281 25 -14.99998664855957
v -14.999946594238281 25.285682678222656 -7.4988880157470703
v -14.999946594238281 25.588172912597656 0.0016004117205739021
v -14.999946594238281 25.909065246582031 7.5012950897216797
v 5.3838357416680083E-05 22.5 -14.99998664855957
v 15.000053405761719 0 15.00001335144043
v 15.000053405761719 20.625 15.00001335144043
v 15.000053405761719 0 -14.99998664855957
v 15.000053405761719 20 -14.99998664855957
v 15.000053405761719 0 1.3497639884008095E-05
v 15.000053405761719 10.3125 15.00001335144043
v -14.999946594238281 0 -14.99998664855957
v -14.999946594238281 25 -14.99998664855957
v -14.999946594238281 25.625 1.3497639884008095E-05
v -14.999946594238281 0 15.00001335144043
v -14.999946594238281 26.25 15.00001335144043
v -14.999946594238281 0 1.3497639884008095E-05
v -14.999946594238281 13.125 15.00001335144043
v -14.999946594238281 12.5 -14.99998664855957
v 15.000053405761719 0 15.00001335144043
v 15.000053405761719 20.625 15.00001335144043
v -14.999946594238281 0 15.00001335144043
v -14.999946594238281 26.25 15.00001335144043
v 5.3838357416680083E-05 23.4375 15.00001335144043
v 15.000053405761719 10.3125 15.00001335144043
v -14.999946594238281 13.125 15.00001335144043
v 5.3838357416680083E-05 0 15.00001335144043
vt 0 0.3378460705280304
vt 0.33278489112854004 0.3378460705280304
vt 0.16639244556427002 0.3378460705280304
vt 0 0.66560488939285278
vt 0 0.50172543525695801
vt 0.33278489112854004 0.73115664720535278
vt 0.16639634966850281 0.69537955522537231
vt 0.33278489112854004 0.53450137376785278
vt 0.33424973487854004 0.56318026781082153
vt 0.66506469249725342 0.83484774827957153
vt 0.49965721368789673 0.56318026781082153
vt 0.33424973487854004 0.83484774827957153
vt 0.49965721368789673 0.83484774827957153
vt 0.66506469249725342 0.56318026781082153
vt 0.66506469249725342 0.69901400804519653
vt 0.4153498113155365 0.3363812267780304
vt 0.37381482124328613 0
vt 0.38514202833175659 0.0840916708111763
vt 0.39580339193344116 0.16818612813949585
vt 0 0
vt 0.18690741062164307 0
vt 0.083069965243339539 0.3363812267780304
vt 0.064079731702804565 0.2522735595703125
vt 0.043973814696073532 0.16817271709442139
vt 0.022651586681604385 0.084080785512924194
vt 0.24920989573001862 0.3363812267780304
vt 0.33424973487854004 0.3378460705280304
vt 0.33424973487854004 0.56171542406082153
vt 0.66207963228225708 0.3378460705280304
vt 0.66207963228225708 0.56171542406082153
vt 0.49816468358039856 0.3378460705280304
vt 0.33424973487854004 0.44978073239326477
vt 0.66652953624725342 0
vt 0.66652953624725342 0.28678897023200989
vt 0.8305511474609375 0.28678897023200989
vt 0.99457275867462158 0
vt 0.99457275867462158 0.28678897023200989
vt 0.8305511474609375 0
vt 0.99457275867462158 0.14339448511600494
vt 0.66652953624725342 0.14339448511600494
vt 0.66652953624725342 0.41815629601478577
vt 0.66652953624725342 0.70494526624679565
vt 0.99853515625 0.41815629601478577
vt 0.99853515625 0.70494526624679565
vt 0.83253234624862671 0.70494526624679565
vt 0.66652953624725342 0.5615507960319519
vt 0.99853515625 0.5615507960319519
vt 0.83253234624862671 0.41815629601478577
vn 0 -1 0
vn 0 -1 0
vn 0 -1 0
vn 0 -1 0
vn 0 -1 0
vn 0 -1 0
vn 0 -1 0
vn 0 -1 0
vn 0 0 -1
vn 0 0 -1
vn 0 0 -1
vn 0 0 -1
vn 0 0 -1
vn 0 0 -1
vn 0 0 -1
vn 0.16437156498432159 0.98622941970825195 -0.018263507634401321
vn 0.18423965573310852 0.98261147737503052 -0.023029956966638565
vn 0.17884363234043121 0.98363864421844482 -0.021678045392036438
vn 0.17374928295612335 0.98457777500152588 -0.020441124215722084
vn 0.18409325182437897 0.98183071613311768 -0.046023312956094742
vn 0.18417862057685852 0.98228591680526733 -0.034533489495515823
vn 0.16428938508033752 0.98573631048202515 -0.036508753895759583
vn 0.16883863508701324 0.98488789796829224 -0.038591846823692322
vn 0.17364127933979034 0.98396110534667969 -0.040857028216123581
vn 0.17871837317943573 0.98294585943222046 -0.043325897306203842
vn 0.16433730721473694 0.98602384328842163 -0.027389552444219589
vn 1 0 0
vn 1 0 0
vn 1 0 0
vn 1 0 0
vn 1 0 0
vn 1 0 0
vn -1 0 0
vn -1 0 0
vn -1 0 0
vn -1 0 0
vn -1 0 0
vn -1 0 0
vn -1 0 0
vn -1 0 0
vn 0 0 1
vn 0 0 1
vn 0 0 1
vn 0 0 1
vn 0 0 1
vn 0 0 1
vn 0 0 1
vn 0 0 1
f 5/5/5 1/1/1 3/3/3
f 5/5/5 7/7/7 4/4/4
f 7/7/7 5/5/5 3/3/3
f 3/3/3 8/8/8 7/7/7
f 8/8/8 6/6/6 7/7/7
f 2/2/2 8/8/8 3/3/3
f 9/9/9 11/11/11 13/13/13 12/12/12
f 11/11/11 15/15/15 13/13/13
f 15/15/15 10/10/10 13/13/13
f 14/14/14 15/15/15 11/11/11
f 21/21/21 25/25/25 20/20/20
f 19/19/19 23/23/23 24/24/24
f 26/26/26 22/22/22 23/23/23
f 24/24/24 25/25/25 21/21/21
f 18/18/18 21/21/21 17/17/17
f 19/19/19 21/21/21 18/18/18
f 16/16/16 26/26/26 19/19/19
f 19/19/19 26/26/26 23/23/23
f 21/21/21 19/19/19 24/24/24
f 31/31/31 32/32/32 27/27/27
f 30/30/30 28/28/28 32/32/32
f 30/30/30 31/31/31 29/29/29
f 32/32/32 31/31/31 30/30/30
f 38/38/38 35/35/35 40/40/40
f 40/40/40 35/35/35 34/34/34
f 38/38/38 40/40/40 33/33/33
f 39/39/39 38/38/38 36/36/36
f 39/39/39 37/37/37 35/35/35
f 38/38/38 39/39/39 35/35/35
f 46/46/46 48/48/48 41/41/41
f 46/46/46 42/42/42 45/45/45
f 45/45/45 48/48/48 46/46/46
f 48/48/48 45/45/45 47/47/47
f 47/47/47 45/45/45 44/44/44
f 43/43/43 48/48/48 47/47/47
