# Rhino

g Cubos_Final
o object_1
v 15.000053405761719 0 15.00001335144043
v 15.000053405761719 0 -14.99998664855957
v 15.000053405761719 0 1.3497639884008095E-05
v -14.999946594238281 0 -14.99998664855957
v 5.3838357416680083E-05 0 -14.99998664855957
v 5.3838357416680083E-05 0 15.00001335144043
v -14.999946594238281 0 15.00001335144043
v -14.999946594238281 0 1.3497639884008095E-05
v 15.000053405761719 20.625 -14.99998664855957
v 5.3838357416680083E-05 23.4375 -14.99998664855957
v -14.999946594238281 26.25 -14.99998664855957
v -14.999946594238281 27.857139587402344 15.00001335144043
v 5.3838357416680083E-05 24.642860412597656 15.00001335144043
v 15.000053405761719 21.428573608398438 15.00001335144043
v 15.000053405761719 21.206840515136719 7.5006237030029297
v 15.000053405761719 20.999893188476563 0.00074591953307390213
v 15.000053405761719 20.806396484375 -7.4994983673095703
v -14.999946594238281 26.612869262695313 -7.4979114532470703
v -14.999946594238281 26.999908447265625 0.0030652554705739021
v -14.999946594238281 27.413787841796875 7.5024547576904297
v 15.000053405761719 20.625 -14.99998664855957
v 15.000053405761719 0 -14.99998664855957
v 15.000053405761719 21.026786804199219 1.3497639884008095E-05
v 15.000053405761719 21.428573608398438 15.00001335144043
v 15.000053405761719 0 15.00001335144043
v 15.000053405761719 0 1.3497639884008095E-05
v 15.000053405761719 10.714286804199219 15.00001335144043
v 15.000053405761719 10.3125 -14.99998664855957
v -14.999946594238281 0 -14.99998664855957
v -14.999946594238281 26.25 -14.99998664855957
v 15.000053405761719 0 -14.99998664855957
v 15.000053405761719 20.625 -14.99998664855957
v 5.3838357416680083E-05 23.4375 -14.99998664855957
v 15.000053405761719 10.3125 -14.99998664855957
v 5.3838357416680083E-05 0 -14.99998664855957
v -14.999946594238281 13.125 -14.99998664855957
v 15.000053405761719 0 15.00001335144043
v 15.000053405761719 21.428573608398438 15.00001335144043
v -14.999946594238281 0 15.00001335144043
v -14.999946594238281 27.857139587402344 15.00001335144043
v 5.3838357416680083E-05 24.642860412597656 15.00001335144043
v 15.000053405761719 10.714286804199219 15.00001335144043
v 5.3838357416680083E-05 0 15.00001335144043
v -14.999946594238281 13.928573608398438 15.00001335144043
v -14.999946594238281 0 -14.99998664855957
v -14.999946594238281 26.25 -14.99998664855957
v -14.999946594238281 0 15.00001335144043
v -14.999946594238281 27.857139587402344 15.00001335144043
v -14.999946594238281 13.125 -14.99998664855957
v -14.999946594238281 13.928573608398438 15.00001335144043
v -14.999946594238281 0 1.3497639884008095E-05
vt 0.33419409394264221 0.33866757154464722
vt 0 0.33866757154464722
vt 0.16709704697132111 0.33866757154464722
vt 0 0.66430455446243286
vt 0 0.50148606300354004
vt 0.33419409394264221 0.54219067096710205
vt 0.33419409394264221 0.74571382999420166
vt 0.16711071133613586 0.70044481754302979
vt 0.4259721040725708 0.33720272779464722
vt 0.26031628251075745 0.33720272779464722
vt 0.094660468399524689 0.33720272779464722
vt 0 0
vt 0.18932093679904938 0
vt 0.37864187359809875 0
vt 0.39169737696647644 0.084293752908706665
vt 0.40388348698616028 0.1685929000377655
vt 0.41528394818305969 0.25289624929428101
vt 0.07327955961227417 0.25287890434265137
vt 0.050476126372814178 0.16856753826141357
vt 0.026104835793375969 0.084272995591163635
vt 0.33565893769264221 0.33866757154464722
vt 0.33565893769264221 0.56980061531066895
vt 0.49853581190109253 0.33866757154464722
vt 0.66141271591186523 0.33866757154464722
vt 0.66141271591186523 0.56980061531066895
vt 0.49853581190109253 0.56980061531066895
vt 0.66141271591186523 0.45423409342765808
vt 0.33565893769264221 0.45423409342765808
vt 0.33565893769264221 0.57126545906066895
vt 0.33565893769264221 0.8547329306602478
vt 0.66550570726394653 0.57126545906066895
vt 0.66550570726394653 0.8547329306602478
vt 0.50058233737945557 0.8547329306602478
vt 0.66550570726394653 0.71299916505813599
vt 0.50058233737945557 0.57126545906066895
vt 0.33565893769264221 0.71299916505813599
vt 0.66697055101394653 0.4280988872051239
vt 0.66697055101394653 0.73047608137130737
vt 0.99853515625 0.4280988872051239
vt 0.99853515625 0.73047608137130737
vt 0.83275288343429565 0.73047608137130737
vt 0.66697055101394653 0.57928752899169922
vt 0.83275288343429565 0.4280988872051239
vt 0.99853515625 0.57928752899169922
vt 0.66697055101394653 0
vt 0.66697055101394653 0.30237719416618347
vt 0.99307447671890259 0
vt 0.99307447671890259 0.30237719416618347
vt 0.66697055101394653 0.15118859708309174
vt 0.99307447671890259 0.15118859708309174
vt 0.83002251386642456 0
vn 0 -1 0
vn 0 -1 0
vn 0 -1 0
vn 0 -1 0
vn 0 -1 0
vn 0 -1 0
vn 0 -1 0
vn 0 -1 0
vn 0.18423965573310852 0.98261147737503052 -0.023029956966638565
vn 0.18417862057685852 0.98228591680526733 -0.034533489495515823
vn 0.18409325182437897 0.98183071613311768 -0.046023312956094742
vn 0.2091546356678009 0.97605496644973755 -0.059758465737104416
vn 0.20931820571422577 0.97681832313537598 -0.044853903353214264
vn 0.20943528413772583 0.97736465930938721 -0.029919326305389404
vn 0.20252709090709686 0.97887814044952393 -0.027934854850172997
vn 0.19604974985122681 0.98024547100067139 -0.026140054687857628
vn 0.18996521830558777 0.98148477077484131 -0.024511691182851791
vn 0.18979546427726746 0.98060119152069092 -0.048979900777339935
vn 0.19585099816322327 0.97924190759658813 -0.052227631211280823
vn 0.2022920697927475 0.97773396968841553 -0.055805351585149765
vn 1 0 0
vn 1 0 0
vn 1 0 0
vn 1 0 0
vn 1 0 0
vn 1 0 0
vn 1 0 0
vn 1 0 0
vn 0 0 -1
vn 0 0 -1
vn 0 0 -1
vn 0 0 -1
vn 0 0 -1
vn 0 0 -1
vn 0 0 -1
vn 0 0 -1
vn 0 0 1
vn 0 0 1
vn 0 0 1
vn 0 0 1
vn 0 0 1
vn 0 0 1
vn 0 0 1
vn 0 0 1
vn -1 0 0
vn -1 0 0
vn -1 0 0
vn -1 0 0
vn -1 0 0
vn -1 0 0
vn -1 0 0
f 5/5/5 2/2/2 3/3/3
f 5/5/5 8/8/8 4/4/4
f 8/8/8 5/5/5 3/3/3
f 3/3/3 6/6/6 8/8/8
f 6/6/6 7/7/7 8/8/8
f 1/1/1 6/6/6 3/3/3
f 20/20/20 12/12/12 13/13/13
f 19/19/19 20/20/20 13/13/13
f 19/19/19 16/16/16 18/18/18
f 18/18/18 10/10/10 11/11/11
f 13/13/13 15/15/15 19/19/19
f 19/19/19 15/15/15 16/16/16
f 10/10/10 18/18/18 16/16/16
f 9/9/9 10/10/10 17/17/17
f 16/16/16 17/17/17 10/10/10
f 14/14/14 15/15/15 13/13/13
f 23/23/23 26/26/26 28/28/28
f 28/28/28 26/26/26 22/22/22
f 23/23/23 28/28/28 21/21/21
f 27/27/27 23/23/23 24/24/24
f 27/27/27 25/25/25 26/26/26
f 23/23/23 27/27/27 26/26/26
f 36/36/36 35/35/35 29/29/29
f 36/36/36 30/30/30 33/33/33
f 33/33/33 35/35/35 36/36/36
f 35/35/35 33/33/33 34/34/34
f 34/34/34 33/33/33 32/32/32
f 31/31/31 35/35/35 34/34/34
f 44/44/44 42/42/42 41/41/41
f 42/42/42 38/38/38 41/41/41
f 43/43/43 37/37/37 42/42/42
f 44/44/44 39/39/39 43/43/43
f 44/44/44 41/41/41 40/40/40
f 43/43/43 42/42/42 44/44/44
f 51/51/51 49/49/49 45/45/45
f 46/46/46 49/49/49 50/50/50 48/48/48
f 50/50/50 51/51/51 47/47/47
f 51/51/51 50/50/50 49/49/49
