# Rhino

g Cubos_Final
o object_1
v -14.999946594238281 0 15.00001335144043
v -14.999946594238281 0 -14.99998664855957
v 15.000053405761719 0 15.00001335144043
v 15.000053405761719 0 -14.99998664855957
v 5.3838357416680083E-05 0 15.00001335144043
v 15.000053405761719 0 1.3497639884008095E-05
v 5.000053882598877 0 -14.99998664855957
v -4.999946117401123 0 -14.99998664855957
v -14.999946594238281 0 1.3497639884008095E-05
v 15.000053405761719 0 -14.99998664855957
v 15.000053405761719 15 -14.99998664855957
v -14.999946594238281 20 -14.99998664855957
v 5.000053882598877 0 -14.99998664855957
v -4.999946117401123 0 -14.99998664855957
v 15.000053405761719 7.5 -14.99998664855957
v -14.999946594238281 0 -14.99998664855957
v -14.999946594238281 10 -14.99998664855957
v -4.999946117401123 18.333335876464844 -14.99998664855957
v 5.000053882598877 16.666664123535156 -14.99998664855957
v 15.000053405761719 15 15.00001335144043
v 15.000053405761719 0 15.00001335144043
v 15.000053405761719 15 -14.99998664855957
v 15.000053405761719 0 -14.99998664855957
v 15.000053405761719 0 1.3497639884008095E-05
v 15.000053405761719 7.5 -14.99998664855957
v 15.000053405761719 15 5.0000133514404297
v 15.000053405761719 15 -4.9999866485595703
v 15.000053405761719 15 15.00001335144043
v 15.000053405761719 15 -14.99998664855957
v -14.999946594238281 20.625 15.00001335144043
v -4.999946117401123 18.75 15.00001335144043
v 5.000053882598877 16.875 15.00001335144043
v -14.999946594238281 20 -14.99998664855957
v -14.999946594238281 20.142829895019531 -7.4997425079345703
v -14.999946594238281 20.294059753417969 0.00037970856647007167
v -14.999946594238281 20.454513549804688 7.5003185272216797
v 5.000053882598877 16.666664123535156 -14.99998664855957
v -4.999946117401123 18.333335876464844 -14.99998664855957
v 15.000053405761719 15 5.0000133514404297
v 15.000053405761719 15 -4.9999866485595703
v -14.999946594238281 0 -14.99998664855957
v -14.999946594238281 0 15.00001335144043
v -14.999946594238281 20 -14.99998664855957
v -14.999946594238281 20.625 15.00001335144043
v -14.999946594238281 0 1.3497639884008095E-05
v -14.999946594238281 10 -14.99998664855957
v -14.999946594238281 20.625 15.00001335144043
v -14.999946594238281 0 15.00001335144043
v 15.000053405761719 15 15.00001335144043
v 15.000053405761719 0 15.00001335144043
v 5.3838357416680083E-05 0 15.00001335144043
v -4.999946117401123 18.75 15.00001335144043
v 5.000053882598877 16.875 15.00001335144043
vt 0.39753243327140808 0
vt 0 0
vt 0.39753243327140808 0.39753243327140808
vt 0 0.39753243327140808
vt 0.39753243327140808 0.19876621663570404
vt 0.19876621663570404 0.39753243327140808
vt 0 0.26502162218093872
vt 0 0.13251081109046936
vt 0.19876621663570404 0
vt 0.95267468690872192 0
vt 0.6876530647277832 0
vt 0.6876530647277832 0.40155106782913208
vt 0.95267468690872192 0.1338503509759903
vt 0.95267468690872192 0.26770070195198059
vt 0.82016390562057495 0
vt 0.95267468690872192 0.40155106782913208
vt 0.82016390562057495 0.40155106782913208
vt 0.6876530647277832 0.26770070195198059
vt 0.6876530647277832 0.1338503509759903
vt 0.65215909481048584 0
vt 0.45339289307594299 0
vt 0.65215909481048584 0.39753243327140808
vt 0.45339289307594299 0.39753243327140808
vt 0.45339289307594299 0.19876621663570404
vt 0.55277597904205322 0.39753243327140808
vt 0.65215909481048584 0.13251081109046936
vt 0.65215909481048584 0.26502162218093872
vt 0.45192804932594299 0.40217304229736328
vt 0.45192804932594299 0.80279916524887085
vt 0 0.40217304229736328
vt 0.15064269304275513 0.40217304229736328
vt 0.30128538608551025 0.40217304229736328
vt 0.050214227288961411 0.80279916524887085
vt 0.038736298680305481 0.70263892412185669
vt 0.026583338156342506 0.60248076915740967
vt 0.01369416993111372 0.50232523679733276
vt 0.3180234432220459 0.80279916524887085
vt 0.1841188371181488 0.80279916524887085
vt 0.45192804932594299 0.53571510314941406
vt 0.45192804932594299 0.66925710439682007
vt 0.45339289307594299 0.40301591157913208
vt 0.45339289307594299 0.80063462257385254
vt 0.7252315878868103 0.40301591157913208
vt 0.7252315878868103 0.80063462257385254
vt 0.45339289307594299 0.60182523727416992
vt 0.58931225538253784 0.40301591157913208
vt 0.99853515625 0.40301591157913208
vt 0.7266964316368103 0.40301591157913208
vt 0.99853515625 0.80601102113723755
vt 0.7266964316368103 0.80601102113723755
vt 0.7266964316368103 0.60451346635818481
vt 0.99853515625 0.53734761476516724
vt 0.99853515625 0.67167931795120239
vn 0 1 0
vn 0 1 0
vn 0 1 0
vn 0 1 0
vn 0 1 0
vn 0 1 0
vn 0 1 0
vn 0 1 0
vn 0 1 0
vn 0 0 1
vn 0 0 1
vn 0 0 1
vn 0 0 1
vn 0 0 1
vn 0 0 1
vn 0 0 1
vn 0 0 1
vn 0 0 1
vn 0 0 1
vn -1 0 0
vn -1 0 0
vn -1 0 0
vn -1 0 0
vn -1 0 0
vn -1 0 0
vn -1 0 0
vn -1 0 0
vn -0.18428853154182434 -0.98287218809127808 0
vn -0.16439898312091827 -0.98639392852783203 0
vn -0.18423965573310852 -0.98261147737503052 0.023029956966638565
vn -0.18426680564880371 -0.98275631666183472 0.015355567447841167
vn -0.18428310751914978 -0.98284322023391724 0.0076784626580774784
vn -0.16437156498432159 -0.98622941970825195 0.018263507634401321
vn -0.16893249750137329 -0.98543852567672729 0.019306588917970657
vn -0.17374928295612335 -0.98457777500152588 0.020441124215722084
vn -0.17884363234043121 -0.98363864421844482 0.021678045392036438
vn -0.16439594328403473 -0.98637562990188599 0.0060887383297085762
vn -0.16438679397106171 -0.98632079362869263 0.012176799587905407
vn -0.17715299129486084 -0.98418331146240234 0
vn -0.1705414354801178 -0.98535048961639404 0
vn 1 0 0
vn 1 0 0
vn 1 0 0
vn 1 0 0
vn 1 0 0
vn 1 0 0
vn 0 0 -1
vn 0 0 -1
vn 0 0 -1
vn 0 0 -1
vn 0 0 -1
vn 0 0 -1
vn 0 0 -1
f 9/9/9 6/6/6 7/7/7 8/8/8
f 9/9/9 8/8/8 2/2/2
f 5/5/5 9/9/9 1/1/1
f 6/6/6 5/5/5 3/3/3
f 4/4/4 7/7/7 6/6/6
f 5/5/5 6/6/6 9/9/9
f 15/15/15 13/13/13 10/10/10
f 11/11/11 19/19/19 15/15/15
f 13/13/13 15/15/15 19/19/19
f 13/13/13 19/19/19 18/18/18 14/14/14
f 17/17/17 16/16/16 14/14/14
f 12/12/12 17/17/17 18/18/18
f 14/14/14 18/18/18 17/17/17
f 20/20/20 26/26/26 24/24/24 21/21/21
f 24/24/24 26/26/26 25/25/25
f 25/25/25 27/27/27 22/22/22
f 25/25/25 23/23/23 24/24/24
f 27/27/27 25/25/25 26/26/26
f 36/36/36 31/31/31 30/30/30
f 35/35/35 31/31/31 36/36/36
f 35/35/35 34/34/34 38/38/38
f 34/34/34 33/33/33 38/38/38
f 31/31/31 35/35/35 32/32/32
f 39/39/39 28/28/28 32/32/32
f 39/39/39 35/35/35 40/40/40
f 40/40/40 38/38/38 37/37/37
f 37/37/37 29/29/29 40/40/40
f 38/38/38 40/40/40 35/35/35
f 32/32/32 35/35/35 39/39/39
f 46/46/46 45/45/45 41/41/41
f 44/44/44 42/42/42 45/45/45
f 44/44/44 46/46/46 43/43/43
f 45/45/45 46/46/46 44/44/44
f 48/48/48 47/47/47 52/52/52
f 51/51/51 48/48/48 52/52/52
f 50/50/50 53/53/53 49/49/49
f 53/53/53 50/50/50 51/51/51
f 52/52/52 53/53/53 51/51/51
