# Rhino

g Cubos_Final
o object_1
v 15.000053405761719 0 15.00001335144043
v 15.000053405761719 15 -14.99998664855957
v 15.000053405761719 0 -14.99998664855957
v 15.000053405761719 15 15.00001335144043
v 15.000053405761719 15 1.3497639884008095E-05
v 15.000053405761719 0 1.3497639884008095E-05
v 15.000053405761719 15 15.00001335144043
v 15.000053405761719 15 -14.99998664855957
v 5.3838357416680083E-05 17.8125 -14.99998664855957
v -14.999946594238281 20.625 -14.99998664855957
v -14.835395812988281 21.393295288085938 15.00001335144043
v 0.082329228520393372 18.196647644042969 15.00001335144043
v -14.999946594238281 20.806396484375 -7.4994983673095703
v -14.999946594238281 20.999893188476563 0.00074591953307390213
v -14.999946594238281 21.206840515136719 7.5006237030029297
v -9.1071243286132813 19.821426391601563 1.3497639884008095E-05
v 15.000053405761719 15 1.3497639884008095E-05
v -14.999946594238281 21.428573608398438 15.00001335144043
v -8.3035354614257813 19.821426391601563 7.5000133514404297
v -13.124946594238281 20.625 1.3497639884008095E-05
v -12.187446594238281 20.625 7.5000133514404297
v -11.718696594238281 20.625 11.25001335144043
v -14.129463195800781 21.026786804199219 7.5000133514404297
v -13.627265930175781 21.026786804199219 11.25001335144043
v -13.376167297363281 21.026786804199219 13.12501335144043
v -14.581489562988281 21.227676391601563 11.25001335144043
v -14.321968078613281 21.227676391601563 13.12501335144043
v -14.192207336425781 21.227676391601563 14.06251335144043
v -14.794868469238281 21.328125 13.12501335144043
v -14.663032531738281 21.328125 14.06251335144043
v -14.597114562988281 21.328125 14.53126335144043
v -14.898506164550781 21.378349304199219 14.06251335144043
v -14.832099914550781 21.378349304199219 14.53126335144043
v -14.999946594238281 0 -14.99998664855957
v -14.999946594238281 0 15.00001335144043
v 15.000053405761719 0 -14.99998664855957
v 15.000053405761719 0 15.00001335144043
v 15.000053405761719 0 1.3497639884008095E-05
v 5.3838357416680083E-05 0 -14.99998664855957
v 5.3838357416680083E-05 0 15.00001335144043
v -14.999946594238281 0 1.3497639884008095E-05
v 15.000053405761719 15 -14.99998664855957
v 15.000053405761719 0 -14.99998664855957
v -14.999946594238281 20.625 -14.99998664855957
v -14.999946594238281 0 -14.99998664855957
v 5.3838357416680083E-05 17.8125 -14.99998664855957
v 5.3838357416680083E-05 0 -14.99998664855957
v -14.999946594238281 0 15.00001335144043
v -14.999946594238281 21.428573608398438 15.00001335144043
v 15.000053405761719 0 15.00001335144043
v 15.000053405761719 15 15.00001335144043
v 0.082329228520393372 18.196647644042969 15.00001335144043
v -14.835395812988281 21.393295288085938 15.00001335144043
v 5.3838357416680083E-05 0 15.00001335144043
v -14.999946594238281 10.714286804199219 15.00001335144043
v -7.499946117401123 9.9107131958007813 15.00001335144043
v -7.499946117401123 14.866073608398438 15.00001335144043
v -14.999946594238281 16.071426391601563 15.00001335144043
v -11.249946594238281 10.3125 15.00001335144043
v -11.249946594238281 15.46875 15.00001335144043
v -11.249946594238281 18.046875 15.00001335144043
v -14.999946594238281 18.75 15.00001335144043
v -13.124946594238281 15.770088195800781 15.00001335144043
v -13.124946594238281 18.3984375 15.00001335144043
v -13.124946594238281 19.712608337402344 15.00001335144043
v -14.999946594238281 20.089286804199219 15.00001335144043
v -14.062446594238281 18.57421875 15.00001335144043
v -14.062446594238281 19.900947570800781 15.00001335144043
v -14.062446594238281 20.564315795898438 15.00001335144043
v -14.999946594238281 20.758926391601563 15.00001335144043
v -14.531196594238281 19.9951171875 15.00001335144043
v -14.531196594238281 20.66162109375 15.00001335144043
v -14.531196594238281 20.994873046875 15.00001335144043
v -14.999946594238281 21.09375 15.00001335144043
v -14.765571594238281 20.710273742675781 15.00001335144043
v -14.765571594238281 21.0443115234375 15.00001335144043
v -14.999946594238281 20.625 -14.99998664855957
v -14.999946594238281 0 -14.99998664855957
v -14.835395812988281 21.393295288085938 15.00001335144043
v -14.999946594238281 0 15.00001335144043
v -14.999946594238281 0 1.3497639884008095E-05
vt 0.44891422986984253 0
vt 0.64195030927658081 0.38607212901115417
vt 0.44891422986984253 0.38607212901115417
vt 0.64195030927658081 0
vt 0.64195030927658081 0.19303606450557709
vt 0.44891422986984253 0.19303606450557709
vt 0.44744938611984253 0.3918292224407196
vt 0.44744938611984253 0.78182095289230347
vt 0.25169026851654053 0.78182095289230347
vt 0.055931173264980316 0.78182095289230347
vt 0.0024555148556828499 0.3918292224407196
vt 0.22495244443416595 0.3918292224407196
vt 0.043300732970237732 0.68431633710861206
vt 0.02982855960726738 0.58681529760360718
vt 0.015427978709340096 0.48931914567947388
vt 0.11186234652996063 0.58682507276535034
vt 0.44744938611984253 0.58682507276535034
vt 0 0.3918292224407196
vt 0.11186234652996063 0.48932716250419617
vt 0.055931173264980316 0.58682507276535034
vt 0.055931173264980316 0.48932716250419617
vt 0.055931173264980316 0.44057819247245789
vt 0.027965586632490158 0.48932716250419617
vt 0.027965586632490158 0.44057819247245789
vt 0.027965586632490158 0.41620370745658875
vt 0.013982793316245079 0.44057819247245789
vt 0.013982793316245079 0.41620370745658875
vt 0.013982793316245079 0.40401646494865417
vt 0.0069913966581225395 0.41620370745658875
vt 0.0069913966581225395 0.40401646494865417
vt 0.0069913966581225395 0.39792284369468689
vt 0.0034956983290612698 0.40401646494865417
vt 0.0034956983290612698 0.39792284369468689
vt 0.38607212901115417 0
vt 0 0
vt 0.38607212901115417 0.38607212901115417
vt 0 0.38607212901115417
vt 0.19303606450557709 0.38607212901115417
vt 0.38607212901115417 0.19303606450557709
vt 0 0.19303606450557709
vt 0.19303606450557709 0
vt 0.94637495279312134 0
vt 0.6809503436088562 0
vt 0.94637495279312134 0.39133509993553162
vt 0.6809503436088562 0.39133509993553162
vt 0.94637495279312134 0.19566754996776581
vt 0.6809503436088562 0.19566754996776581
vt 0.99853515625 0.39279994368553162
vt 0.72423416376113892 0.39279994368553162
vt 0.99853515625 0.78617167472839355
vt 0.72423416376113892 0.78617167472839355
vt 0.72423416376113892 0.59056520462036133
vt 0.72423416376113892 0.39495870471000671
vt 0.99853515625 0.58948582410812378
vt 0.86138468980789185 0.39279994368553162
vt 0.86138468980789185 0.4911428689956665
vt 0.79280942678451538 0.4911428689956665
vt 0.79280942678451538 0.39279994368553162
vt 0.86138468980789185 0.44197142124176025
vt 0.79280942678451538 0.44197142124176025
vt 0.75852179527282715 0.44197142124176025
vt 0.75852179527282715 0.39279994368553162
vt 0.79280942678451538 0.41738566756248474
vt 0.75852179527282715 0.41738566756248474
vt 0.74137800931930542 0.41738566756248474
vt 0.74137800931930542 0.39279994368553162
vt 0.75852179527282715 0.40509280562400818
vt 0.74137800931930542 0.40509280562400818
vt 0.73280608654022217 0.40509280562400818
vt 0.73280608654022217 0.39279994368553162
vt 0.74137800931930542 0.3989463746547699
vt 0.73280608654022217 0.3989463746547699
vt 0.72852015495300293 0.3989463746547699
vt 0.72852015495300293 0.39279994368553162
vt 0.73280608654022217 0.39587315917015076
vt 0.72852015495300293 0.39587315917015076
vt 0.72276932001113892 0.39279994368553162
vt 0.44891422986984253 0.39279994368553162
vt 0.72276932001113892 0.77900445461273193
vt 0.44891422986984253 0.77900445461273193
vt 0.44891422986984253 0.58590221405029297
vn 1 0 0
vn 1 0 0
vn 1 0 0
vn 1 0 0
vn 1 0 0
vn 1 0 0
vn 0.2095290869474411 0.97780239582061768 0
vn 0.18428853154182434 0.98287218809127808 0
vn 0.18427631258964539 0.9828069806098938 -0.011517269536852837
vn 0.18423965573310852 0.98261147737503052 -0.023029956966638565
vn 0.20943631231784821 0.97736942768096924 -0.029755281284451485
vn 0.20950588583946228 0.97769409418106079 -0.014882582239806652
vn 0.18996521830558777 0.98148477077484131 -0.024511691182851791
vn 0.19604974985122681 0.98024547100067139 -0.026140054687857628
vn 0.20252709090709686 0.97887814044952393 -0.027934854850172997
vn 0.19607286155223846 0.98036426305770874 -0.021007806062698364
vn 0.1961161345243454 0.98058068752288818 0
vn 0.20943528413772583 0.97736465930938721 -0.029919326305389404
vn 0.20255789160728455 0.97902977466583252 -0.021702630445361137
vn 0.19605723023414612 0.98028618097305298 -0.024507153779268265
vn 0.20254066586494446 0.9789465069770813 -0.025317583233118057
vn 0.20594221353530884 0.9782254695892334 -0.025742776691913605
vn 0.20253105461597443 0.97890013456344604 -0.027124695479869843
vn 0.20593211054801941 0.97817754745483398 -0.027580194175243378
vn 0.20767484605312347 0.97780239582061768 -0.027813596650958061
vn 0.2059268057346344 0.97815233469009399 -0.028498798608779907
vn 0.20766940712928772 0.97777676582336426 -0.028739962726831436
vn 0.2085515558719635 0.97758543491363525 -0.028862046077847481
vn 0.20766662061214447 0.97776365280151367 -0.02920311875641346
vn 0.20854872465133667 0.97757214307785034 -0.029327165335416794
vn 0.20899254083633423 0.97747552394866943 -0.029389575123786926
vn 0.20854729413986206 0.9775654673576355 -0.029559718444943428
vn 0.20899109542369843 0.97746878862380981 -0.029622621834278107
vn 0 -1 0
vn 0 -1 0
vn 0 -1 0
vn 0 -1 0
vn 0 -1 0
vn 0 -1 0
vn 0 -1 0
vn 0 -1 0
vn 0 0 -1
vn 0 0 -1
vn 0 0 -1
vn 0 0 -1
vn 0 0 -1
vn 0 0 -1
vn 0 0 1
vn 0 0 1
vn 0 0 1
vn 0 0 1
vn 0 0 1
vn 0 0 1
vn 0 0 1
vn 0 0 1
vn 0 0 1
vn 0 0 1
vn 0 0 1
vn 0 0 1
vn 0 0 1
vn 0 0 1
vn 0 0 1
vn 0 0 1
vn 0 0 1
vn 0 0 1
vn 0 0 1
vn 0 0 1
vn 0 0 1
vn 0 0 1
vn 0 0 1
vn 0 0 1
vn 0 0 1
vn 0 0 1
vn 0 0 1
vn 0 0 1
vn 0 0 1
vn -0.99998492002487183 0 0.0054877223446965218
vn -1 0 0
vn -0.99995636940002441 0.0076952609233558178 0.0052904919721186161
vn -0.99997037649154663 0.0076953684911131859 0
vn -0.99999231100082397 0.00391812389716506 0
f 4/4/4 1/1/1 6/6/6 5/5/5
f 3/3/3 2/2/2 5/5/5 6/6/6
f 16/16/16 20/20/20 21/21/21 19/19/19
f 21/21/21 23/23/23 24/24/24 22/22/22
f 24/24/24 26/26/26 27/27/27 25/25/25
f 27/27/27 29/29/29 30/30/30 28/28/28
f 30/30/30 32/32/32 33/33/33 31/31/31
f 33/33/33 18/18/18 11/11/11
f 31/31/31 33/33/33 11/11/11
f 32/32/32 18/18/18 33/33/33
f 28/28/28 30/30/30 31/31/31
f 29/29/29 32/32/32 30/30/30
f 31/31/31 11/11/11 28/28/28
f 15/15/15 18/18/18 32/32/32
f 25/25/25 27/27/27 28/28/28
f 26/26/26 29/29/29 27/27/27
f 23/23/23 15/15/15 24/24/24
f 26/26/26 24/24/24 15/15/15
f 24/24/24 25/25/25 22/22/22
f 29/29/29 26/26/26 15/15/15
f 25/25/25 28/28/28 11/11/11
f 32/32/32 29/29/29 15/15/15
f 25/25/25 11/11/11 12/12/12
f 21/21/21 14/14/14 23/23/23
f 15/15/15 23/23/23 14/14/14
f 16/16/16 19/19/19 12/12/12
f 20/20/20 14/14/14 21/21/21
f 19/19/19 21/21/21 22/22/22
f 12/12/12 19/19/19 22/22/22
f 12/12/12 22/22/22 25/25/25
f 12/12/12 7/7/7 17/17/17
f 16/16/16 10/10/10 13/13/13
f 14/14/14 20/20/20 13/13/13
f 20/20/20 16/16/16 13/13/13
f 16/16/16 12/12/12 9/9/9
f 17/17/17 8/8/8 9/9/9
f 10/10/10 16/16/16 9/9/9
f 12/12/12 17/17/17 9/9/9
f 41/41/41 34/34/34 39/39/39
f 41/41/41 40/40/40 35/35/35
f 40/40/40 41/41/41 39/39/39
f 40/40/40 39/39/39 36/36/36 38/38/38
f 38/38/38 37/37/37 40/40/40
f 42/42/42 43/43/43 47/47/47 46/46/46
f 45/45/45 44/44/44 46/46/46 47/47/47
f 76/76/76 74/74/74 70/70/70 75/75/75
f 73/73/73 76/76/76 75/75/75 72/72/72
f 75/75/75 70/70/70 66/66/66
f 71/71/71 72/72/72 75/75/75
f 66/66/66 71/71/71 75/75/75
f 69/69/69 72/72/72 71/71/71 68/68/68
f 71/71/71 66/66/66 62/62/62
f 67/67/67 68/68/68 71/71/71
f 62/62/62 67/67/67 71/71/71
f 65/65/65 68/68/68 67/67/67 64/64/64
f 67/67/67 62/62/62 58/58/58
f 63/63/63 64/64/64 67/67/67
f 58/58/58 63/63/63 67/67/67
f 61/61/61 64/64/64 63/63/63 60/60/60
f 63/63/63 58/58/58 55/55/55
f 59/59/59 60/60/60 63/63/63
f 55/55/55 59/59/59 63/63/63
f 57/57/57 60/60/60 59/59/59 56/56/56
f 65/65/65 69/69/69 68/68/68
f 73/73/73 72/72/72 69/69/69
f 59/59/59 55/55/55 48/48/48
f 53/53/53 49/49/49 74/74/74 76/76/76
f 73/73/73 53/53/53 76/76/76
f 69/69/69 53/53/53 73/73/73
f 53/53/53 69/69/69 65/65/65
f 54/54/54 52/52/52 56/56/56
f 48/48/48 56/56/56 59/59/59
f 56/56/56 48/48/48 54/54/54
f 54/54/54 50/50/50 51/51/51 52/52/52
f 65/65/65 64/64/64 61/61/61
f 52/52/52 65/65/65 61/61/61
f 57/57/57 56/56/56 52/52/52
f 61/61/61 57/57/57 52/52/52
f 61/61/61 60/60/60 57/57/57
f 53/53/53 65/65/65 52/52/52
f 81/81/81 77/77/77 78/78/78
f 80/80/80 79/79/79 81/81/81
f 77/77/77 81/81/81 79/79/79
