# Rhino

g Cubos_Final
o object_1
v 15.000053405761719 0 -14.99998664855957
v 5.000053882598877 0 -14.99998664855957
v 5.000053882598877 30 -14.99998664855957
v 15.000053405761719 30 -14.99998664855957
v 15.000053405761719 15.5 -14.99998664855957
v 15.000053405761719 1 -14.99998664855957
v 10.000053405761719 15 -14.99998664855957
v 10.000053405761719 7.5 -14.99998664855957
v 12.500053405761719 15 -14.99998664855957
v 12.500053405761719 7.5 -14.99998664855957
v 12.500053405761719 3.75 -14.99998664855957
v 13.750053405761719 7.5 -14.99998664855957
v 13.750053405761719 3.75 -14.99998664855957
v 5.000053882598877 1 -14.99998664855957
v 5.000053882598877 15.5 -14.99998664855957
v 7.500053882598877 15 -14.99998664855957
v 7.500053882598877 7.5 -14.99998664855957
v 6.250053882598877 7.5 -14.99998664855957
v 7.500053882598877 3.75 -14.99998664855957
v 6.250053882598877 3.75 -14.99998664855957
v 5.000053882598877 0 -14.99998664855957
v 5.000053882598877 30 -14.99998664855957
v 15.000053405761719 0 15.00001335144043
v 10.000053405761719 0 1.3497639884008095E-05
v 15.000053405761719 30 15.00001335144043
v 10.000053405761719 30 1.3497639884008095E-05
v 15.000053405761719 15 15.00001335144043
v 5.000053882598877 15.5 -14.99998664855957
v 5.000053882598877 1 -14.99998664855957
v 10.000053405761719 15 1.3497639884008095E-05
v 10.000053405761719 7.5 1.3497639884008095E-05
v 7.500053882598877 15 -7.4999866485595703
v 7.500053882598877 7.5 -7.4999866485595703
v 7.500053882598877 3.75 -7.4999866485595703
v 6.250053882598877 7.5 -11.24998664855957
v 6.250053882598877 3.75 -11.24998664855957
v 6.250053882598877 1.875 -11.24998664855957
v 5.625053882598877 3.75 -13.12498664855957
v 5.625053882598877 1.875 -13.12498664855957
v 15.000053405761719 0 15.00001335144043
v 10.000053405761719 0 1.3497639884008095E-05
v 5.000053882598877 0 -14.99998664855957
v 15.000053405761719 0 -14.99998664855957
v 15.000053405761719 0 1.3497639884008095E-05
v 15.000053405761719 0 15.00001335144043
v 15.000053405761719 30 15.00001335144043
v 15.000053405761719 0 -14.99998664855957
v 15.000053405761719 30 -14.99998664855957
v 15.000053405761719 0 1.3497639884008095E-05
v 15.000053405761719 30 1.3497639884008095E-05
v 15.000053405761719 15 15.00001335144043
v 15.000053405761719 1 -14.99998664855957
v 15.000053405761719 15.5 -14.99998664855957
v 15.000053405761719 15 1.3497639884008095E-05
v 15.000053405761719 15 -7.4999866485595703
v 15.000053405761719 7.5 1.3497639884008095E-05
v 15.000053405761719 7.5 -7.4999866485595703
v 15.000053405761719 7.5 -11.24998664855957
v 15.000053405761719 3.75 -7.4999866485595703
v 15.000053405761719 3.75 -11.24998664855957
v 15.000053405761719 3.75 -13.12498664855957
v 15.000053405761719 1.875 -11.24998664855957
v 15.000053405761719 1.875 -13.12498664855957
v 5.000053882598877 30 -14.99998664855957
v 15.000053405761719 30 -14.99998664855957
v 15.000053405761719 30 15.00001335144043
v 10.000053405761719 30 1.3497639884008095E-05
v 15.000053405761719 30 1.3497639884008095E-05
vt 0.66666668653488159 0
vt 0.83021831512451172 0
vt 0.83021831512451172 0.49504950642585754
vt 0.66666668653488159 0.49504950642585754
vt 0.66666668653488159 0.2557755708694458
vt 0.66666668653488159 0.016501650214195251
vt 0.74844247102737427 0.24752475321292877
vt 0.74844247102737427 0.12376237660646439
vt 0.70755457878112793 0.24752475321292877
vt 0.70755457878112793 0.12376237660646439
vt 0.70755457878112793 0.061881188303232193
vt 0.68711060285568237 0.12376237660646439
vt 0.68711060285568237 0.061881188303232193
vt 0.83021831512451172 0.016501650214195251
vt 0.83021831512451172 0.2557755708694458
vt 0.78933042287826538 0.24752475321292877
vt 0.78933042287826538 0.12376237660646439
vt 0.80977433919906616 0.12376237660646439
vt 0.78933042287826538 0.061881188303232193
vt 0.80977433919906616 0.061881188303232193
vt 0 0
vt 0 0.49358466267585754
vt 0.52182799577713013 0
vt 0.26091399788856506 0
vt 0.52182799577713013 0.49358466267585754
vt 0.26091399788856506 0.49358466267585754
vt 0.52182799577713013 0.24679233133792877
vt 0 0.25501874089241028
vt 0 0.016452822834253311
vt 0.26091399788856506 0.24679233133792877
vt 0.26091399788856506 0.12339616566896439
vt 0.13045699894428253 0.24679233133792877
vt 0.13045699894428253 0.12339616566896439
vt 0.13045699894428253 0.061698082834482193
vt 0.065228499472141266 0.12339616566896439
vt 0.065228499472141266 0.061698082834482193
vt 0.065228499472141266 0.030849041417241096
vt 0.032614249736070633 0.061698082834482193
vt 0.032614249736070633 0.030849041417241096
vt 0.66520184278488159 0.99359899759292603
vt 0.58339780569076538 0.74679231643676758
vt 0.50159382820129395 0.49998563528060913
vt 0.66520184278488159 0.49998563528060913
vt 0.66520184278488159 0.74679231643676758
vt 0 0.49504950642585754
vt 0 0.99009901285171509
vt 0.49358466267585754 0.49504950642585754
vt 0.49358466267585754 0.99009901285171509
vt 0.24679233133792877 0.49504950642585754
vt 0.24679233133792877 0.99009901285171509
vt 0 0.74257427453994751
vt 0.49358466267585754 0.5115511417388916
vt 0.49358466267585754 0.75082504749298096
vt 0.24679233133792877 0.74257427453994751
vt 0.37018850445747375 0.74257427453994751
vt 0.24679233133792877 0.61881190538406372
vt 0.37018850445747375 0.61881190538406372
vt 0.43188658356666565 0.61881190538406372
vt 0.37018850445747375 0.55693072080612183
vt 0.43188658356666565 0.55693072080612183
vt 0.4627356231212616 0.55693072080612183
vt 0.43188658356666565 0.52599012851715088
vt 0.4627356231212616 0.52599012851715088
vt 0.99523484706878662 0
vt 0.83168315887451172 0
vt 0.99523484706878662 0.52182799577713013
vt 0.99523484706878662 0.26091399788856506
vt 0.91345900297164917 0.26091399788856506
vn 0 0 -1
vn 0 0 -1
vn 0 0 -1
vn 0 0 -1
vn 0 0 -1
vn 0 0 -1
vn 0 0 -1
vn 0 0 -1
vn 0 0 -1
vn 0 0 -1
vn 0 0 -1
vn 0 0 -1
vn 0 0 -1
vn 0 0 -1
vn 0 0 -1
vn 0 0 -1
vn 0 0 -1
vn 0 0 -1
vn 0 0 -1
vn 0 0 -1
vn -0.94868332147598267 0 0.31622776389122009
vn -0.94868332147598267 0 0.31622776389122009
vn -0.94868332147598267 0 0.31622776389122009
vn -0.94868332147598267 0 0.31622776389122009
vn -0.94868332147598267 0 0.31622776389122009
vn -0.94868332147598267 0 0.31622776389122009
vn -0.94868332147598267 0 0.31622776389122009
vn -0.94868332147598267 0 0.31622776389122009
vn -0.94868332147598267 0 0.31622776389122009
vn -0.94868332147598267 0 0.31622776389122009
vn -0.94868332147598267 0 0.31622776389122009
vn -0.94868332147598267 0 0.31622776389122009
vn -0.94868332147598267 0 0.31622776389122009
vn -0.94868332147598267 0 0.31622776389122009
vn -0.94868332147598267 0 0.31622776389122009
vn -0.94868332147598267 0 0.31622776389122009
vn -0.94868332147598267 0 0.31622776389122009
vn -0.94868332147598267 0 0.31622776389122009
vn -0.94868332147598267 0 0.31622776389122009
vn 0 -1 0
vn 0 -1 0
vn 0 -1 0
vn 0 -1 0
vn 0 -1 0
vn 1 0 0
vn 1 0 0
vn 1 0 0
vn 1 0 0
vn 1 0 0
vn 1 0 0
vn 1 0 0
vn 1 0 0
vn 1 0 0
vn 1 0 0
vn 1 0 0
vn 1 0 0
vn 1 0 0
vn 1 0 0
vn 1 0 0
vn 1 0 0
vn 1 0 0
vn 1 0 0
vn 1 0 0
vn 0 1 0
vn 0 1 0
vn 0 1 0
vn 0 1 0
vn 0 1 0
f 7/7/7 9/9/9 10/10/10 8/8/8
f 10/10/10 12/12/12 13/13/13 11/11/11
f 16/16/16 7/7/7 8/8/8 17/17/17
f 18/18/18 17/17/17 19/19/19 20/20/20
f 13/13/13 6/6/6 1/1/1
f 1/1/1 11/11/11 13/13/13
f 6/6/6 13/13/13 12/12/12
f 1/1/1 2/2/2 19/19/19 11/11/11
f 5/5/5 6/6/6 12/12/12
f 9/9/9 4/4/4 5/5/5
f 11/11/11 8/8/8 10/10/10
f 7/7/7 4/4/4 9/9/9
f 12/12/12 9/9/9 5/5/5
f 9/9/9 12/12/12 10/10/10
f 11/11/11 19/19/19 17/17/17 8/8/8
f 14/14/14 20/20/20 2/2/2
f 19/19/19 2/2/2 20/20/20
f 14/14/14 18/18/18 20/20/20
f 3/3/3 7/7/7 16/16/16
f 16/16/16 15/15/15 3/3/3
f 14/14/14 15/15/15 18/18/18
f 18/18/18 15/15/15 16/16/16
f 16/16/16 17/17/17 18/18/18
f 4/4/4 7/7/7 3/3/3
f 30/30/30 32/32/32 33/33/33 31/31/31
f 33/33/33 35/35/35 36/36/36 34/34/34
f 36/36/36 38/38/38 39/39/39 37/37/37
f 39/39/39 29/29/29 21/21/21
f 21/21/21 37/37/37 39/39/39
f 37/37/37 21/21/21 24/24/24
f 38/38/38 29/29/29 39/39/39
f 28/28/28 32/32/32 22/22/22
f 35/35/35 38/38/38 36/36/36
f 28/28/28 38/38/38 35/35/35
f 38/38/38 28/28/28 29/29/29
f 35/35/35 32/32/32 28/28/28
f 36/36/36 37/37/37 34/34/34
f 31/31/31 33/33/33 34/34/34
f 31/31/31 24/24/24 23/23/23
f 27/27/27 31/31/31 23/23/23
f 34/34/34 24/24/24 31/31/31
f 24/24/24 34/34/34 37/37/37
f 22/22/22 32/32/32 26/26/26
f 30/30/30 26/26/26 32/32/32
f 25/25/25 30/30/30 27/27/27
f 26/26/26 30/30/30 25/25/25
f 30/30/30 31/31/31 27/27/27
f 35/35/35 33/33/33 32/32/32
f 43/43/43 41/41/41 42/42/42
f 41/41/41 43/43/43 44/44/44
f 41/41/41 44/44/44 40/40/40
f 55/55/55 54/54/54 56/56/56 57/57/57
f 58/58/58 57/57/57 59/59/59 60/60/60
f 61/61/61 60/60/60 62/62/62 63/63/63
f 56/56/56 45/45/45 49/49/49
f 57/57/57 56/56/56 59/59/59
f 49/49/49 59/59/59 56/56/56
f 59/59/59 49/49/49 62/62/62
f 51/51/51 45/45/45 56/56/56
f 46/46/46 51/51/51 54/54/54 50/50/50
f 55/55/55 50/50/50 54/54/54
f 56/56/56 54/54/54 51/51/51
f 52/52/52 63/63/63 47/47/47
f 62/62/62 47/47/47 63/63/63
f 47/47/47 62/62/62 49/49/49
f 52/52/52 61/61/61 63/63/63
f 53/53/53 55/55/55 58/58/58
f 58/58/58 55/55/55 57/57/57
f 55/55/55 53/53/53 48/48/48
f 52/52/52 53/53/53 61/61/61
f 61/61/61 53/53/53 58/58/58
f 61/61/61 58/58/58 60/60/60
f 50/50/50 55/55/55 48/48/48
f 62/62/62 60/60/60 59/59/59
f 68/68/68 65/65/65 64/64/64
f 68/68/68 67/67/67 66/66/66
f 64/64/64 67/67/67 68/68/68
