# Rhino

g Cubos_Final
o object_1
v 15.000053405761719 1 15.00001335144043
v 10.714286804199219 1 15.00001335144043
v 6.428520679473877 1 15.00001335144043
v 2.142876148223877 1 15.00001335144043
v -2.142890453338623 1 15.00001335144043
v -6.428534984588623 1 15.00001335144043
v -10.714302062988281 1 15.00001335144043
v -14.999946594238281 1 15.00001335144043
v 0.29998061060905457 1 0.29994025826454163
v 0.29998061060905457 1 7.9499645233154297
v 7.950005054473877 1 0.29994025826454163
v 7.950005054473877 1 7.9499645233154297
v -7.350043773651123 1 0.29994025826454163
v -7.350043773651123 1 7.9499645233154297
v -14.999946594238281 1 -14.99998664855957
v -10.714302062988281 1 -14.99998664855957
v -6.428534984588623 1 -14.99998664855957
v -2.142890453338623 1 -14.99998664855957
v 2.142876148223877 1 -14.99998664855957
v 6.428520679473877 1 -14.99998664855957
v 10.714286804199219 1 -14.99998664855957
v 0.29998061060905457 1 -7.3500232696533203
v -7.350043773651123 1 -7.3500232696533203
v 7.950005054473877 1 -7.3500232696533203
v -14.999946594238281 1 10.71424674987793
v -14.999946594238281 1 6.4286022186279297
v -14.999946594238281 1 2.1428358554840088
v -14.999946594238281 1 -2.1428086757659912
v -14.999946594238281 1 -6.4285755157470703
v -14.999946594238281 1 -10.71428108215332
v 15.000053405761719 1 -14.99998664855957
v 15.000053405761719 1 -10.71428108215332
v 15.000053405761719 1 -6.4285755157470703
v 15.000053405761719 1 -2.1428086757659912
v 15.000053405761719 1 2.1428358554840088
v 15.000053405761719 1 6.4286022186279297
v 15.000053405761719 1 10.71424674987793
v 15.000053405761719 0 15.00001335144043
v 15.000053405761719 1 15.00001335144043
v 15.000053405761719 0 -14.99998664855957
v 15.000053405761719 1 -14.99998664855957
v 15.000053405761719 1 -10.71428108215332
v 15.000053405761719 1 -6.4285755157470703
v 15.000053405761719 1 -2.1428086757659912
v 15.000053405761719 1 2.1428358554840088
v 15.000053405761719 1 6.4286022186279297
v 15.000053405761719 1 10.71424674987793
v 15.000053405761719 0 10.71424674987793
v 15.000053405761719 0 6.4286022186279297
v 15.000053405761719 0 2.1428358554840088
v 15.000053405761719 0 -2.1428086757659912
v 15.000053405761719 0 -6.4285755157470703
v 15.000053405761719 0 -10.71428108215332
v 15.000053405761719 0 -14.99998664855957
v 15.000053405761719 0 -10.71428108215332
v 15.000053405761719 0 -6.4285755157470703
v 15.000053405761719 0 -2.1428086757659912
v 15.000053405761719 0 2.1428358554840088
v 15.000053405761719 0 6.4286022186279297
v 15.000053405761719 0 10.71424674987793
v 15.000053405761719 0 15.00001335144043
v 0.29998061060905457 0 0.29994025826454163
v 7.950005054473877 0 0.29994025826454163
v 0.29998061060905457 0 -7.3500232696533203
v 7.950005054473877 0 -7.3500232696533203
v 0.29998061060905457 0 7.9499645233154297
v 7.950005054473877 0 7.9499645233154297
v 10.714286804199219 0 15.00001335144043
v 6.428520679473877 0 15.00001335144043
v 2.142876148223877 0 15.00001335144043
v -2.142890453338623 0 15.00001335144043
v -6.428534984588623 0 15.00001335144043
v -10.714302062988281 0 15.00001335144043
v -14.999946594238281 0 15.00001335144043
v -7.350043773651123 0 0.29994025826454163
v -7.350043773651123 0 7.9499645233154297
v -14.999946594238281 0 -14.99998664855957
v -10.714302062988281 0 -14.99998664855957
v -6.428534984588623 0 -14.99998664855957
v -2.142890453338623 0 -14.99998664855957
v 2.142876148223877 0 -14.99998664855957
v 6.428520679473877 0 -14.99998664855957
v 10.714286804199219 0 -14.99998664855957
v -7.350043773651123 0 -7.3500232696533203
v -14.999946594238281 0 10.71424674987793
v -14.999946594238281 0 6.4286022186279297
v -14.999946594238281 0 2.1428358554840088
v -14.999946594238281 0 -2.1428086757659912
v -14.999946594238281 0 -6.4285755157470703
v -14.999946594238281 0 -10.71428108215332
v 15.000053405761719 1 -14.99998664855957
v 15.000053405761719 0 -14.99998664855957
v -14.999946594238281 1 -14.99998664855957
v -14.999946594238281 0 -14.99998664855957
v 10.714286804199219 1 -14.99998664855957
v 6.428520679473877 1 -14.99998664855957
v 2.142876148223877 1 -14.99998664855957
v -2.142890453338623 1 -14.99998664855957
v -6.428534984588623 1 -14.99998664855957
v -10.714302062988281 1 -14.99998664855957
v -10.714302062988281 0 -14.99998664855957
v -6.428534984588623 0 -14.99998664855957
v -2.142890453338623 0 -14.99998664855957
v 2.142876148223877 0 -14.99998664855957
v 6.428520679473877 0 -14.99998664855957
v 10.714286804199219 0 -14.99998664855957
v -14.999946594238281 1 -14.99998664855957
v -14.999946594238281 0 -14.99998664855957
v -14.999946594238281 1 15.00001335144043
v -14.999946594238281 0 15.00001335144043
v -14.999946594238281 1 -10.71428108215332
v -14.999946594238281 1 -6.4285755157470703
v -14.999946594238281 1 -2.1428086757659912
v -14.999946594238281 1 2.1428358554840088
v -14.999946594238281 1 6.4286022186279297
v -14.999946594238281 1 10.71424674987793
v -14.999946594238281 0 10.71424674987793
v -14.999946594238281 0 6.4286022186279297
v -14.999946594238281 0 2.1428358554840088
v -14.999946594238281 0 -2.1428086757659912
v -14.999946594238281 0 -6.4285755157470703
v -14.999946594238281 0 -10.71428108215332
v -14.999946594238281 0 15.00001335144043
v -14.999946594238281 1 15.00001335144043
v 15.000053405761719 0 15.00001335144043
v 15.000053405761719 1 15.00001335144043
v 10.714286804199219 1 15.00001335144043
v 6.428520679473877 1 15.00001335144043
v 2.142876148223877 1 15.00001335144043
v -2.142890453338623 1 15.00001335144043
v -6.428534984588623 1 15.00001335144043
v -10.714302062988281 1 15.00001335144043
v -10.714302062988281 0 15.00001335144043
v -6.428534984588623 0 15.00001335144043
v -2.142890453338623 0 15.00001335144043
v 2.142876148223877 0 15.00001335144043
v 6.428520679473877 0 15.00001335144043
v 10.714286804199219 0 15.00001335144043
vt 0.55411940813064575 0.98875993490219116
vt 0.48429659008979797 0.98875993490219116
vt 0.41447374224662781 0.98875993490219116
vt 0.34465089440345764 0.98875993490219116
vt 0.27482804656028748 0.98875993490219116
vt 0.20500518381595612 0.98875993490219116
vt 0.13518233597278595 0.98875993490219116
vt 0.065359480679035187 0.98875993490219116
vt 0.31462705135345459 0.749267578125
vt 0.31462705135345459 0.8739013671875
vt 0.43926084041595459 0.749267578125
vt 0.43926084041595459 0.8739013671875
vt 0.18999326229095459 0.749267578125
vt 0.18999326229095459 0.8739013671875
vt 0.065359480679035187 0.5
vt 0.13518233597278595 0.5
vt 0.20500518381595612 0.5
vt 0.27482804656028748 0.5
vt 0.34465089440345764 0.5
vt 0.41447374224662781 0.5
vt 0.48429659008979797 0.5
vt 0.31462705135345459 0.6246337890625
vt 0.18999326229095459 0.6246337890625
vt 0.43926084041595459 0.6246337890625
vt 0.065359480679035187 0.918937087059021
vt 0.065359480679035187 0.84911423921585083
vt 0.065359480679035187 0.77929139137268066
vt 0.065359480679035187 0.7094685435295105
vt 0.065359480679035187 0.63964569568634033
vt 0.065359480679035187 0.56982284784317017
vt 0.55411940813064575 0.5
vt 0.55411940813064575 0.56982284784317017
vt 0.55411940813064575 0.63964569568634033
vt 0.55411940813064575 0.7094685435295105
vt 0.55411940813064575 0.77929139137268066
vt 0.55411940813064575 0.84911423921585083
vt 0.55411940813064575 0.918937087059021
vt 0.014875025488436222 0
vt 0 0
vt 0.014875025488436222 0.49019607901573181
vt 0 0.49019607901573181
vt 0 0.42016807198524475
vt 0 0.35014006495475769
vt 0 0.28011205792427063
vt 0 0.21008403599262238
vt 0 0.14005602896213531
vt 0 0.070028014481067657
vt 0.014875025488436222 0.070028014481067657
vt 0.014875025488436222 0.14005602896213531
vt 0.014875025488436222 0.21008403599262238
vt 0.014875025488436222 0.28011205792427063
vt 0.014875025488436222 0.35014006495475769
vt 0.014875025488436222 0.42016807198524475
vt 0.55411940813064575 0
vt 0.55411940813064575 0.069822855293750763
vt 0.55411940813064575 0.13964571058750153
vt 0.55411940813064575 0.20946855843067169
vt 0.55411940813064575 0.27929142117500305
vt 0.55411940813064575 0.34911426901817322
vt 0.55411940813064575 0.41893711686134338
vt 0.55411940813064575 0.48875996470451355
vt 0.31462705135345459 0.249267578125
vt 0.43926084041595459 0.249267578125
vt 0.31462705135345459 0.1246337890625
vt 0.43926084041595459 0.1246337890625
vt 0.31462705135345459 0.3739013671875
vt 0.43926084041595459 0.3739013671875
vt 0.48429659008979797 0.48875996470451355
vt 0.41447374224662781 0.48875996470451355
vt 0.34465089440345764 0.48875996470451355
vt 0.27482804656028748 0.48875996470451355
vt 0.20500518381595612 0.48875996470451355
vt 0.13518233597278595 0.48875996470451355
vt 0.065359480679035187 0.48875996470451355
vt 0.18999326229095459 0.249267578125
vt 0.18999326229095459 0.3739013671875
vt 0.065359480679035187 0
vt 0.13518233597278595 0
vt 0.20500518381595612 0
vt 0.27482804656028748 0
vt 0.34465089440345764 0
vt 0.41447374224662781 0
vt 0.48429659008979797 0
vt 0.18999326229095459 0.1246337890625
vt 0.065359480679035187 0.41893711686134338
vt 0.065359480679035187 0.34911426901817322
vt 0.065359480679035187 0.27929142117500305
vt 0.065359480679035187 0.20946855843067169
vt 0.065359480679035187 0.13964571058750153
vt 0.065359480679035187 0.069822855293750763
vt 0.063894636929035187 0
vt 0.049019608646631241 0
vt 0.063894636929035187 0.49019607901573181
vt 0.049019608646631241 0.49019607901573181
vt 0.063894636929035187 0.070028014481067657
vt 0.063894636929035187 0.14005602896213531
vt 0.063894636929035187 0.21008403599262238
vt 0.063894636929035187 0.28011205792427063
vt 0.063894636929035187 0.35014006495475769
vt 0.063894636929035187 0.42016807198524475
vt 0.049019608646631241 0.42016807198524475
vt 0.049019608646631241 0.35014006495475769
vt 0.049019608646631241 0.28011205792427063
vt 0.049019608646631241 0.21008403599262238
vt 0.049019608646631241 0.14005602896213531
vt 0.049019608646631241 0.070028014481067657
vt 0.047554764896631241 0
vt 0.032679740339517593 0
vt 0.047554764896631241 0.49019607901573181
vt 0.032679740339517593 0.49019607901573181
vt 0.047554764896631241 0.070028014481067657
vt 0.047554764896631241 0.14005602896213531
vt 0.047554764896631241 0.21008403599262238
vt 0.047554764896631241 0.28011205792427063
vt 0.047554764896631241 0.35014006495475769
vt 0.047554764896631241 0.42016807198524475
vt 0.032679740339517593 0.42016807198524475
vt 0.032679740339517593 0.35014006495475769
vt 0.032679740339517593 0.28011205792427063
vt 0.032679740339517593 0.21008403599262238
vt 0.032679740339517593 0.14005602896213531
vt 0.032679740339517593 0.070028014481067657
vt 0.031214894726872444 0
vt 0.016339870169758797 0
vt 0.031214894726872444 0.49019607901573181
vt 0.016339870169758797 0.49019607901573181
vt 0.016339870169758797 0.42016807198524475
vt 0.016339870169758797 0.35014006495475769
vt 0.016339870169758797 0.28011205792427063
vt 0.016339870169758797 0.21008403599262238
vt 0.016339870169758797 0.14005602896213531
vt 0.016339870169758797 0.070028014481067657
vt 0.031214894726872444 0.070028014481067657
vt 0.031214894726872444 0.14005602896213531
vt 0.031214894726872444 0.21008403599262238
vt 0.031214894726872444 0.28011205792427063
vt 0.031214894726872444 0.35014006495475769
vt 0.031214894726872444 0.42016807198524475
vn 0 1 0
vn 0 1 0
vn 0 1 0
vn 0 1 0
vn 0 1 0
vn 0 1 0
vn 0 1 0
vn 0 1 0
vn 0 1 0
vn 0 1 0
vn 0 1 0
vn 0 1 0
vn 0 1 0
vn 0 1 0
vn 0 1 0
vn 0 1 0
vn 0 1 0
vn 0 1 0
vn 0 1 0
vn 0 1 0
vn 0 1 0
vn 0 1 0
vn 0 1 0
vn 0 1 0
vn 0 1 0
vn 0 1 0
vn 0 1 0
vn 0 1 0
vn 0 1 0
vn 0 1 0
vn 0 1 0
vn 0 1 0
vn 0 1 0
vn 0 1 0
vn 0 1 0
vn 0 1 0
vn 0 1 0
vn 1 0 0
vn 1 0 0
vn 1 0 0
vn 1 0 0
vn 1 0 0
vn 1 0 0
vn 1 0 0
vn 1 0 0
vn 1 0 0
vn 1 0 0
vn 1 0 0
vn 1 0 0
vn 1 0 0
vn 1 0 0
vn 1 0 0
vn 1 0 0
vn 0 -1 0
vn 0 -1 0
vn 0 -1 0
vn 0 -1 0
vn 0 -1 0
vn 0 -1 0
vn 0 -1 0
vn 0 -1 0
vn 0 -1 0
vn 0 -1 0
vn 0 -1 0
vn 0 -1 0
vn 0 -1 0
vn 0 -1 0
vn 0 -1 0
vn 0 -1 0
vn 0 -1 0
vn 0 -1 0
vn 0 -1 0
vn 0 -1 0
vn 0 -1 0
vn 0 -1 0
vn 0 -1 0
vn 0 -1 0
vn 0 -1 0
vn 0 -1 0
vn 0 -1 0
vn 0 -1 0
vn 0 -1 0
vn 0 -1 0
vn 0 -1 0
vn 0 -1 0
vn 0 -1 0
vn 0 -1 0
vn 0 -1 0
vn 0 -1 0
vn 0 -1 0
vn 0 0 -1
vn 0 0 -1
vn 0 0 -1
vn 0 0 -1
vn 0 0 -1
vn 0 0 -1
vn 0 0 -1
vn 0 0 -1
vn 0 0 -1
vn 0 0 -1
vn 0 0 -1
vn 0 0 -1
vn 0 0 -1
vn 0 0 -1
vn 0 0 -1
vn 0 0 -1
vn -1 0 0
vn -1 0 0
vn -1 0 0
vn -1 0 0
vn -1 0 0
vn -1 0 0
vn -1 0 0
vn -1 0 0
vn -1 0 0
vn -1 0 0
vn -1 0 0
vn -1 0 0
vn -1 0 0
vn -1 0 0
vn -1 0 0
vn -1 0 0
vn 0 0 1
vn 0 0 1
vn 0 0 1
vn 0 0 1
vn 0 0 1
vn 0 0 1
vn 0 0 1
vn 0 0 1
vn 0 0 1
vn 0 0 1
vn 0 0 1
vn 0 0 1
vn 0 0 1
vn 0 0 1
vn 0 0 1
vn 0 0 1
f 12/12/12 11/11/11 9/9/9 10/10/10
f 10/10/10 9/9/9 13/13/13 14/14/14
f 9/9/9 22/22/22 23/23/23 13/13/13
f 11/11/11 24/24/24 22/22/22 9/9/9
f 16/16/16 15/15/15 30/30/30
f 23/23/23 29/29/29 28/28/28
f 29/29/29 23/23/23 30/30/30
f 23/23/23 17/17/17 16/16/16
f 22/22/22 18/18/18 17/17/17 23/23/23
f 19/19/19 18/18/18 22/22/22
f 13/13/13 23/23/23 28/28/28
f 30/30/30 23/23/23 16/16/16
f 26/26/26 14/14/14 13/13/13 27/27/27
f 7/7/7 25/25/25 8/8/8
f 25/25/25 14/14/14 26/26/26
f 25/25/25 7/7/7 14/14/14
f 14/14/14 7/7/7 6/6/6
f 14/14/14 6/6/6 5/5/5
f 5/5/5 10/10/10 14/14/14
f 13/13/13 28/28/28 27/27/27
f 19/19/19 22/22/22 24/24/24 20/20/20
f 11/11/11 34/34/34 33/33/33 24/24/24
f 24/24/24 21/21/21 20/20/20
f 32/32/32 31/31/31 21/21/21
f 32/32/32 24/24/24 33/33/33
f 32/32/32 21/21/21 24/24/24
f 35/35/35 34/34/34 11/11/11
f 10/10/10 4/4/4 3/3/3 12/12/12
f 3/3/3 2/2/2 12/12/12
f 5/5/5 4/4/4 10/10/10
f 36/36/36 12/12/12 37/37/37
f 1/1/1 37/37/37 2/2/2
f 37/37/37 12/12/12 2/2/2
f 35/35/35 11/11/11 12/12/12 36/36/36
f 38/38/38 48/48/48 47/47/47 39/39/39
f 49/49/49 50/50/50 45/45/45 46/46/46
f 48/48/48 49/49/49 46/46/46 47/47/47
f 50/50/50 51/51/51 44/44/44 45/45/45
f 51/51/51 52/52/52 43/43/43 44/44/44
f 53/53/53 40/40/40 41/41/41 42/42/42
f 52/52/52 53/53/53 42/42/42 43/43/43
f 67/67/67 66/66/66 62/62/62 63/63/63
f 66/66/66 76/76/76 75/75/75 62/62/62
f 62/62/62 75/75/75 84/84/84 64/64/64
f 63/63/63 62/62/62 64/64/64 65/65/65
f 78/78/78 90/90/90 77/77/77
f 84/84/84 88/88/88 89/89/89
f 89/89/89 90/90/90 84/84/84
f 84/84/84 78/78/78 79/79/79
f 64/64/64 84/84/84 79/79/79 80/80/80
f 81/81/81 64/64/64 80/80/80
f 75/75/75 88/88/88 84/84/84
f 90/90/90 78/78/78 84/84/84
f 86/86/86 87/87/87 75/75/75 76/76/76
f 73/73/73 74/74/74 85/85/85
f 85/85/85 86/86/86 76/76/76
f 85/85/85 76/76/76 73/73/73
f 76/76/76 72/72/72 73/73/73
f 76/76/76 71/71/71 72/72/72
f 71/71/71 76/76/76 66/66/66
f 75/75/75 87/87/87 88/88/88
f 81/81/81 82/82/82 65/65/65 64/64/64
f 63/63/63 65/65/65 56/56/56 57/57/57
f 65/65/65 82/82/82 83/83/83
f 55/55/55 83/83/83 54/54/54
f 55/55/55 56/56/56 65/65/65
f 55/55/55 65/65/65 83/83/83
f 58/58/58 63/63/63 57/57/57
f 66/66/66 67/67/67 69/69/69 70/70/70
f 69/69/69 67/67/67 68/68/68
f 71/71/71 66/66/66 70/70/70
f 59/59/59 60/60/60 67/67/67
f 61/61/61 68/68/68 60/60/60
f 60/60/60 68/68/68 67/67/67
f 58/58/58 59/59/59 67/67/67 63/63/63
f 95/95/95 91/91/91 92/92/92 106/106/106
f 96/96/96 105/105/105 104/104/104 97/97/97
f 95/95/95 106/106/106 105/105/105 96/96/96
f 97/97/97 104/104/104 103/103/103 98/98/98
f 98/98/98 103/103/103 102/102/102 99/99/99
f 93/93/93 100/100/100 101/101/101 94/94/94
f 100/100/100 99/99/99 102/102/102 101/101/101
f 107/107/107 108/108/108 122/122/122 111/111/111
f 112/112/112 121/121/121 120/120/120 113/113/113
f 111/111/111 122/122/122 121/121/121 112/112/112
f 113/113/113 120/120/120 119/119/119 114/114/114
f 115/115/115 114/114/114 119/119/119 118/118/118
f 109/109/109 116/116/116 117/117/117 110/110/110
f 116/116/116 115/115/115 118/118/118 117/117/117
f 123/123/123 133/133/133 132/132/132 124/124/124
f 134/134/134 135/135/135 130/130/130 131/131/131
f 133/133/133 134/134/134 131/131/131 132/132/132
f 129/129/129 130/130/130 135/135/135 136/136/136
f 136/136/136 137/137/137 128/128/128 129/129/129
f 125/125/125 126/126/126 127/127/127 138/138/138
f 137/137/137 138/138/138 127/127/127 128/128/128
