# Rhino

g Cubos_Final
o object_1
v -14.999946594238281 0 -14.99998664855957
v -14.999946594238281 30 -14.99998664855957
v 15.000053405761719 0 -14.99998664855957
v 5.3838357416680083E-05 0 -14.99998664855957
v 15.000053405761719 15 -14.99998664855957
v -14.999946594238281 15 -14.99998664855957
v 15.000053405761719 30 -14.99998664855957
v 5.3838357416680083E-05 30 -14.99998664855957
v 15.000053405761719 30 -14.99998664855957
v 15.000053405761719 0 -14.99998664855957
v 15.000053405761719 30 15.00001335144043
v 15.000053405761719 15 -14.99998664855957
v 15.000053405761719 0 15.00001335144043
v 15.000053405761719 0 1.3497639884008095E-05
v 15.000053405761719 15 15.00001335144043
v 15.000053405761719 30 1.3497639884008095E-05
v -14.999946594238281 0 -14.99998664855957
v -14.999946594238281 0 15.00001335144043
v 15.000053405761719 0 -14.99998664855957
v 15.000053405761719 0 15.00001335144043
v 5.3838357416680083E-05 0 -14.99998664855957
v 15.000053405761719 0 1.3497639884008095E-05
v 5.3838357416680083E-05 0 15.00001335144043
v -14.999946594238281 0 1.3497639884008095E-05
v -14.999946594238281 0 -14.99998664855957
v -14.999946594238281 30 -14.99998664855957
v -14.999946594238281 0 15.00001335144043
v -14.999946594238281 15 -14.99998664855957
v -14.999946594238281 0 1.3497639884008095E-05
v -14.999946594238281 30 15.00001335144043
v -14.999946594238281 30 1.3497639884008095E-05
v -14.999946594238281 15 15.00001335144043
v 15.000053405761719 30 -14.99998664855957
v 15.000053405761719 30 15.00001335144043
v -14.999946594238281 30 -14.99998664855957
v -14.999946594238281 30 15.00001335144043
v 5.3838357416680083E-05 30 -14.99998664855957
v 15.000053405761719 30 1.3497639884008095E-05
v -14.999946594238281 30 1.3497639884008095E-05
v 5.3838357416680083E-05 30 15.00001335144043
v -14.999946594238281 0 15.00001335144043
v 15.000053405761719 30 15.00001335144043
v 15.000053405761719 0 15.00001335144043
v 15.000053405761719 15 15.00001335144043
v 5.3838357416680083E-05 0 15.00001335144043
v -14.999946594238281 30 15.00001335144043
v -14.999946594238281 15 15.00001335144043
v 5.3838357416680083E-05 30 15.00001335144043
vt 0 0.3333333432674408
vt 0 0.66666668653488159
vt 0.3318684995174408 0.3333333432674408
vt 0.1659342497587204 0.3333333432674408
vt 0.3318684995174408 0.5
vt 0 0.5
vt 0.3318684995174408 0.66666668653488159
vt 0.1659342497587204 0.66666668653488159
vt 0 0
vt 0 0.3318684995174408
vt 0.3333333432674408 0
vt 0 0.1659342497587204
vt 0.3333333432674408 0.3318684995174408
vt 0.1666666716337204 0.3318684995174408
vt 0.3333333432674408 0.1659342497587204
vt 0.1666666716337204 0
vt 0.66520184278488159 0.66666668653488159
vt 0.3333333432674408 0.66666668653488159
vt 0.66520184278488159 0.99853515625
vt 0.3333333432674408 0.99853515625
vt 0.66520184278488159 0.83260089159011841
vt 0.499267578125 0.99853515625
vt 0.3333333432674408 0.83260089159011841
vt 0.499267578125 0.66666668653488159
vt 0.3333333432674408 0.3333333432674408
vt 0.3333333432674408 0.66520184278488159
vt 0.66520184278488159 0.3333333432674408
vt 0.3333333432674408 0.499267578125
vt 0.499267578125 0.3333333432674408
vt 0.66520184278488159 0.66520184278488159
vt 0.499267578125 0.66520184278488159
vt 0.66520184278488159 0.499267578125
vt 0.99853515625 0.5
vt 0.66666668653488159 0.5
vt 0.99853515625 0.83333331346511841
vt 0.66666668653488159 0.83333331346511841
vt 0.99853515625 0.66666793823242188
vt 0.83260089159011841 0.5
vt 0.83260089159011841 0.83333331346511841
vt 0.66666668653488159 0.66666668653488159
vt 0.99853515625 0
vt 0.66666668653488159 0.3333333432674408
vt 0.99853515625 0.33333271741867065
vt 0.83260089159011841 0.33333301544189453
vt 0.99853515625 0.16666604578495026
vt 0.66666668653488159 6.2248125232144957E-07
vt 0.83260089159011841 3.1124062616072479E-07
vt 0.66666668653488159 0.16666728258132935
vn 0 0 -1
vn 0 0 -1
vn 0 0 -1
vn 0 0 -1
vn 0 0 -1
vn 0 0 -1
vn 0 0 -1
vn 0 0 -1
vn 1 0 0
vn 1 0 0
vn 1 0 0
vn 1 0 0
vn 1 0 0
vn 1 0 0
vn 1 0 0
vn 1 0 0
vn 0 -1 0
vn 0 -1 0
vn 0 -1 0
vn 0 -1 0
vn 0 -1 0
vn 0 -1 0
vn 0 -1 0
vn 0 -1 0
vn -1 0 0
vn -1 0 0
vn -1 0 0
vn -1 0 0
vn -1 0 0
vn -1 0 0
vn -1 0 0
vn -1 0 0
vn 0 1 0
vn 0 1 0
vn 0 1 0
vn 0 1 0
vn 0 1 0
vn 0 1 0
vn 0 1 0
vn 0 1 0
vn 0 0 1
vn 0 0 1
vn 0 0 1
vn 0 0 1
vn 0 0 1
vn 0 0 1
vn 0 0 1
vn 0 0 1
f 6/6/6 4/4/4 1/1/1
f 6/6/6 2/2/2 8/8/8
f 5/5/5 4/4/4 6/6/6
f 6/6/6 8/8/8 5/5/5
f 5/5/5 8/8/8 7/7/7
f 3/3/3 4/4/4 5/5/5
f 16/16/16 14/14/14 12/12/12
f 12/12/12 14/14/14 10/10/10
f 16/16/16 12/12/12 9/9/9
f 15/15/15 16/16/16 11/11/11
f 15/15/15 13/13/13 14/14/14
f 16/16/16 15/15/15 14/14/14
f 24/24/24 22/22/22 20/20/20 23/23/23
f 24/24/24 23/23/23 18/18/18
f 21/21/21 24/24/24 17/17/17
f 22/22/22 21/21/21 19/19/19
f 21/21/21 22/22/22 24/24/24
f 29/29/29 31/31/31 28/28/28
f 28/28/28 31/31/31 26/26/26
f 29/29/29 28/28/28 25/25/25
f 32/32/32 29/29/29 27/27/27
f 32/32/32 30/30/30 31/31/31
f 29/29/29 32/32/32 31/31/31
f 38/38/38 39/39/39 36/36/36 40/40/40
f 38/38/38 40/40/40 34/34/34
f 37/37/37 38/38/38 33/33/33
f 39/39/39 37/37/37 35/35/35
f 37/37/37 39/39/39 38/38/38
f 47/47/47 41/41/41 45/45/45
f 47/47/47 48/48/48 46/46/46
f 44/44/44 47/47/47 45/45/45
f 47/47/47 44/44/44 48/48/48
f 44/44/44 42/42/42 48/48/48
f 43/43/43 44/44/44 45/45/45
