# Rhino

g Quinta_Lago_Final
o object_1
v 14.99998950958252 2.5 -2.7787678845925257E-05
v 14.99998950958252 5 -2.7787678845925257E-05
v 12.49998950958252 2.5 -2.7787678845925257E-05
v 12.49998950958252 5 -2.7787678845925257E-05
v 12.49998950958252 3.75 -2.7787678845925257E-05
v 13.74998950958252 5 -2.7787678845925257E-05
v 14.99998950958252 3.75 -2.7787678845925257E-05
v 13.74998950958252 2.5 -2.7787678845925257E-05
v 12.49998950958252 2.5 -2.7787678845925257E-05
v 12.49998950958252 5 -2.7787678845925257E-05
v 12.49998950958252 2.5 14.999972343444824
v 12.49998950958252 3.75 -2.7787678845925257E-05
v 12.49998950958252 2.5 7.4999723434448242
v 12.49998950958252 3.75 7.4999723434448242
v 12.49998950958252 4.375 7.4999723434448242
v 12.49998950958252 3.75 3.7499721050262451
v 12.49998950958252 4.375 3.7499721050262451
v 12.49998950958252 3.125 7.4999723434448242
v 12.49998950958252 3.125 3.7499721050262451
v 12.49998950958252 5 14.999972343444824
v 12.49998950958252 5 9.9999723434448242
v 12.49998950958252 5 4.9999723434448242
v 12.49998950958252 3.75 14.999972343444824
v 12.49998950958252 3.75 11.249972343444824
v 12.49998950958252 3.125 11.249972343444824
v 12.49998950958252 4.375 11.249972343444824
v 12.49998950958252 5 14.999972343444824
v 12.49998950958252 5 -2.7787678845925257E-05
v 14.99998950958252 5 -2.7787678845925257E-05
v 13.74998950958252 5 -2.7787678845925257E-05
v 12.49998950958252 5 4.9999723434448242
v 12.49998950958252 5 9.9999723434448242
v 13.74998950958252 5 14.999972343444824
v 14.99998950958252 5 14.999972343444824
v 14.99998950958252 5 9.9999723434448242
v 14.99998950958252 5 4.9999723434448242
v 14.99998950958252 2.5 14.999972343444824
v 14.99998950958252 5 14.999972343444824
v 12.49998950958252 2.5 14.999972343444824
v 12.49998950958252 5 14.999972343444824
v 12.49998950958252 3.75 14.999972343444824
v 13.74998950958252 5 14.999972343444824
v 13.74998950958252 2.5 14.999972343444824
v 14.99998950958252 3.75 14.999972343444824
v 14.99998950958252 2.5 14.999972343444824
v 14.99998950958252 5 14.999972343444824
v 14.99998950958252 2.5 -2.7787678845925257E-05
v 14.99998950958252 5 -2.7787678845925257E-05
v 14.99998950958252 5 4.9999723434448242
v 14.99998950958252 5 9.9999723434448242
v 14.99998950958252 3.75 14.999972343444824
v 14.99998950958252 2.5 9.9999723434448242
v 14.99998950958252 2.5 4.9999723434448242
v 14.99998950958252 3.75 -2.7787678845925257E-05
v 12.49998950958252 2.5 14.999972343444824
v 12.49998950958252 2.5 -2.7787678845925257E-05
v 14.99998950958252 2.5 14.999972343444824
v 14.99998950958252 2.5 -2.7787678845925257E-05
v 13.74998950958252 2.5 14.999972343444824
v 13.74998950958252 2.5 -2.7787678845925257E-05
v 12.49998950958252 2.5 7.4999723434448242
v 13.74998950958252 2.5 7.4999723434448242
v 13.74998950958252 2.5 11.249972343444824
v 13.12498950958252 2.5 7.4999723434448242
v 13.12498950958252 2.5 11.249972343444824
v 14.37498950958252 2.5 7.4999723434448242
v 14.37498950958252 2.5 11.249972343444824
v 14.99998950958252 2.5 9.9999723434448242
v 14.99998950958252 2.5 4.9999723434448242
v 13.74998950958252 2.5 3.7499721050262451
v 14.37498950958252 2.5 3.7499721050262451
v 13.12498950958252 2.5 3.7499721050262451
vt 0.57142859697341919 0
vt 0.57142859697341919 0.1428571492433548
vt 0.71428573131561279 0
vt 0.71428573131561279 0.1428571492433548
vt 0.71428573131561279 0.071428574621677399
vt 0.6428571343421936 0.1428571492433548
vt 0.57142859697341919 0.071428574621677399
vt 0.6428571343421936 0
vt 0.1428571492433548 0.6428571343421936
vt 0.1428571492433548 0.78571426868438721
vt 0.99853515625 0.6428571343421936
vt 0.1428571492433548 0.71428573131561279
vt 0.57069617509841919 0.6428571343421936
vt 0.57069617509841919 0.71428573131561279
vt 0.57069617509841919 0.75
vt 0.3567766547203064 0.71428573131561279
vt 0.3567766547203064 0.75
vt 0.57069617509841919 0.67857140302658081
vt 0.3567766547203064 0.67857140302658081
vt 0.99853515625 0.78571426868438721
vt 0.71330916881561279 0.78571426868438721
vt 0.4280831515789032 0.78571426868438721
vt 0.99853515625 0.71428573131561279
vt 0.78461563587188721 0.71428573131561279
vt 0.78461563587188721 0.67857140302658081
vt 0.78461563587188721 0.75
vt 0 0
vt 0 0.8556780219078064
vt 0.1413923054933548 0.8556780219078064
vt 0.070696152746677399 0.8556780219078064
vt 0 0.57045203447341919
vt 0 0.28522601723670959
vt 0.070696152746677399 0
vt 0.1413923054933548 0
vt 0.1413923054933548 0.28522601723670959
vt 0.1413923054933548 0.57045203447341919
vt 0.28571429848670959 0
vt 0.1428571492433548 0
vt 0.28571429848670959 0.1428571492433548
vt 0.1428571492433548 0.1428571492433548
vt 0.2142857164144516 0.1428571492433548
vt 0.1428571492433548 0.071428574621677399
vt 0.28571429848670959 0.071428574621677399
vt 0.2142857164144516 0
vt 0.1428571492433548 0.2142857164144516
vt 0.1428571492433548 0.3571428656578064
vt 0.99853515625 0.2142857164144516
vt 0.99853515625 0.3571428656578064
vt 0.71330916881561279 0.3571428656578064
vt 0.4280831515789032 0.3571428656578064
vt 0.1428571492433548 0.28571429848670959
vt 0.4280831515789032 0.2142857164144516
vt 0.71330916881561279 0.2142857164144516
vt 0.99853515625 0.28571429848670959
vt 0.99853515625 0.4285714328289032
vt 0.1428571492433548 0.4285714328289032
vt 0.99853515625 0.57142859697341919
vt 0.1428571492433548 0.57142859697341919
vt 0.99853515625 0.5
vt 0.1428571492433548 0.5
vt 0.57069617509841919 0.4285714328289032
vt 0.57069617509841919 0.5
vt 0.78461563587188721 0.5
vt 0.57069617509841919 0.46428570151329041
vt 0.78461563587188721 0.46428570151329041
vt 0.57069617509841919 0.53571426868438721
vt 0.78461563587188721 0.53571426868438721
vt 0.71330916881561279 0.57142859697341919
vt 0.42808312177658081 0.57142859697341919
vt 0.3567766547203064 0.5
vt 0.3567766547203064 0.53571426868438721
vt 0.3567766547203064 0.46428570151329041
vn 0 0 -1
vn 0 0 -1
vn 0 0 -1
vn 0 0 -1
vn 0 0 -1
vn 0 0 -1
vn 0 0 -1
vn 0 0 -1
vn -1 0 0
vn -1 0 0
vn -1 0 0
vn -1 0 0
vn -1 0 0
vn -1 0 0
vn -1 0 0
vn -1 0 0
vn -1 0 0
vn -1 0 0
vn -1 0 0
vn -1 0 0
vn -1 0 0
vn -1 0 0
vn -1 0 0
vn -1 0 0
vn -1 0 0
vn -1 0 0
vn 0 1 0
vn 0 1 0
vn 0 1 0
vn 0 1 0
vn 0 1 0
vn 0 1 0
vn 0 1 0
vn 0 1 0
vn 0 1 0
vn 0 1 0
vn 0 0 1
vn 0 0 1
vn 0 0 1
vn 0 0 1
vn 0 0 1
vn 0 0 1
vn 0 0 1
vn 0 0 1
vn 1 0 0
vn 1 0 0
vn 1 0 0
vn 1 0 0
vn 1 0 0
vn 1 0 0
vn 1 0 0
vn 1 0 0
vn 1 0 0
vn 1 0 0
vn 0 -1 0
vn 0 -1 0
vn 0 -1 0
vn 0 -1 0
vn 0 -1 0
vn 0 -1 0
vn 0 -1 0
vn 0 -1 0
vn 0 -1 0
vn 0 -1 0
vn 0 -1 0
vn 0 -1 0
vn 0 -1 0
vn 0 -1 0
vn 0 -1 0
vn 0 -1 0
vn 0 -1 0
vn 0 -1 0
f 7/7/7 1/1/1 8/8/8
f 7/7/7 6/6/6 2/2/2
f 6/6/6 7/7/7 8/8/8
f 8/8/8 5/5/5 6/6/6
f 5/5/5 4/4/4 6/6/6
f 3/3/3 5/5/5 8/8/8
f 26/26/26 15/15/15 14/14/14 24/24/24
f 15/15/15 17/17/17 16/16/16 14/14/14
f 14/14/14 16/16/16 19/19/19 18/18/18
f 24/24/24 14/14/14 18/18/18 25/25/25
f 19/19/19 12/12/12 9/9/9
f 9/9/9 13/13/13 19/19/19
f 16/16/16 12/12/12 19/19/19
f 10/10/10 12/12/12 17/17/17
f 16/16/16 17/17/17 12/12/12
f 10/10/10 17/17/17 22/22/22
f 17/17/17 15/15/15 22/22/22
f 13/13/13 18/18/18 19/19/19
f 25/25/25 18/18/18 13/13/13
f 11/11/11 23/23/23 24/24/24 25/25/25
f 25/25/25 13/13/13 11/11/11
f 21/21/21 22/22/22 15/15/15 26/26/26
f 20/20/20 26/26/26 23/23/23
f 21/21/21 26/26/26 20/20/20
f 26/26/26 24/24/24 23/23/23
f 32/32/32 27/27/27 33/33/33
f 31/31/31 32/32/32 35/35/35 36/36/36
f 31/31/31 30/30/30 28/28/28
f 33/33/33 35/35/35 32/32/32
f 29/29/29 30/30/30 36/36/36
f 36/36/36 30/30/30 31/31/31
f 34/34/34 35/35/35 33/33/33
f 44/44/44 43/43/43 37/37/37
f 44/44/44 38/38/38 42/42/42
f 42/42/42 43/43/43 44/44/44
f 42/42/42 41/41/41 39/39/39 43/43/43
f 41/41/41 42/42/42 40/40/40
f 51/51/51 45/45/45 52/52/52
f 46/46/46 51/51/51 50/50/50
f 52/52/52 50/50/50 51/51/51
f 52/52/52 53/53/53 49/49/49 50/50/50
f 54/54/54 53/53/53 47/47/47
f 48/48/48 49/49/49 54/54/54
f 53/53/53 54/54/54 49/49/49
f 71/71/71 66/66/66 62/62/62 70/70/70
f 70/70/70 62/62/62 64/64/64 72/72/72
f 62/62/62 63/63/63 65/65/65 64/64/64
f 66/66/66 67/67/67 63/63/63 62/62/62
f 61/61/61 65/65/65 55/55/55
f 59/59/59 55/55/55 65/65/65
f 65/65/65 63/63/63 59/59/59
f 67/67/67 59/59/59 63/63/63
f 72/72/72 61/61/61 56/56/56
f 61/61/61 72/72/72 64/64/64
f 64/64/64 65/65/65 61/61/61
f 60/60/60 72/72/72 56/56/56
f 68/68/68 67/67/67 66/66/66
f 67/67/67 68/68/68 57/57/57
f 57/57/57 59/59/59 67/67/67
f 69/69/69 68/68/68 66/66/66
f 72/72/72 60/60/60 70/70/70
f 71/71/71 70/70/70 60/60/60
f 58/58/58 69/69/69 71/71/71
f 60/60/60 58/58/58 71/71/71
f 71/71/71 69/69/69 66/66/66
o object_2
v -15.00001049041748 0 -15.000027656555176
v -15.00001049041748 5 -15.000027656555176
v -15.00001049041748 0 -2.7787678845925257E-05
v -15.00001049041748 0 14.999972343444824
v -15.00001049041748 2.5 -15.000027656555176
v -15.00001049041748 2.5 -2.7787678845925257E-05
v -15.00001049041748 0 -7.5000276565551758
v -15.00001049041748 2.5 -7.5000276565551758
v -15.00001049041748 2.5 14.999972343444824
v -15.00001049041748 0 7.4999723434448242
v -15.00001049041748 2.5 7.4999723434448242
v -15.00001049041748 5 14.999972343444824
v -15.00001049041748 5 4.9999723434448242
v -15.00001049041748 5 -5.0000276565551758
v -15.00001049041748 5 -15.000027656555176
v -10.00001049041748 5 14.999972343444824
v -10.00001049041748 5 -15.000027656555176
v -12.50001049041748 5 -15.000027656555176
v -15.00001049041748 5 14.999972343444824
v -12.50001049041748 5 14.999972343444824
v -15.00001049041748 5 -5.0000276565551758
v -15.00001049041748 5 4.9999723434448242
v -10.00001049041748 5 4.9999723434448242
v -10.00001049041748 5 -5.0000276565551758
v -10.00001049041748 5 14.999972343444824
v -10.00001049041748 0 -15.000027656555176
v -10.00001049041748 5 -15.000027656555176
v -10.00001049041748 5 -5.0000276565551758
v -10.00001049041748 5 4.9999723434448242
v -10.00001049041748 2.5 -15.000027656555176
v -10.00001049041748 0 -2.7787678845925257E-05
v -10.00001049041748 2.5 -2.7787678845925257E-05
v -10.00001049041748 2.5 -7.5000276565551758
v -10.00001049041748 1.25 -2.7787678845925257E-05
v -10.00001049041748 0 -7.5000276565551758
v -10.00001049041748 1.25 -7.5000276565551758
v -10.00001049041748 3.75 -2.7787678845925257E-05
v -10.00001049041748 3.75 -7.5000276565551758
v -10.00001049041748 2.5 14.999972343444824
v -10.00001049041748 0 14.999972343444824
v -10.00001049041748 2.5 7.4999723434448242
v -10.00001049041748 3.75 7.4999723434448242
v -10.00001049041748 0 7.4999723434448242
v -10.00001049041748 1.25 7.4999723434448242
v -15.00001049041748 0 -15.000027656555176
v -15.00001049041748 5 -15.000027656555176
v -10.00001049041748 0 -15.000027656555176
v -10.00001049041748 5 -15.000027656555176
v -15.00001049041748 2.5 -15.000027656555176
v -12.50001049041748 5 -15.000027656555176
v -10.00001049041748 2.5 -15.000027656555176
v -10.00001049041748 0 14.999972343444824
v -10.00001049041748 5 14.999972343444824
v -15.00001049041748 0 14.999972343444824
v -15.00001049041748 5 14.999972343444824
v -15.00001049041748 2.5 14.999972343444824
v -12.50001049041748 5 14.999972343444824
v -10.00001049041748 2.5 14.999972343444824
vt 0.1428571492433548 0.57142859697341919
vt 0.1428571492433548 0.71428573131561279
vt 0.57069617509841919 0.57142859697341919
vt 0.99853515625 0.57142859697341919
vt 0.1428571492433548 0.6428571343421936
vt 0.57069617509841919 0.6428571343421936
vt 0.3567766547203064 0.57142859697341919
vt 0.3567766547203064 0.6428571343421936
vt 0.99853515625 0.6428571343421936
vt 0.78461563587188721 0.57142859697341919
vt 0.78461563587188721 0.6428571343421936
vt 0.99853515625 0.71428573131561279
vt 0.71330916881561279 0.71428573131561279
vt 0.4280831515789032 0.71428573131561279
vt 0.1413923054933548 0
vt 0 0.8556780219078064
vt 0 0
vt 0.070696152746677399 0
vt 0.1413923054933548 0.8556780219078064
vt 0.070696152746677399 0.8556780219078064
vt 0.1413923054933548 0.28522601723670959
vt 0.1413923054933548 0.57045203447341919
vt 0 0.57045203447341919
vt 0 0.28522601723670959
vt 0.1428571492433548 0.4285714328289032
vt 0.99853515625 0.28571429848670959
vt 0.99853515625 0.4285714328289032
vt 0.71330916881561279 0.4285714328289032
vt 0.4280831515789032 0.4285714328289032
vt 0.99853515625 0.3571428656578064
vt 0.57069617509841919 0.28571429848670959
vt 0.57069617509841919 0.3571428656578064
vt 0.78461563587188721 0.3571428656578064
vt 0.57069617509841919 0.3214285671710968
vt 0.78461563587188721 0.28571429848670959
vt 0.78461563587188721 0.3214285671710968
vt 0.57069617509841919 0.3928571343421936
vt 0.78461563587188721 0.3928571343421936
vt 0.1428571492433548 0.3571428656578064
vt 0.1428571492433548 0.28571429848670959
vt 0.3567766547203064 0.3571428656578064
vt 0.3567766547203064 0.3928571343421936
vt 0.3567766547203064 0.28571429848670959
vt 0.3567766547203064 0.3214285671710968
vt 0.71428573131561279 0
vt 0.57142859697341919 0
vt 0.71428573131561279 0.1428571492433548
vt 0.57142859697341919 0.1428571492433548
vt 0.6428571343421936 0
vt 0.57142859697341919 0.071428574621677399
vt 0.6428571343421936 0.1428571492433548
vt 0.28571429848670959 0
vt 0.1428571492433548 0
vt 0.28571429848670959 0.1428571492433548
vt 0.1428571492433548 0.1428571492433548
vt 0.2142857164144516 0.1428571492433548
vt 0.1428571492433548 0.071428574621677399
vt 0.2142857164144516 0
vn -1 0 0
vn -1 0 0
vn -1 0 0
vn -1 0 0
vn -1 0 0
vn -1 0 0
vn -1 0 0
vn -1 0 0
vn -1 0 0
vn -1 0 0
vn -1 0 0
vn -1 0 0
vn -1 0 0
vn -1 0 0
vn 0 1 0
vn 0 1 0
vn 0 1 0
vn 0 1 0
vn 0 1 0
vn 0 1 0
vn 0 1 0
vn 0 1 0
vn 0 1 0
vn 0 1 0
vn 1 0 0
vn 1 0 0
vn 1 0 0
vn 1 0 0
vn 1 0 0
vn 1 0 0
vn 1 0 0
vn 1 0 0
vn 1 0 0
vn 1 0 0
vn 1 0 0
vn 1 0 0
vn 1 0 0
vn 1 0 0
vn 1 0 0
vn 1 0 0
vn 1 0 0
vn 1 0 0
vn 1 0 0
vn 1 0 0
vn 0 0 -1
vn 0 0 -1
vn 0 0 -1
vn 0 0 -1
vn 0 0 -1
vn 0 0 -1
vn 0 0 -1
vn 0 0 1
vn 0 0 1
vn 0 0 1
vn 0 0 1
vn 0 0 1
vn 0 0 1
vn 0 0 1
f 78/78/78 80/80/80 79/79/79 75/75/75
f 83/83/83 78/78/78 75/75/75 82/82/82
f 79/79/79 80/80/80 77/77/77 73/73/73
f 78/78/78 86/86/86 80/80/80
f 77/77/77 80/80/80 74/74/74
f 86/86/86 74/74/74 80/80/80
f 83/83/83 82/82/82 76/76/76 81/81/81
f 84/84/84 85/85/85 83/83/83
f 78/78/78 83/83/83 85/85/85
f 83/83/83 81/81/81 84/84/84
f 86/86/86 78/78/78 85/85/85
f 90/90/90 87/87/87 93/93/93
f 89/89/89 90/90/90 96/96/96
f 93/93/93 96/96/96 90/90/90
f 93/93/93 94/94/94 95/95/95 96/96/96
f 92/92/92 94/94/94 91/91/91
f 88/88/88 95/95/95 92/92/92
f 94/94/94 92/92/92 95/95/95
f 110/110/110 109/109/109 104/104/104 105/105/105
f 109/109/109 114/114/114 113/113/113 104/104/104
f 104/104/104 113/113/113 116/116/116 106/106/106
f 106/106/106 116/116/116 115/115/115 103/103/103
f 105/105/105 104/104/104 106/106/106 108/108/108
f 108/108/108 106/106/106 103/103/103 107/107/107
f 116/116/116 112/112/112 115/115/115
f 111/111/111 112/112/112 116/116/116 113/113/113
f 114/114/114 97/97/97 111/111/111
f 97/97/97 114/114/114 101/101/101
f 114/114/114 109/109/109 101/101/101
f 114/114/114 111/111/111 113/113/113
f 98/98/98 108/108/108 107/107/107
f 98/98/98 102/102/102 105/105/105 108/108/108
f 101/101/101 109/109/109 100/100/100
f 110/110/110 100/100/100 109/109/109
f 99/99/99 110/110/110 102/102/102
f 100/100/100 110/110/110 99/99/99
f 110/110/110 105/105/105 102/102/102
f 121/121/121 123/123/123 119/119/119 117/117/117
f 122/122/122 121/121/121 118/118/118
f 121/121/121 122/122/122 123/123/123
f 123/123/123 122/122/122 120/120/120
f 130/130/130 128/128/128 126/126/126 124/124/124
f 129/129/129 130/130/130 125/125/125
f 130/130/130 129/129/129 127/127/127 128/128/128
o object_3
v -1.0291878425050527E-05 0 -2.7787678845925257E-05
v -1.0291878425050527E-05 15 -2.7787678845925257E-05
v 14.99998950958252 0 -2.7787678845925257E-05
v 14.99998950958252 15 -2.7787678845925257E-05
v 7.4999895095825195 15 -2.7787678845925257E-05
v -1.0291878425050527E-05 7.5 -2.7787678845925257E-05
v 14.99998950958252 2.5 -2.7787678845925257E-05
v 14.99998950958252 8.75 -2.7787678845925257E-05
v 7.4999895095825195 0 -2.7787678845925257E-05
v 7.4999895095825195 7.5 -2.7787678845925257E-05
v 11.24998950958252 7.5 -2.7787678845925257E-05
v 7.4999895095825195 3.75 -2.7787678845925257E-05
v 11.24998950958252 0 -2.7787678845925257E-05
v 11.24998950958252 3.75 -2.7787678845925257E-05
v -1.0291878425050527E-05 0 -15.000027656555176
v -1.0291878425050527E-05 15 -15.000027656555176
v -1.0291878425050527E-05 0 -2.7787678845925257E-05
v -1.0291878425050527E-05 15 -2.7787678845925257E-05
v -1.0291878425050527E-05 7.5 -2.7787678845925257E-05
v -1.0291878425050527E-05 15 -7.5000276565551758
v -1.0291878425050527E-05 7.5 -15.000027656555176
v -1.0291878425050527E-05 15 -2.7787678845925257E-05
v -1.0291878425050527E-05 15 -15.000027656555176
v 14.99998950958252 15 -2.7787678845925257E-05
v 14.99998950958252 15 -15.000027656555176
v 14.99998950958252 15 -7.5000276565551758
v 7.4999895095825195 15 -2.7787678845925257E-05
v 7.4999895095825195 15 -15.000027656555176
v -1.0291878425050527E-05 15 -7.5000276565551758
v 14.99998950958252 0 -2.7787678845925257E-05
v 14.99998950958252 15 -2.7787678845925257E-05
v 14.99998950958252 0 -15.000027656555176
v 14.99998950958252 15 -15.000027656555176
v 14.99998950958252 15 -7.5000276565551758
v 14.99998950958252 7.5 -15.000027656555176
v 14.99998950958252 8.75 -2.7787678845925257E-05
v 14.99998950958252 2.5 -2.7787678845925257E-05
v 14.99998950958252 0 -7.5000276565551758
v 14.99998950958252 7.5 -7.5000276565551758
v 14.99998950958252 3.75 -7.5000276565551758
v 14.99998950958252 7.5 -3.7500278949737549
v 14.99998950958252 0 -3.7500278949737549
v 14.99998950958252 3.75 -3.7500278949737549
v 14.99998950958252 0 -15.000027656555176
v 14.99998950958252 15 -15.000027656555176
v -1.0291878425050527E-05 0 -15.000027656555176
v -1.0291878425050527E-05 15 -15.000027656555176
v 7.4999895095825195 15 -15.000027656555176
v 14.99998950958252 7.5 -15.000027656555176
v -1.0291878425050527E-05 7.5 -15.000027656555176
vt 0.3333333432674408 0
vt 0.3333333432674408 0.3318684995174408
vt 0.66520184278488159 0
vt 0.66520184278488159 0.3318684995174408
vt 0.499267578125 0.3318684995174408
vt 0.3333333432674408 0.1659342497587204
vt 0.66520184278488159 0.0553114153444767
vt 0.66520184278488159 0.1935899406671524
vt 0.499267578125 0
vt 0.499267578125 0.1659342497587204
vt 0.58223468065261841 0.1659342497587204
vt 0.499267578125 0.082967124879360199
vt 0.58223468065261841 0
vt 0.58223468065261841 0.082967124879360199
vt 0 0
vt 0 0.3318684995174408
vt 0.3318684995174408 0
vt 0.3318684995174408 0.3318684995174408
vt 0.3318684995174408 0.1659342497587204
vt 0.1659342497587204 0.3318684995174408
vt 0 0.1659342497587204
vt 0 0.3333333432674408
vt 0 0.66520184278488159
vt 0.3318684995174408 0.3333333432674408
vt 0.3318684995174408 0.66520184278488159
vt 0.3318684995174408 0.499267578125
vt 0.1659342497587204 0.3333333432674408
vt 0.1659342497587204 0.66520184278488159
vt 0 0.499267578125
vt 0.3333333432674408 0.3333333432674408
vt 0.3333333432674408 0.66520184278488159
vt 0.66520184278488159 0.3333333432674408
vt 0.66520184278488159 0.66520184278488159
vt 0.499267578125 0.66520184278488159
vt 0.66520184278488159 0.499267578125
vt 0.3333333432674408 0.52692329883575439
vt 0.3333333432674408 0.3886447548866272
vt 0.499267578125 0.3333333432674408
vt 0.499267578125 0.499267578125
vt 0.499267578125 0.4163004457950592
vt 0.4163004457950592 0.499267578125
vt 0.4163004457950592 0.3333333432674408
vt 0.4163004457950592 0.4163004457950592
vt 0.66666668653488159 0
vt 0.66666668653488159 0.3333333432674408
vt 0.99853515625 0
vt 0.99853515625 0.3333333432674408
vt 0.83260089159011841 0.3333333432674408
vt 0.66666668653488159 0.1666666716337204
vt 0.99853515625 0.1666666716337204
vn 0 0 1
vn 0 0 1
vn 0 0 1
vn 0 0 1
vn 0 0 1
vn 0 0 1
vn 0 0 1
vn 0 0 1
vn 0 0 1
vn 0 0 1
vn 0 0 1
vn 0 0 1
vn 0 0 1
vn 0 0 1
vn -1 0 0
vn -1 0 0
vn -1 0 0
vn -1 0 0
vn -1 0 0
vn -1 0 0
vn -1 0 0
vn 0 1 0
vn 0 1 0
vn 0 1 0
vn 0 1 0
vn 0 1 0
vn 0 1 0
vn 0 1 0
vn 0 1 0
vn 1 0 0
vn 1 0 0
vn 1 0 0
vn 1 0 0
vn 1 0 0
vn 1 0 0
vn 1 0 0
vn 1 0 0
vn 1 0 0
vn 1 0 0
vn 1 0 0
vn 1 0 0
vn 1 0 0
vn 1 0 0
vn 0 0 -1
vn 0 0 -1
vn 0 0 -1
vn 0 0 -1
vn 0 0 -1
vn 0 0 -1
vn 0 0 -1
f 141/141/141 140/140/140 142/142/142 144/144/144
f 144/144/144 142/142/142 139/139/139 143/143/143
f 142/142/142 131/131/131 139/139/139
f 136/136/136 131/131/131 142/142/142
f 132/132/132 136/136/136 140/140/140 135/135/135
f 141/141/141 135/135/135 140/140/140
f 140/140/140 136/136/136 142/142/142
f 137/137/137 143/143/143 133/133/133
f 144/144/144 143/143/143 137/137/137
f 141/141/141 144/144/144 137/137/137 138/138/138
f 141/141/141 138/138/138 134/134/134
f 135/135/135 141/141/141 134/134/134
f 151/151/151 145/145/145 147/147/147 149/149/149
f 150/150/150 146/146/146 151/151/151
f 151/151/151 149/149/149 150/150/150
f 149/149/149 148/148/148 150/150/150
f 159/159/159 152/152/152 157/157/157
f 159/159/159 158/158/158 153/153/153
f 156/156/156 159/159/159 157/157/157
f 159/159/159 156/156/156 158/158/158
f 156/156/156 155/155/155 158/158/158
f 154/154/154 156/156/156 157/157/157
f 169/169/169 171/171/171 173/173/173 170/170/170
f 170/170/170 173/173/173 172/172/172 168/168/168
f 167/167/167 160/160/160 172/172/172
f 173/173/173 167/167/167 172/172/172
f 171/171/171 161/161/161 166/166/166
f 173/173/173 171/171/171 166/166/166 167/167/167
f 164/164/164 161/161/161 171/171/171
f 170/170/170 168/168/168 162/162/162
f 165/165/165 170/170/170 162/162/162
f 171/171/171 169/169/169 164/164/164
f 164/164/164 169/169/169 165/165/165 163/163/163
f 165/165/165 169/169/169 170/170/170
f 179/179/179 174/174/174 176/176/176 180/180/180
f 178/178/178 175/175/175 179/179/179
f 179/179/179 180/180/180 178/178/178
f 180/180/180 177/177/177 178/178/178
