# Rhino

g Quinta_Lago_Final
o object_1
v -15.00001049041748 5.340576171875E-05 -15.000027656555176
v -10.00001049041748 5.340576171875E-05 -15.000027656555176
v -10.00001049041748 5.340576171875E-05 14.999972343444824
v -10.00001049041748 5.340576171875E-05 -10.000027656555176
v -12.50001049041748 5.340576171875E-05 -15.000027656555176
v -12.50001049041748 5.340576171875E-05 -2.7787678845925257E-05
v -15.00001049041748 5.340576171875E-05 -2.7787678845925257E-05
v -11.25001049041748 5.340576171875E-05 -2.7787678845925257E-05
v -12.50001049041748 5.340576171875E-05 -7.5000276565551758
v -11.25001049041748 5.340576171875E-05 -7.5000276565551758
v -13.75001049041748 5.340576171875E-05 -2.7787678845925257E-05
v -13.75001049041748 5.340576171875E-05 -7.5000276565551758
v -10.00001049041748 5.340576171875E-05 2.4999721050262451
v -15.00001049041748 5.340576171875E-05 14.999972343444824
v -12.50001049041748 5.340576171875E-05 14.999972343444824
v -12.50001049041748 5.340576171875E-05 7.4999723434448242
v -13.75001049041748 5.340576171875E-05 7.4999723434448242
v -11.25001049041748 5.340576171875E-05 7.4999723434448242
v -10.00001049041748 5.340576171875E-05 -15.000027656555176
v -10.00001049041748 5.0000534057617188 -15.000027656555176
v -15.00001049041748 5.340576171875E-05 -15.000027656555176
v -15.00001049041748 5.0000534057617188 -15.000027656555176
v -12.50001049041748 5.340576171875E-05 -15.000027656555176
v -10.00001049041748 2.5000534057617188 -15.000027656555176
v -15.00001049041748 2.5000534057617188 -15.000027656555176
v -12.50001049041748 5.0000534057617188 -15.000027656555176
v -10.00001049041748 5.0000534057617188 -15.000027656555176
v -10.00001049041748 5.340576171875E-05 -15.000027656555176
v 14.99998950958252 5.340576171875E-05 -15.000027656555176
v -10.00001049041748 2.5000534057617188 -15.000027656555176
v 2.4999897480010986 5.340576171875E-05 -15.000027656555176
v 2.4999897480010986 5.0000534057617188 -15.000027656555176
v 2.4999897480010986 2.5000534057617188 -15.000027656555176
v 2.4999897480010986 1.2500534057617188 -15.000027656555176
v -3.7500102519989014 2.5000534057617188 -15.000027656555176
v -3.7500102519989014 1.2500534057617188 -15.000027656555176
v 2.4999897480010986 3.7500534057617188 -15.000027656555176
v -3.7500102519989014 3.7500534057617188 -15.000027656555176
v 14.99998950958252 5.0000534057617188 -15.000027656555176
v 14.99998950958252 2.5000534057617188 -15.000027656555176
v 8.7499895095825195 2.5000534057617188 -15.000027656555176
v 8.7499895095825195 3.7500534057617188 -15.000027656555176
v 8.7499895095825195 1.2500534057617188 -15.000027656555176
v 14.99998950958252 5.0000534057617188 -10.000027656555176
v 14.99998950958252 5.340576171875E-05 -10.000027656555176
v -10.00001049041748 5.0000534057617188 -10.000027656555176
v -10.00001049041748 5.340576171875E-05 -10.000027656555176
v 2.4999897480010986 5.340576171875E-05 -10.000027656555176
v 2.4999897480010986 5.0000534057617188 -10.000027656555176
v 2.4999897480010986 2.5000534057617188 -10.000027656555176
v 14.99998950958252 2.5000534057617188 -10.000027656555176
v 2.4999897480010986 1.2500534057617188 -10.000027656555176
v 8.7499895095825195 2.5000534057617188 -10.000027656555176
v 8.7499895095825195 1.2500534057617188 -10.000027656555176
v 2.4999897480010986 3.7500534057617188 -10.000027656555176
v 8.7499895095825195 3.7500534057617188 -10.000027656555176
v -10.00001049041748 5.0000534057617188 -10.000027656555176
v 14.99998950958252 5.0000534057617188 -10.000027656555176
v -10.00001049041748 5.0000534057617188 -15.000027656555176
v 2.4999897480010986 5.0000534057617188 -15.000027656555176
v 2.4999897480010986 5.0000534057617188 -10.000027656555176
v 2.4999897480010986 5.0000534057617188 -12.500027656555176
v 14.99998950958252 5.0000534057617188 -15.000027656555176
v 14.99998950958252 5.0000534057617188 -12.500027656555176
v 8.7499895095825195 5.0000534057617188 -12.500027656555176
v 2.4999897480010986 5.0000534057617188 -13.750027656555176
v 8.7499895095825195 5.0000534057617188 -13.750027656555176
v 2.4999897480010986 5.0000534057617188 -11.250027656555176
v 8.7499895095825195 5.0000534057617188 -11.250027656555176
v -15.00001049041748 5.340576171875E-05 -15.000027656555176
v -15.00001049041748 5.0000534057617188 -15.000027656555176
v -15.00001049041748 5.340576171875E-05 14.999972343444824
v -15.00001049041748 5.0000534057617188 14.999972343444824
v -15.00001049041748 5.340576171875E-05 -2.7787678845925257E-05
v -15.00001049041748 5.0000534057617188 -2.7787678845925257E-05
v -15.00001049041748 2.5000534057617188 -15.000027656555176
v -15.00001049041748 2.5000534057617188 -2.7787678845925257E-05
v -15.00001049041748 3.7500534057617188 -2.7787678845925257E-05
v -15.00001049041748 2.5000534057617188 -7.5000276565551758
v -15.00001049041748 3.7500534057617188 -7.5000276565551758
v -15.00001049041748 1.2500534057617188 -2.7787678845925257E-05
v -15.00001049041748 1.2500534057617188 -7.5000276565551758
v -15.00001049041748 2.5000534057617188 14.999972343444824
v -15.00001049041748 2.5000534057617188 7.4999723434448242
v -15.00001049041748 1.2500534057617188 7.4999723434448242
v -15.00001049041748 3.7500534057617188 7.4999723434448242
v -15.00001049041748 5.0000534057617188 -15.000027656555176
v -10.00001049041748 5.0000534057617188 -15.000027656555176
v -10.00001049041748 5.0000534057617188 14.999972343444824
v -10.00001049041748 5.0000534057617188 -10.000027656555176
v -12.50001049041748 5.0000534057617188 -15.000027656555176
v -12.50001049041748 5.0000534057617188 -2.7787678845925257E-05
v -15.00001049041748 5.0000534057617188 -2.7787678845925257E-05
v -11.25001049041748 5.0000534057617188 -2.7787678845925257E-05
v -12.50001049041748 5.0000534057617188 -7.5000276565551758
v -11.25001049041748 5.0000534057617188 -7.5000276565551758
v -13.75001049041748 5.0000534057617188 -2.7787678845925257E-05
v -13.75001049041748 5.0000534057617188 -7.5000276565551758
v -15.00001049041748 5.0000534057617188 14.999972343444824
v -12.50001049041748 5.0000534057617188 14.999972343444824
v -12.50001049041748 5.0000534057617188 7.4999723434448242
v -13.75001049041748 5.0000534057617188 7.4999723434448242
v -11.25001049041748 5.0000534057617188 7.4999723434448242
v -10.00001049041748 5.0000534057617188 2.4999721050262451
v -10.00001049041748 5.0000534057617188 14.999972343444824
v -10.00001049041748 5.0000534057617188 -10.000027656555176
v -10.00001049041748 5.340576171875E-05 14.999972343444824
v -10.00001049041748 5.340576171875E-05 2.4999721050262451
v -10.00001049041748 5.340576171875E-05 -10.000027656555176
v -10.00001049041748 5.0000534057617188 2.4999721050262451
v -10.00001049041748 2.5000534057617188 2.4999721050262451
v -10.00001049041748 2.5000534057617188 14.999972343444824
v -10.00001049041748 3.7500534057617188 2.4999721050262451
v -10.00001049041748 2.5000534057617188 8.7499723434448242
v -10.00001049041748 3.7500534057617188 8.7499723434448242
v -10.00001049041748 1.2500534057617188 2.4999721050262451
v -10.00001049041748 1.2500534057617188 8.7499723434448242
v -10.00001049041748 5.340576171875E-05 -10.000027656555176
v 14.99998950958252 5.340576171875E-05 -10.000027656555176
v -10.00001049041748 5.340576171875E-05 -15.000027656555176
v 14.99998950958252 5.340576171875E-05 -15.000027656555176
v 2.4999897480010986 5.340576171875E-05 -15.000027656555176
v 2.4999897480010986 5.340576171875E-05 -10.000027656555176
v 2.4999897480010986 5.340576171875E-05 -12.500027656555176
v 14.99998950958252 5.340576171875E-05 -12.500027656555176
v 8.7499895095825195 5.340576171875E-05 -12.500027656555176
v 2.4999897480010986 5.340576171875E-05 -13.750027656555176
v 8.7499895095825195 5.340576171875E-05 -13.750027656555176
v 2.4999897480010986 5.340576171875E-05 -11.250027656555176
v 8.7499895095825195 5.340576171875E-05 -11.250027656555176
v -10.00001049041748 5.340576171875E-05 14.999972343444824
v -10.00001049041748 5.0000534057617188 14.999972343444824
v -15.00001049041748 5.340576171875E-05 14.999972343444824
v -15.00001049041748 5.0000534057617188 14.999972343444824
v -15.00001049041748 2.5000534057617188 14.999972343444824
v -12.50001049041748 5.0000534057617188 14.999972343444824
v -12.50001049041748 5.340576171875E-05 14.999972343444824
v -10.00001049041748 2.5000534057617188 14.999972343444824
v 14.99998950958252 5.340576171875E-05 -10.000027656555176
v 14.99998950958252 5.340576171875E-05 -15.000027656555176
v 14.99998950958252 5.0000534057617188 -10.000027656555176
v 14.99998950958252 5.0000534057617188 -15.000027656555176
v 14.99998950958252 5.0000534057617188 -12.500027656555176
v 14.99998950958252 2.5000534057617188 -10.000027656555176
v 14.99998950958252 2.5000534057617188 -15.000027656555176
v 14.99998950958252 5.340576171875E-05 -12.500027656555176
vt 0 0
vt 0 0.12353515625
vt 0.74853515625 0.12353515625
vt 0.124755859375 0.12353515625
vt 0 0.061767578125
vt 0.374267578125 0.061767578125
vt 0.374267578125 0
vt 0.374267578125 0.0926513671875
vt 0.1871337890625 0.061767578125
vt 0.1871337890625 0.0926513671875
vt 0.374267578125 0.0308837890625
vt 0.1871337890625 0.0308837890625
vt 0.4366455078125 0.12353515625
vt 0.74853515625 0
vt 0.74853515625 0.061767578125
vt 0.5614013671875 0.061767578125
vt 0.5614013671875 0.0308837890625
vt 0.5614013671875 0.0926513671875
vt 0.125 0.375
vt 0 0.375
vt 0.125 0.49853515625
vt 0 0.49853515625
vt 0.125 0.436767578125
vt 0.0625 0.375
vt 0.0625 0.49853515625
vt 0 0.436767578125
vt 0 0.625
vt 0 0.74853515625
vt 0.625 0.74853515625
vt 0 0.686767578125
vt 0.3125 0.74853515625
vt 0.3125 0.625
vt 0.3125 0.686767578125
vt 0.3125 0.7176513671875
vt 0.15625 0.686767578125
vt 0.15625 0.7176513671875
vt 0.3125 0.6558837890625
vt 0.15625 0.6558837890625
vt 0.625 0.625
vt 0.625 0.686767578125
vt 0.46875 0.686767578125
vt 0.46875 0.6558837890625
vt 0.46875 0.7176513671875
vt 0.87353515625 0.125
vt 0.75 0.125
vt 0.87353515625 0.75
vt 0.75 0.75
vt 0.75 0.4375
vt 0.87353515625 0.4375
vt 0.811767578125 0.4375
vt 0.811767578125 0.125
vt 0.7808837890625 0.4375
vt 0.811767578125 0.28125
vt 0.7808837890625 0.28125
vt 0.8426513671875 0.4375
vt 0.8426513671875 0.28125
vt 0.625 0.25
vt 0 0.25
vt 0.625 0.37353515625
vt 0.3125 0.37353515625
vt 0.3125 0.25
vt 0.3125 0.311767578125
vt 0 0.37353515625
vt 0 0.311767578125
vt 0.15625 0.311767578125
vt 0.3125 0.3426513671875
vt 0.15625 0.3426513671875
vt 0.3125 0.2808837890625
vt 0.15625 0.2808837890625
vt 0.99853515625 0.125
vt 0.875 0.125
vt 0.99853515625 0.87353515625
vt 0.875 0.87353515625
vt 0.99853515625 0.499267578125
vt 0.875 0.499267578125
vt 0.936767578125 0.125
vt 0.936767578125 0.499267578125
vt 0.9058837890625 0.499267578125
vt 0.936767578125 0.3121337890625
vt 0.9058837890625 0.3121337890625
vt 0.9676513671875 0.499267578125
vt 0.9676513671875 0.3121337890625
vt 0.936767578125 0.87353515625
vt 0.936767578125 0.6864013671875
vt 0.9676513671875 0.6864013671875
vt 0.9058837890625 0.6864013671875
vt 0 0.75
vt 0 0.87353515625
vt 0.74853515625 0.87353515625
vt 0.124755859375 0.87353515625
vt 0 0.811767578125
vt 0.374267578125 0.811767578125
vt 0.374267578125 0.75
vt 0.374267578125 0.8426513671875
vt 0.1871337890625 0.811767578125
vt 0.1871337890625 0.8426513671875
vt 0.374267578125 0.7808837890625
vt 0.1871337890625 0.7808837890625
vt 0.74853515625 0.75
vt 0.74853515625 0.811767578125
vt 0.5614013671875 0.811767578125
vt 0.5614013671875 0.7808837890625
vt 0.5614013671875 0.8426513671875
vt 0.4366455078125 0.87353515625
vt 0 0.24853515625
vt 0.625 0.24853515625
vt 0 0.125
vt 0.3125 0.125
vt 0.625 0.125
vt 0.3125 0.24853515625
vt 0.3125 0.186767578125
vt 0 0.186767578125
vt 0.3125 0.2176513671875
vt 0.15625 0.186767578125
vt 0.15625 0.2176513671875
vt 0.3125 0.1558837890625
vt 0.15625 0.1558837890625
vt 0.625 0.5
vt 0 0.5
vt 0.625 0.62353515625
vt 0 0.62353515625
vt 0.3125 0.62353515625
vt 0.3125 0.5
vt 0.3125 0.561767578125
vt 0 0.561767578125
vt 0.15625 0.561767578125
vt 0.3125 0.5926513671875
vt 0.15625 0.5926513671875
vt 0.3125 0.5308837890625
vt 0.15625 0.5308837890625
vt 0.87353515625 0
vt 0.75 0
vt 0.87353515625 0.12353515625
vt 0.75 0.12353515625
vt 0.811767578125 0.12353515625
vt 0.75 0.061767578125
vt 0.87353515625 0.061767578125
vt 0.811767578125 0
vt 0.875 0
vt 0.875 0.12353515625
vt 0.99853515625 0
vt 0.99853515625 0.12353515625
vt 0.99853515625 0.061767578125
vt 0.936767578125 0
vt 0.936767578125 0.12353515625
vt 0.875 0.061767578125
vn 0 -1 0
vn 0 -1 0
vn 0 -1 0
vn 0 -1 0
vn 0 -1 0
vn 0 -1 0
vn 0 -1 0
vn 0 -1 0
vn 0 -1 0
vn 0 -1 0
vn 0 -1 0
vn 0 -1 0
vn 0 -1 0
vn 0 -1 0
vn 0 -1 0
vn 0 -1 0
vn 0 -1 0
vn 0 -1 0
vn 0 0 -1
vn 0 0 -1
vn 0 0 -1
vn 0 0 -1
vn 0 0 -1
vn 0 0 -1
vn 0 0 -1
vn 0 0 -1
vn 0 0 -1
vn 0 0 -1
vn 0 0 -1
vn 0 0 -1
vn 0 0 -1
vn 0 0 -1
vn 0 0 -1
vn 0 0 -1
vn 0 0 -1
vn 0 0 -1
vn 0 0 -1
vn 0 0 -1
vn 0 0 -1
vn 0 0 -1
vn 0 0 -1
vn 0 0 -1
vn 0 0 -1
vn 0 0 1
vn 0 0 1
vn 0 0 1
vn 0 0 1
vn 0 0 1
vn 0 0 1
vn 0 0 1
vn 0 0 1
vn 0 0 1
vn 0 0 1
vn 0 0 1
vn 0 0 1
vn 0 0 1
vn 0 1 0
vn 0 1 0
vn 0 1 0
vn 0 1 0
vn 0 1 0
vn 0 1 0
vn 0 1 0
vn 0 1 0
vn 0 1 0
vn 0 1 0
vn 0 1 0
vn 0 1 0
vn 0 1 0
vn -1 0 0
vn -1 0 0
vn -1 0 0
vn -1 0 0
vn -1 0 0
vn -1 0 0
vn -1 0 0
vn -1 0 0
vn -1 0 0
vn -1 0 0
vn -1 0 0
vn -1 0 0
vn -1 0 0
vn -1 0 0
vn -1 0 0
vn -1 0 0
vn -1 0 0
vn 0 1 0
vn 0 1 0
vn 0 1 0
vn 0 1 0
vn 0 1 0
vn 0 1 0
vn 0 1 0
vn 0 1 0
vn 0 1 0
vn 0 1 0
vn 0 1 0
vn 0 1 0
vn 0 1 0
vn 0 1 0
vn 0 1 0
vn 0 1 0
vn 0 1 0
vn 0 1 0
vn 1 0 0
vn 1 0 0
vn 1 0 0
vn 1 0 0
vn 1 0 0
vn 1 0 0
vn 1 0 0
vn 1 0 0
vn 1 0 0
vn 1 0 0
vn 1 0 0
vn 1 0 0
vn 1 0 0
vn 0 -1 0
vn 0 -1 0
vn 0 -1 0
vn 0 -1 0
vn 0 -1 0
vn 0 -1 0
vn 0 -1 0
vn 0 -1 0
vn 0 -1 0
vn 0 -1 0
vn 0 -1 0
vn 0 -1 0
vn 0 -1 0
vn 0 0 1
vn 0 0 1
vn 0 0 1
vn 0 0 1
vn 0 0 1
vn 0 0 1
vn 0 0 1
vn 0 0 1
vn 1 0 0
vn 1 0 0
vn 1 0 0
vn 1 0 0
vn 1 0 0
vn 1 0 0
vn 1 0 0
vn 1 0 0
f 18/18/18 16/16/16 6/6/6 8/8/8
f 8/8/8 6/6/6 9/9/9 10/10/10
f 6/6/6 11/11/11 12/12/12 9/9/9
f 16/16/16 17/17/17 11/11/11 6/6/6
f 12/12/12 1/1/1 5/5/5
f 9/9/9 12/12/12 5/5/5
f 12/12/12 11/11/11 7/7/7
f 7/7/7 1/1/1 12/12/12
f 10/10/10 2/2/2 4/4/4
f 5/5/5 2/2/2 10/10/10
f 10/10/10 9/9/9 5/5/5
f 10/10/10 4/4/4 13/13/13 8/8/8
f 14/14/14 7/7/7 17/17/17
f 14/14/14 17/17/17 15/15/15
f 16/16/16 15/15/15 17/17/17
f 18/18/18 8/8/8 13/13/13
f 3/3/3 15/15/15 18/18/18
f 13/13/13 3/3/3 18/18/18
f 18/18/18 15/15/15 16/16/16
f 7/7/7 11/11/11 17/17/17
f 24/24/24 19/19/19 23/23/23
f 24/24/24 26/26/26 20/20/20
f 25/25/25 24/24/24 23/23/23
f 24/24/24 25/25/25 26/26/26
f 25/25/25 22/22/22 26/26/26
f 21/21/21 25/25/25 23/23/23
f 43/43/43 34/34/34 33/33/33 41/41/41
f 34/34/34 36/36/36 35/35/35 33/33/33
f 33/33/33 35/35/35 38/38/38 37/37/37
f 41/41/41 33/33/33 37/37/37 42/42/42
f 30/30/30 27/27/27 38/38/38
f 32/32/32 38/38/38 27/27/27
f 38/38/38 32/32/32 37/37/37
f 42/42/42 37/37/37 32/32/32
f 36/36/36 28/28/28 30/30/30
f 30/30/30 35/35/35 36/36/36
f 35/35/35 30/30/30 38/38/38
f 31/31/31 28/28/28 36/36/36
f 40/40/40 41/41/41 42/42/42
f 42/42/42 39/39/39 40/40/40
f 39/39/39 42/42/42 32/32/32
f 43/43/43 41/41/41 40/40/40
f 36/36/36 34/34/34 31/31/31
f 43/43/43 31/31/31 34/34/34
f 31/31/31 43/43/43 29/29/29
f 40/40/40 29/29/29 43/43/43
f 52/52/52 54/54/54 53/53/53 50/50/50
f 50/50/50 53/53/53 56/56/56 55/55/55
f 51/51/51 44/44/44 56/56/56
f 49/49/49 56/56/56 44/44/44
f 53/53/53 51/51/51 56/56/56
f 45/45/45 51/51/51 53/53/53 54/54/54
f 48/48/48 45/45/45 54/54/54
f 55/55/55 49/49/49 46/46/46
f 50/50/50 55/55/55 46/46/46
f 56/56/56 49/49/49 55/55/55
f 47/47/47 52/52/52 50/50/50
f 52/52/52 47/47/47 48/48/48
f 47/47/47 50/50/50 46/46/46
f 54/54/54 52/52/52 48/48/48
f 67/67/67 66/66/66 62/62/62 65/65/65
f 65/65/65 62/62/62 68/68/68 69/69/69
f 61/61/61 68/68/68 57/57/57
f 62/62/62 57/57/57 68/68/68
f 69/69/69 68/68/68 61/61/61
f 64/64/64 69/69/69 58/58/58
f 61/61/61 58/58/58 69/69/69
f 62/62/62 59/59/59 57/57/57
f 60/60/60 59/59/59 66/66/66
f 67/67/67 60/60/60 66/66/66
f 69/69/69 64/64/64 65/65/65
f 67/67/67 65/65/65 64/64/64
f 64/64/64 63/63/63 67/67/67
f 60/60/60 67/67/67 63/63/63
f 59/59/59 62/62/62 66/66/66
f 86/86/86 78/78/78 77/77/77 84/84/84
f 78/78/78 80/80/80 79/79/79 77/77/77
f 77/77/77 79/79/79 82/82/82 81/81/81
f 84/84/84 77/77/77 81/81/81 85/85/85
f 76/76/76 70/70/70 82/82/82
f 74/74/74 82/82/82 70/70/70
f 82/82/82 74/74/74 81/81/81
f 85/85/85 81/81/81 74/74/74
f 80/80/80 71/71/71 76/76/76
f 76/76/76 79/79/79 80/80/80
f 79/79/79 76/76/76 82/82/82
f 75/75/75 71/71/71 80/80/80
f 83/83/83 84/84/84 85/85/85
f 85/85/85 72/72/72 83/83/83
f 72/72/72 85/85/85 74/74/74
f 86/86/86 84/84/84 83/83/83
f 80/80/80 78/78/78 75/75/75
f 86/86/86 75/75/75 78/78/78
f 75/75/75 86/86/86 73/73/73
f 83/83/83 73/73/73 86/86/86
f 103/103/103 94/94/94 92/92/92 101/101/101
f 94/94/94 96/96/96 95/95/95 92/92/92
f 92/92/92 95/95/95 98/98/98 97/97/97
f 101/101/101 92/92/92 97/97/97 102/102/102
f 98/98/98 91/91/91 87/87/87
f 95/95/95 91/91/91 98/98/98
f 98/98/98 93/93/93 97/97/97
f 93/93/93 98/98/98 87/87/87
f 96/96/96 90/90/90 88/88/88
f 91/91/91 96/96/96 88/88/88
f 96/96/96 91/91/91 95/95/95
f 96/96/96 94/94/94 104/104/104 90/90/90
f 99/99/99 102/102/102 93/93/93
f 99/99/99 100/100/100 102/102/102
f 101/101/101 102/102/102 100/100/100
f 103/103/103 104/104/104 94/94/94
f 89/89/89 103/103/103 100/100/100
f 104/104/104 103/103/103 89/89/89
f 103/103/103 101/101/101 100/100/100
f 93/93/93 102/102/102 97/97/97
f 113/113/113 115/115/115 114/114/114 111/111/111
f 111/111/111 114/114/114 117/117/117 116/116/116
f 112/112/112 107/107/107 117/117/117 114/114/114
f 108/108/108 117/117/117 107/107/107
f 105/105/105 112/112/112 115/115/115
f 114/114/114 115/115/115 112/112/112
f 110/110/110 105/105/105 115/115/115
f 116/116/116 108/108/108 109/109/109
f 111/111/111 116/116/116 109/109/109
f 106/106/106 113/113/113 111/111/111
f 113/113/113 106/106/106 110/110/110
f 106/106/106 111/111/111 109/109/109
f 113/113/113 110/110/110 115/115/115
f 117/117/117 108/108/108 116/116/116
f 128/128/128 126/126/126 124/124/124 127/127/127
f 126/126/126 130/130/130 129/129/129 124/124/124
f 123/123/123 118/118/118 129/129/129
f 124/124/124 129/129/129 118/118/118
f 130/130/130 123/123/123 129/129/129
f 125/125/125 119/119/119 130/130/130 126/126/126
f 123/123/123 130/130/130 119/119/119
f 124/124/124 118/118/118 120/120/120
f 122/122/122 127/127/127 120/120/120
f 128/128/128 127/127/127 122/122/122
f 128/128/128 125/125/125 126/126/126
f 125/125/125 128/128/128 121/121/121
f 122/122/122 121/121/121 128/128/128
f 120/120/120 127/127/127 124/124/124
f 137/137/137 138/138/138 136/136/136
f 138/138/138 132/132/132 136/136/136
f 137/137/137 131/131/131 138/138/138
f 135/135/135 133/133/133 137/137/137
f 135/135/135 136/136/136 134/134/134
f 137/137/137 136/136/136 135/135/135
f 146/146/146 144/144/144 139/139/139
f 146/146/146 140/140/140 145/145/145
f 143/143/143 144/144/144 146/146/146
f 146/146/146 145/145/145 143/143/143
f 143/143/143 145/145/145 142/142/142
f 141/141/141 144/144/144 143/143/143
