# Rhino

g Quinta_Lago_Final
o object_1
v 14.99998950958252 0 -15.000027656555176
v 14.99998950958252 30.000020980834961 -15.000027656555176
v -15.00001049041748 2.193450927734375E-05 -15.000027656555176
v -15.00001049041748 30.000032424926758 -15.000027656555176
v 14.99998950958252 15 -15.000027656555176
v -1.0291878425050527E-05 0 -15.000027656555176
v -1.0291878425050527E-05 30 -15.000027656555176
v -15.00001049041748 15 -15.000027656555176
v 14.99998950958252 2.193450927734375E-05 14.999972343444824
v 14.99998950958252 0 -15.000027656555176
v 14.99998950958252 30.000020980834961 -15.000027656555176
v 14.99998950958252 15 -15.000027656555176
v 14.99998950958252 30.000032424926758 14.999972343444824
v 14.99998950958252 15 14.999972343444824
v 14.99998950958252 0 -2.7787678845925257E-05
v 14.99998950958252 30 -2.7787678845925257E-05
v 14.99998950958252 2.193450927734375E-05 14.999972343444824
v 14.99998950958252 0 -15.000027656555176
v -1.0291878425050527E-05 0 -15.000027656555176
v -15.00001049041748 3.24249267578125E-05 14.999972343444824
v -1.0291878425050527E-05 0 14.999972343444824
v -15.00001049041748 2.193450927734375E-05 -15.000027656555176
v -15.00001049041748 0 -2.7787678845925257E-05
v 14.99998950958252 0 -2.7787678845925257E-05
v -15.00001049041748 30.000053405761719 14.999972343444824
v 14.99998950958252 30.000032424926758 14.999972343444824
v -15.00001049041748 3.24249267578125E-05 14.999972343444824
v 14.99998950958252 2.193450927734375E-05 14.999972343444824
v 14.99998950958252 15 14.999972343444824
v -1.0291878425050527E-05 0 14.999972343444824
v -1.0291878425050527E-05 30.000053405761719 14.999972343444824
v -15.00001049041748 15.000053405761719 14.999972343444824
v -15.00001049041748 30.000032424926758 -15.000027656555176
v -15.00001049041748 30.000053405761719 14.999972343444824
v 14.99998950958252 30.000032424926758 14.999972343444824
v 14.99998950958252 30.000020980834961 -15.000027656555176
v -1.0291878425050527E-05 30 -15.000027656555176
v 14.99998950958252 30 -2.7787678845925257E-05
v -1.0291878425050527E-05 30.000053405761719 14.999972343444824
v -15.00001049041748 30.000053405761719 -2.7787678845925257E-05
v -15.00001049041748 30.000032424926758 -15.000027656555176
v -15.00001049041748 30.000053405761719 14.999972343444824
v -15.00001049041748 2.193450927734375E-05 -15.000027656555176
v -15.00001049041748 15 -15.000027656555176
v -15.00001049041748 3.24249267578125E-05 14.999972343444824
v -15.00001049041748 0 -2.7787678845925257E-05
v -15.00001049041748 15.000053405761719 14.999972343444824
v -15.00001049041748 30.000053405761719 -2.7787678845925257E-05
vt 0.99853515625 0
vt 0.66666668653488159 0
vt 0.99853515625 0.3333333432674408
vt 0.66666668653488159 0.3333333432674408
vt 0.83260089159011841 0
vt 0.99853515625 0.1666666716337204
vt 0.66666668653488159 0.1666666716337204
vt 0.83260089159011841 0.3333333432674408
vt 0.66520184278488159 0.66666668653488159
vt 0.66520184278488159 0.99853515625
vt 0.3333333432674408 0.99853515625
vt 0.499267578125 0.99853515625
vt 0.3333333432674408 0.66666668653488159
vt 0.499267578125 0.66666668653488159
vt 0.66520184278488159 0.83260089159011841
vt 0.3333333432674408 0.83260089159011841
vt 0.3318684995174408 0.3333333432674408
vt 0.3318684995174408 0.66666668653488159
vt 0.1659342497587204 0.66666668653488159
vt 0 0.3333333432674408
vt 0.1659342497587204 0.3333333432674408
vt 0 0.66666668653488159
vt 0 0.5
vt 0.3318684995174408 0.5
vt 0 0
vt 0 0.3318684995174408
vt 0.3333333432674408 0
vt 0.3333333432674408 0.3318684995174408
vt 0.16666726768016815 0.3318684995174408
vt 0.3333333432674408 0.16593483090400696
vt 0 0.1659342497587204
vt 0.1666666716337204 0
vt 0.66520184278488159 0.3333333432674408
vt 0.66520184278488159 0.66520184278488159
vt 0.3333333432674408 0.66520184278488159
vt 0.3333333432674408 0.3333333432674408
vt 0.49926698207855225 0.3333333432674408
vt 0.3333333432674408 0.49926754832267761
vt 0.499267578125 0.66520184278488159
vt 0.66520184278488159 0.499267578125
vt 0.99853515625 0.5
vt 0.99853515625 0.83333331346511841
vt 0.66666668653488159 0.5
vt 0.83260029554367065 0.5
vt 0.66666668653488159 0.83333331346511841
vt 0.66666668653488159 0.66666662693023682
vt 0.83260089159011841 0.83333331346511841
vt 0.99853515625 0.66666668653488159
vn 0 0 -1
vn 0 0 -1
vn 0 0 -1
vn 0 0 -1
vn 0 0 -1
vn 0 0 -1
vn 0 0 -1
vn 0 0 -1
vn 1 0 0
vn 1 0 0
vn 1 0 0
vn 1 0 0
vn 1 0 0
vn 1 0 0
vn 1 0 0
vn 1 0 0
vn 0 -1 0
vn 0 -1 0
vn 0 -1 0
vn 0 -1 0
vn 0 -1 0
vn 0 -1 0
vn 0 -1 0
vn 0 -1 0
vn 0 0 1
vn 0 0 1
vn 0 0 1
vn 0 0 1
vn 0 0 1
vn 0 0 1
vn 0 0 1
vn 0 0 1
vn 0 1 0
vn 0 1 0
vn 0 1 0
vn 0 1 0
vn 0 1 0
vn 0 1 0
vn 0 1 0
vn 0 1 0
vn -1 0 0
vn -1 0 0
vn -1 0 0
vn -1 0 0
vn -1 0 0
vn -1 0 0
vn -1 0 0
vn -1 0 0
f 5/5/5 1/1/1 6/6/6
f 5/5/5 7/7/7 2/2/2
f 7/7/7 5/5/5 6/6/6
f 7/7/7 6/6/6 8/8/8 4/4/4
f 3/3/3 8/8/8 6/6/6
f 15/15/15 16/16/16 14/14/14
f 14/14/14 16/16/16 13/13/13
f 15/15/15 14/14/14 9/9/9
f 12/12/12 15/15/15 10/10/10
f 12/12/12 11/11/11 16/16/16
f 15/15/15 12/12/12 16/16/16
f 23/23/23 19/19/19 18/18/18 24/24/24
f 23/23/23 22/22/22 19/19/19
f 21/21/21 20/20/20 23/23/23
f 24/24/24 17/17/17 21/21/21
f 21/21/21 23/23/23 24/24/24
f 31/31/31 25/25/25 32/32/32
f 31/31/31 29/29/29 26/26/26
f 29/29/29 31/31/31 32/32/32
f 32/32/32 30/30/30 29/29/29
f 30/30/30 28/28/28 29/29/29
f 27/27/27 30/30/30 32/32/32
f 40/40/40 38/38/38 37/37/37
f 37/37/37 38/38/38 36/36/36
f 40/40/40 37/37/37 33/33/33
f 39/39/39 40/40/40 34/34/34
f 39/39/39 35/35/35 38/38/38
f 40/40/40 39/39/39 38/38/38
f 46/46/46 44/44/44 43/43/43
f 46/46/46 45/45/45 47/47/47
f 48/48/48 44/44/44 46/46/46
f 46/46/46 47/47/47 48/48/48
f 48/48/48 47/47/47 42/42/42
f 41/41/41 44/44/44 48/48/48
