# Rhino

g Paula_Rego_Final
o object_1
v -11.249985694885254 30 -11.249990463256836
v -14.999985694885254 0 -14.999990463256836
v -14.999985694885254 0 15.000009536743164
v -13.124985694885254 15 13.125009536743164
v -11.249985694885254 30 11.250009536743164
v -11.249985694885254 30 9.6149578894255683E-06
v -13.124985694885254 15 -13.124990463256836
v -14.999985694885254 0 9.6149578894255683E-06
v -11.249985694885254 30 11.250009536743164
v -14.999985694885254 0 15.000009536743164
v 15.000014305114746 0 15.000009536743164
v -13.124985694885254 15 13.125009536743164
v 13.125014305114746 15 13.125009536743164
v 11.250014305114746 30 11.250009536743164
v 1.402232373948209E-05 30 11.250009536743164
v 1.402232373948209E-05 0 15.000009536743164
v 15.000014305114746 0 15.000009536743164
v 11.250014305114746 30 -11.249990463256836
v 15.000014305114746 0 -14.999990463256836
v 13.125014305114746 15 13.125009536743164
v 11.250014305114746 30 11.250009536743164
v 11.250014305114746 30 9.6149578894255683E-06
v 13.125014305114746 15 -13.124990463256836
v 15.000014305114746 0 9.6149578894255683E-06
v 15.000014305114746 0 -14.999990463256836
v -11.249985694885254 30 -11.249990463256836
v -14.999985694885254 0 -14.999990463256836
v 11.250014305114746 30 -11.249990463256836
v 1.402232373948209E-05 30 -11.249990463256836
v -13.124985694885254 15 -13.124990463256836
v 13.125014305114746 15 -13.124990463256836
v 1.402232373948209E-05 0 -14.999990463256836
v -11.249985694885254 30 11.250009536743164
v -11.249985694885254 30 -11.249990463256836
v 11.250014305114746 30 11.250009536743164
v 11.250014305114746 30 -11.249990463256836
v -11.249985694885254 30 9.6149578894255683E-06
v 1.402232373948209E-05 30 11.250009536743164
v 11.250014305114746 30 9.6149578894255683E-06
v 1.402232373948209E-05 30 -11.249990463256836
v -14.999985694885254 0 15.000009536743164
v 1.402232373948209E-05 0 15.000009536743164
v 15.000014305114746 0 15.000009536743164
v 15.000014305114746 0 9.6149578894255683E-06
v 15.000014305114746 0 -14.999990463256836
v 1.402232373948209E-05 0 -14.999990463256836
v -14.999985694885254 0 -14.999990463256836
v -14.999985694885254 0 9.6149578894255683E-06
vt 0.32845821976661682 0.33652153611183167
vt 0.32845821976661682 0.67155998945236206
vt 0 0.67155998945236206
vt 0 0.50404077768325806
vt 0 0.33652153611183167
vt 0.16422910988330841 0.33652153611183167
vt 0.32845821976661682 0.50404077768325806
vt 0.16422910988330841 0.67155998945236206
vt 0.66496151685714722 0
vt 0.99853515625 0
vt 0.99853515625 0.32992306351661682
vt 0.831748366355896 0
vt 0.831748366355896 0.32992306351661682
vt 0.66496151685714722 0.32992306351661682
vt 0.66496151685714722 0.16496153175830841
vt 0.99853515625 0.16496153175830841
vt 0.32992306351661682 0.58396381139755249
vt 0.66349667310714722 0.9124220609664917
vt 0.32992306351661682 0.9124220609664917
vt 0.49670988321304321 0.58396381139755249
vt 0.66349667310714722 0.58396381139755249
vt 0.66349667310714722 0.74819296598434448
vt 0.49670988321304321 0.9124220609664917
vt 0.32992306351661682 0.74819296598434448
vt 0.66496151685714722 0.45694345235824585
vt 0.99853515625 0.78686654567718506
vt 0.66496151685714722 0.78686654567718506
vt 0.99853515625 0.45694345235824585
vt 0.99853515625 0.62190496921539307
vt 0.831748366355896 0.78686654567718506
vt 0.831748366355896 0.45694345235824585
vt 0.66496151685714722 0.62190496921539307
vt 0.57736539840698242 0.33652153611183167
vt 0.32992306351661682 0.33652153611183167
vt 0.57736539840698242 0.58249896764755249
vt 0.32992306351661682 0.58249896764755249
vt 0.45364421606063843 0.33652153611183167
vt 0.57736539840698242 0.45951026678085327
vt 0.45364421606063843 0.58249896764755249
vt 0.32992306351661682 0.45951026678085327
vt 0.33322229981422424 0.0032848697155714035
vt 0.33322229981422424 0.16752834618091583
vt 0.33322229981422424 0.33177182078361511
vt 0.16826076805591583 0.33177182078361511
vt 0.0032992404885590076 0.33177182078361511
vt 0.0032992404885590076 0.16752834618091583
vt 0.0032992404885590076 0.0032848697155714035
vt 0.16826076805591583 0.0032848697155714035
vn -0.99227786064147949 0.12403476983308792 0
vn -0.99227786064147949 0.12403476983308792 0
vn -0.99227786064147949 0.12403476983308792 0
vn -0.99227786064147949 0.12403476983308792 0
vn -0.99227786064147949 0.12403476983308792 0
vn -0.99227786064147949 0.12403476983308792 0
vn -0.99227786064147949 0.12403476983308792 0
vn -0.99227786064147949 0.12403476983308792 0
vn 0 0.12403471022844315 0.99227786064147949
vn 0 0.12403471022844315 0.99227786064147949
vn 0 0.12403471022844315 0.99227786064147949
vn 0 0.12403471022844315 0.99227786064147949
vn 0 0.12403471022844315 0.99227786064147949
vn 0 0.12403471022844315 0.99227786064147949
vn 0 0.12403471022844315 0.99227786064147949
vn 0 0.12403471022844315 0.99227786064147949
vn 0.99227786064147949 0.12403469532728195 0
vn 0.99227786064147949 0.12403469532728195 0
vn 0.99227786064147949 0.12403469532728195 0
vn 0.99227786064147949 0.12403469532728195 0
vn 0.99227786064147949 0.12403469532728195 0
vn 0.99227786064147949 0.12403469532728195 0
vn 0.99227786064147949 0.12403469532728195 0
vn 0.99227786064147949 0.12403469532728195 0
vn 0 0.12403475493192673 -0.99227786064147949
vn 0 0.12403475493192673 -0.99227786064147949
vn 0 0.12403475493192673 -0.99227786064147949
vn 0 0.12403475493192673 -0.99227786064147949
vn 0 0.12403475493192673 -0.99227786064147949
vn 0 0.12403475493192673 -0.99227786064147949
vn 0 0.12403475493192673 -0.99227786064147949
vn 0 0.12403475493192673 -0.99227786064147949
vn 0 1 0
vn 0 1 0
vn 0 1 0
vn 0 1 0
vn 0 1 0
vn 0 1 0
vn 0 1 0
vn 0 1 0
vn 0 -1 0
vn 0 -1 0
vn 0 -1 0
vn 0 -1 0
vn 0 -1 0
vn 0 -1 0
vn 0 -1 0
vn 0 -1 0
f 6/6/6 1/1/1 7/7/7
f 6/6/6 4/4/4 5/5/5
f 4/4/4 6/6/6 7/7/7
f 7/7/7 8/8/8 4/4/4
f 8/8/8 3/3/3 4/4/4
f 2/2/2 8/8/8 7/7/7
f 15/15/15 9/9/9 12/12/12
f 15/15/15 13/13/13 14/14/14
f 13/13/13 15/15/15 12/12/12
f 12/12/12 16/16/16 13/13/13
f 16/16/16 11/11/11 13/13/13
f 10/10/10 16/16/16 12/12/12
f 23/23/23 20/20/20 24/24/24
f 20/20/20 17/17/17 24/24/24
f 22/22/22 21/21/21 20/20/20
f 23/23/23 18/18/18 22/22/22
f 23/23/23 24/24/24 19/19/19
f 22/22/22 20/20/20 23/23/23
f 31/31/31 29/29/29 28/28/28
f 31/31/31 25/25/25 32/32/32
f 30/30/30 29/29/29 31/31/31
f 31/31/31 32/32/32 30/30/30
f 30/30/30 32/32/32 27/27/27
f 26/26/26 29/29/29 30/30/30
f 37/37/37 33/33/33 38/38/38
f 37/37/37 40/40/40 34/34/34
f 39/39/39 37/37/37 38/38/38
f 37/37/37 39/39/39 40/40/40
f 39/39/39 36/36/36 40/40/40
f 35/35/35 39/39/39 38/38/38
f 42/42/42 48/48/48 46/46/46
f 48/48/48 47/47/47 46/46/46
f 42/42/42 41/41/41 48/48/48
f 44/44/44 43/43/43 42/42/42
f 44/44/44 46/46/46 45/45/45
f 42/42/42 46/46/46 44/44/44
