# Rhino

g Cinema_Final
o object_1
v -15.00006103515625 30 -15.000008583068848
v -15.00006103515625 30 14.999991416931152
v -15.00006103515625 30 -8.3771710706059821E-06
v 14.99993896484375 30 -15.000008583068848
v 14.99993896484375 30 -8.3771710706059821E-06
v 14.99993896484375 30 14.999991416931152
v -6.07943075010553E-05 30 14.999991416931152
v -6.07943075010553E-05 30 -15.000008583068848
v -15.00006103515625 0 -15.000008583068848
v -15.00006103515625 30 14.999991416931152
v -15.00006103515625 0 14.999991416931152
v -15.00006103515625 30 -15.000008583068848
v -15.00006103515625 30 -8.3771710706059821E-06
v -15.00006103515625 0 -8.3771710706059821E-06
v -15.00006103515625 15 14.999991416931152
v -15.00006103515625 15 -15.000008583068848
v 14.99993896484375 0 -15.000008583068848
v 14.99993896484375 30 14.999991416931152
v 14.99993896484375 0 14.999991416931152
v 14.99993896484375 30 -15.000008583068848
v 14.99993896484375 30 -8.3771710706059821E-06
v 14.99993896484375 15 -15.000008583068848
v 14.99993896484375 0 -8.3771710706059821E-06
v 14.99993896484375 15 14.999991416931152
v -15.00006103515625 0 -15.000008583068848
v 14.99993896484375 0 14.999991416931152
v 14.99993896484375 0 -15.000008583068848
v -15.00006103515625 0 -8.3771710706059821E-06
v -15.00006103515625 0 14.999991416931152
v 14.99993896484375 0 -8.3771710706059821E-06
v -6.07943075010553E-05 0 14.999991416931152
v -6.07943075010553E-05 0 -15.000008583068848
v -15.00006103515625 30 14.999991416931152
v -15.00006103515625 0 14.999991416931152
v 14.99993896484375 30 14.999991416931152
v 14.99993896484375 0 14.999991416931152
v -15.00006103515625 15 14.999991416931152
v -6.07943075010553E-05 0 14.999991416931152
v 14.99993896484375 15 14.999991416931152
v -6.07943075010553E-05 30 14.999991416931152
v -15.00006103515625 0 -15.000008583068848
v -15.00006103515625 30 -15.000008583068848
v 14.99993896484375 0 -15.000008583068848
v 14.99993896484375 30 -15.000008583068848
v 14.99993896484375 15 -15.000008583068848
v -15.00006103515625 15 -15.000008583068848
v -6.07943075010553E-05 30 -15.000008583068848
v -6.07943075010553E-05 0 -15.000008583068848
vt 0 0
vt 0 0.3318684995174408
vt 0 0.1659342497587204
vt 0.3333333432674408 1.7769796301081442E-08
vt 0.3333333432674408 0.1659342497587204
vt 0.3333333432674408 0.3318684995174408
vt 0.16666670143604279 0.3318684995174408
vt 0.16666670143604279 8.884898150540721E-09
vt 0.33333331346511841 0.66520184278488159
vt 0.66520184278488159 0.3333333432674408
vt 0.66520184278488159 0.66520184278488159
vt 0.33333331346511841 0.3333333432674408
vt 0.499267578125 0.3333333432674408
vt 0.499267578125 0.66520184278488159
vt 0.66520184278488159 0.499267578125
vt 0.33333331346511841 0.499267578125
vt 0.66666668653488159 0.83333331346511841
vt 0.99853515625 0.5
vt 0.99853515625 0.83333331346511841
vt 0.66666668653488159 0.5
vt 0.83260089159011841 0.5
vt 0.66666668653488159 0.66666668653488159
vt 0.83260089159011841 0.83333331346511841
vt 0.99853515625 0.66666668653488159
vt 0 0.3333333432674408
vt 0.33186846971511841 0.66666668653488159
vt 0 0.66666668653488159
vt 0.1659342348575592 0.3333333432674408
vt 0.33186846971511841 0.3333333432674408
vt 0.1659342348575592 0.66666668653488159
vt 0.33186846971511841 0.50000005960464478
vt 0 0.5
vt 0.99853515625 0
vt 0.66666668653488159 0
vt 0.99853515625 0.33333331346511841
vt 0.66666668653488159 0.33333331346511841
vt 0.83260089159011841 0
vt 0.66666668653488159 0.1666666567325592
vt 0.83260089159011841 0.33333331346511841
vt 0.99853515625 0.1666666567325592
vt 0.33333331346511841 0.66666668653488159
vt 0.33333331346511841 0.99853515625
vt 0.66520184278488159 0.66666668653488159
vt 0.66520184278488159 0.99853515625
vt 0.66520184278488159 0.83260089159011841
vt 0.33333331346511841 0.83260089159011841
vt 0.499267578125 0.99853515625
vt 0.499267578125 0.66666668653488159
vn 0 1 0
vn 0 1 0
vn 0 1 0
vn 0 1 0
vn 0 1 0
vn 0 1 0
vn 0 1 0
vn 0 1 0
vn -1 0 0
vn -1 0 0
vn -1 0 0
vn -1 0 0
vn -1 0 0
vn -1 0 0
vn -1 0 0
vn -1 0 0
vn 1 0 0
vn 1 0 0
vn 1 0 0
vn 1 0 0
vn 1 0 0
vn 1 0 0
vn 1 0 0
vn 1 0 0
vn 0 -1 0
vn 0 -1 0
vn 0 -1 0
vn 0 -1 0
vn 0 -1 0
vn 0 -1 0
vn 0 -1 0
vn 0 -1 0
vn 0 0 1
vn 0 0 1
vn 0 0 1
vn 0 0 1
vn 0 0 1
vn 0 0 1
vn 0 0 1
vn 0 0 1
vn 4.2835750946323969E-08 2.677234789416616E-08 -1
vn 4.2835750946323969E-08 2.677234789416616E-08 -1
vn 4.2835750946323969E-08 2.677234789416616E-08 -1
vn 4.2835750946323969E-08 2.677234789416616E-08 -1
vn 4.2835750946323969E-08 2.6772344341452481E-08 -1
vn 4.2835750946323969E-08 2.6772344341452481E-08 -1
vn 4.2835750946323969E-08 2.6772344341452481E-08 -1
vn 4.2835750946323969E-08 2.6772344341452481E-08 -1
f 3/3/3 8/8/8 1/1/1
f 3/3/3 2/2/2 7/7/7
f 7/7/7 8/8/8 3/3/3
f 8/8/8 7/7/7 5/5/5
f 5/5/5 7/7/7 6/6/6
f 4/4/4 8/8/8 5/5/5
f 16/16/16 13/13/13 12/12/12
f 16/16/16 9/9/9 14/14/14
f 14/14/14 13/13/13 16/16/16
f 13/13/13 14/14/14 15/15/15
f 15/15/15 14/14/14 11/11/11
f 10/10/10 13/13/13 15/15/15
f 22/22/22 20/20/20 21/21/21
f 22/22/22 23/23/23 17/17/17
f 23/23/23 22/22/22 21/21/21
f 21/21/21 24/24/24 23/23/23
f 24/24/24 19/19/19 23/23/23
f 18/18/18 24/24/24 21/21/21
f 31/31/31 28/28/28 32/32/32
f 28/28/28 25/25/25 32/32/32
f 31/31/31 29/29/29 28/28/28
f 30/30/30 26/26/26 31/31/31
f 30/30/30 32/32/32 27/27/27
f 31/31/31 32/32/32 30/30/30
f 39/39/39 37/37/37 38/38/38
f 37/37/37 34/34/34 38/38/38
f 40/40/40 33/33/33 37/37/37
f 39/39/39 35/35/35 40/40/40
f 39/39/39 38/38/38 36/36/36
f 40/40/40 37/37/37 39/39/39
f 46/46/46 48/48/48 41/41/41
f 46/46/46 42/42/42 47/47/47
f 45/45/45 48/48/48 46/46/46
f 46/46/46 47/47/47 45/45/45
f 45/45/45 47/47/47 44/44/44
f 43/43/43 48/48/48 45/45/45
