# Rhino

g Cinema_Final
o object_1
v -15.00006103515625 15 14.999991416931152
v -15.00006103515625 0 14.999991416931152
v 14.99993896484375 15 14.999991416931152
v 14.99993896484375 0 14.999991416931152
v -6.07943075010553E-05 15 14.999991416931152
v -6.07943075010553E-05 0 14.999991416931152
v -15.00006103515625 7.5 14.999991416931152
v 14.99993896484375 0 14.999991416931152
v 14.99993896484375 0 -15.000008583068848
v -6.07943075010553E-05 0 -7.5000085830688477
v -15.00006103515625 0 14.999991416931152
v -15.00006103515625 0 -8.3771710706059821E-06
v -6.07943075010553E-05 0 14.999991416931152
v -15.00006103515625 0 7.4999914169311523
v 14.99993896484375 0 -8.3771710706059821E-06
v 14.99993896484375 15 -15.000008583068848
v 14.99993896484375 0 -15.000008583068848
v -6.07943075010553E-05 0 -7.5000085830688477
v -15.00006103515625 15 -8.3771710706059821E-06
v -6.07943075010553E-05 15 -7.5000085830688477
v -15.00006103515625 0 -8.3771710706059821E-06
v -15.00006103515625 7.5 -8.3771710706059821E-06
v 14.99993896484375 15 -15.000008583068848
v 14.99993896484375 15 14.999991416931152
v 14.99993896484375 0 14.999991416931152
v 14.99993896484375 0 -8.3771710706059821E-06
v 14.99993896484375 0 -15.000008583068848
v 14.99993896484375 15 -8.3771710706059821E-06
v 14.99993896484375 15 -15.000008583068848
v 14.99993896484375 15 14.999991416931152
v -6.07943075010553E-05 15 14.999991416931152
v -15.00006103515625 15 14.999991416931152
v 14.99993896484375 15 -8.3771710706059821E-06
v -15.00006103515625 15 7.4999914169311523
v -15.00006103515625 15 -8.3771710706059821E-06
v -6.07943075010553E-05 15 -7.5000085830688477
v -15.00006103515625 0 14.999991416931152
v -15.00006103515625 15 14.999991416931152
v -15.00006103515625 0 -8.3771710706059821E-06
v -15.00006103515625 15 -8.3771710706059821E-06
v -15.00006103515625 7.5 14.999991416931152
v -15.00006103515625 0 7.4999914169311523
v -15.00006103515625 15 7.4999914169311523
v -15.00006103515625 7.5 -8.3771710706059821E-06
vt 0 0.23606796562671661
vt 0 0.47067108750343323
vt 0.47067111730575562 0.23606796562671661
vt 0.47067111730575562 0.47067108750343323
vt 0.23533555865287781 0.23606796562671661
vt 0.23533555865287781 0.47067108750343323
vt 0 0.35336953401565552
vt 0.47213596105575562 0
vt 0.47213596105575562 0.47067108750343323
vt 0.7353355884552002 0.47067108750343323
vt 0.99853515625 0
vt 0.99853515625 0.47067108750343323
vt 0.7353355884552002 0
vt 0.99853515625 0.23533554375171661
vt 0.47213596105575562 0.23533554375171661
vt 0.99853515625 0.70820385217666626
vt 0.99853515625 0.94280701875686646
vt 0.7353355884552002 0.94280701875686646
vt 0.472135990858078 0.70820385217666626
vt 0.7353355884552002 0.70820385217666626
vt 0.47213596105575562 0.94280701875686646
vt 0.472135990858078 0.82550543546676636
vt 0.47213596105575562 0.47213593125343323
vt 0.94427186250686646 0.47213593125343323
vt 0.94427186250686646 0.70673900842666626
vt 0.70820391178131104 0.70673900842666626
vt 0.47213596105575562 0.70673900842666626
vt 0.70820391178131104 0.47213593125343323
vt 0.47067111730575562 0.47213593125343323
vt 0.47067111730575562 0.94280701875686646
vt 0.2353355884552002 0.94280695915222168
vt 0 0.94280695915222168
vt 0.47067111730575562 0.70747148990631104
vt 2.0537925138341961E-08 0.82513922452926636
vt 4.1075850276683923E-08 0.70747148990631104
vt 0.2353355884552002 0.58980369567871094
vt 0.23606796562671661 0
vt 0 0
vt 0.23606796562671661 0.23460312187671661
vt 0 0.23460312187671661
vt 0.11803398281335831 0
vt 0.23606796562671661 0.11730155348777771
vt 0 0.1173015758395195
vt 0.11803398281335831 0.23460312187671661
vn 0 0 1
vn 0 0 1
vn 0 0 1
vn 0 0 1
vn 0 0 1
vn 0 0 1
vn 0 0 1
vn 0 -1 0
vn 0 -1 0
vn 0 -1 0
vn 0 -1 0
vn 0 -1 0
vn 0 -1 0
vn 0 -1 0
vn 0 -1 0
vn -0.44721359014511108 0 -0.89442718029022217
vn -0.44721359014511108 0 -0.89442718029022217
vn -0.44721359014511108 0 -0.89442718029022217
vn -0.44721359014511108 0 -0.89442718029022217
vn -0.44721359014511108 0 -0.89442718029022217
vn -0.44721359014511108 0 -0.89442718029022217
vn -0.44721359014511108 0 -0.89442718029022217
vn 1 0 0
vn 1 0 0
vn 1 0 0
vn 1 0 0
vn 1 0 0
vn 1 0 0
vn 0 1 0
vn 0 1 0
vn 0 1 0
vn 0 1 0
vn 0 1 0
vn 0 1 0
vn 0 1 0
vn 0 1 0
vn -1 1.0732887290032522E-07 1.0732890132203465E-07
vn -1 1.0732887290032522E-07 1.0732890132203465E-07
vn -1 1.0732887290032522E-07 1.0732890132203465E-07
vn -1 1.0732887290032522E-07 1.0732890132203465E-07
vn -1 1.0732886579489787E-07 1.0732890132203465E-07
vn -1 1.0732886579489787E-07 1.0732890132203465E-07
vn -1 1.0732886579489787E-07 1.0732890132203465E-07
vn -1 1.0732886579489787E-07 1.0732890132203465E-07
f 5/5/5 1/1/1 7/7/7
f 6/6/6 7/7/7 2/2/2
f 3/3/3 5/5/5 6/6/6 4/4/4
f 7/7/7 6/6/6 5/5/5
f 13/13/13 10/10/10 15/15/15
f 15/15/15 10/10/10 9/9/9
f 13/13/13 15/15/15 8/8/8
f 14/14/14 13/13/13 11/11/11
f 14/14/14 12/12/12 10/10/10
f 13/13/13 14/14/14 10/10/10
f 20/20/20 22/22/22 19/19/19
f 18/18/18 21/21/21 22/22/22
f 20/20/20 16/16/16 17/17/17 18/18/18
f 22/22/22 20/20/20 18/18/18
f 26/26/26 27/27/27 23/23/23 28/28/28
f 28/28/28 24/24/24 25/25/25 26/26/26
f 31/31/31 35/35/35 34/34/34
f 34/34/34 32/32/32 31/31/31
f 36/36/36 35/35/35 31/31/31
f 36/36/36 31/31/31 33/33/33
f 33/33/33 31/31/31 30/30/30
f 29/29/29 36/36/36 33/33/33
f 41/41/41 42/42/42 37/37/37
f 41/41/41 38/38/38 43/43/43
f 44/44/44 42/42/42 41/41/41
f 41/41/41 43/43/43 44/44/44
f 44/44/44 43/43/43 40/40/40
f 39/39/39 42/42/42 44/44/44
