# Rhino

g Cinema_Final
o object_1
v 15.000020027160645 0 14.999992370605469
v 15.000020027160645 30 14.999992370605469
v -14.999979972839355 0 14.999992370605469
v -14.999979972839355 30 14.999992370605469
v -14.999979972839355 15 14.999992370605469
v 15.000020027160645 15 14.999992370605469
v 1.9687919120769948E-05 0 14.999992370605469
v 1.9687919120769948E-05 30 14.999992370605469
v 15.000020027160645 0 -15.000007629394531
v 15.000020027160645 30 -15.000007629394531
v 15.000020027160645 30 14.999992370605469
v 15.000020027160645 0 -7.3330497798451688E-06
v 15.000020027160645 30 -7.3330497798451688E-06
v 15.000020027160645 0 14.999992370605469
v 15.000020027160645 15 14.999992370605469
v 15.000020027160645 15 -15.000007629394531
v -14.999979972839355 0 14.999992370605469
v -14.999979972839355 0 -15.000007629394531
v -14.999979972839355 0 -7.3330497798451688E-06
v 15.000020027160645 0 14.999992370605469
v 1.9687919120769948E-05 0 -7.3330497798451688E-06
v 1.9687919120769948E-05 0 14.999992370605469
v -14.999979972839355 0 -15.000007629394531
v 15.000020027160645 0 14.999992370605469
v 15.000020027160645 0 -7.3330497798451688E-06
v 1.9687919120769948E-05 0 -7.3330497798451688E-06
v 15.000020027160645 0 -15.000007629394531
v 1.9687919120769948E-05 0 -15.000007629394531
v -14.999979972839355 0 -15.000007629394531
v -14.999979972839355 30 -15.000007629394531
v -14.999979972839355 30 14.999992370605469
v -14.999979972839355 0 14.999992370605469
v -14.999979972839355 15 14.999992370605469
v -14.999979972839355 0 -7.3330497798451688E-06
v -14.999979972839355 30 -7.3330497798451688E-06
v -14.999979972839355 15 -15.000007629394531
v 15.000020027160645 30 -15.000007629394531
v 15.000020027160645 0 -15.000007629394531
v -14.999979972839355 30 -15.000007629394531
v -14.999979972839355 0 -15.000007629394531
v 1.9687919120769948E-05 30 -15.000007629394531
v -14.999979972839355 15 -15.000007629394531
v 1.9687919120769948E-05 0 -15.000007629394531
v 15.000020027160645 15 -15.000007629394531
v -14.999979972839355 30 -15.000007629394531
v -14.999979972839355 30 14.999992370605469
v 15.000020027160645 30 -15.000007629394531
v 15.000020027160645 30 14.999992370605469
v 15.000020027160645 30 -7.3330497798451688E-06
v -14.999979972839355 30 -7.3330497798451688E-06
v 1.9687919120769948E-05 30 -15.000007629394531
v 1.9687919120769948E-05 30 14.999992370605469
vt 0.66520184278488159 0.3333333432674408
vt 0.3333333432674408 0.3333333432674408
vt 0.66520184278488159 0.66520184278488159
vt 0.3333333432674408 0.66520184278488159
vt 0.499267578125 0.66520184278488159
vt 0.499267578125 0.3333333432674408
vt 0.66520184278488159 0.499267578125
vt 0.3333333432674408 0.499267578125
vt 0 0.3333333432674408
vt 0 0.66666668653488159
vt 0.3318684995174408 0.66666668653488159
vt 0.1659342497587204 0.3333333432674408
vt 0.1659342497587204 0.66666668653488159
vt 0.3318684995174408 0.3333333432674408
vt 0.3318684995174408 0.5
vt 0 0.5
vt 0.3333333432674408 0
vt 0.3333333432674408 0.3318684995174408
vt 0.3333333432674408 0.1659342497587204
vt 0.66520184278488159 2.3100735546677242E-08
vt 0.499267578125 0.16593426465988159
vt 0.499267578125 1.1550367773338621E-08
vt 0 0.3318684995174408
vt 0.3318684995174408 0
vt 0.3318684995174408 0.1659342348575592
vt 0.1659342497587204 0.1659342497587204
vt 0.3318684995174408 0.3318684995174408
vt 0.16593426465988159 0.3318684995174408
vt 0.99853515625 0.5
vt 0.66666668653488159 0.5
vt 0.66666668653488159 0.83333331346511841
vt 0.99853515625 0.83333331346511841
vt 0.83260089159011841 0.83333331346511841
vt 0.99853515625 0.66666668653488159
vt 0.66666668653488159 0.66666668653488159
vt 0.83260089159011841 0.5
vt 0.99853515625 0
vt 0.66666668653488159 0
vt 0.99853515625 0.3333333432674408
vt 0.66666668653488159 0.3333333432674408
vt 0.99853515625 0.1666666716337204
vt 0.83260089159011841 0.3333333432674408
vt 0.66666668653488159 0.1666666716337204
vt 0.83260089159011841 0
vt 0.66520184278488159 0.66666668653488159
vt 0.3333333432674408 0.66666668653488159
vt 0.66520184278488159 0.99853515625
vt 0.3333333432674408 0.99853515625
vt 0.499267578125 0.99853515625
vt 0.499267578125 0.66666668653488159
vt 0.66520184278488159 0.83260089159011841
vt 0.3333333432674408 0.83260089159011841
vn 0 0 1
vn 0 0 1
vn 0 0 1
vn 0 0 1
vn 0 0 1
vn 0 0 1
vn 0 0 1
vn 0 0 1
vn 1 0 0
vn 1 0 0
vn 1 0 0
vn 1 0 0
vn 1 0 0
vn 1 0 0
vn 1 0 0
vn 1 0 0
vn 0 -1 0
vn 0 -1 0
vn 0 -1 0
vn 0 -1 0
vn 0 -1 0
vn 0 -1 0
vn 0 -1 0
vn 0 -1 0
vn 0 -1 0
vn 0 -1 0
vn 0 -1 0
vn 0 -1 0
vn -1 0 0
vn -1 0 0
vn -1 0 0
vn -1 0 0
vn -1 0 0
vn -1 0 0
vn -1 0 0
vn -1 0 0
vn 0 0 -1
vn 0 0 -1
vn 0 0 -1
vn 0 0 -1
vn 0 0 -1
vn 0 0 -1
vn 0 0 -1
vn 0 0 -1
vn 0 1 0
vn 0 1 0
vn 0 1 0
vn 0 1 0
vn 0 1 0
vn 0 1 0
vn 0 1 0
vn 0 1 0
f 6/6/6 7/7/7 1/1/1
f 6/6/6 2/2/2 8/8/8
f 5/5/5 7/7/7 6/6/6
f 6/6/6 8/8/8 5/5/5
f 5/5/5 8/8/8 4/4/4
f 3/3/3 7/7/7 5/5/5
f 16/16/16 12/12/12 9/9/9
f 16/16/16 10/10/10 13/13/13
f 15/15/15 12/12/12 16/16/16
f 16/16/16 13/13/13 15/15/15
f 15/15/15 13/13/13 11/11/11
f 14/14/14 12/12/12 15/15/15
f 22/22/22 17/17/17 19/19/19
f 21/21/21 19/19/19 18/18/18
f 21/21/21 20/20/20 22/22/22
f 19/19/19 21/21/21 22/22/22
f 28/28/28 26/26/26 23/23/23
f 25/25/25 26/26/26 28/28/28
f 26/26/26 25/25/25 24/24/24
f 28/28/28 27/27/27 25/25/25
f 36/36/36 29/29/29 34/34/34
f 36/36/36 35/35/35 30/30/30
f 33/33/33 36/36/36 34/34/34
f 36/36/36 33/33/33 35/35/35
f 33/33/33 31/31/31 35/35/35
f 32/32/32 33/33/33 34/34/34
f 44/44/44 41/41/41 37/37/37
f 44/44/44 38/38/38 43/43/43
f 42/42/42 41/41/41 44/44/44
f 44/44/44 43/43/43 42/42/42
f 42/42/42 43/43/43 40/40/40
f 39/39/39 41/41/41 42/42/42
f 49/49/49 50/50/50 52/52/52
f 50/50/50 46/46/46 52/52/52
f 51/51/51 45/45/45 50/50/50
f 49/49/49 47/47/47 51/51/51
f 49/49/49 52/52/52 48/48/48
f 51/51/51 50/50/50 49/49/49
