# Rhino

g Cinema_Final
o object_1
v 15.000018119812012 15 -15.000008583068848
v 15.000018119812012 6.1245941651577596E-10 -15.000008583068848
v -14.999981880187988 15 14.999991416931152
v 1.8378857930656523E-05 15 -8.497647286276333E-06
v -14.999981880187988 6.1245941651577596E-10 14.999991416931152
v 1.8378857930656523E-05 6.1245941651577596E-10 -8.497647286276333E-06
v -14.999981880187988 15 14.999991416931152
v 15.000018119812012 15 -15.000008583068848
v 1.8378857930656523E-05 15 -8.497647286276333E-06
v -14.999981880187988 15 -8.497647286276333E-06
v -14.999981880187988 15 -15.000008583068848
v 1.8378857930656523E-05 15 -15.000008583068848
v -14.999981880187988 15 -15.000008583068848
v -14.999981880187988 6.1245941651577596E-10 -15.000008583068848
v -14.999981880187988 15 14.999991416931152
v -14.999981880187988 6.1245941651577596E-10 14.999991416931152
v -14.999981880187988 15 -8.497647286276333E-06
v -14.999981880187988 6.1245941651577596E-10 -8.497647286276333E-06
v 15.000018119812012 15 -15.000008583068848
v 15.000018119812012 6.1245941651577596E-10 -15.000008583068848
v -14.999981880187988 15 -15.000008583068848
v -14.999981880187988 6.1245941651577596E-10 -15.000008583068848
v 1.8378857930656523E-05 15 -15.000008583068848
v 1.8378857930656523E-05 6.1245941651577596E-10 -15.000008583068848
v -14.999981880187988 6.1245941651577596E-10 14.999991416931152
v -14.999981880187988 6.1245941651577596E-10 -8.497647286276333E-06
v -14.999981880187988 6.1245941651577596E-10 -15.000008583068848
v 1.8378857930656523E-05 6.1245941651577596E-10 -15.000008583068848
v 15.000018119812012 6.1245941651577596E-10 -15.000008583068848
v 1.8378857930656523E-05 6.1245941651577596E-10 -8.497647286276333E-06
vt 0.41902649402618408 0
vt 0.41902649402618408 0.20540514588356018
vt 0.99853515625 0
vt 0.70878082513809204 0
vt 0.99853515625 0.20540514588356018
vt 0.70878082513809204 0.20540514588356018
vt 0.41902649402618408 0.27661225199699402
vt 0.82983678579330444 0.68742257356643677
vt 0.62443166971206665 0.48201742768287659
vt 0.62443166971206665 0.27661225199699402
vt 0.82983678579330444 0.27661225199699402
vt 0.82983678579330444 0.48201742768287659
vt 0 0.20540514588356018
vt 0 0.40934544801712036
vt 0.41081029176712036 0.20540514588356018
vt 0.41081029176712036 0.40934544801712036
vt 0.20540514588356018 0.20540514588356018
vt 0.20540514588356018 0.40934544801712036
vt 0 0
vt 0 0.20394030213356018
vt 0.41081029176712036 0
vt 0.41081029176712036 0.20394030213356018
vt 0.20540514588356018 0
vt 0.20540514588356018 0.20394030213356018
vt 0.0040937541052699089 0.41490402817726135
vt 0.20878082513809204 0.41490402817726135
vt 0.41346791386604309 0.41490402817726135
vt 0.41346791386604309 0.6195911169052124
vt 0.41346791386604309 0.82427817583084106
vt 0.20878082513809204 0.6195911169052124
vn 0.70710676908493042 0 0.70710676908493042
vn 0.70710676908493042 0 0.70710676908493042
vn 0.70710676908493042 0 0.70710676908493042
vn 0.70710676908493042 0 0.70710676908493042
vn 0.70710676908493042 0 0.70710676908493042
vn 0.70710676908493042 0 0.70710676908493042
vn 0 1 0
vn 0 1 0
vn 0 1 0
vn 0 1 0
vn 0 1 0
vn 0 1 0
vn -1 0 0
vn -1 0 0
vn -1 0 0
vn -1 0 0
vn -1 0 0
vn -1 0 0
vn 0 1.6063395946730452E-08 -1
vn 0 1.6063395946730452E-08 -1
vn 0 1.6063395946730452E-08 -1
vn 0 1.6063395946730452E-08 -1
vn 0 1.6063395946730452E-08 -1
vn 0 1.6063395946730452E-08 -1
vn 0 -1 0
vn 0 -1 0
vn 0 -1 0
vn 0 -1 0
vn 0 -1 0
vn 0 -1 0
f 6/6/6 2/2/2 1/1/1 4/4/4
f 4/4/4 3/3/3 5/5/5 6/6/6
f 9/9/9 11/11/11 10/10/10
f 9/9/9 10/10/10 7/7/7
f 8/8/8 12/12/12 9/9/9
f 11/11/11 9/9/9 12/12/12
f 14/14/14 18/18/18 17/17/17 13/13/13
f 15/15/15 17/17/17 18/18/18 16/16/16
f 20/20/20 24/24/24 23/23/23 19/19/19
f 21/21/21 23/23/23 24/24/24 22/22/22
f 26/26/26 30/30/30 25/25/25
f 27/27/27 30/30/30 26/26/26
f 29/29/29 30/30/30 28/28/28
f 27/27/27 28/28/28 30/30/30
