# Rhino

g Cinema_Final
o object_1
v 14.99993896484375 0 14.999991416931152
v 14.99993896484375 30 14.999991416931152
v -6.07943075010553E-05 0 -8.3771710706059821E-06
v -6.07943075010553E-05 30 -8.3771710706059821E-06
v -6.07943075010553E-05 15 -8.3771710706059821E-06
v 14.99993896484375 15 14.999991416931152
v -6.07943075010553E-05 0 -8.3771710706059821E-06
v -6.07943075010553E-05 30 -8.3771710706059821E-06
v -15.00006103515625 30 -8.3771710706059821E-06
v -6.07943075010553E-05 15 -8.3771710706059821E-06
v -15.00006103515625 0 -8.3771710706059821E-06
v -15.00006103515625 10 -8.3771710706059821E-06
v -15.00006103515625 20 -8.3771710706059821E-06
v 14.99993896484375 0 14.999991416931152
v -15.00006103515625 0 14.999991416931152
v -6.07943075010553E-05 0 -8.3771710706059821E-06
v -6.07943075010553E-05 0 14.999991416931152
v -15.00006103515625 0 -8.3771710706059821E-06
v -15.00006103515625 0 7.4999914169311523
v 14.99993896484375 0 14.999991416931152
v 14.99993896484375 30 14.999991416931152
v -15.00006103515625 0 14.999991416931152
v -15.00006103515625 30 14.999991416931152
v -6.07943075010553E-05 0 14.999991416931152
v 14.99993896484375 15 14.999991416931152
v -15.00006103515625 10 14.999991416931152
v -15.00006103515625 20 14.999991416931152
v -6.07943075010553E-05 30 14.999991416931152
v -15.00006103515625 0 14.999991416931152
v -15.00006103515625 30 14.999991416931152
v -15.00006103515625 0 7.4999914169311523
v -15.00006103515625 30 7.4999914169311523
v -15.00006103515625 0 -8.3771710706059821E-06
v -15.00006103515625 30 -8.3771710706059821E-06
v -15.00006103515625 10 -8.3771710706059821E-06
v -15.00006103515625 20 -8.3771710706059821E-06
v -15.00006103515625 20 14.999991416931152
v -15.00006103515625 10 14.999991416931152
v -15.00006103515625 30 -8.3771710706059821E-06
v -15.00006103515625 30 7.4999914169311523
v -15.00006103515625 30 14.999991416931152
v -6.07943075010553E-05 30 14.999991416931152
v 14.99993896484375 30 14.999991416931152
v -6.07943075010553E-05 30 -8.3771710706059821E-06
vt 0.49358466267585754 0
vt 0 0
vt 0.49358466267585754 0.35005283355712891
vt 0 0.35005283355712891
vt 0.24679233133792877 0.35005283355712891
vt 0.24679233133792877 0
vt 0.99009895324707031 0.49504941701889038
vt 0.49504950642585754 0.49504941701889038
vt 0.49504950642585754 0.74110931158065796
vt 0.74257421493530273 0.49504941701889038
vt 0.99009895324707031 0.74110931158065796
vt 0.82508248090744019 0.74110931158065796
vt 0.66006600856781006 0.74110931158065796
vt 0.49504950642585754 0.49358457326889038
vt 0.99009901285171509 0.49358457326889038
vt 0.74257421493530273 0.247524693608284
vt 0.74257427453994751 0.49358457326889038
vt 0.99009895324707031 0.247524693608284
vt 0.99009895324707031 0.37055462598800659
vt 0 0.41216295957565308
vt 0 0.90721243619918823
vt 0.49358466267585754 0.41216295957565308
vt 0.49358466267585754 0.90721243619918823
vt 0.24679233133792877 0.41216295957565308
vt 0 0.65968769788742065
vt 0.49358466267585754 0.5771794319152832
vt 0.49358466267585754 0.74219596385955811
vt 0.24679233133792877 0.90721243619918823
vt 0.99009895324707031 0
vt 0.49504950642585754 0
vt 0.99009895324707031 0.123029924929142
vt 0.49504950642585754 0.123029924929142
vt 0.99009895324707031 0.246059849858284
vt 0.49504950642585754 0.246059849858284
vt 0.82508248090744019 0.246059849858284
vt 0.66006600856781006 0.246059849858284
vt 0.66006600856781006 0
vt 0.82508248090744019 0
vt 0.49998566508293152 0.99112367630004883
vt 0.49998563528060913 0.86807936429977417
vt 0.49998563528060913 0.74503511190414429
vt 0.74679231643676758 0.74503511190414429
vt 0.99359899759292603 0.74503505229949951
vt 0.74679237604141235 0.99112367630004883
vn 0.70710676908493042 0 -0.70710676908493042
vn 0.70710676908493042 0 -0.70710676908493042
vn 0.70710676908493042 0 -0.70710676908493042
vn 0.70710676908493042 0 -0.70710676908493042
vn 0.70710676908493042 0 -0.70710676908493042
vn 0.70710676908493042 0 -0.70710676908493042
vn 0 0 -1
vn 0 0 -1
vn 0 0 -1
vn 0 0 -1
vn 0 0 -1
vn 0 0 -1
vn 0 0 -1
vn 0 -1 0
vn 0 -1 0
vn 0 -1 0
vn 0 -1 0
vn 0 -1 0
vn 0 -1 0
vn 0 0 1
vn 0 0 1
vn 0 0 1
vn 0 0 1
vn 0 0 1
vn 0 0 1
vn 0 0 1
vn 0 0 1
vn 0 0 1
vn -1 0 -1.7454166822972184E-07
vn -1 0 -6.7212759802259825E-08
vn -1 -2.6832230659579182E-08 -1.7454166822972184E-07
vn -1 -2.6832230659579182E-08 -6.7212759802259825E-08
vn -1 -5.3664454213731005E-08 -1.7454166822972184E-07
vn -1 -5.3664454213731005E-08 -6.7212759802259825E-08
vn -1 -5.3664454213731005E-08 -1.3876535831514047E-07
vn -1 -5.3664454213731005E-08 -1.0298906261141383E-07
vn -1 0 -1.0298906261141383E-07
vn -1 0 -1.3876535831514047E-07
vn 0 1 0
vn 0 1 0
vn 0 1 0
vn 0 1 0
vn 0 1 0
vn 0 1 0
f 6/6/6 1/1/1 3/3/3 5/5/5
f 2/2/2 6/6/6 5/5/5 4/4/4
f 12/12/12 10/10/10 7/7/7
f 13/13/13 8/8/8 10/10/10
f 10/10/10 12/12/12 13/13/13
f 8/8/8 13/13/13 9/9/9
f 11/11/11 12/12/12 7/7/7
f 17/17/17 16/16/16 14/14/14
f 19/19/19 16/16/16 17/17/17
f 17/17/17 15/15/15 19/19/19
f 18/18/18 16/16/16 19/19/19
f 25/25/25 24/24/24 20/20/20
f 25/25/25 21/21/21 28/28/28
f 28/28/28 24/24/24 25/25/25
f 26/26/26 24/24/24 27/27/27
f 23/23/23 27/27/27 28/28/28
f 27/27/27 24/24/24 28/28/28
f 22/22/22 24/24/24 26/26/26
f 38/38/38 31/31/31 29/29/29
f 31/31/31 38/38/38 37/37/37
f 37/37/37 30/30/30 32/32/32
f 32/32/32 31/31/31 37/37/37
f 35/35/35 31/31/31 36/36/36
f 34/34/34 36/36/36 32/32/32
f 36/36/36 31/31/31 32/32/32
f 33/33/33 31/31/31 35/35/35
f 42/42/42 40/40/40 41/41/41
f 44/44/44 39/39/39 40/40/40
f 44/44/44 42/42/42 43/43/43
f 40/40/40 42/42/42 44/44/44
