# Rhino

g Cinema_Final
o object_1
v -15.00006103515625 30 14.999991416931152
v -15.00006103515625 0 14.999991416931152
v 14.99993896484375 30 -15.000008583068848
v 14.99993896484375 0 -15.000008583068848
v -6.07943075010553E-05 0 -8.3771710706059821E-06
v 14.99993896484375 15 -15.000008583068848
v -6.07943075010553E-05 30 -8.3771710706059821E-06
v -15.00006103515625 15 14.999991416931152
v -15.00006103515625 0 -15.000008583068848
v -15.00006103515625 0 14.999991416931152
v -6.07943075010553E-05 0 -8.3771710706059821E-06
v 14.99993896484375 0 -15.000008583068848
v -6.07943075010553E-05 0 -15.000008583068848
v -15.00006103515625 0 -8.3771710706059821E-06
v 14.99993896484375 30 -15.000008583068848
v 14.99993896484375 0 -15.000008583068848
v -15.00006103515625 30 -15.000008583068848
v -15.00006103515625 0 -15.000008583068848
v -6.07943075010553E-05 30 -15.000008583068848
v -15.00006103515625 15 -15.000008583068848
v -6.07943075010553E-05 0 -15.000008583068848
v 14.99993896484375 15 -15.000008583068848
v -15.00006103515625 30 -15.000008583068848
v 14.99993896484375 30 -15.000008583068848
v -15.00006103515625 30 14.999991416931152
v -6.07943075010553E-05 30 -15.000008583068848
v -15.00006103515625 30 -8.3771710706059821E-06
v -6.07943075010553E-05 30 -8.3771710706059821E-06
v -15.00006103515625 0 14.999991416931152
v -15.00006103515625 30 14.999991416931152
v -15.00006103515625 0 -15.000008583068848
v -15.00006103515625 30 -15.000008583068848
v -15.00006103515625 15 -15.000008583068848
v -15.00006103515625 30 -8.3771710706059821E-06
v -15.00006103515625 0 -8.3771710706059821E-06
v -15.00006103515625 15 14.999991416931152
vt 0.66520178318023682 0.3333333432674408
vt 0.3333333432674408 0.3333333432674408
vt 0.66520178318023682 0.80327296257019043
vt 0.3333333432674408 0.80327296257019043
vt 0.3333333432674408 0.56830316781997681
vt 0.499267578125 0.80327296257019043
vt 0.66520178318023682 0.56830316781997681
vt 0.499267578125 0.3333333432674408
vt 0 0.3333333432674408
vt 0.3318684995174408 0.33333337306976318
vt 0.16593426465988159 0.50000005960464478
vt 1.9780904025878954E-08 0.66666668653488159
vt 1.9780904025878954E-08 0.5
vt 0.1659342497587204 0.3333333432674408
vt 0.66666662693023682 0.40236890316009521
vt 0.66666662693023682 0.73570221662521362
vt 0.99853515625 0.40236890316009521
vt 0.99853515625 0.73570221662521362
vt 0.83260089159011841 0.40236890316009521
vt 0.99853515625 0.56903558969497681
vt 0.83260089159011841 0.73570221662521362
vt 0.66666662693023682 0.56903558969497681
vt 0.3333333432674408 0
vt 0 0
vt 0.3333333432674408 0.3318684995174408
vt 0.1666666716337204 0
vt 0.3333333432674408 0.1659342497587204
vt 0.1666666716337204 0.1659342497587204
vt 0.66666662693023682 0
vt 0.66666662693023682 0.33333331346511841
vt 0.99853515625 0
vt 0.99853515625 0.33333331346511841
vt 0.99853515625 0.1666666567325592
vt 0.83260089159011841 0.33333331346511841
vt 0.83260089159011841 0
vt 0.66666662693023682 0.1666666567325592
vn 0.70710676908493042 0 0.70710676908493042
vn 0.70710676908493042 0 0.70710676908493042
vn 0.70710676908493042 0 0.70710676908493042
vn 0.70710676908493042 0 0.70710676908493042
vn 0.70710676908493042 0 0.70710676908493042
vn 0.70710676908493042 0 0.70710676908493042
vn 0.70710676908493042 0 0.70710676908493042
vn 0.70710676908493042 0 0.70710676908493042
vn 0 -1 0
vn 0 -1 0
vn 0 -1 0
vn 0 -1 0
vn 0 -1 0
vn 0 -1 0
vn 6.9608084629635414E-08 0 -1
vn 6.9608084629635414E-08 0 -1
vn 6.9608084629635414E-08 0 -1
vn 6.9608084629635414E-08 0 -1
vn 6.9608084629635414E-08 0 -1
vn 6.9608084629635414E-08 0 -1
vn 6.9608084629635414E-08 0 -1
vn 6.9608084629635414E-08 0 -1
vn 0 1 0
vn 0 1 0
vn 0 1 0
vn 0 1 0
vn 0 1 0
vn 0 1 0
vn -1 0 8.7263174464169424E-08
vn -1 0 8.7263174464169424E-08
vn -1 0 8.7263174464169424E-08
vn -1 0 8.7263174464169424E-08
vn -1 0 8.7263174464169424E-08
vn -1 0 8.7263174464169424E-08
vn -1 0 8.7263174464169424E-08
vn -1 0 8.7263174464169424E-08
f 8/8/8 7/7/7 1/1/1
f 8/8/8 2/2/2 5/5/5
f 6/6/6 3/3/3 7/7/7 8/8/8
f 8/8/8 5/5/5 4/4/4 6/6/6
f 11/11/11 10/10/10 14/14/14
f 13/13/13 14/14/14 9/9/9
f 12/12/12 11/11/11 13/13/13
f 14/14/14 13/13/13 11/11/11
f 22/22/22 19/19/19 15/15/15
f 22/22/22 16/16/16 21/21/21
f 21/21/21 19/19/19 22/22/22
f 19/19/19 21/21/21 20/20/20
f 20/20/20 21/21/21 18/18/18
f 17/17/17 19/19/19 20/20/20
f 26/26/26 23/23/23 27/27/27 28/28/28
f 28/28/28 24/24/24 26/26/26
f 28/28/28 27/27/27 25/25/25
f 35/35/35 36/36/36 34/34/34
f 36/36/36 30/30/30 34/34/34
f 35/35/35 29/29/29 36/36/36
f 33/33/33 31/31/31 35/35/35
f 33/33/33 34/34/34 32/32/32
f 35/35/35 34/34/34 33/33/33
