# Rhino

g Arrabida_Final
o object_1
v -14.999995231628418 30 -14.99993896484375
v -14.999995231628418 30 15.00006103515625
v -14.999995231628418 30 6.0704413044732064E-05
v -14.999995231628418 15 -7.4999394416809082
v -14.999995231628418 15 6.0704413044732064E-05
v -14.999995231628418 15 7.5000605583190918
v -14.999995231628418 0 -14.99993896484375
v -14.999995231628418 0 7.5000605583190918
v -14.999995231628418 0 15.00006103515625
v -14.999995231628418 15 15.00006103515625
v -14.999995231628418 15 -14.99993896484375
v -14.999995231628418 7.5 7.5000605583190918
v -14.999995231628418 0 -7.4999394416809082
v -14.999995231628418 7.5 -7.4999394416809082
v -14.999995231628418 15 7.5000605583190918
v -12.499995231628418 0 7.5000605583190918
v -12.499995231628418 15 7.5000605583190918
v -14.999995231628418 0 7.5000605583190918
v -12.499995231628418 7.5 7.5000605583190918
v -14.999995231628418 7.5 7.5000605583190918
v -12.499995231628418 0 -7.4999394416809082
v -12.499995231628418 15 -7.4999394416809082
v -12.499995231628418 15 7.5000605583190918
v -12.499995231628418 15 6.0704413044732064E-05
v -12.499995231628418 0 6.0704413044732064E-05
v -12.499995231628418 0 7.5000605583190918
v -12.499995231628418 7.5 7.5000605583190918
v -12.499995231628418 7.5 -7.4999394416809082
v -12.499995231628418 0 -7.4999394416809082
v -12.499995231628418 15 -7.4999394416809082
v -14.999995231628418 15 -7.4999394416809082
v -12.499995231628418 7.5 -7.4999394416809082
v -14.999995231628418 0 -7.4999394416809082
v -14.999995231628418 7.5 -7.4999394416809082
v -14.999995231628418 15 7.5000605583190918
v -14.999995231628418 15 -7.4999394416809082
v -12.499995231628418 15 7.5000605583190918
v -12.499995231628418 15 -7.4999394416809082
v -12.499995231628418 15 6.0704413044732064E-05
v -14.999995231628418 15 6.0704413044732064E-05
v -14.999995231628418 30 -14.99993896484375
v 15.000004768371582 30 -14.99993896484375
v -14.999995231628418 30 15.00006103515625
v 15.000004768371582 30 15.00006103515625
v -14.999995231628418 30 6.0704413044732064E-05
v 5.1712918320845347E-06 30 15.00006103515625
v 5.1712918320845347E-06 30 -14.99993896484375
v 15.000004768371582 30 6.0704413044732064E-05
v 5.1712918320845347E-06 0 -14.99993896484375
v 5.1712918320845347E-06 30 -14.99993896484375
v -14.999995231628418 30 -14.99993896484375
v -14.999995231628418 0 -14.99993896484375
v -14.999995231628418 15 -14.99993896484375
v 5.1712918320845347E-06 15 -14.99993896484375
v -14.999995231628418 30 15.00006103515625
v 15.000004768371582 0 15.00006103515625
v 15.000004768371582 30 15.00006103515625
v -14.999995231628418 15 15.00006103515625
v 5.1712918320845347E-06 30 15.00006103515625
v -14.999995231628418 0 15.00006103515625
v 5.1712918320845347E-06 0 15.00006103515625
v 15.000004768371582 15 15.00006103515625
v 15.000004768371582 30 -14.99993896484375
v 15.000004768371582 0 -14.99993896484375
v 5.1712918320845347E-06 30 -14.99993896484375
v 5.1712918320845347E-06 0 -14.99993896484375
v 5.1712918320845347E-06 15 -14.99993896484375
v 15.000004768371582 15 -14.99993896484375
v 15.000004768371582 30 15.00006103515625
v 15.000004768371582 0 15.00006103515625
v 15.000004768371582 30 -14.99993896484375
v 15.000004768371582 0 -14.99993896484375
v 15.000004768371582 15 -14.99993896484375
v 15.000004768371582 30 6.0704413044732064E-05
v 15.000004768371582 0 6.0704413044732064E-05
v 15.000004768371582 15 15.00006103515625
v -14.999995231628418 0 -14.99993896484375
v -14.999995231628418 0 -7.4999394416809082
v 5.1712918320845347E-06 0 6.0704413044732064E-05
v -14.999995231628418 0 7.5000605583190918
v -14.999995231628418 0 15.00006103515625
v -12.499995231628418 0 7.5000605583190918
v 5.1712918320845347E-06 0 7.6499629020690918
v -7.6500191688537598 0 6.0704413044732064E-05
v -7.6500191688537598 0 7.6499629020690918
v -7.6500191688537598 0 3.8250119686126709
v -11.474970817565918 0 6.0704413044732064E-05
v -11.474970817565918 0 7.6499629020690918
v -11.474970817565918 0 3.8250119686126709
v 5.1712918320845347E-06 0 -7.6499638557434082
v -7.6500191688537598 0 -7.6499638557434082
v -12.499995231628418 0 -7.4999394416809082
v -12.499995231628418 0 6.0704413044732064E-05
v -7.6500191688537598 0 -3.8250124454498291
v -11.474970817565918 0 -7.6499638557434082
v -11.474970817565918 0 -3.8250124454498291
v 5.1712918320845347E-06 0 -14.99993896484375
v 5.1712918320845347E-06 0 15.00006103515625
v 15.000004768371582 0 15.00006103515625
v 15.000004768371582 0 -14.99993896484375
v 15.000004768371582 0 6.0704413044732064E-05
vt 0.33112582564353943 0.66740930080413818
vt 0.66078680753707886 0.66740930080413818
vt 0.49595633149147034 0.66740930080413818
vt 0.41354107856750488 0.50257885456085205
vt 0.49595633149147034 0.50257885456085205
vt 0.57837158441543579 0.50257885456085205
vt 0.33112582564353943 0.33774834871292114
vt 0.57837158441543579 0.33774834871292114
vt 0.66078680753707886 0.33774834871292114
vt 0.66078680753707886 0.50257885456085205
vt 0.33112582564353943 0.50257885456085205
vt 0.57837158441543579 0.4201636016368866
vt 0.41354107856750488 0.33774834871292114
vt 0.41354107856750488 0.4201636016368866
vt 0.041390728205442429 0.50331127643585205
vt 0.068984545767307281 0.33774834871292114
vt 0.068984545767307281 0.50331127643585205
vt 0.041390728205442429 0.33774834871292114
vt 0.068984545767307281 0.4205298125743866
vt 0.041390728205442429 0.4205298125743866
vt 0.082781456410884857 0.37260368466377258
vt 0.082781456410884857 0.5381665825843811
vt 0.24834437668323517 0.5381665825843811
vt 0.16556291282176971 0.5381665825843811
vt 0.16556291282176971 0.37260368466377258
vt 0.24834437668323517 0.37260368466377258
vt 0.24834437668323517 0.45538514852523804
vt 0.082781456410884857 0.45538514852523804
vt 0 0.33774834871292114
vt 0 0.50331127643585205
vt 0.027593819424510002 0.50331127643585205
vt 0 0.4205298125743866
vt 0.027593819424510002 0.33774834871292114
vt 0.027593819424510002 0.4205298125743866
vt 0.24834437668323517 0.33774834871292114
vt 0.082781456410884857 0.33774834871292114
vt 0.24834437668323517 0.36534217000007629
vt 0.082781456410884857 0.36534217000007629
vt 0.16556291282176971 0.36534217000007629
vt 0.16556291282176971 0.33774834871292114
vt 0.99191266298294067 0
vt 0.66225165128707886 0
vt 0.99191266298294067 0.33112582564353943
vt 0.66225165128707886 0.33112582564353943
vt 0.99191266298294067 0.16556291282176971
vt 0.82708215713500977 0.33112582564353943
vt 0.82708215713500977 0
vt 0.66225165128707886 0.16556291282176971
vt 0.32966098189353943 0.58173578977584839
vt 0 0.58173578977584839
vt 0 0.7472987174987793
vt 0.32966098189353943 0.7472987174987793
vt 0.16483049094676971 0.7472987174987793
vt 0.16483049094676971 0.58173578977584839
vt 0.33112582564353943 0.99853515625
vt 0.66078680753707886 0.66887414455413818
vt 0.66078680753707886 0.99853515625
vt 0.33112582564353943 0.83370465040206909
vt 0.49595633149147034 0.99853515625
vt 0.33112582564353943 0.66887414455413818
vt 0.49595633149147034 0.66887414455413818
vt 0.66078680753707886 0.83370465040206909
vt 0.32966098189353943 0.79086792469024658
vt 0 0.79086792469024658
vt 0.32966098189353943 0.95643079280853271
vt 0 0.95643079280853271
vt 0.16483049094676971 0.95643079280853271
vt 0.16483049094676971 0.79086792469024658
vt 0.99191266298294067 0.5
vt 0.66225165128707886 0.5
vt 0.99191266298294067 0.83112585544586182
vt 0.66225165128707886 0.83112585544586182
vt 0.82708215713500977 0.83112585544586182
vt 0.99191266298294067 0.66556292772293091
vt 0.66225165128707886 0.66556292772293091
vt 0.82708215713500977 0.5
vt 0.0033112680539488792 0.0032968972809612751
vt 0.086092710494995117 0.0032968972809612751
vt 0.16887417435646057 0.16814175248146057
vt 0.25165563821792603 0.0032968972809612751
vt 0.33443707227706909 0.0032968972809612751
vt 0.25165563821792603 0.030771039426326752
vt 0.25331124663352966 0.16814175248146057
vt 0.16887417435646057 0.084070876240730286
vt 0.25331124663352966 0.084070876240730286
vt 0.21109271049499512 0.084070876240730286
vt 0.16887417435646057 0.042035438120365143
vt 0.25331124663352966 0.042035438120365143
vt 0.21109271049499512 0.042035438120365143
vt 0.084437087178230286 0.16814175248146057
vt 0.084437087178230286 0.084070876240730286
vt 0.086092710494995117 0.030771039426326752
vt 0.16887417435646057 0.030771039426326752
vt 0.12665562331676483 0.084070876240730286
vt 0.084437087178230286 0.042035438120365143
vt 0.12665562331676483 0.042035438120365143
vt 0.0033112680539488792 0.16814175248146057
vt 0.33443707227706909 0.16814175248146057
vt 0.33443707227706909 0.33298659324645996
vt 0.0033112680539488792 0.33298659324645996
vt 0.16887417435646057 0.33298659324645996
vn -1 0 0
vn -1 0 0
vn -1 0 0
vn -1 0 0
vn -1 0 0
vn -1 0 0
vn -1 0 0
vn -1 0 0
vn -1 0 0
vn -1 0 0
vn -1 0 0
vn -1 0 0
vn -1 0 0
vn -1 0 0
vn 0 0 -1
vn 0 0 -1
vn 0 0 -1
vn 0 0 -1
vn 0 0 -1
vn 0 0 -1
vn -1 0 0
vn -1 0 0
vn -1 0 0
vn -1 0 0
vn -1 0 0
vn -1 0 0
vn -1 0 0
vn -1 0 0
vn 0 0 1
vn 0 0 1
vn 0 0 1
vn 0 0 1
vn 0 0 1
vn 0 0 1
vn 0 -1 0
vn 0 -1 0
vn 0 -1 0
vn 0 -1 0
vn 0 -1 0
vn 0 -1 0
vn 0 1 0
vn 0 1 0
vn 0 1 0
vn 0 1 0
vn 0 1 0
vn 0 1 0
vn 0 1 0
vn 0 1 0
vn 0 0 -1
vn 0 0 -1
vn 0 0 -1
vn 0 0 -1
vn 0 0 -1
vn 0 0 -1
vn 0 0 1
vn 0 0 1
vn 0 0 1
vn 0 0 1
vn 0 0 1
vn 0 0 1
vn 0 0 1
vn 0 0 1
vn 0 0 -1
vn 0 0 -1
vn 0 0 -1
vn 0 0 -1
vn 0 0 -1
vn 0 0 -1
vn 1 0 0
vn 1 0 0
vn 1 0 0
vn 1 0 0
vn 1 0 0
vn 1 0 0
vn 1 0 0
vn 1 0 0
vn 0 -1 0
vn 0 -1 0
vn 0 -1 0
vn 0 -1 0
vn 0 -1 0
vn 0 -1 0
vn 0 -1 0
vn 0 -1 0
vn 0 -1 0
vn 0 -1 0
vn 0 -1 0
vn 0 -1 0
vn 0 -1 0
vn 0 -1 0
vn 0 -1 0
vn 0 -1 0
vn 0 -1 0
vn 0 -1 0
vn 0 -1 0
vn 0 -1 0
vn 0 -1 0
vn 0 -1 0
vn 0 -1 0
vn 0 -1 0
vn 0 -1 0
f 14/14/14 7/7/7 13/13/13
f 11/11/11 7/7/7 14/14/14 4/4/4
f 4/4/4 1/1/1 11/11/11
f 3/3/3 1/1/1 4/4/4
f 5/5/5 3/3/3 4/4/4
f 12/12/12 8/8/8 9/9/9
f 9/9/9 10/10/10 6/6/6 12/12/12
f 2/2/2 3/3/3 6/6/6
f 6/6/6 3/3/3 5/5/5
f 6/6/6 10/10/10 2/2/2
f 20/20/20 19/19/19 16/16/16 18/18/18
f 15/15/15 17/17/17 19/19/19 20/20/20
f 28/28/28 21/21/21 25/25/25
f 28/28/28 24/24/24 22/22/22
f 24/24/24 28/28/28 25/25/25
f 24/24/24 25/25/25 26/26/26 27/27/27
f 27/27/27 23/23/23 24/24/24
f 32/32/32 34/34/34 33/33/33 29/29/29
f 30/30/30 31/31/31 34/34/34 32/32/32
f 40/40/40 39/39/39 37/37/37 35/35/35
f 36/36/36 38/38/38 39/39/39 40/40/40
f 47/47/47 41/41/41 45/45/45
f 47/47/47 48/48/48 42/42/42
f 46/46/46 47/47/47 45/45/45
f 47/47/47 46/46/46 48/48/48
f 46/46/46 44/44/44 48/48/48
f 43/43/43 46/46/46 45/45/45
f 54/54/54 49/49/49 52/52/52 53/53/53
f 50/50/50 54/54/54 53/53/53 51/51/51
f 58/58/58 60/60/60 61/61/61
f 58/58/58 59/59/59 55/55/55
f 59/59/59 58/58/58 61/61/61
f 61/61/61 62/62/62 59/59/59
f 62/62/62 57/57/57 59/59/59
f 56/56/56 62/62/62 61/61/61
f 68/68/68 67/67/67 65/65/65 63/63/63
f 64/64/64 66/66/66 67/67/67 68/68/68
f 76/76/76 74/74/74 69/69/69
f 76/76/76 70/70/70 75/75/75
f 73/73/73 74/74/74 76/76/76
f 76/76/76 75/75/75 73/73/73
f 73/73/73 75/75/75 72/72/72
f 71/71/71 74/74/74 73/73/73
f 91/91/91 94/94/94 96/96/96 95/95/95
f 94/94/94 84/84/84 87/87/87 96/96/96
f 94/94/94 79/79/79 84/84/84
f 90/90/90 94/94/94 91/91/91
f 79/79/79 94/94/94 90/90/90
f 86/86/86 83/83/83 85/85/85
f 79/79/79 86/86/86 84/84/84
f 83/83/83 86/86/86 79/79/79
f 84/84/84 86/86/86 89/89/89 87/87/87
f 86/86/86 85/85/85 88/88/88 89/89/89
f 82/82/82 81/81/81 80/80/80
f 89/89/89 88/88/88 82/82/82
f 81/81/81 82/82/82 88/88/88
f 93/93/93 87/87/87 89/89/89 82/82/82
f 88/88/88 85/85/85 81/81/81
f 92/92/92 78/78/78 77/77/77
f 92/92/92 96/96/96 87/87/87 93/93/93
f 95/95/95 96/96/96 92/92/92
f 95/95/95 92/92/92 77/77/77
f 83/83/83 98/98/98 85/85/85
f 81/81/81 85/85/85 98/98/98
f 101/101/101 83/83/83 79/79/79
f 98/98/98 83/83/83 99/99/99
f 99/99/99 83/83/83 101/101/101
f 97/97/97 90/90/90 91/91/91 77/77/77
f 97/97/97 100/100/100 90/90/90
f 101/101/101 79/79/79 90/90/90 100/100/100
f 95/95/95 77/77/77 91/91/91
