# Rhino

g Arrabida_Final
o object_1
v -14.999995231628418 30 15.00006103515625
v -14.999995231628418 30 -14.99993896484375
v -11.999995231628418 30 -11.99993896484375
v 1.5000051259994507 30 -11.99993896484375
v 15.000004768371582 30 -11.99993896484375
v 15.000004768371582 30 -14.99993896484375
v 5.1712918320845347E-06 30 -14.99993896484375
v -11.999995231628418 30 15.00006103515625
v -11.999995231628418 30 1.5000606775283813
v -14.999995231628418 30 -2.4999392032623291
v -14.999995231628418 30 10.00006103515625
v 15.000004768371582 0 -14.99993896484375
v 15.000004768371582 30 -14.99993896484375
v -14.999995231628418 30 -14.99993896484375
v 5.1712918320845347E-06 30 -14.99993896484375
v 15.000004768371582 20 -14.99993896484375
v 15.000004768371582 10 -14.99993896484375
v 5.1712918320845347E-06 0 -14.99993896484375
v -14.999995231628418 0 -14.99993896484375
v -14.999995231628418 15 -14.99993896484375
v -11.999995231628418 30 -11.99993896484375
v -11.999995231628418 0 15.00006103515625
v -11.999995231628418 30 15.00006103515625
v -11.999995231628418 30 1.5000606775283813
v -11.999995231628418 0 -11.99993896484375
v -11.999995231628418 0 1.5000606775283813
v -11.999995231628418 15 -11.99993896484375
v -11.999995231628418 10 15.00006103515625
v -11.999995231628418 20 15.00006103515625
v 15.000004768371582 30 -11.99993896484375
v -11.999995231628418 30 -11.99993896484375
v 1.5000051259994507 30 -11.99993896484375
v 15.000004768371582 0 -11.99993896484375
v 1.5000051259994507 0 -11.99993896484375
v -11.999995231628418 0 -11.99993896484375
v -11.999995231628418 15 -11.99993896484375
v 15.000004768371582 20.333332061767578 -11.99993896484375
v 15.000004768371582 10.666667938232422 -11.99993896484375
v 15.000004768371582 1 -11.99993896484375
v 1.5000051259994507 15 -11.99993896484375
v 1.5000051259994507 7.5 -11.99993896484375
v 8.250004768371582 15 -11.99993896484375
v 8.250004768371582 7.5 -11.99993896484375
v 8.250004768371582 3.75 -11.99993896484375
v 11.625004768371582 7.5 -11.99993896484375
v 11.625004768371582 3.75 -11.99993896484375
v 11.625004768371582 1.875 -11.99993896484375
v 13.312504768371582 3.75 -11.99993896484375
v 13.312504768371582 1.875 -11.99993896484375
v -14.999995231628418 0 -14.99993896484375
v -14.999995231628418 0 15.00006103515625
v -14.999995231628418 30 -14.99993896484375
v -14.999995231628418 30 15.00006103515625
v -14.999995231628418 15 -14.99993896484375
v -14.999995231628418 20 15.00006103515625
v -14.999995231628418 10 15.00006103515625
v -14.999995231628418 0 6.0704413044732064E-05
v -14.999995231628418 30 -2.4999392032623291
v -14.999995231628418 30 10.00006103515625
v -14.999995231628418 30 15.00006103515625
v -14.999995231628418 0 15.00006103515625
v -11.999995231628418 30 15.00006103515625
v -11.999995231628418 0 15.00006103515625
v -14.999995231628418 10 15.00006103515625
v -14.999995231628418 20 15.00006103515625
v -11.999995231628418 20 15.00006103515625
v -11.999995231628418 10 15.00006103515625
v 15.000004768371582 30 -11.99993896484375
v 15.000004768371582 0 -11.99993896484375
v 15.000004768371582 30 -14.99993896484375
v 15.000004768371582 0 -14.99993896484375
v 15.000004768371582 20 -14.99993896484375
v 15.000004768371582 10 -14.99993896484375
v 15.000004768371582 7.5 -13.49993896484375
v 15.000004768371582 1 -11.99993896484375
v 15.000004768371582 10.666667938232422 -11.99993896484375
v 15.000004768371582 20.333332061767578 -11.99993896484375
v 15.000004768371582 3.75 -13.49993896484375
v 15.000004768371582 7.5 -12.74993896484375
v 15.000004768371582 3.75 -12.74993896484375
v -14.999995231628418 0 -14.99993896484375
v 5.1712918320845347E-06 0 -14.99993896484375
v 15.000004768371582 0 -14.99993896484375
v -11.999995231628418 0 -11.99993896484375
v -11.999995231628418 0 1.5000606775283813
v -11.999995231628418 0 15.00006103515625
v 15.000004768371582 0 -11.99993896484375
v 1.5000051259994507 0 -11.99993896484375
v -14.999995231628418 0 15.00006103515625
v -14.999995231628418 0 6.0704413044732064E-05
vt 0 0.43999999761581421
vt 0 0.77333331108093262
vt 0.03318684920668602 0.74000000953674316
vt 0.18252767622470856 0.74000000953674316
vt 0.3318684995174408 0.74000000953674316
vt 0.3318684995174408 0.77333331108093262
vt 0.1659342497587204 0.77333331108093262
vt 0.03318684920668602 0.43999999761581421
vt 0.03318684920668602 0.5899999737739563
vt 0 0.63444441556930542
vt 0 0.49555554986000061
vt 0.66666668653488159 0.4699999988079071
vt 0.66666668653488159 0.8033333420753479
vt 0.99853515625 0.8033333420753479
vt 0.83260089159011841 0.8033333420753479
vt 0.66666668653488159 0.6922222375869751
vt 0.66666668653488159 0.58111113309860229
vt 0.83260089159011841 0.4699999988079071
vt 0.99853515625 0.4699999988079071
vt 0.99853515625 0.63666665554046631
vt 0.3333333432674408 0.34000000357627869
vt 0.66520184278488159 0.63853514194488525
vt 0.3333333432674408 0.63853514194488525
vt 0.3333333432674408 0.48926758766174316
vt 0.66520184278488159 0.34000000357627869
vt 0.66520184278488159 0.48926758766174316
vt 0.499267578125 0.34000000357627869
vt 0.55457901954650879 0.63853514194488525
vt 0.4439561665058136 0.63853514194488525
vt 0.3333333432674408 0.63999998569488525
vt 0.3333333432674408 0.93853515386581421
vt 0.3333333432674408 0.78926759958267212
vt 0.66520184278488159 0.63999998569488525
vt 0.66520184278488159 0.78926759958267212
vt 0.66520184278488159 0.93853515386581421
vt 0.499267578125 0.93853515386581421
vt 0.44026872515678406 0.63999998569488525
vt 0.54720413684844971 0.63999998569488525
vt 0.65413951873779297 0.63999998569488525
vt 0.499267578125 0.78926759958267212
vt 0.58223468065261841 0.78926759958267212
vt 0.499267578125 0.7146337628364563
vt 0.58223468065261841 0.7146337628364563
vt 0.62371826171875 0.7146337628364563
vt 0.58223468065261841 0.67731690406799316
vt 0.62371826171875 0.67731690406799316
vt 0.64446002244949341 0.67731690406799316
vt 0.62371826171875 0.65865844488143921
vt 0.64446002244949341 0.65865844488143921
vt 0.99853515625 0
vt 0.66666668653488159 0
vt 0.99853515625 0.3333333432674408
vt 0.66666668653488159 0.3333333432674408
vt 0.99853515625 0.1666666716337204
vt 0.66666668653488159 0.2222222238779068
vt 0.66666668653488159 0.1111111119389534
vt 0.83260089159011841 0
vt 0.8602566123008728 0.3333333432674408
vt 0.72197806835174561 0.3333333432674408
vt 0.3318684995174408 0.34000000357627869
vt 0 0.34000000357627869
vt 0.3318684995174408 0.37333333492279053
vt 0 0.37333333492279053
vt 0.1106228232383728 0.34000000357627869
vt 0.2212456613779068 0.34000000357627869
vt 0.2212456613779068 0.37333333492279053
vt 0.1106228232383728 0.37333333492279053
vt 0.3318684995174408 0.38999998569488525
vt 0 0.38999998569488525
vt 0.3318684995174408 0.42333334684371948
vt 0 0.42333334684371948
vt 0.2212456613779068 0.42333334684371948
vt 0.1106228232383728 0.42333334684371948
vt 0.082967124879360199 0.40666666626930237
vt 0.011062292382121086 0.38999998569488525
vt 0.1179976761341095 0.38999998569488525
vt 0.22493308782577515 0.38999998569488525
vt 0.041483562439680099 0.40666666626930237
vt 0.082967124879360199 0.398333340883255
vt 0.041483562439680099 0.398333340883255
vt 0.33666667342185974 0.0033189721871167421
vt 0.33666667342185974 0.16926757991313934
vt 0.33666667342185974 0.33521616458892822
vt 0.3033333420753479 0.036508694291114807
vt 0.15333332121372223 0.036508694291114807
vt 0.0033333431929349899 0.036508694291114807
vt 0.3033333420753479 0.33521616458892822
vt 0.3033333420753479 0.18586245179176331
vt 0.0033333431929349899 0.0033189721871167421
vt 0.17000000178813934 0.0033189721871167421
vn 0 1 0
vn 0 1 0
vn 0 1 0
vn 0 1 0
vn 0 1 0
vn 0 1 0
vn 0 1 0
vn 0 1 0
vn 0 1 0
vn 0 1 0
vn 0 1 0
vn 0 0 -1
vn 0 0 -1
vn 0 0 -1
vn 0 0 -1
vn 0 0 -1
vn 0 0 -1
vn 0 0 -1
vn 0 0 -1
vn 0 0 -1
vn 1 0 0
vn 1 0 0
vn 1 0 0
vn 1 0 0
vn 1 0 0
vn 1 0 0
vn 1 0 0
vn 1 0 0
vn 1 0 0
vn 0 0 1
vn 0 0 1
vn 0 0 1
vn 0 0 1
vn 0 0 1
vn 0 0 1
vn 0 0 1
vn 0 0 1
vn 0 0 1
vn 0 0 1
vn 0 0 1
vn 0 0 1
vn 0 0 1
vn 0 0 1
vn 0 0 1
vn 0 0 1
vn 0 0 1
vn 0 0 1
vn 0 0 1
vn 0 0 1
vn -1 0 0
vn -1 0 0
vn -1 0 0
vn -1 0 0
vn -1 0 0
vn -1 0 0
vn -1 0 0
vn -1 0 0
vn -1 0 0
vn -1 0 0
vn 0 0 1
vn 0 0 1
vn 0 0 1
vn 0 0 1
vn 0 0 1
vn 0 0 1
vn 0 0 1
vn 0 0 1
vn 1 0 0
vn 1 0 0
vn 1 0 0
vn 1 0 0
vn 1 0 0
vn 1 0 0
vn 1 0 0
vn 1 0 0
vn 1 0 0
vn 1 0 0
vn 1 0 0
vn 1 0 0
vn 1 0 0
vn 0 -1 0
vn 0 -1 0
vn 0 -1 0
vn 0 -1 0
vn 0 -1 0
vn 0 -1 0
vn 0 -1 0
vn 0 -1 0
vn 0 -1 0
vn 0 -1 0
f 11/11/11 1/1/1 8/8/8
f 11/11/11 9/9/9 10/10/10
f 10/10/10 3/3/3 2/2/2
f 8/8/8 9/9/9 11/11/11
f 10/10/10 9/9/9 3/3/3
f 6/6/6 7/7/7 4/4/4
f 3/3/3 4/4/4 7/7/7 2/2/2
f 5/5/5 6/6/6 4/4/4
f 18/18/18 17/17/17 12/12/12
f 15/15/15 13/13/13 16/16/16
f 16/16/16 17/17/17 15/15/15
f 20/20/20 18/18/18 19/19/19
f 14/14/14 15/15/15 20/20/20
f 18/18/18 20/20/20 15/15/15
f 17/17/17 18/18/18 15/15/15
f 26/26/26 27/27/27 24/24/24
f 27/27/27 21/21/21 24/24/24
f 26/26/26 25/25/25 27/27/27
f 28/28/28 22/22/22 26/26/26
f 26/26/26 29/29/29 28/28/28
f 29/29/29 24/24/24 23/23/23
f 26/26/26 24/24/24 29/29/29
f 40/40/40 41/41/41 43/43/43 42/42/42
f 43/43/43 44/44/44 46/46/46 45/45/45
f 46/46/46 47/47/47 49/49/49 48/48/48
f 49/49/49 33/33/33 39/39/39
f 33/33/33 49/49/49 47/47/47
f 39/39/39 48/48/48 49/49/49
f 47/47/47 34/34/34 33/33/33
f 38/38/38 48/48/48 39/39/39
f 38/38/38 37/37/37 42/42/42
f 32/32/32 37/37/37 30/30/30
f 45/45/45 48/48/48 38/38/38
f 38/38/38 42/42/42 45/45/45
f 45/45/45 46/46/46 48/48/48
f 46/46/46 44/44/44 47/47/47
f 41/41/41 44/44/44 43/43/43
f 41/41/41 35/35/35 34/34/34
f 35/35/35 41/41/41 40/40/40 36/36/36
f 44/44/44 41/41/41 34/34/34
f 34/34/34 47/47/47 44/44/44
f 32/32/32 40/40/40 42/42/42
f 36/36/36 40/40/40 32/32/32 31/31/31
f 37/37/37 32/32/32 42/42/42
f 45/45/45 42/42/42 43/43/43
f 57/57/57 54/54/54 50/50/50
f 51/51/51 56/56/56 57/57/57
f 57/57/57 56/56/56 55/55/55
f 58/58/58 54/54/54 57/57/57
f 57/57/57 55/55/55 58/58/58
f 53/53/53 59/59/59 55/55/55
f 58/58/58 55/55/55 59/59/59
f 52/52/52 54/54/54 58/58/58
f 65/65/65 66/66/66 62/62/62 60/60/60
f 61/61/61 63/63/63 67/67/67 64/64/64
f 64/64/64 67/67/67 66/66/66 65/65/65
f 78/78/78 74/74/74 79/79/79 80/80/80
f 77/77/77 76/76/76 74/74/74
f 74/74/74 76/76/76 79/79/79
f 80/80/80 75/75/75 69/69/69
f 75/75/75 80/80/80 79/79/79 76/76/76
f 77/77/77 72/72/72 70/70/70 68/68/68
f 77/77/77 74/74/74 72/72/72
f 74/74/74 73/73/73 72/72/72
f 78/78/78 69/69/69 71/71/71
f 73/73/73 74/74/74 78/78/78
f 78/78/78 71/71/71 73/73/73
f 80/80/80 69/69/69 78/78/78
f 90/90/90 81/81/81 84/84/84 85/85/85
f 81/81/81 82/82/82 88/88/88 84/84/84
f 89/89/89 90/90/90 85/85/85 86/86/86
f 82/82/82 83/83/83 87/87/87 88/88/88
