# Rhino

g Arrabida_Final
o object_1
v 5.1712918320845347E-06 7.5 -7.4999394416809082
v 15.000004768371582 0 -7.4999394416809082
v 15.000004768371582 7.5 -7.4999394416809082
v 7.5000052452087402 7.5 -7.4999394416809082
v 5.1712918320845347E-06 3.75 -7.4999394416809082
v 15.000004768371582 3.75 -7.4999394416809082
v 5.1712918320845347E-06 0 -7.4999394416809082
v 7.5000052452087402 0 -7.4999394416809082
v 5.1712918320845347E-06 7.5 -14.99993896484375
v 15.000004768371582 7.5 -14.99993896484375
v 5.1712918320845347E-06 7.5 -7.4999394416809082
v 15.000004768371582 7.5 -7.4999394416809082
v 5.1712918320845347E-06 7.5 -11.24993896484375
v 15.000004768371582 7.5 -11.24993896484375
v 7.5000052452087402 7.5 -7.4999394416809082
v 7.5000052452087402 7.5 -14.99993896484375
v 5.1712918320845347E-06 0 -14.99993896484375
v 5.1712918320845347E-06 7.5 -14.99993896484375
v 5.1712918320845347E-06 7.5 -7.4999394416809082
v 5.1712918320845347E-06 7.5 -11.24993896484375
v 5.1712918320845347E-06 0 -11.24993896484375
v 5.1712918320845347E-06 0 -7.4999394416809082
v 5.1712918320845347E-06 3.75 -7.4999394416809082
v 5.1712918320845347E-06 3.75 -14.99993896484375
v 15.000004768371582 0 -7.4999394416809082
v 15.000004768371582 7.5 -7.4999394416809082
v 15.000004768371582 0 -14.99993896484375
v 15.000004768371582 7.5 -14.99993896484375
v 15.000004768371582 7.5 -11.24993896484375
v 15.000004768371582 3.75 -7.4999394416809082
v 15.000004768371582 3.75 -14.99993896484375
v 15.000004768371582 0 -11.24993896484375
v 15.000004768371582 0 -14.99993896484375
v 15.000004768371582 7.5 -14.99993896484375
v 5.1712918320845347E-06 0 -14.99993896484375
v 5.1712918320845347E-06 7.5 -14.99993896484375
v 7.5000052452087402 7.5 -14.99993896484375
v 5.1712918320845347E-06 3.75 -14.99993896484375
v 15.000004768371582 3.75 -14.99993896484375
v 7.5000052452087402 0 -14.99993896484375
v 5.1712918320845347E-06 0 -7.4999394416809082
v 5.1712918320845347E-06 0 -14.99993896484375
v 15.000004768371582 0 -7.4999394416809082
v 15.000004768371582 0 -14.99993896484375
v 5.1712918320845347E-06 0 -11.24993896484375
v 15.000004768371582 0 -11.24993896484375
v 7.5000052452087402 0 -14.99993896484375
v 7.5000052452087402 0 -7.4999394416809082
vt 0.25 0.25
vt 0.49853515625 0.74853515625
vt 0.25 0.74853515625
vt 0.25 0.499267578125
vt 0.374267578125 0.25
vt 0.374267578125 0.74853515625
vt 0.49853515625 0.25
vt 0.49853515625 0.499267578125
vt 0.75 0
vt 0.75 0.5
vt 0.99853515625 0
vt 0.99853515625 0.5
vt 0.874267578125 0
vt 0.874267578125 0.5
vt 0.99853515625 0.25
vt 0.75 0.25
vt 0.49853515625 0
vt 0.25 0
vt 0.25 0.24853515625
vt 0.25 0.124267578125
vt 0.49853515625 0.124267578125
vt 0.49853515625 0.24853515625
vt 0.374267578125 0.24853515625
vt 0.374267578125 0
vt 0.24853515625 0
vt 0 0
vt 0.24853515625 0.24853515625
vt 0 0.24853515625
vt 0 0.124267578125
vt 0.124267578125 0
vt 0.124267578125 0.24853515625
vt 0.24853515625 0.124267578125
vt 0.24853515625 0.25
vt 0 0.25
vt 0.24853515625 0.74853515625
vt 0 0.74853515625
vt 0 0.499267578125
vt 0.124267578125 0.74853515625
vt 0.124267578125 0.25
vt 0.24853515625 0.499267578125
vt 0.74853515625 0
vt 0.5 0
vt 0.74853515625 0.5
vt 0.5 0.5
vt 0.624267578125 0
vt 0.624267578125 0.5
vt 0.5 0.25
vt 0.74853515625 0.25
vn 0 0 1
vn 0 0 1
vn 0 0 1
vn 0 0 1
vn 0 0 1
vn 0 0 1
vn 0 0 1
vn 0 0 1
vn 0 1 0
vn 0 1 0
vn 0 1 0
vn 0 1 0
vn 0 1 0
vn 0 1 0
vn 0 1 0
vn 0 1 0
vn -1 0 0
vn -1 0 0
vn -1 0 0
vn -1 0 0
vn -1 0 0
vn -1 0 0
vn -1 0 0
vn -1 0 0
vn 1 0 0
vn 1 0 0
vn 1 0 0
vn 1 0 0
vn 1 0 0
vn 1 0 0
vn 1 0 0
vn 1 0 0
vn 0 0 -1
vn 0 0 -1
vn 0 0 -1
vn 0 0 -1
vn 0 0 -1
vn 0 0 -1
vn 0 0 -1
vn 0 0 -1
vn 0 -1 0
vn 0 -1 0
vn 0 -1 0
vn 0 -1 0
vn 0 -1 0
vn 0 -1 0
vn 0 -1 0
vn 0 -1 0
f 8/8/8 4/4/4 5/5/5
f 5/5/5 4/4/4 1/1/1
f 8/8/8 5/5/5 7/7/7
f 6/6/6 8/8/8 2/2/2
f 6/6/6 3/3/3 4/4/4
f 8/8/8 6/6/6 4/4/4
f 16/16/16 9/9/9 13/13/13
f 16/16/16 14/14/14 10/10/10
f 14/14/14 16/16/16 13/13/13
f 14/14/14 13/13/13 11/11/11 15/15/15
f 15/15/15 12/12/12 14/14/14
f 24/24/24 17/17/17 21/21/21
f 24/24/24 20/20/20 18/18/18
f 20/20/20 24/24/24 21/21/21
f 20/20/20 21/21/21 22/22/22 23/23/23
f 23/23/23 19/19/19 20/20/20
f 30/30/30 25/25/25 32/32/32
f 30/30/30 29/29/29 26/26/26
f 29/29/29 30/30/30 32/32/32
f 29/29/29 32/32/32 31/31/31 28/28/28
f 27/27/27 31/31/31 32/32/32
f 40/40/40 37/37/37 39/39/39
f 39/39/39 37/37/37 34/34/34
f 40/40/40 39/39/39 33/33/33
f 38/38/38 40/40/40 35/35/35
f 38/38/38 36/36/36 37/37/37
f 40/40/40 38/38/38 37/37/37
f 46/46/46 45/45/45 47/47/47
f 45/45/45 42/42/42 47/47/47
f 48/48/48 41/41/41 45/45/45
f 46/46/46 43/43/43 48/48/48
f 46/46/46 47/47/47 44/44/44
f 48/48/48 45/45/45 46/46/46
