# Rhino

g Arrabida_Final
o object_1
v -11.999995231628418 10.5 -14.99993896484375
v 15.000004768371582 10.5 -14.99993896484375
v -11.999995231628418 10.5 12.00006103515625
v 15.000004768371582 10.5 12.00006103515625
v -11.999995231628418 10.5 -1.4999393224716187
v 1.5000051259994507 10.5 12.00006103515625
v 1.5000051259994507 10.5 -14.99993896484375
v 15.000004768371582 10.5 -1.4999393224716187
v -11.999995231628418 30 -14.99993896484375
v -11.999995231628418 10.5 12.00006103515625
v -11.999995231628418 30 12.00006103515625
v -11.999995231628418 10.5 -14.99993896484375
v -11.999995231628418 10.5 -1.4999393224716187
v -11.999995231628418 30 3.0000607967376709
v -11.999995231628418 30 -5.9999394416809082
v -11.999995231628418 24.333332061767578 -14.99993896484375
v -11.999995231628418 18.666667938232422 -14.99993896484375
v -11.999995231628418 13 -14.99993896484375
v -11.999995231628418 20.25 -1.4999393224716187
v -11.999995231628418 15.375 -1.4999393224716187
v -11.999995231628418 20.25 -8.24993896484375
v -11.999995231628418 15.375 -8.24993896484375
v -11.999995231628418 10.5 12.00006103515625
v -11.999995231628418 30 12.00006103515625
v 15.000004768371582 10.5 12.00006103515625
v 1.5000051259994507 10.5 12.00006103515625
v 15.000004768371582 30 12.00006103515625
v 6.0000052452087402 30 12.00006103515625
v -2.9999947547912598 30 12.00006103515625
v 15.000004768371582 13 12.00006103515625
v 15.000004768371582 21.5 12.00006103515625
v 1.5000051259994507 20.25 12.00006103515625
v 8.250004768371582 20.25 12.00006103515625
v 1.5000051259994507 15.375 12.00006103515625
v 8.250004768371582 15.375 12.00006103515625
v -14.999995231628418 0 15.00006103515625
v 5.1712918320845347E-06 0 15.00006103515625
v 5.1712918320845347E-06 18.875188827514648 15.00006103515625
v 5.1712918320845347E-06 9.4375944137573242 15.00006103515625
v -7.4999947547912598 18.875188827514648 15.00006103515625
v -7.4999947547912598 0 15.00006103515625
v -14.999995231628418 18.875188827514648 15.00006103515625
v -14.999995231628418 9.4375944137573242 15.00006103515625
v -14.999995231628418 0 15.00006103515625
v -14.999995231628418 0 -14.99993896484375
v 15.000004768371582 0 15.00006103515625
v 15.000004768371582 0 -14.99993896484375
v -7.4999947547912598 0 15.00006103515625
v -14.999995231628418 0 6.0704413044732064E-05
v 5.1712918320845347E-06 0 15.00006103515625
v 5.1712918320845347E-06 0 6.0704413044732064E-05
v 7.5000052452087402 0 15.00006103515625
v 5.1712918320845347E-06 0 -14.99993896484375
v 15.000004768371582 0 12.00006103515625
v 7.5000052452087402 0 6.0704413044732064E-05
v 5.1712918320845347E-06 0 7.5000605583190918
v 7.5000052452087402 0 7.5000605583190918
v 15.000004768371582 0 -1.4999393224716187
v -14.999995231628418 0 -14.99993896484375
v -14.999995231628418 18.875188827514648 -14.99993896484375
v -14.999995231628418 0 15.00006103515625
v -14.999995231628418 18.875188827514648 15.00006103515625
v -14.999995231628418 9.4375944137573242 15.00006103515625
v -14.999995231628418 0 6.0704413044732064E-05
v -14.999995231628418 18.875188827514648 6.0704413044732064E-05
v -14.999995231628418 10.5 -14.99993896484375
v -14.999995231628418 14.687594413757324 -14.99993896484375
v 15.000004768371582 10.5 -14.99993896484375
v -14.999995231628418 10.5 -14.99993896484375
v 15.000004768371582 0 -14.99993896484375
v -14.999995231628418 0 -14.99993896484375
v -11.999995231628418 10.5 -14.99993896484375
v 1.5000051259994507 10.5 -14.99993896484375
v 5.1712918320845347E-06 0 -14.99993896484375
v 5.1712918320845347E-06 5.25 -14.99993896484375
v -7.4999947547912598 5.25 -14.99993896484375
v 5.1712918320845347E-06 7.875 -14.99993896484375
v -7.4999947547912598 7.875 -14.99993896484375
v -14.999995231628418 18.875188827514648 -14.99993896484375
v -14.999995231628418 18.875188827514648 15.00006103515625
v -14.999995231628418 30 -14.99993896484375
v -14.999995231628418 30 15.00006103515625
v -14.999995231628418 18.875188827514648 6.0704413044732064E-05
v -14.999995231628418 24.437595367431641 -14.99993896484375
v -14.999995231628418 30 -4.9999394416809082
v -14.999995231628418 30 5.0000605583190918
v -11.999995231628418 30 -14.99993896484375
v -11.999995231628418 10.5 -14.99993896484375
v -14.999995231628418 30 -14.99993896484375
v -14.999995231628418 10.5 -14.99993896484375
v -14.999995231628418 24.437595367431641 -14.99993896484375
v -14.999995231628418 18.875188827514648 -14.99993896484375
v -14.999995231628418 14.687594413757324 -14.99993896484375
v -11.999995231628418 13 -14.99993896484375
v -11.999995231628418 18.666667938232422 -14.99993896484375
v -11.999995231628418 24.333332061767578 -14.99993896484375
v 5.1712918320845347E-06 18.875188827514648 15.00006103515625
v 5.1712918320845347E-06 0 15.00006103515625
v 15.000004768371582 18.875188827514648 15.00006103515625
v 15.000004768371582 0 15.00006103515625
v 5.1712918320845347E-06 9.4375944137573242 15.00006103515625
v 7.5000052452087402 0 15.00006103515625
v 7.5000052452087402 18.875188827514648 15.00006103515625
v 15.000004768371582 9.4375944137573242 15.00006103515625
v -14.999995231628418 30 15.00006103515625
v -14.999995231628418 18.875188827514648 15.00006103515625
v 15.000004768371582 30 15.00006103515625
v 15.000004768371582 18.875188827514648 15.00006103515625
v 5.1712918320845347E-06 18.875188827514648 15.00006103515625
v -7.4999947547912598 18.875188827514648 15.00006103515625
v 5.1712918320845347E-06 24.437595367431641 15.00006103515625
v 7.5000052452087402 18.875188827514648 15.00006103515625
v -11.999995231628418 30 15.00006103515625
v 5.1712918320845347E-06 27.21879768371582 15.00006103515625
v -7.4999947547912598 24.437595367431641 15.00006103515625
v -7.4999947547912598 27.21879768371582 15.00006103515625
v -2.9999947547912598 30 15.00006103515625
v 6.0000052452087402 30 15.00006103515625
v -14.999995231628418 30 -14.99993896484375
v -14.999995231628418 30 15.00006103515625
v -11.999995231628418 30 -14.99993896484375
v -11.999995231628418 30 15.00006103515625
v -11.999995231628418 30 -5.9999394416809082
v -11.999995231628418 30 3.0000607967376709
v -11.999995231628418 30 12.00006103515625
v -14.999995231628418 30 5.0000605583190918
v -14.999995231628418 30 -4.9999394416809082
v -11.999995231628418 30 15.00006103515625
v 15.000004768371582 30 15.00006103515625
v -11.999995231628418 30 12.00006103515625
v 15.000004768371582 30 12.00006103515625
v -2.9999947547912598 30 12.00006103515625
v 6.0000052452087402 30 12.00006103515625
v 6.0000052452087402 30 15.00006103515625
v -2.9999947547912598 30 15.00006103515625
v 15.000004768371582 30 15.00006103515625
v 15.000004768371582 0 15.00006103515625
v 15.000004768371582 30 12.00006103515625
v 15.000004768371582 0 12.00006103515625
v 15.000004768371582 9.4375944137573242 15.00006103515625
v 15.000004768371582 18.875188827514648 15.00006103515625
v 15.000004768371582 10.5 12.00006103515625
v 15.000004768371582 21.5 12.00006103515625
v 15.000004768371582 13 12.00006103515625
v 15.000004768371582 10.5 -14.99993896484375
v 15.000004768371582 10.5 12.00006103515625
v 15.000004768371582 0 -14.99993896484375
v 15.000004768371582 0 12.00006103515625
v 15.000004768371582 10.5 -1.4999393224716187
v 15.000004768371582 0 -1.4999393224716187
vt 0.96666663885116577 0.38526338338851929
vt 0.66666668653488159 0.38526338338851929
vt 0.96666663885116577 0.68526339530944824
vt 0.66666668653488159 0.68526339530944824
vt 0.96666663885116577 0.53526341915130615
vt 0.81666666269302368 0.68526339530944824
vt 0.81666666269302368 0.38526338338851929
vt 0.66666668653488159 0.53526341915130615
vt 0.35087719559669495 0.43186849355697632
vt 0.65087717771530151 0.21666666865348816
vt 0.65087717771530151 0.43186849355697632
vt 0.35087719559669495 0.21666666865348816
vt 0.50087720155715942 0.21666666865348816
vt 0.55087721347808838 0.43186849355697632
vt 0.45087718963623047 0.43186849355697632
vt 0.35087719559669495 0.36933121085166931
vt 0.35087719559669495 0.3067939281463623
vt 0.35087719559669495 0.2442566454410553
vt 0.50087720155715942 0.32426756620407104
vt 0.50087720155715942 0.2704671323299408
vt 0.42587718367576599 0.32426756620407104
vt 0.42587718367576599 0.2704671323299408
vt 0.35087719559669495 0
vt 0.35087719559669495 0.21520182490348816
vt 0.65087717771530151 0
vt 0.50087720155715942 0
vt 0.65087717771530151 0.21520182490348816
vt 0.55087721347808838 0.21520182490348816
vt 0.45087718963623047 0.21520182490348816
vt 0.65087717771530151 0.027589978650212288
vt 0.65087717771530151 0.12139590829610825
vt 0.50087720155715942 0.10760091245174408
vt 0.57587718963623047 0.10760091245174408
vt 0.50087720155715942 0.05380045622587204
vt 0.57587718963623047 0.05380045622587204
vt 0.5 0.64305764436721802
vt 0.66520184278488159 0.64305764436721802
vt 0.66520184278488159 0.85131716728210449
vt 0.66520184278488159 0.74718737602233887
vt 0.58260089159011841 0.85131716728210449
vt 0.58260089159011841 0.64305764436721802
vt 0.5 0.85131716728210449
vt 0.5 0.74718737602233887
vt 0 0
vt 0 0.3333333432674408
vt 0.3333333432674408 0
vt 0.3333333432674408 0.3333333432674408
vt 0.083333335816860199 0
vt 0 0.1666666716337204
vt 0.1666666716337204 0
vt 0.1666666716337204 0.1666666716337204
vt 0.25 0
vt 0.1666666716337204 0.3333333432674408
vt 0.3333333432674408 0.033333335071802139
vt 0.25 0.1666666716337204
vt 0.1666666716337204 0.083333335816860199
vt 0.25 0.083333335816860199
vt 0.3333333432674408 0.18333333730697632
vt 0.3333333432674408 0.43333333730697632
vt 0.3333333432674408 0.64159280061721802
vt 0.66520184278488159 0.43333333730697632
vt 0.66520184278488159 0.64159280061721802
vt 0.66520184278488159 0.53746306896209717
vt 0.499267578125 0.43333333730697632
vt 0.499267578125 0.64159280061721802
vt 0.3333333432674408 0.54918509721755981
vt 0.3333333432674408 0.59538894891738892
vt 0.3318684995174408 0.71932107210159302
vt 0 0.71932107210159302
vt 0.3318684995174408 0.83598768711090088
vt 0 0.83598768711090088
vt 0.033186856657266617 0.71932107210159302
vt 0.18252767622470856 0.71932107210159302
vt 0.1659342497587204 0.83598768711090088
vt 0.1659342497587204 0.77765440940856934
vt 0.082967124879360199 0.77765440940856934
vt 0.1659342497587204 0.74848771095275879
vt 0.082967124879360199 0.74848771095275879
vt 0.99853515625 0.19263169169425964
vt 0.66666668653488159 0.19263169169425964
vt 0.99853515625 0.31624069809913635
vt 0.66666668653488159 0.31624069809913635
vt 0.83260089159011841 0.19263169169425964
vt 0.99853515625 0.254436194896698
vt 0.8879123330116272 0.31624069809913635
vt 0.77728950977325439 0.31624069809913635
vt 0.21666666865348816 0.43333333730697632
vt 0 0.43333333730697632
vt 0.21666666865348816 0.46666666865348816
vt 0 0.46666666865348816
vt 0.1548621654510498 0.46666666865348816
vt 0.093057654798030853 0.46666666865348816
vt 0.046528827399015427 0.46666666865348816
vt 0.027777776122093201 0.43333333730697632
vt 0.090740732848644257 0.43333333730697632
vt 0.15370370447635651 0.43333333730697632
vt 0.3333333432674408 0.64305764436721802
vt 0.3333333432674408 0.85131716728210449
vt 0.49853515625 0.64305764436721802
vt 0.49853515625 0.85131716728210449
vt 0.3333333432674408 0.74718737602233887
vt 0.4159342348575592 0.85131716728210449
vt 0.4159342348575592 0.64305764436721802
vt 0.49853515625 0.74718737602233887
vt 0.66666668653488159 0
vt 0.66666668653488159 0.12360900640487671
vt 0.99853515625 0
vt 0.99853515625 0.12360900640487671
vt 0.83260089159011841 0.12360900640487671
vt 0.7496337890625 0.12360900640487671
vt 0.83260089159011841 0.061804503202438354
vt 0.91556805372238159 0.12360900640487671
vt 0.69985353946685791 0
vt 0.83260089159011841 0.030902251601219177
vt 0.7496337890625 0.061804503202438354
vt 0.7496337890625 0.030902251601219177
vt 0.79941403865814209 0
vt 0.89897459745407104 0
vt 0.3318684995174408 0.54772841930389404
vt 0 0.54772841930389404
vt 0.3318684995174408 0.58106178045272827
vt 0 0.58106178045272827
vt 0.23230794072151184 0.58106178045272827
vt 0.13274738192558289 0.58106178045272827
vt 0.033186856657266617 0.58106178045272827
vt 0.1106228232383728 0.54772841930389404
vt 0.2212456613779068 0.54772841930389404
vt 0.30000001192092896 0.47146502137184143
vt 0 0.47146502137184143
vt 0.30000001192092896 0.50479835271835327
vt 0 0.50479835271835327
vt 0.20000000298023224 0.50479835271835327
vt 0.099999994039535522 0.50479835271835327
vt 0.099999994039535522 0.47146502137184143
vt 0.20000000298023224 0.47146502137184143
vt 0.3318684995174408 0.50959670543670654
vt 0 0.50959670543670654
vt 0.3318684995174408 0.54293006658554077
vt 0 0.54293006658554077
vt 0.10440133512020111 0.50959670543670654
vt 0.20880268514156342 0.50959670543670654
vt 0.11615397781133652 0.54293006658554077
vt 0.23783908784389496 0.54293006658554077
vt 0.14380967617034912 0.54293006658554077
vt 0.30000001192092896 0.58586013317108154
vt 0 0.58586013317108154
vt 0.30000001192092896 0.70252680778503418
vt 0 0.70252680778503418
vt 0.15000000596046448 0.58586013317108154
vt 0.15000000596046448 0.70252680778503418
vn 0 1 0
vn 0 1 0
vn 0 1 0
vn 0 1 0
vn 0 1 0
vn 0 1 0
vn 0 1 0
vn 0 1 0
vn 1 0 0
vn 1 0 0
vn 1 0 0
vn 1 0 0
vn 1 0 0
vn 1 0 0
vn 1 0 0
vn 1 0 0
vn 1 0 0
vn 1 0 0
vn 1 0 0
vn 1 0 0
vn 1 0 0
vn 1 0 0
vn 0 0 -1
vn 0 0 -1
vn 0 0 -1
vn 0 0 -1
vn 0 0 -1
vn 0 0 -1
vn 0 0 -1
vn 0 0 -1
vn 0 0 -1
vn 0 0 -1
vn 0 0 -1
vn 0 0 -1
vn 0 0 -1
vn 0 0 1
vn 0 0 1
vn 0 0 1
vn 0 0 1
vn 0 0 1
vn 0 0 1
vn 0 0 1
vn 0 0 1
vn 0 -1 0
vn 0 -1 0
vn 0 -1 0
vn 0 -1 0
vn 0 -1 0
vn 0 -1 0
vn 0 -1 0
vn 0 -1 0
vn 0 -1 0
vn 0 -1 0
vn 0 -1 0
vn 0 -1 0
vn 0 -1 0
vn 0 -1 0
vn 0 -1 0
vn -1 0 0
vn -1 0 0
vn -1 0 0
vn -1 0 0
vn -1 0 0
vn -1 0 0
vn -1 0 0
vn -1 0 0
vn -1 0 0
vn 0 0 -1
vn 0 0 -1
vn 0 0 -1
vn 0 0 -1
vn 0 0 -1
vn 0 0 -1
vn 0 0 -1
vn 0 0 -1
vn 0 0 -1
vn 0 0 -1
vn 0 0 -1
vn -1 0 0
vn -1 0 0
vn -1 0 0
vn -1 0 0
vn -1 0 0
vn -1 0 0
vn -1 0 0
vn -1 0 0
vn 0 0 -1
vn 0 0 -1
vn 0 0 -1
vn 0 0 -1
vn 0 0 -1
vn 0 0 -1
vn 0 0 -1
vn 0 0 -1
vn 0 0 -1
vn 0 0 -1
vn 0 0 1
vn 0 0 1
vn 0 0 1
vn 0 0 1
vn 0 0 1
vn 0 0 1
vn 0 0 1
vn 0 0 1
vn 0 0 1
vn 0 0 1
vn 0 0 1
vn 0 0 1
vn 0 0 1
vn 0 0 1
vn 0 0 1
vn 0 0 1
vn 0 0 1
vn 0 0 1
vn 0 0 1
vn 0 0 1
vn 0 0 1
vn 0 0 1
vn 0 1 0
vn 0 1 0
vn 0 1 0
vn 0 1 0
vn 0 1 0
vn 0 1 0
vn 0 1 0
vn 0 1 0
vn 0 1 0
vn 0 1 0
vn 0 1 0
vn 0 1 0
vn 0 1 0
vn 0 1 0
vn 0 1 0
vn 0 1 0
vn 0 1 0
vn 1 0 0
vn 1 0 0
vn 1 0 0
vn 1 0 0
vn 1 0 0
vn 1 0 0
vn 1 0 0
vn 1 0 0
vn 1 0 0
vn 1 0 0
vn 1 0 0
vn 1 0 0
vn 1 0 0
vn 1 0 0
vn 1 0 0
f 7/7/7 1/1/1 5/5/5
f 7/7/7 8/8/8 2/2/2
f 6/6/6 7/7/7 5/5/5
f 7/7/7 6/6/6 8/8/8
f 6/6/6 4/4/4 8/8/8
f 3/3/3 6/6/6 5/5/5
f 19/19/19 20/20/20 22/22/22 21/21/21
f 18/18/18 22/22/22 12/12/12
f 13/13/13 12/12/12 22/22/22
f 17/17/17 21/21/21 22/22/22 18/18/18
f 21/21/21 17/17/17 16/16/16
f 21/21/21 16/16/16 15/15/15
f 9/9/9 15/15/15 16/16/16
f 20/20/20 10/10/10 13/13/13
f 19/19/19 10/10/10 20/20/20
f 14/14/14 19/19/19 15/15/15
f 19/19/19 21/21/21 15/15/15
f 19/19/19 14/14/14 11/11/11
f 11/11/11 10/10/10 19/19/19
f 13/13/13 22/22/22 20/20/20
f 33/33/33 35/35/35 34/34/34 32/32/32
f 34/34/34 26/26/26 23/23/23
f 35/35/35 26/26/26 34/34/34
f 32/32/32 34/34/34 23/23/23
f 29/29/29 32/32/32 24/24/24
f 23/23/23 24/24/24 32/32/32
f 28/28/28 32/32/32 29/29/29
f 30/30/30 25/25/25 35/35/35
f 26/26/26 35/35/35 25/25/25
f 30/30/30 35/35/35 33/33/33 31/31/31
f 31/31/31 33/33/33 28/28/28
f 33/33/33 32/32/32 28/28/28
f 28/28/28 27/27/27 31/31/31
f 43/43/43 36/36/36 41/41/41
f 43/43/43 40/40/40 42/42/42
f 40/40/40 43/43/43 41/41/41
f 41/41/41 39/39/39 40/40/40
f 39/39/39 38/38/38 40/40/40
f 37/37/37 39/39/39 41/41/41
f 55/55/55 57/57/57 56/56/56 51/51/51
f 49/49/49 48/48/48 44/44/44
f 56/56/56 50/50/50 48/48/48
f 49/49/49 45/45/45 53/53/53 51/51/51
f 49/49/49 51/51/51 56/56/56
f 56/56/56 48/48/48 49/49/49
f 57/57/57 52/52/52 50/50/50 56/56/56
f 54/54/54 52/52/52 57/57/57
f 52/52/52 54/54/54 46/46/46
f 54/54/54 57/57/57 55/55/55 58/58/58
f 47/47/47 55/55/55 53/53/53
f 55/55/55 51/51/51 53/53/53
f 55/55/55 47/47/47 58/58/58
f 64/64/64 66/66/66 59/59/59
f 65/65/65 60/60/60 67/67/67
f 67/67/67 66/66/66 65/65/65
f 63/63/63 64/64/64 61/61/61
f 62/62/62 65/65/65 63/63/63
f 64/64/64 63/63/63 65/65/65
f 66/66/66 64/64/64 65/65/65
f 76/76/76 78/78/78 77/77/77 75/75/75
f 77/77/77 73/73/73 68/68/68
f 78/78/78 69/69/69 72/72/72
f 72/72/72 73/73/73 77/77/77 78/78/78
f 77/77/77 68/68/68 75/75/75
f 74/74/74 75/75/75 70/70/70
f 68/68/68 70/70/70 75/75/75
f 76/76/76 75/75/75 74/74/74
f 69/69/69 76/76/76 71/71/71
f 74/74/74 71/71/71 76/76/76
f 78/78/78 76/76/76 69/69/69
f 83/83/83 84/84/84 79/79/79
f 80/80/80 82/82/82 86/86/86 83/83/83
f 86/86/86 84/84/84 83/83/83
f 84/84/84 85/85/85 81/81/81
f 84/84/84 86/86/86 85/85/85
f 96/96/96 91/91/91 89/89/89 87/87/87
f 94/94/94 93/93/93 92/92/92 95/95/95
f 90/90/90 94/94/94 88/88/88
f 95/95/95 92/92/92 91/91/91 96/96/96
f 94/94/94 90/90/90 93/93/93
f 101/101/101 103/103/103 97/97/97
f 101/101/101 98/98/98 102/102/102
f 104/104/104 103/103/103 101/101/101
f 101/101/101 102/102/102 104/104/104
f 104/104/104 102/102/102 100/100/100
f 99/99/99 103/103/103 104/104/104
f 111/111/111 114/114/114 116/116/116 115/115/115
f 116/116/116 113/113/113 105/105/105
f 116/116/116 117/117/117 113/113/113
f 106/106/106 115/115/115 105/105/105
f 116/116/116 105/105/105 115/115/115
f 106/106/106 110/110/110 115/115/115
f 110/110/110 109/109/109 111/111/111 115/115/115
f 117/117/117 116/116/116 114/114/114
f 107/107/107 118/118/118 114/114/114
f 117/117/117 114/114/114 118/118/118
f 111/111/111 107/107/107 114/114/114
f 112/112/112 111/111/111 109/109/109
f 111/111/111 112/112/112 108/108/108
f 108/108/108 107/107/107 111/111/111
f 127/127/127 123/123/123 121/121/121 119/119/119
f 120/120/120 125/125/125 124/124/124 126/126/126
f 126/126/126 124/124/124 123/123/123 127/127/127
f 120/120/120 122/122/122 125/125/125
f 135/135/135 132/132/132 130/130/130 128/128/128
f 129/129/129 131/131/131 133/133/133 134/134/134
f 134/134/134 133/133/133 132/132/132 135/135/135
f 141/141/141 143/143/143 138/138/138 136/136/136
f 137/137/137 139/139/139 142/142/142 140/140/140
f 140/140/140 144/144/144 143/143/143 141/141/141
f 140/140/140 142/142/142 144/144/144
f 149/149/149 150/150/150 147/147/147 145/145/145
f 146/146/146 148/148/148 150/150/150 149/149/149
