# Rhino

g Arrabida_Final
o object_1
v -14.999995231628418 0 15.00006103515625
v 15.000004768371582 0 15.00006103515625
v -14.999995231628418 30 15.00006103515625
v 15.000004768371582 30 15.00006103515625
v -14.999995231628418 15 15.00006103515625
v 5.1712918320845347E-06 0 15.00006103515625
v 12.000004768371582 30 15.00006103515625
v 5.1712918320845347E-06 15 15.00006103515625
v 7.5000052452087402 15 15.00006103515625
v 5.1712918320845347E-06 22.5 15.00006103515625
v 7.5000052452087402 22.5 15.00006103515625
v -5.9999947547912598 30 15.00006103515625
v 3.0000052452087402 30 15.00006103515625
v 15.000004768371582 15 15.00006103515625
v -14.999995231628418 13 -14.99993896484375
v 12.000004768371582 13 -14.99993896484375
v -14.999995231628418 13 12.00006103515625
v 12.000004768371582 13 12.00006103515625
v 12.000004768371582 13 -1.4999393224716187
v -14.999995231628418 13 -1.4999393224716187
v -1.4999948740005493 13 12.00006103515625
v -1.4999948740005493 13 -14.99993896484375
v 12.000004768371582 30 12.00006103515625
v 12.000004768371582 30 -14.99993896484375
v 12.000004768371582 13 12.00006103515625
v 12.000004768371582 13 -1.4999393224716187
v 12.000004768371582 30 -5.9999394416809082
v 12.000004768371582 30 3.0000607967376709
v 12.000004768371582 13 -14.99993896484375
v 12.000004768371582 21.5 -14.99993896484375
v -14.999995231628418 13 12.00006103515625
v -14.999995231628418 30 12.00006103515625
v -1.4999948740005493 13 12.00006103515625
v 12.000004768371582 13 12.00006103515625
v 12.000004768371582 30 12.00006103515625
v 3.0000052452087402 30 12.00006103515625
v -5.9999947547912598 30 12.00006103515625
v -14.999995231628418 0 15.00006103515625
v -14.999995231628418 0 -14.99993896484375
v 15.000004768371582 0 15.00006103515625
v 15.000004768371582 0 -14.99993896484375
v 5.1712918320845347E-06 0 15.00006103515625
v 15.000004768371582 0 6.0704413044732064E-05
v -14.999995231628418 0 6.0704413044732064E-05
v 12.000004768371582 0 -14.99993896484375
v 5.1712918320845347E-06 0 6.0704413044732064E-05
v 5.1712918320845347E-06 0 -7.4999394416809082
v 7.5000052452087402 0 6.0704413044732064E-05
v 7.5000052452087402 0 -7.4999394416809082
v -1.4999948740005493 0 -14.99993896484375
v 15.000004768371582 0 15.00006103515625
v 15.000004768371582 30 15.00006103515625
v 15.000004768371582 0 -14.99993896484375
v 15.000004768371582 0 6.0704413044732064E-05
v 15.000004768371582 30 -14.99993896484375
v 15.000004768371582 30 -4.9999394416809082
v 15.000004768371582 30 5.0000605583190918
v 15.000004768371582 10 -14.99993896484375
v 15.000004768371582 20 -14.99993896484375
v 15.000004768371582 15 15.00006103515625
v 15.000004768371582 30 -14.99993896484375
v 15.000004768371582 0 -14.99993896484375
v 12.000004768371582 30 -14.99993896484375
v 12.000004768371582 0 -14.99993896484375
v 12.000004768371582 21.5 -14.99993896484375
v 12.000004768371582 13 -14.99993896484375
v 15.000004768371582 10 -14.99993896484375
v 15.000004768371582 20 -14.99993896484375
v 12.000004768371582 6.5 -14.99993896484375
v 12.000004768371582 13 -14.99993896484375
v 12.000004768371582 0 -14.99993896484375
v -14.999995231628418 13 -14.99993896484375
v -14.999995231628418 0 -14.99993896484375
v -1.4999948740005493 13 -14.99993896484375
v 12.000004768371582 6.5 -14.99993896484375
v -1.4999948740005493 0 -14.99993896484375
v 15.000004768371582 30 15.00006103515625
v 12.000004768371582 30 15.00006103515625
v 15.000004768371582 30 -14.99993896484375
v 12.000004768371582 30 -14.99993896484375
v 12.000004768371582 30 -5.9999394416809082
v 12.000004768371582 30 3.0000607967376709
v 12.000004768371582 30 12.00006103515625
v 15.000004768371582 30 5.0000605583190918
v 15.000004768371582 30 -4.9999394416809082
v 12.000004768371582 30 15.00006103515625
v -14.999995231628418 30 15.00006103515625
v 12.000004768371582 30 12.00006103515625
v -14.999995231628418 30 12.00006103515625
v 3.0000052452087402 30 12.00006103515625
v -5.9999947547912598 30 12.00006103515625
v -5.9999947547912598 30 15.00006103515625
v 3.0000052452087402 30 15.00006103515625
v -14.999995231628418 0 15.00006103515625
v -14.999995231628418 15 15.00006103515625
v -14.999995231628418 30 15.00006103515625
v -14.999995231628418 13 12.00006103515625
v -14.999995231628418 13 -1.4999393224716187
v -14.999995231628418 13 -14.99993896484375
v -14.999995231628418 30 12.00006103515625
v -14.999995231628418 0 -14.99993896484375
v -14.999995231628418 0 6.0704413044732064E-05
vt 0.66593408584594727 0.5
vt 0.66593408584594727 0.82967031002044678
vt 0.99413955211639404 0.5
vt 0.99413955211639404 0.82967031002044678
vt 0.83003681898117065 0.5
vt 0.66593408584594727 0.66483515501022339
vt 0.99413955211639404 0.7967032790184021
vt 0.83003681898117065 0.66483515501022339
vt 0.83003681898117065 0.74725276231765747
vt 0.91208815574645996 0.66483515501022339
vt 0.91208815574645996 0.74725276231765747
vt 0.99413955211639404 0.59890109300613403
vt 0.99413955211639404 0.69780218601226807
vt 0.83003681898117065 0.82967031002044678
vt 0.63296705484390259 0.37362638115882874
vt 0.3362637460231781 0.37362638115882874
vt 0.63296705484390259 0.66886484622955322
vt 0.3362637460231781 0.66886484622955322
vt 0.3362637460231781 0.52124559879302979
vt 0.63296705484390259 0.52124559879302979
vt 0.48461538553237915 0.66886484622955322
vt 0.48461538553237915 0.37362638115882874
vt 0.29899081587791443 0.18534834682941437
vt 0.59569412469863892 0.18534834682941437
vt 0.29899081587791443 0
vt 0.44734245538711548 0
vt 0.4967930018901825 0.18534834682941437
vt 0.39789190888404846 0.18534834682941437
vt 0.59569412469863892 0
vt 0.59569412469863892 0.092674173414707184
vt 0.29899081587791443 0.18681319057941437
vt 0.29899081587791443 0.37216153740882874
vt 0.44734245538711548 0.18681319057941437
vt 0.59569412469863892 0.18681319057941437
vt 0.59569412469863892 0.37216153740882874
vt 0.4967930018901825 0.37216153740882874
vt 0.39789190888404846 0.37216153740882874
vt 0.66446924209594727 0.67032968997955322
vt 0.3362637460231781 0.67032968997955322
vt 0.66446924209594727 0.99853515625
vt 0.3362637460231781 0.99853515625
vt 0.66446924209594727 0.83443242311477661
vt 0.50036650896072388 0.99853515625
vt 0.50036650896072388 0.67032968997955322
vt 0.3362637460231781 0.96571457386016846
vt 0.50036650896072388 0.83443242311477661
vt 0.41831511259078979 0.83443242311477661
vt 0.50036650896072388 0.91648375988006592
vt 0.41831511259078979 0.91648375988006592
vt 0.3362637460231781 0.81802213191986084
vt 0.99413955211639404 0
vt 0.66593408584594727 0
vt 0.99413955211639404 0.32967033982276917
vt 0.99413955211639404 0.16483516991138458
vt 0.66593408584594727 0.32967033982276917
vt 0.66593408584594727 0.21978022158145905
vt 0.66593408584594727 0.10989011079072952
vt 0.88473773002624512 0.32967033982276917
vt 0.77533590793609619 0.32967033982276917
vt 0.83003681898117065 0
vt 0.081542946398258209 0
vt 0.081542946398258209 0.32967033982276917
vt 0.11450997740030289 0
vt 0.11450997740030289 0.32967033982276917
vt 0.11450997740030289 0.093406595289707184
vt 0.11450997740030289 0.18681319057941437
vt 0.081542946398258209 0.21978022158145905
vt 0.081542946398258209 0.10989011079072952
vt 0.11450997740030289 0.25824177265167236
vt 0.26517155766487122 0
vt 0.12231442332267761 0
vt 0.26517155766487122 0.29670330882072449
vt 0.12231442332267761 0.29670330882072449
vt 0.26517155766487122 0.14835165441036224
vt 0.19374299049377441 0
vt 0.12231442332267761 0.14835165441036224
vt 0.073738507926464081 0
vt 0.040771473199129105 0
vt 0.073738507926464081 0.32967033982276917
vt 0.040771473199129105 0.32967033982276917
vt 0.040771473199129105 0.23076923191547394
vt 0.040771473199129105 0.1318681389093399
vt 0.040771473199129105 0.032967034727334976
vt 0.073738507926464081 0.10989011079072952
vt 0.073738507926464081 0.21978022158145905
vt 0 0
vt 0 0.29670330882072449
vt 0.032967034727334976 0
vt 0.032967034727334976 0.29670330882072449
vt 0.032967034727334976 0.09890110045671463
vt 0.032967034727334976 0.19780220091342926
vt 0 0.19780220091342926
vt 0 0.09890110045671463
vt 0.0032823421061038971 0.70659339427947998
vt 0.0032823421061038971 0.54175823926925659
vt 0.0032823421061038971 0.3769230842590332
vt 0.036105763167142868 0.56373625993728638
vt 0.18381117284297943 0.56373625993728638
vt 0.33151653409004211 0.56373625993728638
vt 0.036105763167142868 0.3769230842590332
vt 0.33151653409004211 0.70659339427947998
vt 0.16739945113658905 0.70659339427947998
vn 0 0 1
vn 0 0 1
vn 0 0 1
vn 0 0 1
vn 0 0 1
vn 0 0 1
vn 0 0 1
vn 0 0 1
vn 0 0 1
vn 0 0 1
vn 0 0 1
vn 0 0 1
vn 0 0 1
vn 0 0 1
vn 0 1 0
vn 0 1 0
vn 0 1 0
vn 0 1 0
vn 0 1 0
vn 0 1 0
vn 0 1 0
vn 0 1 0
vn -1 0 0
vn -1 0 0
vn -1 0 0
vn -1 0 0
vn -1 0 0
vn -1 0 0
vn -1 0 0
vn -1 0 0
vn 0 0 -1
vn 0 0 -1
vn 0 0 -1
vn 0 0 -1
vn 0 0 -1
vn 0 0 -1
vn 0 0 -1
vn 0 -1 0
vn 0 -1 0
vn 0 -1 0
vn 0 -1 0
vn 0 -1 0
vn 0 -1 0
vn 0 -1 0
vn 0 -1 0
vn 0 -1 0
vn 0 -1 0
vn 0 -1 0
vn 0 -1 0
vn 0 -1 0
vn 1 0 0
vn 1 0 0
vn 1 0 0
vn 1 0 0
vn 1 0 0
vn 1 0 0
vn 1 0 0
vn 1 0 0
vn 1 0 0
vn 1 0 0
vn 0 0 -1
vn 0 0 -1
vn 0 0 -1
vn 0 0 -1
vn 0 0 -1
vn 0 0 -1
vn 0 0 -1
vn 0 0 -1
vn 0 0 -1
vn 0 0 -1
vn 0 0 -1
vn 0 0 -1
vn 0 0 -1
vn 0 0 -1
vn 0 0 -1
vn 0 0 -1
vn 0 1 0
vn 0 1 0
vn 0 1 0
vn 0 1 0
vn 0 1 0
vn 0 1 0
vn 0 1 0
vn 0 1 0
vn 0 1 0
vn 0 1 0
vn 0 1 0
vn 0 1 0
vn 0 1 0
vn 0 1 0
vn 0 1 0
vn 0 1 0
vn 0 1 0
vn -1 0 0
vn -1 0 0
vn -1 0 0
vn -1 0 0
vn -1 0 0
vn -1 0 0
vn -1 0 0
vn -1 0 0
vn -1 0 0
f 11/11/11 10/10/10 8/8/8 9/9/9
f 6/6/6 8/8/8 5/5/5 1/1/1
f 9/9/9 2/2/2 14/14/14
f 6/6/6 2/2/2 9/9/9
f 9/9/9 8/8/8 6/6/6
f 11/11/11 9/9/9 14/14/14
f 8/8/8 10/10/10 5/5/5
f 10/10/10 12/12/12 5/5/5
f 3/3/3 5/5/5 12/12/12
f 13/13/13 12/12/12 10/10/10
f 7/7/7 13/13/13 11/11/11
f 10/10/10 11/11/11 13/13/13
f 11/11/11 4/4/4 7/7/7
f 14/14/14 4/4/4 11/11/11
f 22/22/22 15/15/15 20/20/20
f 22/22/22 19/19/19 16/16/16
f 19/19/19 22/22/22 20/20/20
f 20/20/20 21/21/21 19/19/19
f 21/21/21 18/18/18 19/19/19
f 17/17/17 21/21/21 20/20/20
f 25/25/25 23/23/23 28/28/28 26/26/26
f 28/28/28 30/30/30 26/26/26
f 28/28/28 27/27/27 30/30/30
f 30/30/30 27/27/27 24/24/24
f 29/29/29 26/26/26 30/30/30
f 37/37/37 33/33/33 31/31/31 32/32/32
f 33/33/33 36/36/36 35/35/35 34/34/34
f 37/37/37 36/36/36 33/33/33
f 49/49/49 48/48/48 46/46/46 47/47/47
f 42/42/42 38/38/38 44/44/44 46/46/46
f 48/48/48 42/42/42 46/46/46
f 50/50/50 47/47/47 39/39/39
f 39/39/39 47/47/47 44/44/44
f 47/47/47 46/46/46 44/44/44
f 43/43/43 40/40/40 48/48/48
f 49/49/49 43/43/43 48/48/48
f 45/45/45 49/49/49 47/47/47 50/50/50
f 49/49/49 45/45/45 41/41/41
f 41/41/41 43/43/43 49/49/49
f 40/40/40 42/42/42 48/48/48
f 60/60/60 51/51/51 54/54/54
f 52/52/52 60/60/60 57/57/57
f 60/60/60 56/56/56 57/57/57
f 56/56/56 60/60/60 54/54/54
f 58/58/58 59/59/59 54/54/54
f 55/55/55 56/56/56 59/59/59
f 59/59/59 56/56/56 54/54/54
f 53/53/53 58/58/58 54/54/54
f 68/68/68 65/65/65 63/63/63 61/61/61
f 62/62/62 64/64/64 69/69/69 67/67/67
f 67/67/67 66/66/66 65/65/65 68/68/68
f 67/67/67 69/69/69 66/66/66
f 74/74/74 70/70/70 75/75/75
f 76/76/76 75/75/75 71/71/71
f 74/74/74 76/76/76 73/73/73 72/72/72
f 75/75/75 76/76/76 74/74/74
f 77/77/77 84/84/84 82/82/82 83/83/83
f 77/77/77 83/83/83 78/78/78
f 85/85/85 79/79/79 80/80/80 81/81/81
f 81/81/81 82/82/82 84/84/84 85/85/85
f 93/93/93 86/86/86 88/88/88 90/90/90
f 87/87/87 92/92/92 91/91/91 89/89/89
f 92/92/92 93/93/93 90/90/90 91/91/91
f 100/100/100 97/97/97 95/95/95
f 102/102/102 94/94/94 97/97/97
f 95/95/95 97/97/97 94/94/94
f 100/100/100 95/95/95 96/96/96
f 97/97/97 98/98/98 102/102/102
f 102/102/102 98/98/98 101/101/101
f 99/99/99 101/101/101 98/98/98
