# Rhino

g Arrabida_Final
o object_1
v 15.000004768371582 0 15.00006103515625
v 15.000004768371582 30 15.00006103515625
v 15.000004768371582 0 -14.99993896484375
v 15.000004768371582 30 -14.99993896484375
v 15.000004768371582 15 -14.99993896484375
v 15.000004768371582 30 -4.9999394416809082
v 15.000004768371582 30 5.0000605583190918
v 15.000004768371582 0 6.0704413044732064E-05
v 15.000004768371582 13 15.00006103515625
v 15.000004768371582 21.5 15.00006103515625
v 15.000004768371582 0 -14.99993896484375
v -14.999995231628418 0 -14.99993896484375
v -14.999995231628418 30 -14.99993896484375
v 15.000004768371582 30 -14.99993896484375
v 15.000004768371582 15 -14.99993896484375
v 5.1712918320845347E-06 0 -14.99993896484375
v -14.999995231628418 15 -14.99993896484375
v 12.000004768371582 30 -14.99993896484375
v 5.1712918320845347E-06 15 -14.99993896484375
v 5.1712918320845347E-06 22.5 -14.99993896484375
v 7.5000052452087402 15 -14.99993896484375
v 7.5000052452087402 22.5 -14.99993896484375
v -1.4999948740005493 30 -14.99993896484375
v -14.999995231628418 0 15.00006103515625
v -14.999995231628418 0 -14.99993896484375
v 15.000004768371582 0 15.00006103515625
v 15.000004768371582 0 -14.99993896484375
v 5.1712918320845347E-06 0 -14.99993896484375
v -14.999995231628418 0 6.0704413044732064E-05
v 5.1712918320845347E-06 0 15.00006103515625
v 15.000004768371582 0 6.0704413044732064E-05
v 12.000004768371582 13 -1.9999393224716187
v 9.000004768371582 30 -1.9999393224716187
v 9.000004768371582 13 -1.9999393224716187
v 9.000004768371582 21.5 -1.9999393224716187
v 12.000004768371582 30 -1.9999393224716187
v 12.000004768371582 21.5 -1.9999393224716187
v 9.000004768371582 13 -1.9999393224716187
v 6.0000052452087402 30 -1.9999393224716187
v 6.0000052452087402 13 -1.9999393224716187
v 6.0000052452087402 21.5 -1.9999393224716187
v 9.000004768371582 30 -1.9999393224716187
v 9.000004768371582 21.5 -1.9999393224716187
v 6.0000052452087402 13 -1.9999393224716187
v 3.0000052452087402 30 -1.9999393224716187
v 3.0000052452087402 13 -1.9999393224716187
v 3.0000052452087402 21.5 -1.9999393224716187
v 6.0000052452087402 30 -1.9999393224716187
v 6.0000052452087402 21.5 -1.9999393224716187
v 3.0000052452087402 13 -1.9999393224716187
v 5.1712918320845347E-06 30 -1.9999393224716187
v 5.1712918320845347E-06 13 -1.9999393224716187
v 3.0000052452087402 30 -1.9999393224716187
v 5.1712918320845347E-06 21.5 -1.9999393224716187
v 3.0000052452087402 21.5 -1.9999393224716187
v 5.1712918320845347E-06 13 -1.9999393224716187
v -2.9999947547912598 30 -1.9999393224716187
v -2.9999947547912598 13 -1.9999393224716187
v 5.1712918320845347E-06 30 -1.9999393224716187
v -2.9999947547912598 21.5 -1.9999393224716187
v 5.1712918320845347E-06 21.5 -1.9999393224716187
v -2.9999947547912598 13 -1.9999393224716187
v -5.9999947547912598 30 -1.9999393224716187
v -5.9999947547912598 13 -1.9999393224716187
v -5.9999947547912598 21.5 -1.9999393224716187
v -2.9999947547912598 30 -1.9999393224716187
v -2.9999947547912598 21.5 -1.9999393224716187
v -5.9999947547912598 13 -1.9999393224716187
v -8.999995231628418 30 -1.9999393224716187
v -8.999995231628418 13 -1.9999393224716187
v -5.9999947547912598 30 -1.9999393224716187
v -8.999995231628418 21.5 -1.9999393224716187
v -5.9999947547912598 21.5 -1.9999393224716187
v -8.999995231628418 13 -1.9999393224716187
v -11.999995231628418 30 -1.9999393224716187
v -11.999995231628418 13 -1.9999393224716187
v -8.999995231628418 30 -1.9999393224716187
v -11.999995231628418 21.5 -1.9999393224716187
v -8.999995231628418 21.5 -1.9999393224716187
v -11.999995231628418 13 -1.9999393224716187
v -14.999995231628418 30 -1.9999393224716187
v -14.999995231628418 13 -1.9999393224716187
v -13.499995231628418 21.5 -1.9999393224716187
v -11.999995231628418 30 -1.9999393224716187
v -11.999995231628418 21.5 -1.9999393224716187
v -14.999995231628418 28 -1.9999393224716187
v -14.249995231628418 21.5 -1.9999393224716187
v -13.499995231628418 25.75 -1.9999393224716187
v -14.249995231628418 25.75 -1.9999393224716187
v -14.999995231628418 20.5 -1.9999393224716187
v 12.000004768371582 13 15.00006103515625
v 12.000004768371582 13 -1.9999393224716187
v 12.000004768371582 30 -1.9999393224716187
v 12.000004768371582 30 6.5000605583190918
v 12.000004768371582 30 15.00006103515625
v 12.000004768371582 21.5 15.00006103515625
v 12.000004768371582 13 6.5000605583190918
v 12.000004768371582 21.5 -1.9999393224716187
v -14.999995231628418 13 -1.9999393224716187
v 12.000004768371582 13 -1.9999393224716187
v -14.999995231628418 13 15.00006103515625
v 12.000004768371582 13 15.00006103515625
v 9.000004768371582 13 -1.9999393224716187
v 12.000004768371582 13 6.5000605583190918
v -1.4999948740005493 13 6.5000605583190918
v 5.2500052452087402 13 6.5000605583190918
v -1.4999948740005493 13 2.2500607967376709
v 5.2500052452087402 13 2.2500607967376709
v 6.0000052452087402 13 -1.9999393224716187
v 3.0000052452087402 13 -1.9999393224716187
v 5.1712918320845347E-06 13 -1.9999393224716187
v -2.9999947547912598 13 -1.9999393224716187
v -8.249995231628418 13 6.5000605583190918
v -8.249995231628418 13 2.2500607967376709
v -5.9999947547912598 13 -1.9999393224716187
v -8.999995231628418 13 -1.9999393224716187
v -11.999995231628418 13 -1.9999393224716187
v -1.4999948740005493 13 15.00006103515625
v -14.999995231628418 13 15.00006103515625
v -14.999995231628418 0 15.00006103515625
v 15.000004768371582 13 15.00006103515625
v 15.000004768371582 0 15.00006103515625
v 5.1712918320845347E-06 0 15.00006103515625
v -1.4999948740005493 13 15.00006103515625
v 12.000004768371582 13 15.00006103515625
v 5.1712918320845347E-06 6.5 15.00006103515625
v 7.5000052452087402 6.5 15.00006103515625
v 5.1712918320845347E-06 9.75 15.00006103515625
v 7.5000052452087402 9.75 15.00006103515625
v 12.000004768371582 13 15.00006103515625
v 15.000004768371582 13 15.00006103515625
v 12.000004768371582 30 15.00006103515625
v 15.000004768371582 30 15.00006103515625
v 12.000004768371582 21.5 15.00006103515625
v 15.000004768371582 21.5 15.00006103515625
v 15.000004768371582 30 15.00006103515625
v 15.000004768371582 30 -14.99993896484375
v 12.000004768371582 30 15.00006103515625
v 12.000004768371582 30 -14.99993896484375
v 15.000004768371582 30 -4.9999394416809082
v 15.000004768371582 30 5.0000605583190918
v 12.000004768371582 30 6.5000605583190918
v 12.000004768371582 30 -1.9999393224716187
v 12.000004768371582 30 -8.49993896484375
v 12.000004768371582 30 -1.9999393224716187
v -14.999995231628418 30 -1.9999393224716187
v 12.000004768371582 30 -14.99993896484375
v -14.999995231628418 30 -14.99993896484375
v 9.000004768371582 30 -1.9999393224716187
v -1.4999948740005493 30 -14.99993896484375
v 12.000004768371582 30 -8.49993896484375
v -1.4999948740005493 30 -8.49993896484375
v 5.2500052452087402 30 -8.49993896484375
v -1.4999948740005493 30 -5.2499394416809082
v 5.2500052452087402 30 -5.2499394416809082
v 6.0000052452087402 30 -1.9999393224716187
v 3.0000052452087402 30 -1.9999393224716187
v 5.1712918320845347E-06 30 -1.9999393224716187
v -2.9999947547912598 30 -1.9999393224716187
v -8.249995231628418 30 -8.49993896484375
v -8.249995231628418 30 -5.2499394416809082
v -5.9999947547912598 30 -1.9999393224716187
v -8.999995231628418 30 -1.9999393224716187
v -11.999995231628418 30 -1.9999393224716187
v -14.999995231628418 0 -14.99993896484375
v -14.999995231628418 15 -14.99993896484375
v -14.999995231628418 30 -14.99993896484375
v -14.999995231628418 0 15.00006103515625
v -14.999995231628418 0 6.0704413044732064E-05
v -14.999995231628418 13 -1.9999393224716187
v -14.999995231628418 13 15.00006103515625
v -14.999995231628418 30 -1.9999393224716187
v -14.999995231628418 28 -1.9999393224716187
v -14.999995231628418 22.649999618530273 -7.6499638557434082
v -14.999995231628418 26.475000381469727 -7.6499638557434082
v -14.999995231628418 22.649999618530273 -3.8250124454498291
v -14.999995231628418 26.475000381469727 -3.8250124454498291
v -14.999995231628418 20.5 -1.9999393224716187
vt 0.33112582564353943 0.66225165128707886
vt 0.33112582564353943 0.99191266298294067
vt 0.66078680753707886 0.66225165128707886
vt 0.66078680753707886 0.99191266298294067
vt 0.66078680753707886 0.82708215713500977
vt 0.55089980363845825 0.99191266298294067
vt 0.44101282954216003 0.99191266298294067
vt 0.49595633149147034 0.66225165128707886
vt 0.33112582564353943 0.80510473251342773
vt 0.33112582564353943 0.89850866794586182
vt 0.99337750673294067 0
vt 0.99337750673294067 0.33112582564353943
vt 0.66225165128707886 0.33112582564353943
vt 0.66225165128707886 0
vt 0.82781457901000977 0
vt 0.99337750673294067 0.16556291282176971
vt 0.82781457901000977 0.33112582564353943
vt 0.66225165128707886 0.033112581819295883
vt 0.82781457901000977 0.16556291282176971
vt 0.74503308534622192 0.16556291282176971
vt 0.82781457901000977 0.082781456410884857
vt 0.74503308534622192 0.082781456410884857
vt 0.66225165128707886 0.18211920559406281
vt 0 0.66225165128707886
vt 0 0.99191266298294067
vt 0.32966098189353943 0.66225165128707886
vt 0.32966098189353943 0.99191266298294067
vt 0.16483049094676971 0.99191266298294067
vt 0 0.82708215713500977
vt 0.16483049094676971 0.66225165128707886
vt 0.32966098189353943 0.82708215713500977
vt 0.39055866003036499 0.18763796985149384
vt 0.42367124557495117 0
vt 0.42367124557495117 0.18763796985149384
vt 0.42367124557495117 0.093818984925746918
vt 0.39055866003036499 0
vt 0.39055866003036499 0.093818984925746918
vt 0 0
vt 0.18763796985149384 0.033112581819295883
vt 0 0.033112581819295883
vt 0.093818984925746918 0.033112581819295883
vt 0.18763796985149384 0
vt 0.093818984925746918 0
vt 0 0.041390728205442429
vt 0.18763796985149384 0.074503310024738312
vt 0 0.074503310024738312
vt 0.093818984925746918 0.074503310024738312
vt 0.18763796985149384 0.041390728205442429
vt 0.093818984925746918 0.041390728205442429
vt 0 0.082781456410884857
vt 0.18763796985149384 0.11589404195547104
vt 0 0.11589404195547104
vt 0.18763796985149384 0.082781456410884857
vt 0.093818984925746918 0.11589404195547104
vt 0.093818984925746918 0.082781456410884857
vt 0 0.12417218834161758
vt 0.18763796985149384 0.15728476643562317
vt 0 0.15728476643562317
vt 0.18763796985149384 0.12417218834161758
vt 0.093818984925746918 0.15728476643562317
vt 0.093818984925746918 0.12417218834161758
vt 0 0.16556291282176971
vt 0.18763796985149384 0.1986754983663559
vt 0 0.1986754983663559
vt 0.093818984925746918 0.1986754983663559
vt 0.18763796985149384 0.16556291282176971
vt 0.093818984925746918 0.16556291282176971
vt 0 0.20695364475250244
vt 0.18763796985149384 0.24006623029708862
vt 0 0.24006623029708862
vt 0.18763796985149384 0.20695364475250244
vt 0.093818984925746918 0.24006623029708862
vt 0.093818984925746918 0.20695364475250244
vt 0 0.24834437668323517
vt 0.18763796985149384 0.28145694732666016
vt 0 0.28145694732666016
vt 0.18763796985149384 0.24834437668323517
vt 0.093818984925746918 0.28145694732666016
vt 0.093818984925746918 0.24834437668323517
vt 0 0.2897351086139679
vt 0.18763796985149384 0.32284769415855408
vt 0 0.32284769415855408
vt 0.093818984925746918 0.30629140138626099
vt 0.18763796985149384 0.2897351086139679
vt 0.093818984925746918 0.2897351086139679
vt 0.16556291282176971 0.32284769415855408
vt 0.093818984925746918 0.31456953287124634
vt 0.14072847366333008 0.30629140138626099
vt 0.14072847366333008 0.31456953287124634
vt 0.082781456410884857 0.32284769415855408
vt 0.44350793957710266 0.33112582564353943
vt 0.44350793957710266 0.51729893684387207
vt 0.25586995482444763 0.51729893684387207
vt 0.25586995482444763 0.42421239614486694
vt 0.25586995482444763 0.33112582564353943
vt 0.34968894720077515 0.33112582564353943
vt 0.44350793957710266 0.42421239614486694
vt 0.34968894720077515 0.51729893684387207
vt 0 0.33112582564353943
vt 0 0.62913906574249268
vt 0.18763796985149384 0.33112582564353943
vt 0.18763796985149384 0.62913906574249268
vt 0 0.59602648019790649
vt 0.093818984925746918 0.62913906574249268
vt 0.093818984925746918 0.48013246059417725
vt 0.093818984925746918 0.55463576316833496
vt 0.046909492462873459 0.48013246059417725
vt 0.046909492462873459 0.55463576316833496
vt 0 0.56291389465332031
vt 0 0.52980130910873413
vt 0 0.49668875336647034
vt 0 0.46357616782188416
vt 0.093818984925746918 0.40562912821769714
vt 0.046909492462873459 0.40562912821769714
vt 0 0.43046358227729797
vt 0 0.39735099673271179
vt 0 0.36423841118812561
vt 0.18763796985149384 0.48013246059417725
vt 0.58498895168304443 0
vt 0.44150111079216003 0
vt 0.58498895168304443 0.32966098189353943
vt 0.44150111079216003 0.32966098189353943
vt 0.44150111079216003 0.16483049094676971
vt 0.58498895168304443 0.14834743738174438
vt 0.58498895168304443 0.29669487476348877
vt 0.51324504613876343 0.16483049094676971
vt 0.51324504613876343 0.24724574387073517
vt 0.54911696910858154 0.16483049094676971
vt 0.54911696910858154 0.24724574387073517
vt 0.37272882461547852 0
vt 0.33961623907089233 0
vt 0.37272882461547852 0.18763796985149384
vt 0.33961623907089233 0.18763796985149384
vt 0.37272882461547852 0.093818984925746918
vt 0.33961623907089233 0.093818984925746918
vt 0.28867378830909729 0
vt 0.28867378830909729 0.32966098189353943
vt 0.32178637385368347 0
vt 0.32178637385368347 0.32966098189353943
vt 0.28867378830909729 0.21977399289608002
vt 0.28867378830909729 0.10988699644804001
vt 0.32178637385368347 0.093403942883014679
vt 0.32178637385368347 0.18680788576602936
vt 0.32178637385368347 0.25823444128036499
vt 0.55388319492340088 0.51876378059387207
vt 0.25586995482444763 0.51876378059387207
vt 0.55388319492340088 0.66078680753707886
vt 0.25586995482444763 0.66078680753707886
vt 0.5207706093788147 0.51876378059387207
vt 0.40487658977508545 0.66078680753707886
vt 0.55388319492340088 0.58977532386779785
vt 0.40487658977508545 0.58977532386779785
vt 0.47937989234924316 0.58977532386779785
vt 0.40487658977508545 0.55426955223083496
vt 0.47937989234924316 0.55426955223083496
vt 0.48765802383422852 0.51876378059387207
vt 0.45454543828964233 0.51876378059387207
vt 0.42143288254737854 0.51876378059387207
vt 0.38832026720046997 0.51876378059387207
vt 0.33037325739860535 0.58977532386779785
vt 0.33037325739860535 0.55426955223083496
vt 0.35520771145820618 0.51876378059387207
vt 0.32209512591362 0.51876378059387207
vt 0.28898254036903381 0.51876378059387207
vt 0.99523824453353882 0.82620811462402344
vt 0.83039343357086182 0.82620811462402344
vt 0.66554856300354004 0.82620811462402344
vt 0.99523824453353882 0.49508228898048401
vt 0.99523824453353882 0.66064518690109253
vt 0.85237270593643188 0.68272024393081665
vt 0.85237270593643188 0.49508228898048401
vt 0.66554856300354004 0.68272024393081665
vt 0.68752789497375488 0.68272024393081665
vt 0.74632251262664795 0.7450823187828064
vt 0.70428711175918579 0.7450823187828064
vt 0.74632251262664795 0.70286375284194946
vt 0.70428711175918579 0.70286375284194946
vt 0.769950270652771 0.68272024393081665
vn 1 0 0
vn 1 0 0
vn 1 0 0
vn 1 0 0
vn 1 0 0
vn 1 0 0
vn 1 0 0
vn 1 0 0
vn 1 0 0
vn 1 0 0
vn 0 0 -1
vn 0 0 -1
vn 0 0 -1
vn 0 0 -1
vn 0 0 -1
vn 0 0 -1
vn 0 0 -1
vn 0 0 -1
vn 0 0 -1
vn 0 0 -1
vn 0 0 -1
vn 0 0 -1
vn 0 0 -1
vn 0 -1 0
vn 0 -1 0
vn 0 -1 0
vn 0 -1 0
vn 0 -1 0
vn 0 -1 0
vn 0 -1 0
vn 0 -1 0
vn 0 0 1
vn 0 0 1
vn 0 0 1
vn 0 0 1
vn 0 0 1
vn 0 0 1
vn 0 0 1
vn 0 0 1
vn 0 0 1
vn 0 0 1
vn 0 0 1
vn 0 0 1
vn 0 0 1
vn 0 0 1
vn 0 0 1
vn 0 0 1
vn 0 0 1
vn 0 0 1
vn 0 0 1
vn 0 0 1
vn 0 0 1
vn 0 0 1
vn 0 0 1
vn 0 0 1
vn 0 0 1
vn 0 0 1
vn 0 0 1
vn 0 0 1
vn 0 0 1
vn 0 0 1
vn 0 0 1
vn 0 0 1
vn 0 0 1
vn 0 0 1
vn 0 0 1
vn 0 0 1
vn 0 0 1
vn 0 0 1
vn 0 0 1
vn 0 0 1
vn 0 0 1
vn 0 0 1
vn 0 0 1
vn 0 0 1
vn 0 0 1
vn 0 0 1
vn 0 0 1
vn 0 0 1
vn 0 0 1
vn 0 0 1
vn 0 0 1
vn 0 0 1
vn 0 0 1
vn 0 0 1
vn 0 0 1
vn 0 0 1
vn 0 0 1
vn 0 0 1
vn 0 0 1
vn -1 0 0
vn -1 0 0
vn -1 0 0
vn -1 0 0
vn -1 0 0
vn -1 0 0
vn -1 0 0
vn -1 0 0
vn 0 1 0
vn 0 1 0
vn 0 1 0
vn 0 1 0
vn 0 1 0
vn 0 1 0
vn 0 1 0
vn 0 1 0
vn 0 1 0
vn 0 1 0
vn 0 1 0
vn 0 1 0
vn 0 1 0
vn 0 1 0
vn 0 1 0
vn 0 1 0
vn 0 1 0
vn 0 1 0
vn 0 1 0
vn 0 1 0
vn 0 0 1
vn 0 0 1
vn 0 0 1
vn 0 0 1
vn 0 0 1
vn 0 0 1
vn 0 0 1
vn 0 0 1
vn 0 0 1
vn 0 0 1
vn 0 0 1
vn 0 0 1
vn 0 0 1
vn 0 0 1
vn 0 0 1
vn 0 0 1
vn 0 0 1
vn 0 1 0
vn 0 1 0
vn 0 1 0
vn 0 1 0
vn 0 1 0
vn 0 1 0
vn 0 1 0
vn 0 1 0
vn 0 1 0
vn 0 1 0
vn 0 1 0
vn 0 1 0
vn 0 1 0
vn 0 1 0
vn 0 1 0
vn 0 1 0
vn 0 1 0
vn 0 1 0
vn 0 1 0
vn 0 1 0
vn 0 1 0
vn 0 1 0
vn 0 1 0
vn 0 1 0
vn 0 1 0
vn 0 1 0
vn 0 1 0
vn 0 1 0
vn 0 1 0
vn -1 0 0
vn -1 0 0
vn -1 0 0
vn -1 0 0
vn -1 0 0
vn -1 0 0
vn -1 0 0
vn -1 0 0
vn -1 0 0
vn -1 0 0
vn -1 0 0
vn -1 0 0
vn -1 0 0
vn -1 0 0
f 5/5/5 7/7/7 9/9/9
f 2/2/2 10/10/10 7/7/7
f 9/9/9 7/7/7 10/10/10
f 8/8/8 9/9/9 1/1/1
f 5/5/5 8/8/8 3/3/3
f 4/4/4 6/6/6 5/5/5
f 5/5/5 6/6/6 7/7/7
f 8/8/8 5/5/5 9/9/9
f 20/20/20 22/22/22 21/21/21 19/19/19
f 15/15/15 11/11/11 21/21/21
f 16/16/16 21/21/21 11/11/11
f 22/22/22 15/15/15 21/21/21
f 18/18/18 14/14/14 22/22/22
f 15/15/15 22/22/22 14/14/14
f 23/23/23 18/18/18 22/22/22 20/20/20
f 19/19/19 16/16/16 12/12/12 17/17/17
f 21/21/21 16/16/16 19/19/19
f 13/13/13 23/23/23 20/20/20
f 20/20/20 17/17/17 13/13/13
f 17/17/17 20/20/20 19/19/19
f 29/29/29 30/30/30 24/24/24
f 29/29/29 25/25/25 28/28/28
f 28/28/28 30/30/30 29/29/29
f 28/28/28 31/31/31 26/26/26 30/30/30
f 31/31/31 28/28/28 27/27/27
f 37/37/37 36/36/36 33/33/33 35/35/35
f 32/32/32 37/37/37 35/35/35 34/34/34
f 43/43/43 42/42/42 39/39/39 41/41/41
f 38/38/38 43/43/43 41/41/41 40/40/40
f 49/49/49 48/48/48 45/45/45 47/47/47
f 44/44/44 49/49/49 47/47/47 46/46/46
f 55/55/55 53/53/53 51/51/51 54/54/54
f 50/50/50 55/55/55 54/54/54 52/52/52
f 61/61/61 59/59/59 57/57/57 60/60/60
f 56/56/56 61/61/61 60/60/60 58/58/58
f 67/67/67 66/66/66 63/63/63 65/65/65
f 62/62/62 67/67/67 65/65/65 64/64/64
f 73/73/73 71/71/71 69/69/69 72/72/72
f 68/68/68 73/73/73 72/72/72 70/70/70
f 79/79/79 77/77/77 75/75/75 78/78/78
f 74/74/74 79/79/79 78/78/78 76/76/76
f 87/87/87 83/83/83 88/88/88 89/89/89
f 85/85/85 84/84/84 88/88/88 83/83/83
f 81/81/81 88/88/88 84/84/84
f 80/80/80 85/85/85 83/83/83
f 82/82/82 80/80/80 83/83/83
f 86/86/86 89/89/89 81/81/81
f 88/88/88 81/81/81 89/89/89
f 86/86/86 90/90/90 87/87/87 89/89/89
f 82/82/82 87/87/87 90/90/90
f 83/83/83 87/87/87 82/82/82
f 98/98/98 96/96/96 94/94/94
f 96/96/96 95/95/95 94/94/94
f 97/97/97 91/91/91 96/96/96
f 98/98/98 92/92/92 97/97/97
f 98/98/98 94/94/94 93/93/93
f 97/97/97 96/96/96 98/98/98
f 106/106/106 108/108/108 107/107/107 105/105/105
f 105/105/105 107/107/107 114/114/114 113/113/113
f 114/114/114 117/117/117 99/99/99
f 114/114/114 115/115/115 116/116/116
f 107/107/107 112/112/112 115/115/115
f 116/116/116 117/117/117 114/114/114
f 107/107/107 110/110/110 111/111/111
f 108/108/108 103/103/103 109/109/109
f 108/108/108 100/100/100 103/103/103
f 109/109/109 110/110/110 108/108/108
f 111/111/111 112/112/112 107/107/107
f 115/115/115 114/114/114 107/107/107
f 118/118/118 105/105/105 113/113/113
f 99/99/99 113/113/113 114/114/114
f 101/101/101 118/118/118 113/113/113
f 113/113/113 99/99/99 101/101/101
f 104/104/104 108/108/108 106/106/106
f 104/104/104 106/106/106 102/102/102
f 118/118/118 102/102/102 106/106/106
f 106/106/106 105/105/105 118/118/118
f 100/100/100 108/108/108 104/104/104
f 110/110/110 107/107/107 108/108/108
f 127/127/127 129/129/129 128/128/128 126/126/126
f 128/128/128 124/124/124 119/119/119
f 126/126/126 120/120/120 123/123/123
f 120/120/120 126/126/126 119/119/119
f 119/119/119 126/126/126 128/128/128
f 128/128/128 129/129/129 124/124/124
f 121/121/121 125/125/125 129/129/129
f 127/127/127 121/121/121 129/129/129
f 122/122/122 127/127/127 126/126/126 123/123/123
f 121/121/121 127/127/127 122/122/122
f 125/125/125 124/124/124 129/129/129
f 135/135/135 134/134/134 130/130/130 131/131/131
f 134/134/134 135/135/135 133/133/133 132/132/132
f 141/141/141 142/142/142 138/138/138 136/136/136
f 137/137/137 139/139/139 144/144/144 140/140/140
f 140/140/140 143/143/143 142/142/142 141/141/141
f 140/140/140 144/144/144 143/143/143
f 160/160/160 161/161/161 154/154/154 152/152/152
f 152/152/152 154/154/154 155/155/155 153/153/153
f 155/155/155 149/149/149 145/145/145
f 155/155/155 157/157/157 156/156/156
f 154/154/154 158/158/158 157/157/157
f 156/156/156 149/149/149 155/155/155
f 154/154/154 162/162/162 159/159/159
f 161/161/161 164/164/164 163/163/163
f 161/161/161 146/146/146 164/164/164
f 163/163/163 162/162/162 161/161/161
f 159/159/159 158/158/158 154/154/154
f 157/157/157 155/155/155 154/154/154
f 153/153/153 151/151/151 147/147/147
f 155/155/155 151/151/151 153/153/153
f 151/151/151 155/155/155 145/145/145
f 147/147/147 150/150/150 153/153/153
f 148/148/148 160/160/160 150/150/150
f 152/152/152 150/150/150 160/160/160
f 160/160/160 148/148/148 146/146/146
f 150/150/150 152/152/152 153/153/153
f 161/161/161 160/160/160 146/146/146
f 162/162/162 154/154/154 161/161/161
f 175/175/175 174/174/174 176/176/176 177/177/177
f 169/169/169 168/168/168 171/171/171
f 165/165/165 169/169/169 170/170/170
f 170/170/170 169/169/169 171/171/171
f 177/177/177 173/173/173 172/172/172
f 173/173/173 177/177/177 176/176/176 178/178/178
f 178/178/178 174/174/174 170/170/170
f 170/170/170 174/174/174 166/166/166
f 165/165/165 170/170/170 166/166/166
f 176/176/176 174/174/174 178/178/178
f 175/175/175 172/172/172 167/167/167
f 174/174/174 175/175/175 167/167/167
f 167/167/167 166/166/166 174/174/174
f 177/177/177 172/172/172 175/175/175
