# Rhino

g Est_dio_Braga_Final
o object_1
v -15.000056266784668 5 15.000020980834961
v 14.999943733215332 5 15.000020980834961
v -15.000056266784668 0 15.000020980834961
v 14.999943733215332 0 15.000020980834961
v -5.000056266784668 0 15.000020980834961
v 4.999943733215332 0 15.000020980834961
v 13.636418342590332 5 15.000020980834961
v 4.090886116027832 5 15.000020980834961
v -5.454524040222168 5 15.000020980834961
v 7.499943733215332 2.5 15.000020980834961
v 11.249943733215332 2.5 15.000020980834961
v 7.499943733215332 3.75 15.000020980834961
v 11.249943733215332 3.75 15.000020980834961
v -15.000056266784668 0 -14.999979019165039
v -15.000056266784668 5 15.000020980834961
v -15.000056266784668 0 15.000020980834961
v -15.000056266784668 5 -14.999979019165039
v -15.000056266784668 0 -4.9999794960021973
v -15.000056266784668 0 5.0000205039978027
v -15.000056266784668 5 5.0000205039978027
v -15.000056266784668 5 -4.9999794960021973
v -15.000056266784668 0 -14.999979019165039
v -15.000056266784668 0 15.000020980834961
v 14.999943733215332 0 -14.999979019165039
v 14.999943733215332 0 15.000020980834961
v 4.999943733215332 0 15.000020980834961
v -5.000056266784668 0 15.000020980834961
v -15.000056266784668 0 5.0000205039978027
v -15.000056266784668 0 -4.9999794960021973
v 14.999943733215332 0 2.0733205019496381E-05
v -5.6157598010031506E-05 0 -14.999979019165039
v -15.000056266784668 5 -14.999979019165039
v 13.636418342590332 5 -14.999979019165039
v 13.636418342590332 5 15.000020980834961
v 4.090886116027832 5 15.000020980834961
v -5.454524040222168 5 15.000020980834961
v -0.68181884288787842 5 -14.999979019165039
v -15.000056266784668 5 15.000020980834961
v -15.000056266784668 5 5.0000205039978027
v -15.000056266784668 5 -4.9999794960021973
v 13.636418342590332 5 2.0733205019496381E-05
v -8.181818962097168 22.5 -14.999979019165039
v 8.863591194152832 22.5 15.000020980834961
v 0.34088623523712158 22.5 -14.999979019165039
v 0.34088623523712158 22.5 15.000020980834961
v -8.181818962097168 22.5 15.000020980834961
v -8.181818962097168 22.5 2.0733205019496381E-05
v 8.863591194152832 22.5 -14.999979019165039
v 8.863591194152832 22.5 -4.9999794960021973
v 8.863591194152832 22.5 5.0000205039978027
v 10.909123420715332 15 -14.999979019165039
v -8.181818962097168 15 15.000020980834961
v -8.181818962097168 15 -14.999979019165039
v 1.3635913133621216 15 -14.999979019165039
v 10.909123420715332 15 15.000020980834961
v 1.3635913133621216 15 15.000020980834961
v -8.181818962097168 15 2.0733205019496381E-05
v 10.909123420715332 15 2.0733205019496381E-05
v -8.181818962097168 15 15.000020980834961
v -8.181818962097168 22.5 -14.999979019165039
v -8.181818962097168 22.5 15.000020980834961
v -8.181818962097168 22.5 2.0733205019496381E-05
v -8.181818962097168 15 -14.999979019165039
v -8.181818962097168 15 2.0733205019496381E-05
v 8.863591194152832 22.5 -14.999979019165039
v 6.818181037902832 30 -14.999979019165039
v 8.863591194152832 22.5 15.000020980834961
v 6.818181037902832 30 15.000020980834961
v 6.818181037902832 30 5.0000205039978027
v 6.818181037902832 30 -4.9999794960021973
v 8.863591194152832 22.5 -4.9999794960021973
v 8.863591194152832 22.5 5.0000205039978027
v 13.636418342590332 5 -14.999979019165039
v 10.909123420715332 15 -14.999979019165039
v 12.272770881652832 10 -14.999979019165039
v 13.636418342590332 5 15.000020980834961
v 12.272770881652832 10 15.000020980834961
v 10.909123420715332 15 15.000020980834961
v 10.909123420715332 15 2.0733205019496381E-05
v 13.636418342590332 5 2.0733205019496381E-05
v 14.999943733215332 5 15.000020980834961
v 14.999943733215332 5 -14.999979019165039
v 14.999943733215332 0 15.000020980834961
v 14.999943733215332 0 -14.999979019165039
v 14.999943733215332 0 2.0733205019496381E-05
v 14.999943733215332 5 2.0733205019496381E-05
v -15.000056266784668 5 -14.999979019165039
v -15.000056266784668 0 -14.999979019165039
v 14.999943733215332 5 -14.999979019165039
v 14.999943733215332 0 -14.999979019165039
v -5.6157598010031506E-05 0 -14.999979019165039
v -5.6157598010031506E-05 2.5 -14.999979019165039
v -0.68181884288787842 5 -14.999979019165039
v 13.636418342590332 5 -14.999979019165039
v 7.499943733215332 2.5 -14.999979019165039
v -5.6157598010031506E-05 3.75 -14.999979019165039
v 7.499943733215332 3.75 -14.999979019165039
v 11.249943733215332 3.75 -14.999979019165039
v 7.499943733215332 4.375 -14.999979019165039
v 11.249943733215332 4.375 -14.999979019165039
v 6.818181037902832 30 -14.999979019165039
v 14.999943733215332 30 -14.999979019165039
v 13.636418342590332 5 -14.999979019165039
v 14.999943733215332 5 -14.999979019165039
v 8.863591194152832 22.5 -14.999979019165039
v 10.909123420715332 15 -14.999979019165039
v 12.272770881652832 10 -14.999979019165039
v 13.465886116027832 11.25 -14.999979019165039
v 13.892033576965332 8.125 -14.999979019165039
v 12.698918342590332 11.25 -14.999979019165039
v 13.338078498840332 8.125 -14.999979019165039
v 14.232975959777832 11.25 -14.999979019165039
v 14.445988655090332 8.125 -14.999979019165039
v 14.999943733215332 13.333333015441895 -14.999979019165039
v 14.999943733215332 21.666667938232422 -14.999979019165039
v 6.818181037902832 30 15.000020980834961
v 14.999943733215332 30 15.000020980834961
v 13.636418342590332 5 15.000020980834961
v 14.999943733215332 5 15.000020980834961
v 8.863591194152832 22.5 15.000020980834961
v 10.909123420715332 15 15.000020980834961
v 12.272770881652832 10 15.000020980834961
v 13.465886116027832 11.25 15.000020980834961
v 13.892033576965332 8.125 15.000020980834961
v 12.698918342590332 11.25 15.000020980834961
v 13.338078498840332 8.125 15.000020980834961
v 14.232975959777832 11.25 15.000020980834961
v 14.445988655090332 8.125 15.000020980834961
v 14.999943733215332 13.333333015441895 15.000020980834961
v 14.999943733215332 21.666667938232422 15.000020980834961
v 14.999943733215332 5 15.000020980834961
v 14.999943733215332 5 -14.999979019165039
v 14.999943733215332 30 15.000020980834961
v 14.999943733215332 30 -14.999979019165039
v 14.999943733215332 5 2.0733205019496381E-05
v 14.999943733215332 21.666667938232422 -14.999979019165039
v 14.999943733215332 13.333333015441895 -14.999979019165039
v 14.999943733215332 13.333333015441895 15.000020980834961
v 14.999943733215332 21.666667938232422 15.000020980834961
v 14.999943733215332 30 2.0733205019496381E-05
v 8.863591194152832 22.5 -14.999979019165039
v 10.909123420715332 15 -14.999979019165039
v -8.181818962097168 22.5 -14.999979019165039
v -8.181818962097168 15 -14.999979019165039
v 0.34088623523712158 22.5 -14.999979019165039
v 1.3635913133621216 15 -14.999979019165039
v 8.863591194152832 22.5 15.000020980834961
v 10.909123420715332 15 15.000020980834961
v -8.181818962097168 22.5 15.000020980834961
v -8.181818962097168 15 15.000020980834961
v 0.34088623523712158 22.5 15.000020980834961
v 1.3635913133621216 15 15.000020980834961
v 14.999943733215332 30 15.000020980834961
v 14.999943733215332 30 -14.999979019165039
v 6.818181037902832 30 15.000020980834961
v 6.818181037902832 30 -14.999979019165039
v 6.818181037902832 30 5.0000205039978027
v 6.818181037902832 30 -4.9999794960021973
v 14.999943733215332 30 2.0733205019496381E-05
vt 0.66520184278488159 0.74093568325042725
vt 0.3333333432674408 0.74093568325042725
vt 0.66520184278488159 0.79502636194229126
vt 0.3333333432674408 0.79502636194229126
vt 0.55457901954650879 0.79502636194229126
vt 0.4439561665058136 0.79502636194229126
vt 0.34841826558113098 0.74093568325042725
vt 0.45401278138160706 0.74093568325042725
vt 0.55960732698440552 0.74093568325042725
vt 0.4163004457950592 0.76798099279403687
vt 0.37481689453125 0.76798099279403687
vt 0.4163004457950592 0.75445830821990967
vt 0.37481689453125 0.75445830821990967
vt 0.3333333432674408 0.57426899671554565
vt 0.66520184278488159 0.62835973501205444
vt 0.66520184278488159 0.57426899671554565
vt 0.3333333432674408 0.62835973501205444
vt 0.4439561665058136 0.57426899671554565
vt 0.55457901954650879 0.57426899671554565
vt 0.55457901954650879 0.62835973501205444
vt 0.4439561665058136 0.62835973501205444
vt 0 0
vt 0 0.3333333432674408
vt 0.3318684995174408 0
vt 0.3318684995174408 0.3333333432674408
vt 0.2212456613779068 0.3333333432674408
vt 0.1106228306889534 0.3333333432674408
vt 0 0.2222222238779068
vt 0 0.1111111119389534
vt 0.3318684995174408 0.1666666716337204
vt 0.1659342497587204 0
vt 0.99853515625 0.45599165558815002
vt 0.99853515625 0.77417349815368652
vt 0.66666668653488159 0.77417349815368652
vt 0.66666668653488159 0.66811287403106689
vt 0.66666668653488159 0.56205224990844727
vt 0.99853515625 0.61508256196975708
vt 0.66666668653488159 0.45599165558815002
vt 0.77728950977325439 0.45599165558815002
vt 0.8879123330116272 0.45599165558815002
vt 0.83260089159011841 0.77417349815368652
vt 0.3333333432674408 0.18792909383773804
vt 0.66520184278488159 0
vt 0.3333333432674408 0.093964546918869019
vt 0.66520184278488159 0.093964546918869019
vt 0.66520184278488159 0.18792909383773804
vt 0.499267578125 0.18792909383773804
vt 0.3333333432674408 0
vt 0.4439561665058136 0
vt 0.55457901954650879 0
vt 0.3333333432674408 0.18939393758773804
vt 0.66520184278488159 0.40005031228065491
vt 0.3333333432674408 0.40005031228065491
vt 0.3333333432674408 0.29472211003303528
vt 0.66520184278488159 0.18939393758773804
vt 0.66520184278488159 0.29472211003303528
vt 0.499267578125 0.40005031228065491
vt 0.499267578125 0.18939393758773804
vt 0 0.48484846949577332
vt 0.3318684995174408 0.40151515603065491
vt 0 0.40151515603065491
vt 0.1659342497587204 0.40151515603065491
vt 0.3318684995174408 0.48484846949577332
vt 0.1659342497587204 0.48484846949577332
vt 0 0.52942264080047607
vt 0 0.61579960584640503
vt 0.3318684995174408 0.52942264080047607
vt 0.3318684995174408 0.61579960584640503
vt 0.22124564647674561 0.61579960584640503
vt 0.1106228232383728 0.61579960584640503
vt 0.1106228232383728 0.52942264080047607
vt 0.22124564647674561 0.52942264080047607
vt 0 0.80153727531433105
vt 0 0.91670650243759155
vt 0 0.85912185907363892
vt 0.3318684995174408 0.80153727531433105
vt 0.3318684995174408 0.85912185907363892
vt 0.3318684995174408 0.91670650243759155
vt 0.1659342497587204 0.91670650243759155
vt 0.1659342497587204 0.80153727531433105
vt 0.66520184278488159 0.68538010120391846
vt 0.3333333432674408 0.68538010120391846
vt 0.66520184278488159 0.73947083950042725
vt 0.3333333432674408 0.73947083950042725
vt 0.499267578125 0.73947083950042725
vt 0.499267578125 0.68538010120391846
vt 0.3333333432674408 0.62982457876205444
vt 0.3333333432674408 0.68391525745391846
vt 0.66520184278488159 0.62982457876205444
vt 0.66520184278488159 0.68391525745391846
vt 0.499267578125 0.68391525745391846
vt 0.499267578125 0.65686988830566406
vt 0.49172511696815491 0.62982457876205444
vt 0.65011686086654663 0.62982457876205444
vt 0.58223468065261841 0.65686988830566406
vt 0.499267578125 0.64334720373153687
vt 0.58223468065261841 0.64334720373153687
vt 0.62371826171875 0.64334720373153687
vt 0.58223468065261841 0.63658589124679565
vt 0.62371826171875 0.63658589124679565
vt 0.3333333432674408 0.88740032911300659
vt 0.3333333432674408 0.97684454917907715
vt 0.62125641107559204 0.88740032911300659
vt 0.62125641107559204 0.97684454917907715
vt 0.41971024870872498 0.88740032911300659
vt 0.50608718395233154 0.88740032911300659
vt 0.56367182731628418 0.88740032911300659
vt 0.54927563667297363 0.93212240934371948
vt 0.58526605367660522 0.93212240934371948
vt 0.54927563667297363 0.90976136922836304
vt 0.58526605367660522 0.90976136922836304
vt 0.54927563667297363 0.9544835090637207
vt 0.58526605367660522 0.9544835090637207
vt 0.52528208494186401 0.97684454917907715
vt 0.42930769920349121 0.97684454917907715
vt 0.3333333432674408 0.79649120569229126
vt 0.3333333432674408 0.88593548536300659
vt 0.62125641107559204 0.79649120569229126
vt 0.62125641107559204 0.88593548536300659
vt 0.41971024870872498 0.79649120569229126
vt 0.50608718395233154 0.79649120569229126
vt 0.56367182731628418 0.79649120569229126
vt 0.54927563667297363 0.84121334552764893
vt 0.58526605367660522 0.84121334552764893
vt 0.54927563667297363 0.81885230541229248
vt 0.58526605367660522 0.81885230541229248
vt 0.54927563667297363 0.86357438564300537
vt 0.58526605367660522 0.86357438564300537
vt 0.52528208494186401 0.88593548536300659
vt 0.42930769920349121 0.88593548536300659
vt 0.99853515625 0
vt 0.66666668653488159 0
vt 0.99853515625 0.27777776122093201
vt 0.66666668653488159 0.27777776122093201
vt 0.83260089159011841 0
vt 0.66666668653488159 0.18518519401550293
vt 0.66666668653488159 0.092592597007751465
vt 0.99853515625 0.092592597007751465
vt 0.99853515625 0.18518519401550293
vt 0.83260089159011841 0.27777776122093201
vt 0.3333333432674408 0.48789206147193909
vt 0.3333333432674408 0.57280415296554565
vt 0.54545456171035767 0.48789206147193909
vt 0.54545456171035767 0.57280415296554565
vt 0.43939393758773804 0.48789206147193909
vt 0.43939393758773804 0.57280415296554565
vt 0.3333333432674408 0.40151515603065491
vt 0.3333333432674408 0.48642721772193909
vt 0.54545456171035767 0.40151515603065491
vt 0.54545456171035767 0.48642721772193909
vt 0.43939393758773804 0.40151515603065491
vt 0.43939393758773804 0.48642721772193909
vt 0.3318684995174408 0.66200178861618042
vt 0 0.66200178861618042
vt 0.3318684995174408 0.75291085243225098
vt 0 0.75291085243225098
vt 0.22124564647674561 0.75291085243225098
vt 0.1106228232383728 0.75291085243225098
vt 0.1659342497587204 0.66200178861618042
vn 0 0 1
vn 0 0 1
vn 0 0 1
vn 0 0 1
vn 0 0 1
vn 0 0 1
vn 0 0 1
vn 0 0 1
vn 0 0 1
vn 0 0 1
vn 0 0 1
vn 0 0 1
vn 0 0 1
vn -1 0 0
vn -1 0 0
vn -1 0 0
vn -1 0 0
vn -1 0 0
vn -1 0 0
vn -1 0 0
vn -1 0 0
vn 0 -1 0
vn 0 -1 0
vn 0 -1 0
vn 0 -1 0
vn 0 -1 0
vn 0 -1 0
vn 0 -1 0
vn 0 -1 0
vn 0 -1 0
vn 0 -1 0
vn 0 1 0
vn 0 1 0
vn 0 1 0
vn 0 1 0
vn 0 1 0
vn 0 1 0
vn 0 1 0
vn 0 1 0
vn 0 1 0
vn 0 1 0
vn 0 1 0
vn 0 1 0
vn 0 1 0
vn 0 1 0
vn 0 1 0
vn 0 1 0
vn 0 1 0
vn 0 1 0
vn 0 1 0
vn 0 -1 0
vn 0 -1 0
vn 0 -1 0
vn 0 -1 0
vn 0 -1 0
vn 0 -1 0
vn 0 -1 0
vn 0 -1 0
vn -1 0 0
vn -1 0 0
vn -1 0 0
vn -1 0 0
vn -1 0 0
vn -1 0 0
vn -0.9647638201713562 -0.26311740279197693 0
vn -0.9647638201713562 -0.26311740279197693 0
vn -0.9647638201713562 -0.26311740279197693 0
vn -0.9647638201713562 -0.26311740279197693 0
vn -0.9647638201713562 -0.26311740279197693 0
vn -0.9647638201713562 -0.26311740279197693 0
vn -0.9647638201713562 -0.26311740279197693 0
vn -0.9647638201713562 -0.26311740279197693 0
vn -0.9647638201713562 -0.26311740279197693 0
vn -0.9647638201713562 -0.26311740279197693 0
vn -0.9647638201713562 -0.26311740279197693 0
vn -0.9647638201713562 -0.26311740279197693 0
vn -0.9647638201713562 -0.26311740279197693 0
vn -0.9647638201713562 -0.26311740279197693 0
vn -0.9647638201713562 -0.26311740279197693 0
vn -0.9647638201713562 -0.26311740279197693 0
vn 1 0 -4.3635409952003101E-08
vn 1 0 -4.3635409952003101E-08
vn 1 0 -4.3635409952003101E-08
vn 1 0 -4.3635409952003101E-08
vn 1 0 -4.3635409952003101E-08
vn 1 0 -4.3635409952003101E-08
vn 0 0 -1
vn 0 0 -1
vn 0 0 -1
vn 0 0 -1
vn 0 0 -1
vn 0 0 -1
vn 0 0 -1
vn 0 0 -1
vn 0 0 -1
vn 0 0 -1
vn 0 0 -1
vn 0 0 -1
vn 0 0 -1
vn 0 0 -1
vn 0 0 -1
vn 0 0 -1
vn 0 0 -1
vn 0 0 -1
vn 0 0 -1
vn 0 0 -1
vn 0 0 -1
vn 0 0 -1
vn 0 0 -1
vn 0 0 -1
vn 0 0 -1
vn 0 0 -1
vn 0 0 -1
vn 0 0 -1
vn 0 0 -1
vn 0 0 1
vn 0 0 1
vn 0 0 1
vn 0 0 1
vn 0 0 1
vn 0 0 1
vn 0 0 1
vn 0 0 1
vn 0 0 1
vn 0 0 1
vn 0 0 1
vn 0 0 1
vn 0 0 1
vn 0 0 1
vn 0 0 1
vn 1 5.2362473468292592E-08 -4.3635409952003101E-08
vn 1 0 -4.3635409952003101E-08
vn 1 5.2362473468292592E-08 0
vn 1 0 0
vn 1 2.618122607600526E-08 -4.3635409952003101E-08
vn 1 0 -1.45451366506677E-08
vn 1 0 -2.9090273301335401E-08
vn 1 5.2362473468292592E-08 -2.9090273301335401E-08
vn 1 5.2362473468292592E-08 -1.45451366506677E-08
vn 1 2.618122607600526E-08 0
vn 0 0 -1
vn 0 0 -1
vn 0 0 -1
vn 0 0 -1
vn 0 0 -1
vn 0 0 -1
vn 0 0 1
vn 0 0 1
vn 0 0 1
vn 0 0 1
vn 0 0 1
vn 0 0 1
vn 0 1 0
vn 0 1 0
vn 0 1 0
vn 0 1 0
vn 0 1 0
vn 0 1 0
vn 0 1 0
f 11/11/11 13/13/13 12/12/12 10/10/10
f 9/9/9 10/10/10 8/8/8
f 10/10/10 12/12/12 8/8/8
f 13/13/13 2/2/2 7/7/7
f 7/7/7 8/8/8 12/12/12 13/13/13
f 9/9/9 1/1/1 3/3/3 5/5/5
f 9/9/9 5/5/5 10/10/10
f 10/10/10 5/5/5 6/6/6
f 11/11/11 4/4/4 2/2/2
f 6/6/6 11/11/11 10/10/10
f 11/11/11 6/6/6 4/4/4
f 13/13/13 11/11/11 2/2/2
f 14/14/14 18/18/18 21/21/21 17/17/17
f 18/18/18 19/19/19 20/20/20 21/21/21
f 19/19/19 16/16/16 15/15/15 20/20/20
f 29/29/29 31/31/31 28/28/28
f 23/23/23 28/28/28 27/27/27
f 28/28/28 31/31/31 27/27/27
f 31/31/31 29/29/29 22/22/22
f 30/30/30 31/31/31 24/24/24
f 25/25/25 26/26/26 30/30/30
f 30/30/30 26/26/26 27/27/27
f 31/31/31 30/30/30 27/27/27
f 40/40/40 39/39/39 41/41/41
f 38/38/38 36/36/36 39/39/39
f 39/39/39 36/36/36 41/41/41
f 37/37/37 32/32/32 40/40/40
f 41/41/41 33/33/33 37/37/37
f 34/34/34 41/41/41 35/35/35
f 41/41/41 36/36/36 35/35/35
f 37/37/37 40/40/40 41/41/41
f 44/44/44 49/49/49 48/48/48
f 44/44/44 42/42/42 47/47/47
f 45/45/45 50/50/50 49/49/49 44/44/44
f 45/45/45 43/43/43 50/50/50
f 46/46/46 45/45/45 47/47/47
f 45/45/45 44/44/44 47/47/47
f 54/54/54 51/51/51 58/58/58
f 54/54/54 57/57/57 53/53/53
f 56/56/56 54/54/54 58/58/58 55/55/55
f 54/54/54 56/56/56 57/57/57
f 56/56/56 52/52/52 57/57/57
f 64/64/64 59/59/59 61/61/61 62/62/62
f 62/62/62 60/60/60 63/63/63 64/64/64
f 72/72/72 67/67/67 68/68/68 69/69/69
f 65/65/65 71/71/71 70/70/70 66/66/66
f 71/71/71 72/72/72 69/69/69 70/70/70
f 77/77/77 75/75/75 80/80/80
f 80/80/80 75/75/75 73/73/73
f 77/77/77 80/80/80 76/76/76
f 79/79/79 77/77/77 78/78/78
f 79/79/79 74/74/74 75/75/75
f 77/77/77 79/79/79 75/75/75
f 86/86/86 81/81/81 83/83/83 85/85/85
f 82/82/82 86/86/86 85/85/85 84/84/84
f 95/95/95 92/92/92 96/96/96 97/97/97
f 98/98/98 97/97/97 99/99/99 100/100/100
f 93/93/93 96/96/96 87/87/87
f 94/94/94 99/99/99 93/93/93
f 99/99/99 96/96/96 93/93/93
f 88/88/88 87/87/87 92/92/92
f 96/96/96 92/92/92 87/87/87
f 88/88/88 92/92/92 91/91/91
f 92/92/92 95/95/95 91/91/91
f 99/99/99 97/97/97 96/96/96
f 89/89/89 100/100/100 94/94/94
f 98/98/98 100/100/100 89/89/89
f 98/98/98 95/95/95 97/97/97
f 95/95/95 98/98/98 90/90/90
f 89/89/89 90/90/90 98/98/98
f 91/91/91 95/95/95 90/90/90
f 94/94/94 100/100/100 99/99/99
f 113/113/113 109/109/109 108/108/108 112/112/112
f 109/109/109 111/111/111 110/110/110 108/108/108
f 101/101/101 102/102/102 115/115/115 105/105/105
f 115/115/115 106/106/106 105/105/105
f 110/110/110 106/106/106 108/108/108
f 115/115/115 114/114/114 108/108/108
f 108/108/108 106/106/106 115/115/115
f 110/110/110 107/107/107 106/106/106
f 107/107/107 110/110/110 111/111/111
f 109/109/109 103/103/103 111/111/111
f 107/107/107 111/111/111 103/103/103
f 104/104/104 113/113/113 112/112/112 114/114/114
f 109/109/109 113/113/113 104/104/104
f 104/104/104 103/103/103 109/109/109
f 114/114/114 112/112/112 108/108/108
f 128/128/128 127/127/127 123/123/123 124/124/124
f 124/124/124 123/123/123 125/125/125 126/126/126
f 116/116/116 120/120/120 130/130/130 117/117/117
f 130/130/130 120/120/120 121/121/121
f 125/125/125 123/123/123 121/121/121
f 130/130/130 123/123/123 129/129/129
f 123/123/123 130/130/130 121/121/121
f 125/125/125 121/121/121 122/122/122
f 122/122/122 126/126/126 125/125/125
f 124/124/124 126/126/126 118/118/118
f 122/122/122 118/118/118 126/126/126
f 119/119/119 129/129/129 127/127/127 128/128/128
f 124/124/124 119/119/119 128/128/128
f 119/119/119 124/124/124 118/118/118
f 129/129/129 123/123/123 127/127/127
f 135/135/135 138/138/138 131/131/131
f 132/132/132 137/137/137 135/135/135
f 138/138/138 135/135/135 137/137/137
f 138/138/138 137/137/137 136/136/136 139/139/139
f 140/140/140 133/133/133 139/139/139
f 134/134/134 140/140/140 136/136/136
f 139/139/139 136/136/136 140/140/140
f 141/141/141 142/142/142 146/146/146 145/145/145
f 144/144/144 143/143/143 145/145/145 146/146/146
f 147/147/147 151/151/151 152/152/152 148/148/148
f 150/150/150 152/152/152 151/151/151 149/149/149
f 159/159/159 157/157/157 155/155/155 153/153/153
f 154/154/154 156/156/156 158/158/158 159/159/159
f 159/159/159 158/158/158 157/157/157
