# Rhino

g Bom_Jesus_Final
o object_1
v 15.000027656555176 0 -14.999974250793457
v 15.000027656555176 30 -15.000035285949707
v -14.999972343444824 0 -15.000035285949707
v -14.999972343444824 30 -15.000035285949707
v 15.000027656555176 15 -14.999974250793457
v 2.772063271549996E-05 0 -14.999974250793457
v -14.999972343444824 15 -14.999974250793457
v 2.772063271549996E-05 30 -15.000035285949707
v 15.000027656555176 0 14.999964714050293
v 15.000027656555176 30 14.999964714050293
v 15.000027656555176 0 -14.999974250793457
v 15.000027656555176 30 -15.000035285949707
v 15.000027656555176 15 -14.999974250793457
v 15.000027656555176 15 15.000025749206543
v 15.000027656555176 0 2.6124273063032888E-05
v 15.000027656555176 30 -3.4910881367977709E-05
v -14.999972343444824 0 -15.000035285949707
v 15.000027656555176 0 -14.999974250793457
v 15.000027656555176 0 14.999964714050293
v 2.772063271549996E-05 0 -14.999974250793457
v -14.999972343444824 0 14.999964714050293
v 2.772063271549996E-05 0 15.000025749206543
v -14.999972343444824 0 2.6124273063032888E-05
v 15.000027656555176 0 2.6124273063032888E-05
v -14.999972343444824 30 14.999964714050293
v -14.999972343444824 0 14.999964714050293
v -14.999972343444824 30 -15.000035285949707
v -14.999972343444824 0 -15.000035285949707
v -14.999972343444824 15 -14.999974250793457
v -14.999972343444824 0 2.6124273063032888E-05
v -14.999972343444824 15 14.999964714050293
v -14.999972343444824 30 -3.4910881367977709E-05
v 15.000027656555176 30 14.999964714050293
v 15.000027656555176 0 14.999964714050293
v -14.999972343444824 30 14.999964714050293
v -14.999972343444824 0 14.999964714050293
v 15.000027656555176 15 15.000025749206543
v 2.772063271549996E-05 0 15.000025749206543
v -14.999972343444824 15 14.999964714050293
v 2.772063271549996E-05 30 14.999964714050293
v -14.999972343444824 30 -15.000035285949707
v -14.999972343444824 30 14.999964714050293
v 15.000027656555176 30 14.999964714050293
v -14.999972343444824 30 -3.4910881367977709E-05
v 15.000027656555176 30 -15.000035285949707
v 15.000027656555176 30 -3.4910881367977709E-05
v 2.772063271549996E-05 30 -15.000035285949707
v 2.772063271549996E-05 30 14.999964714050293
vt 0.66520184278488159 0.66666668653488159
vt 0.3333333432674408 0.66666668653488159
vt 0.66520184278488159 0.99853515625
vt 0.3333333432674408 0.99853515625
vt 0.499267578125 0.66666668653488159
vt 0.66520184278488159 0.83260089159011841
vt 0.499267578125 0.99853515625
vt 0.3333333432674408 0.83260089159011841
vt 0 0.3333333432674408
vt 0 0.66666668653488159
vt 0.3318684995174408 0.3333333432674408
vt 0.3318684995174408 0.66666668653488159
vt 0.3318684995174408 0.5
vt 0 0.5
vt 0.1659342497587204 0.3333333432674408
vt 0.16593456268310547 0.66666668653488159
vt 0.3333333432674408 0
vt 0 0
vt 0 0.3318684995174408
vt 0.1666666716337204 0
vt 0.3333333432674408 0.3318684995174408
vt 0.1666666716337204 0.3318684995174408
vt 0.3333333432674408 0.1659342497587204
vt 0 0.1659342497587204
vt 0.66520184278488159 0.3333333432674408
vt 0.3333333432674408 0.3333333432674408
vt 0.66520184278488159 0.66520184278488159
vt 0.3333333432674408 0.66520184278488159
vt 0.499267578125 0.66520184278488159
vt 0.3333333432674408 0.49926728010177612
vt 0.499267578125 0.3333333432674408
vt 0.66520184278488159 0.499267578125
vt 0.99853515625 0.5
vt 0.66666668653488159 0.5
vt 0.99853515625 0.83333331346511841
vt 0.66666668653488159 0.83333331346511841
vt 0.83260089159011841 0.5
vt 0.66666668653488159 0.66666668653488159
vt 0.83260089159011841 0.83333331346511841
vt 0.99853515625 0.66666668653488159
vt 0.99853515625 0
vt 0.66666668653488159 0
vt 0.66666668653488159 0.3333333432674408
vt 0.83260089159011841 0
vt 0.99853515625 0.3333333432674408
vt 0.83260089159011841 0.3333333432674408
vt 0.99853515625 0.1666666716337204
vt 0.66666668653488159 0.1666666716337204
vn 0 0 -1
vn 0 0 -1
vn 0 0 -1
vn 0 0 -1
vn 0 0 -1
vn 0 0 -1
vn 0 0 -1
vn 0 0 -1
vn 1 0 0
vn 1 0 0
vn 1 0 0
vn 1 0 0
vn 1 0 0
vn 1 0 0
vn 1 0 0
vn 1 0 0
vn 0 -1 0
vn 0 -1 0
vn 0 -1 0
vn 0 -1 0
vn 0 -1 0
vn 0 -1 0
vn 0 -1 0
vn 0 -1 0
vn -1 0 0
vn -1 0 0
vn -1 0 0
vn -1 0 0
vn -1 0 0
vn -1 0 0
vn -1 0 0
vn -1 0 0
vn 0 0 1
vn 0 0 1
vn 0 0 1
vn 0 0 1
vn 0 0 1
vn 0 0 1
vn 0 0 1
vn 0 0 1
vn 0 1 0
vn 0 1 0
vn 0 1 0
vn 0 1 0
vn 0 1 0
vn 0 1 0
vn 0 1 0
vn 0 1 0
f 7/7/7 8/8/8 5/5/5
f 5/5/5 8/8/8 2/2/2
f 6/6/6 5/5/5 1/1/1
f 7/7/7 6/6/6 3/3/3
f 7/7/7 4/4/4 8/8/8
f 6/6/6 7/7/7 5/5/5
f 14/14/14 9/9/9 15/15/15
f 14/14/14 16/16/16 10/10/10
f 13/13/13 14/14/14 15/15/15
f 14/14/14 13/13/13 16/16/16
f 13/13/13 12/12/12 16/16/16
f 11/11/11 13/13/13 15/15/15
f 20/20/20 23/23/23 17/17/17
f 20/20/20 18/18/18 24/24/24
f 24/24/24 23/23/23 20/20/20
f 23/23/23 24/24/24 22/22/22
f 22/22/22 24/24/24 19/19/19
f 21/21/21 23/23/23 22/22/22
f 29/29/29 30/30/30 31/31/31
f 31/31/31 30/30/30 26/26/26
f 32/32/32 31/31/31 25/25/25
f 29/29/29 32/32/32 27/27/27
f 29/29/29 28/28/28 30/30/30
f 32/32/32 29/29/29 31/31/31
f 37/37/37 33/33/33 40/40/40
f 37/37/37 38/38/38 34/34/34
f 39/39/39 37/37/37 40/40/40
f 37/37/37 39/39/39 38/38/38
f 39/39/39 36/36/36 38/38/38
f 35/35/35 39/39/39 40/40/40
f 47/47/47 44/44/44 48/48/48
f 44/44/44 42/42/42 48/48/48
f 47/47/47 41/41/41 44/44/44
f 46/46/46 45/45/45 47/47/47
f 46/46/46 48/48/48 43/43/43
f 47/47/47 48/48/48 46/46/46
