# Rhino

g Cantareira_Final
o object_1
v -15.000003814697266 -4.1105928971774119E-07 -14.999958038330078
v -15.000003814697266 -4.1105928971774119E-07 4.1630511987023056E-05
v -15.000003814697266 30 4.1630511987023056E-05
v -15.000003814697266 15 4.1630511987023056E-05
v -15.000003814697266 30 -14.999958038330078
v -15.000003814697266 15 -14.999958038330078
v -7.5000038146972656 22.5 4.1630511987023056E-05
v -7.5000038146972656 22.5 -7.4999585151672363
v -7.5000038146972656 -4.1105928971774119E-07 4.1630511987023056E-05
v -7.5000038146972656 -4.1105928971774119E-07 -7.4999585151672363
v -7.5000038146972656 11.25 4.1630511987023056E-05
v -7.5000038146972656 11.25 -7.4999585151672363
v -15.000003814697266 -4.1105928971774119E-07 -14.999958038330078
v 14.999996185302734 -4.1105928971774119E-07 -14.999958038330078
v -15.000003814697266 -4.1105928971774119E-07 4.1630511987023056E-05
v -7.5000038146972656 -4.1105928971774119E-07 4.1630511987023056E-05
v -7.5000038146972656 -4.1105928971774119E-07 -7.4999585151672363
v -3.766533154703211E-06 -4.1105928971774119E-07 -14.999958038330078
v 14.999996185302734 -4.1105928971774119E-07 -7.4999585151672363
v 3.7499961853027344 -4.1105928971774119E-07 -7.4999585151672363
v 14.999996185302734 22.5 4.1630511987023056E-05
v 14.999996185302734 22.5 -7.4999585151672363
v -7.5000038146972656 22.5 4.1630511987023056E-05
v -7.5000038146972656 22.5 -7.4999585151672363
v 3.7499961853027344 22.5 -7.4999585151672363
v 3.7499961853027344 22.5 4.1630511987023056E-05
v -7.5000038146972656 22.5 -7.4999585151672363
v -7.5000038146972656 -4.1105928971774119E-07 -7.4999585151672363
v 14.999996185302734 22.5 -7.4999585151672363
v 3.7499961853027344 22.5 -7.4999585151672363
v -7.5000038146972656 11.25 -7.4999585151672363
v 14.999996185302734 11.25 -7.4999585151672363
v 14.999996185302734 -4.1105928971774119E-07 -7.4999585151672363
v 3.7499961853027344 -4.1105928971774119E-07 -7.4999585151672363
v 14.999996185302734 30 4.1630511987023056E-05
v -15.000003814697266 -4.1105928971774119E-07 4.1630511987023056E-05
v -15.000003814697266 30 4.1630511987023056E-05
v -15.000003814697266 15 4.1630511987023056E-05
v -7.5000038146972656 22.5 4.1630511987023056E-05
v -7.5000038146972656 11.25 4.1630511987023056E-05
v -7.5000038146972656 -4.1105928971774119E-07 4.1630511987023056E-05
v 14.999996185302734 22.5 4.1630511987023056E-05
v 3.7499961853027344 22.5 4.1630511987023056E-05
v -10.566104888916016 30 4.1630511987023056E-05
v 2.2169151306152344 30 4.1630511987023056E-05
v -15.000003814697266 30 -14.999958038330078
v 14.999996185302734 30 -14.999958038330078
v -15.000003814697266 -4.1105928971774119E-07 -14.999958038330078
v 14.999996185302734 -4.1105928971774119E-07 -14.999958038330078
v -3.766533154703211E-06 -4.1105928971774119E-07 -14.999958038330078
v -15.000003814697266 15 -14.999958038330078
v 14.999996185302734 15 -14.999958038330078
v -3.766533154703211E-06 30 -14.999958038330078
v -15.000003814697266 30 4.1630511987023056E-05
v 14.999996185302734 30 4.1630511987023056E-05
v -15.000003814697266 30 -14.999958038330078
v 14.999996185302734 30 -14.999958038330078
v -3.766533154703211E-06 30 -14.999958038330078
v 2.2169151306152344 30 4.1630511987023056E-05
v -10.566104888916016 30 4.1630511987023056E-05
v 14.999996185302734 -4.1105928971774119E-07 -14.999958038330078
v 14.999996185302734 -4.1105928971774119E-07 -7.4999585151672363
v 14.999996185302734 22.5 -7.4999585151672363
v 14.999996185302734 22.5 4.1630511987023056E-05
v 14.999996185302734 11.25 -7.4999585151672363
v 14.999996185302734 30 -14.999958038330078
v 14.999996185302734 15 -14.999958038330078
v 14.999996185302734 30 4.1630511987023056E-05
vt 0.99853515625 0.20545454323291779
vt 0.99853515625 0.38727271556854248
vt 0.63636362552642822 0.38727271556854248
vt 0.81744939088821411 0.38727271556854248
vt 0.63636362552642822 0.20545454323291779
vt 0.81744939088821411 0.20545454323291779
vt 0.36363637447357178 0.36727273464202881
vt 0.36363637447357178 0.45671698451042175
vt 0.63489878177642822 0.36727273464202881
vt 0.63489878177642822 0.45671698451042175
vt 0.499267578125 0.36727273464202881
vt 0.499267578125 0.45671698451042175
vt 0.99853515625 0
vt 0.63636362552642822 0
vt 0.99853515625 0.18181818723678589
vt 0.90799230337142944 0.18181818723678589
vt 0.90799230337142944 0.090909093618392944
vt 0.81744939088821411 0
vt 0.63636362552642822 0.090909093618392944
vt 0.77217793464660645 0.090909093618392944
vt 0.36363637447357178 0.45818182826042175
vt 0.36363637447357178 0.5476260781288147
vt 0.63489878177642822 0.45818182826042175
vt 0.63489878177642822 0.5476260781288147
vt 0.499267578125 0.5476260781288147
vt 0.499267578125 0.45818182826042175
vt 0.63489878177642822 0.5490909218788147
vt 0.36363637447357178 0.5490909218788147
vt 0.63489878177642822 0.82035332918167114
vt 0.63489878177642822 0.68472212553024292
vt 0.499267578125 0.5490909218788147
vt 0.499267578125 0.82035332918167114
vt 0.36363637447357178 0.82035332918167114
vt 0.36363637447357178 0.68472212553024292
vt 0 0.73090910911560059
vt 0.36217153072357178 0.36727273464202881
vt 0.36217153072357178 0.73090910911560059
vt 0.36217153072357178 0.5490909218788147
vt 0.27162864804267883 0.63999998569488525
vt 0.27162864804267883 0.50363636016845703
vt 0.27162864804267883 0.36727273464202881
vt 0 0.63999998569488525
vt 0.13581432402133942 0.63999998569488525
vt 0.30864402651786804 0.73090910911560059
vt 0.15432201325893402 0.73090910911560059
vt 0.99853515625 0.41090908646583557
vt 0.63636362552642822 0.41090908646583557
vt 0.99853515625 0.77454543113708496
vt 0.63636362552642822 0.77454543113708496
vt 0.81744939088821411 0.77454543113708496
vt 0.99853515625 0.59272724390029907
vt 0.63636362552642822 0.59272724390029907
vt 0.81744939088821411 0.41090908646583557
vt 0.36363637447357178 0
vt 0 0
vt 0.36363637447357178 0.18035334348678589
vt 0 0.18035334348678589
vt 0.18181818723678589 0.18035334348678589
vt 0.15494617819786072 0
vt 0.30989238619804382 0
vt 0.0036363743711262941 0.36400404572486877
vt 0.0036363743711262941 0.27381303906440735
vt 0.27636364102363586 0.27381303906440735
vt 0.27636364102363586 0.18362200260162354
vt 0.14000001549720764 0.27381303906440735
vt 0.36727273464202881 0.36400404572486877
vt 0.18545454740524292 0.36400404572486877
vt 0.36727273464202881 0.18362200260162354
vn -1 0 0
vn -1 0 0
vn -1 0 0
vn -1 0 0
vn -1 0 0
vn -1 0 0
vn 1 0 0
vn 1 0 0
vn 1 0 0
vn 1 0 0
vn 1 0 0
vn 1 0 0
vn 0 -1 0
vn 0 -1 0
vn 0 -1 0
vn 0 -1 0
vn 0 -1 0
vn 0 -1 0
vn 0 -1 0
vn 0 -1 0
vn 0 -1 0
vn 0 -1 0
vn 0 -1 0
vn 0 -1 0
vn 0 -1 0
vn 0 -1 0
vn 0 0 1
vn 0 0 1
vn 0 0 1
vn 0 0 1
vn 0 0 1
vn 0 0 1
vn 0 0 1
vn 0 0 1
vn 0 0 1
vn 0 0 1
vn 0 0 1
vn 0 0 1
vn 0 0 1
vn 0 0 1
vn 0 0 1
vn 0 0 1
vn 0 0 1
vn 0 0 1
vn 0 0 1
vn 0 0 -1
vn 0 0 -1
vn 0 0 -1
vn 0 0 -1
vn 0 0 -1
vn 0 0 -1
vn 0 0 -1
vn 0 0 -1
vn 0 1 0
vn 0 1 0
vn 0 1 0
vn 0 1 0
vn 0 1 0
vn 0 1 0
vn 0 1 0
vn 1 0 0
vn 1 0 0
vn 1 0 0
vn 1 0 0
vn 1 0 0
vn 1 0 0
vn 1 0 0
vn 1 0 0
f 6/6/6 1/1/1 2/2/2 4/4/4
f 5/5/5 6/6/6 4/4/4 3/3/3
f 12/12/12 8/8/8 7/7/7 11/11/11
f 11/11/11 9/9/9 10/10/10 12/12/12
f 18/18/18 17/17/17 13/13/13
f 15/15/15 13/13/13 17/17/17
f 14/14/14 19/19/19 20/20/20 18/18/18
f 20/20/20 17/17/17 18/18/18
f 15/15/15 17/17/17 16/16/16
f 21/21/21 26/26/26 25/25/25 22/22/22
f 24/24/24 25/25/25 26/26/26 23/23/23
f 32/32/32 31/31/31 34/34/34
f 31/31/31 28/28/28 34/34/34
f 30/30/30 27/27/27 31/31/31
f 32/32/32 29/29/29 30/30/30
f 32/32/32 34/34/34 33/33/33
f 30/30/30 31/31/31 32/32/32
f 45/45/45 43/43/43 42/42/42 35/35/35
f 43/43/43 45/45/45 44/44/44 39/39/39
f 40/40/40 38/38/38 36/36/36
f 40/40/40 39/39/39 38/38/38
f 44/44/44 37/37/37 39/39/39
f 38/38/38 39/39/39 37/37/37
f 36/36/36 41/41/41 40/40/40
f 53/53/53 51/51/51 46/46/46
f 53/53/53 47/47/47 52/52/52
f 50/50/50 51/51/51 53/53/53
f 53/53/53 52/52/52 50/50/50
f 50/50/50 52/52/52 49/49/49
f 48/48/48 51/51/51 50/50/50
f 56/56/56 54/54/54 60/60/60
f 59/59/59 58/58/58 56/56/56 60/60/60
f 58/58/58 59/59/59 55/55/55 57/57/57
f 64/64/64 63/63/63 68/68/68
f 66/66/66 68/68/68 63/63/63
f 65/65/65 67/67/67 63/63/63
f 67/67/67 65/65/65 62/62/62 61/61/61
f 66/66/66 63/63/63 67/67/67
