# Rhino

g Cantareira_Final
o object_1
v -15.000003814697266 -4.1105928971774119E-07 -7.4999585151672363
v 14.999996185302734 -4.1105928971774119E-07 -7.4999585151672363
v -15.000003814697266 -4.1105928971774119E-07 -14.999958038330078
v 14.999996185302734 -4.1105928971774119E-07 -14.999958038330078
v -3.766533154703211E-06 -4.1105928971774119E-07 -14.999958038330078
v -3.766533154703211E-06 -4.1105928971774119E-07 -7.4999585151672363
v 14.999996185302734 22.5 -7.4999585151672363
v -15.000003814697266 22.5 4.1630511987023056E-05
v -15.000003814697266 22.5 -7.4999585151672363
v -3.766533154703211E-06 22.5 -7.4999585151672363
v 14.999996185302734 22.5 4.1630511987023056E-05
v -3.766533154703211E-06 22.5 4.1630511987023056E-05
v -15.000003814697266 -4.1105928971774119E-07 -7.4999585151672363
v 14.999996185302734 22.5 -7.4999585151672363
v 14.999996185302734 -4.1105928971774119E-07 -7.4999585151672363
v -15.000003814697266 22.5 -7.4999585151672363
v -3.766533154703211E-06 22.5 -7.4999585151672363
v -3.766533154703211E-06 -4.1105928971774119E-07 -7.4999585151672363
v 14.999996185302734 30 4.1630511987023056E-05
v -15.000003814697266 22.5 4.1630511987023056E-05
v -15.000003814697266 30 4.1630511987023056E-05
v 14.999996185302734 22.5 4.1630511987023056E-05
v -3.766533154703211E-06 22.5 4.1630511987023056E-05
v -3.0737342834472656 30 4.1630511987023056E-05
v -15.000003814697266 -4.1105928971774119E-07 -14.999958038330078
v 14.999996185302734 -4.1105928971774119E-07 -14.999958038330078
v -15.000003814697266 30 -14.999958038330078
v 14.999996185302734 30 -14.999958038330078
v -3.766533154703211E-06 -4.1105928971774119E-07 -14.999958038330078
v -15.000003814697266 15 -14.999958038330078
v -3.766533154703211E-06 30 -14.999958038330078
v 14.999996185302734 15 -14.999958038330078
v -15.000003814697266 30 -14.999958038330078
v 14.999996185302734 30 -14.999958038330078
v -15.000003814697266 30 4.1630511987023056E-05
v 14.999996185302734 30 4.1630511987023056E-05
v -3.766533154703211E-06 30 -14.999958038330078
v -3.0737342834472656 30 4.1630511987023056E-05
v -15.000003814697266 -4.1105928971774119E-07 -14.999958038330078
v -15.000003814697266 -4.1105928971774119E-07 -7.4999585151672363
v -15.000003814697266 22.5 -7.4999585151672363
v -15.000003814697266 22.5 4.1630511987023056E-05
v -15.000003814697266 30 4.1630511987023056E-05
v -15.000003814697266 30 -14.999958038330078
v -15.000003814697266 15 -14.999958038330078
v 14.999996185302734 -4.1105928971774119E-07 -7.4999585151672363
v 14.999996185302734 -4.1105928971774119E-07 -14.999958038330078
v 14.999996185302734 22.5 4.1630511987023056E-05
v 14.999996185302734 22.5 -7.4999585151672363
v 14.999996185302734 30 4.1630511987023056E-05
v 14.999996185302734 15 -14.999958038330078
v 14.999996185302734 30 -14.999958038330078
vt 0.66520190238952637 0.45333337783813477
vt 0.66520190238952637 0.89631301164627075
vt 0.55555558204650879 0.45333337783813477
vt 0.55555558204650879 0.89631301164627075
vt 0.55555558204650879 0.67482322454452515
vt 0.66520190238952637 0.67482322454452515
vt 0.44444447755813599 0.45333337783813477
vt 0.55409073829650879 0.89631301164627075
vt 0.44444447755813599 0.89631301164627075
vt 0.44444447755813599 0.67482322454452515
vt 0.55409073829650879 0.45333337783813477
vt 0.55409073829650879 0.67482322454452515
vt 0 0.33333337306976318
vt 0.44297963380813599 0
vt 0.44297963380813599 0.33333337306976318
vt 0 0
vt 0.22148981690406799 0
vt 0.22148981690406799 0.33333337306976318
vt 0.66666674613952637 0.45333337783813477
vt 0.77631300687789917 0.89631301164627075
vt 0.66666674613952637 0.89631301164627075
vt 0.77631300687789917 0.45333337783813477
vt 0.77631300687789917 0.67482322454452515
vt 0.66666674613952637 0.72020977735519409
vt 0 0.38476192951202393
vt 0 0.82920640707015991
vt 0.44297963380813599 0.38476192951202393
vt 0.44297963380813599 0.82920640707015991
vt 0 0.60698419809341431
vt 0.22148981690406799 0.38476192951202393
vt 0.44297963380813599 0.60698419809341431
vt 0.22148981690406799 0.82920640707015991
vt 0.77777785062789917 0.45333337783813477
vt 0.77777785062789917 0.89631301164627075
vt 0.99853515625 0.45333337783813477
vt 0.99853515625 0.89631301164627075
vt 0.77777785062789917 0.67482322454452515
vt 0.99853515625 0.62943661212921143
vt 0.44888895750045776 0.44966065883636475
vt 0.44888895750045776 0.33926761150360107
vt 0.78222227096557617 0.33926761150360107
vt 0.78222227096557617 0.22887454926967621
vt 0.89333343505859375 0.22887454926967621
vt 0.89333343505859375 0.44966056942939758
vt 0.67111116647720337 0.44966062903404236
vt 0.89333343505859375 0.11260092258453369
vt 0.89333343505859375 0.22299396991729736
vt 0.56000006198883057 0.0022078612819314003
vt 0.56000006198883057 0.11260092258453369
vt 0.44888895750045776 0.0022078612819314003
vt 0.67111116647720337 0.22299394011497498
vt 0.44888895750045776 0.22299389541149139
vn 0 -1 0
vn 0 -1 0
vn 0 -1 0
vn 0 -1 0
vn 0 -1 0
vn 0 -1 0
vn 0 -1 0
vn 0 -1 0
vn 0 -1 0
vn 0 -1 0
vn 0 -1 0
vn 0 -1 0
vn 0 0 1
vn 0 0 1
vn 0 0 1
vn 0 0 1
vn 0 0 1
vn 0 0 1
vn 0 0 1
vn 0 0 1
vn 0 0 1
vn 0 0 1
vn 0 0 1
vn 0 0 1
vn 0 2.0832547420468472E-07 -1
vn 0 2.0832547420468472E-07 -1
vn 0 2.0832547420468472E-07 -1
vn 0 2.0832547420468472E-07 -1
vn 0 2.0832545999383001E-07 -1
vn 0 2.0832547420468472E-07 -1
vn 0 2.0832547420468472E-07 -1
vn 0 2.0832547420468472E-07 -1
vn 0 1 0
vn 0 1 0
vn 0 1 0
vn 0 1 0
vn 0 1 0
vn 0 1 0
vn -1 -5.188734917283E-07 7.7831020917074056E-07
vn -1 -5.188734917283E-07 7.7831020917074056E-07
vn -1 -5.188734917283E-07 7.7831020917074056E-07
vn -1 -5.188734917283E-07 7.7831020917074056E-07
vn -1 -5.188734917283E-07 7.7831020917074056E-07
vn -1 -5.188734917283E-07 7.7831020917074056E-07
vn -1 -5.188734917283E-07 7.7831020917074056E-07
vn 1 5.1887366225855658E-07 -1.5566209867756697E-06
vn 1 5.1887366225855658E-07 -1.5566209867756697E-06
vn 1 5.1887366225855658E-07 -1.5566209867756697E-06
vn 1 5.1887366225855658E-07 -1.5566209867756697E-06
vn 1 5.1887366225855658E-07 -1.5566209867756697E-06
vn 1 5.1887366225855658E-07 -1.5566209867756697E-06
vn 1 5.1887366225855658E-07 -1.5566209867756697E-06
f 5/5/5 6/6/6 1/1/1 3/3/3
f 4/4/4 2/2/2 6/6/6 5/5/5
f 10/10/10 7/7/7 11/11/11 12/12/12
f 12/12/12 8/8/8 9/9/9 10/10/10
f 13/13/13 18/18/18 17/17/17 16/16/16
f 14/14/14 17/17/17 18/18/18 15/15/15
f 22/22/22 19/19/19 24/24/24 23/23/23
f 21/21/21 20/20/20 23/23/23 24/24/24
f 29/29/29 25/25/25 30/30/30
f 29/29/29 32/32/32 26/26/26
f 32/32/32 29/29/29 30/30/30
f 30/30/30 31/31/31 32/32/32
f 31/31/31 28/28/28 32/32/32
f 27/27/27 31/31/31 30/30/30
f 37/37/37 33/33/33 35/35/35 38/38/38
f 34/34/34 37/37/37 38/38/38 36/36/36
f 42/42/42 43/43/43 41/41/41
f 44/44/44 41/41/41 43/43/43
f 41/41/41 45/45/45 40/40/40
f 45/45/45 39/39/39 40/40/40
f 44/44/44 45/45/45 41/41/41
f 49/49/49 50/50/50 48/48/48
f 46/46/46 51/51/51 49/49/49
f 50/50/50 49/49/49 52/52/52
f 51/51/51 52/52/52 49/49/49
f 47/47/47 51/51/51 46/46/46
