# Rhino

g Cantareira_Final
o object_1
v -15.000003814697266 -2.3184079509519506E-06 -14.999958038330078
v -15.000003814697266 22.499998092651367 -14.999958038330078
v -15.000003814697266 -2.3184079509519506E-06 15.000041961669922
v -15.000003814697266 22.499998092651367 15.000041961669922
v -15.000003814697266 22.499998092651367 5.0000414848327637
v -15.000003814697266 22.499998092651367 -4.9999585151672363
v -15.000003814697266 11.249998092651367 15.000041961669922
v -15.000003814697266 11.249998092651367 -14.999958038330078
v -15.000003814697266 -2.3184079509519506E-06 4.1630511987023056E-05
v -11.250003814697266 22.499998092651367 -14.999958038330078
v -11.250003814697266 22.499998092651367 15.000041961669922
v -15.000003814697266 22.499998092651367 15.000041961669922
v -15.000003814697266 22.499998092651367 -14.999958038330078
v -15.000003814697266 22.499998092651367 -4.9999585151672363
v -15.000003814697266 22.499998092651367 5.0000414848327637
v -11.250003814697266 22.499998092651367 10.714275360107422
v -11.250003814697266 22.499998092651367 6.4286303520202637
v -11.250003814697266 22.499998092651367 2.1428639888763428
v -11.250003814697266 22.499998092651367 -2.1429026126861572
v -11.250003814697266 22.499998092651367 -6.4285473823547363
v -11.250003814697266 22.499998092651367 -10.714313507080078
v -11.250003814697266 22.499998092651367 -14.999958038330078
v -11.250003814697266 23.704336166381836 -14.999958038330078
v -11.250003814697266 22.499998092651367 15.000041961669922
v -11.250003814697266 23.704336166381836 15.000041961669922
v -11.250003814697266 23.704336166381836 10.714275360107422
v -11.250003814697266 23.704336166381836 6.4286303520202637
v -11.250003814697266 23.704336166381836 2.1428639888763428
v -11.250003814697266 23.704336166381836 -2.1429026126861572
v -11.250003814697266 23.704336166381836 -6.4285473823547363
v -11.250003814697266 23.704336166381836 -10.714313507080078
v -11.250003814697266 22.499998092651367 -10.714313507080078
v -11.250003814697266 22.499998092651367 -6.4285473823547363
v -11.250003814697266 22.499998092651367 -2.1429026126861572
v -11.250003814697266 22.499998092651367 2.1428639888763428
v -11.250003814697266 22.499998092651367 6.4286303520202637
v -11.250003814697266 22.499998092651367 10.714275360107422
v -11.250003814697266 23.704336166381836 -14.999958038330078
v 14.999996185302734 23.704336166381836 15.000041961669922
v 14.999996185302734 23.704336166381836 4.1630511987023056E-05
v -11.250003814697266 23.704336166381836 15.000041961669922
v 1.8749961853027344 23.704336166381836 15.000041961669922
v 14.999996185302734 23.704336166381836 -14.999958038330078
v 1.8749961853027344 23.704336166381836 -14.999958038330078
v -11.250003814697266 23.704336166381836 -10.714313507080078
v -11.250003814697266 23.704336166381836 -6.4285473823547363
v -11.250003814697266 23.704336166381836 -2.1429026126861572
v -11.250003814697266 23.704336166381836 2.1428639888763428
v -11.250003814697266 23.704336166381836 6.4286303520202637
v -11.250003814697266 23.704336166381836 10.714275360107422
v 1.8749961853027344 23.704336166381836 4.1630511987023056E-05
v 1.8749961853027344 23.704336166381836 -7.4999585151672363
v -4.6875038146972656 23.704336166381836 4.1630511987023056E-05
v -4.6875038146972656 23.704336166381836 -7.4999585151672363
v 1.8749961853027344 23.704336166381836 7.5000414848327637
v -4.6875038146972656 23.704336166381836 7.5000414848327637
v -15.000003814697266 22.499998092651367 15.000041961669922
v -11.250003814697266 22.499998092651367 15.000041961669922
v -3.766533154703211E-06 11.852170944213867 15.000041961669922
v -3.766533154703211E-06 17.896772384643555 15.000041961669922
v -7.6500282287597656 11.852170944213867 15.000041961669922
v -7.6500282287597656 17.896772384643555 15.000041961669922
v -11.250003814697266 23.704336166381836 15.000041961669922
v -7.6500282287597656 20.91908073425293 15.000041961669922
v -11.475040435791016 17.896772384643555 15.000041961669922
v -11.475040435791016 20.91908073425293 15.000041961669922
v 1.8749961853027344 23.704336166381836 15.000041961669922
v 14.999996185302734 23.704336166381836 15.000041961669922
v 14.999996185302734 11.852170944213867 15.000041961669922
v 14.999996185302734 -2.3184079509519506E-06 15.000041961669922
v -3.766533154703211E-06 -2.3184079509519506E-06 15.000041961669922
v -15.000003814697266 -2.3184079509519506E-06 15.000041961669922
v -15.000003814697266 11.249998092651367 15.000041961669922
v -15.000003814697266 22.499998092651367 -14.999958038330078
v -11.250003814697266 22.499998092651367 -14.999958038330078
v -3.766533154703211E-06 11.852170944213867 -14.999958038330078
v -3.766533154703211E-06 17.896772384643555 -14.999958038330078
v -7.6500282287597656 11.852170944213867 -14.999958038330078
v -7.6500282287597656 17.896772384643555 -14.999958038330078
v -11.250003814697266 23.704336166381836 -14.999958038330078
v -7.6500282287597656 20.91908073425293 -14.999958038330078
v -11.475040435791016 17.896772384643555 -14.999958038330078
v -11.475040435791016 20.91908073425293 -14.999958038330078
v 1.8749961853027344 23.704336166381836 -14.999958038330078
v 14.999996185302734 23.704336166381836 -14.999958038330078
v 14.999996185302734 11.852170944213867 -14.999958038330078
v 14.999996185302734 -2.3184079509519506E-06 -14.999958038330078
v -3.766533154703211E-06 -2.3184079509519506E-06 -14.999958038330078
v -15.000003814697266 -2.3184079509519506E-06 -14.999958038330078
v -15.000003814697266 11.249998092651367 -14.999958038330078
v -15.000003814697266 -2.3184079509519506E-06 15.000041961669922
v -15.000003814697266 -2.3184079509519506E-06 -14.999958038330078
v 14.999996185302734 -2.3184079509519506E-06 15.000041961669922
v 14.999996185302734 -2.3184079509519506E-06 -14.999958038330078
v -3.766533154703211E-06 -2.3184079509519506E-06 15.000041961669922
v -3.766533154703211E-06 -2.3184079509519506E-06 -14.999958038330078
v 14.999996185302734 -2.3184079509519506E-06 4.1630511987023056E-05
v -15.000003814697266 -2.3184079509519506E-06 4.1630511987023056E-05
v 14.999996185302734 -2.3184079509519506E-06 15.000041961669922
v 14.999996185302734 23.704336166381836 15.000041961669922
v 14.999996185302734 -2.3184079509519506E-06 -14.999958038330078
v 14.999996185302734 23.704336166381836 -14.999958038330078
v 14.999996185302734 23.704336166381836 4.1630511987023056E-05
v 14.999996185302734 11.852170944213867 15.000041961669922
v 14.999996185302734 11.852170944213867 -14.999958038330078
v 14.999996185302734 -2.3184079509519506E-06 4.1630511987023056E-05
vt 0.33112576603889465 0.33112576603889465
vt 0.33112576603889465 0.57800525426864624
vt 0.66078668832778931 0.33112576603889465
vt 0.66078668832778931 0.57800525426864624
vt 0.55089974403381348 0.57800525426864624
vt 0.44101274013519287 0.57800525426864624
vt 0.66078668832778931 0.45456549525260925
vt 0.33112576603889465 0.45456549525260925
vt 0.49595624208450317 0.33112576603889465
vt 0.025559719651937485 0
vt 0.025559719651937485 0.32966092228889465
vt 0.066950440406799316 0.32966092228889465
vt 0.066950440406799316 0
vt 0.066950440406799316 0.10988697409629822
vt 0.066950440406799316 0.21977394819259644
vt 0.025559719651937485 0.28256651759147644
vt 0.025559719651937485 0.23547209799289703
vt 0.025559719651937485 0.18837767839431763
vt 0.025559719651937485 0.14128325879573822
vt 0.025559719651937485 0.094188839197158813
vt 0.025559719651937485 0.047094419598579407
vt 0.013292901217937469 0
vt 0 0
vt 0.013292901217937469 0.32966092228889465
vt 0 0.32966092228889465
vt 0 0.28256651759147644
vt 0 0.23547209799289703
vt 0 0.18837767839431763
vt 0 0.14128325879573822
vt 0 0.094188839197158813
vt 0 0.047094419598579407
vt 0.013292901217937469 0.047094419598579407
vt 0.013292901217937469 0.094188839197158813
vt 0.013292901217937469 0.14128325879573822
vt 0.013292901217937469 0.18837767839431763
vt 0.013292901217937469 0.23547209799289703
vt 0.013292901217937469 0.28256651759147644
vt 0.10514619201421738 0.32966092228889465
vt 0.39488124847412109 0
vt 0.39488124847412109 0.16483046114444733
vt 0.10514619201421738 0
vt 0.25001370906829834 0
vt 0.39488124847412109 0.32966092228889465
vt 0.25001370906829834 0.32966092228889465
vt 0.10514619201421738 0.28256651759147644
vt 0.10514619201421738 0.23547209799289703
vt 0.10514619201421738 0.18837767839431763
vt 0.10514619201421738 0.14128325879573822
vt 0.10514619201421738 0.094188839197158813
vt 0.10514619201421738 0.047094419598579407
vt 0.25001370906829834 0.16483046114444733
vt 0.25001370906829834 0.24724569916725159
vt 0.17757995426654816 0.16483046114444733
vt 0.17757995426654816 0.24724569916725159
vt 0.25001370906829834 0.082415230572223663
vt 0.17757995426654816 0.082415230572223663
vt 0.99523824453353882 0.67151439189910889
vt 0.95402705669403076 0.67151439189910889
vt 0.83039337396621704 0.55398863554000854
vt 0.83039337396621704 0.62070614099502563
vt 0.91446423530578613 0.55398863554000854
vt 0.91446423530578613 0.62070614099502563
vt 0.95402705669403076 0.68480724096298218
vt 0.91446423530578613 0.65406489372253418
vt 0.95649969577789307 0.62070614099502563
vt 0.95649969577789307 0.65406489372253418
vt 0.80978763103485107 0.68480724096298218
vt 0.66554844379425049 0.68480724096298218
vt 0.66554844379425049 0.55398863554000854
vt 0.66554844379425049 0.42317003011703491
vt 0.83039325475692749 0.42317003011703491
vt 0.99523806571960449 0.42317003011703491
vt 0.99523818492889404 0.54734218120574951
vt 0.99523824453353882 0.25096070766448975
vt 0.95402705669403076 0.25096070766448975
vt 0.83039337396621704 0.13343499600887299
vt 0.83039337396621704 0.20015248656272888
vt 0.91446423530578613 0.13343499600887299
vt 0.91446423530578613 0.20015248656272888
vt 0.95402705669403076 0.26425358653068542
vt 0.91446423530578613 0.23351122438907623
vt 0.95649969577789307 0.20015248656272888
vt 0.95649969577789307 0.23351122438907623
vt 0.80978763103485107 0.26425358653068542
vt 0.66554844379425049 0.26425358653068542
vt 0.66554844379425049 0.13343499600887299
vt 0.66554844379425049 0.002616372425109148
vt 0.83039325475692749 0.002616372425109148
vt 0.99523806571960449 0.002616372425109148
vt 0.99523818492889404 0.12678854167461395
vt 0 0.33112576603889465
vt 0 0.66225153207778931
vt 0.32966092228889465 0.33112576603889465
vt 0.32966092228889465 0.66225153207778931
vt 0.16483046114444733 0.33112576603889465
vt 0.16483046114444733 0.66225153207778931
vt 0.32966092228889465 0.49668866395950317
vt 0 0.49668866395950317
vt 0.33112576603889465 0.57947009801864624
vt 0.33112576603889465 0.83964246511459351
vt 0.66078668832778931 0.57947009801864624
vt 0.66078668832778931 0.83964246511459351
vt 0.49595624208450317 0.83964246511459351
vt 0.33112576603889465 0.70955628156661987
vt 0.66078668832778931 0.70955628156661987
vt 0.49595624208450317 0.57947009801864624
vn -1 0 0
vn -1 0 0
vn -1 0 0
vn -1 0 0
vn -1 0 0
vn -1 0 0
vn -1 0 0
vn -1 0 0
vn -1 0 0
vn 0 1 0
vn 0 1 0
vn 0 1 0
vn 0 1 0
vn 0 1 0
vn 0 1 0
vn 0 1 0
vn 0 1 0
vn 0 1 0
vn 0 1 0
vn 0 1 0
vn 0 1 0
vn -1 0 0
vn -1 0 0
vn -1 0 0
vn -1 0 0
vn -1 0 0
vn -1 0 0
vn -1 0 0
vn -1 0 0
vn -1 0 0
vn -1 0 0
vn -1 0 0
vn -1 0 0
vn -1 0 0
vn -1 0 0
vn -1 0 0
vn -1 0 0
vn 0 1 0
vn 0 1 0
vn 0 1 0
vn 0 1 0
vn 0 1 0
vn 0 1 0
vn 0 1 0
vn 0 1 0
vn 0 1 0
vn 0 1 0
vn 0 1 0
vn 0 1 0
vn 0 1 0
vn 0 1 0
vn 0 1 0
vn 0 1 0
vn 0 1 0
vn 0 1 0
vn 0 1 0
vn 0 0 1
vn 0 0 1
vn 0 0 1
vn 0 0 1
vn 0 0 1
vn 0 0 1
vn 0 0 1
vn 0 0 1
vn 0 0 1
vn 0 0 1
vn 0 0 1
vn 0 0 1
vn 0 0 1
vn 0 0 1
vn 0 0 1
vn 0 0 1
vn 0 0 1
vn 0 0 -1
vn 0 0 -1
vn 0 0 -1
vn 0 0 -1
vn 0 0 -1
vn 0 0 -1
vn 0 0 -1
vn 0 0 -1
vn 0 0 -1
vn 0 0 -1
vn 0 0 -1
vn 0 0 -1
vn 0 0 -1
vn 0 0 -1
vn 0 0 -1
vn 0 0 -1
vn 0 0 -1
vn 0 -1 0
vn 0 -1 0
vn 0 -1 0
vn 0 -1 0
vn 0 -1 0
vn 0 -1 0
vn 0 -1 0
vn 0 -1 0
vn 1 0 0
vn 1 0 0
vn 1 0 0
vn 1 0 0
vn 1 0 0
vn 1 0 0
vn 1 0 0
vn 1 0 0
f 5/5/5 6/6/6 8/8/8
f 8/8/8 6/6/6 2/2/2
f 9/9/9 8/8/8 1/1/1
f 7/7/7 9/9/9 3/3/3
f 4/4/4 5/5/5 7/7/7
f 7/7/7 5/5/5 8/8/8
f 9/9/9 7/7/7 8/8/8
f 21/21/21 10/10/10 13/13/13
f 13/13/13 14/14/14 20/20/20 21/21/21
f 14/14/14 19/19/19 20/20/20
f 14/14/14 15/15/15 18/18/18 19/19/19
f 15/15/15 17/17/17 18/18/18
f 15/15/15 12/12/12 16/16/16 17/17/17
f 12/12/12 11/11/11 16/16/16
f 32/32/32 31/31/31 23/23/23 22/22/22
f 34/34/34 29/29/29 30/30/30 33/33/33
f 33/33/33 30/30/30 31/31/31 32/32/32
f 29/29/29 34/34/34 35/35/35 28/28/28
f 36/36/36 27/27/27 28/28/28 35/35/35
f 24/24/24 25/25/25 26/26/26 37/37/37
f 37/37/37 26/26/26 27/27/27 36/36/36
f 52/52/52 54/54/54 53/53/53 51/51/51
f 51/51/51 53/53/53 56/56/56 55/55/55
f 56/56/56 50/50/50 41/41/41
f 48/48/48 49/49/49 56/56/56
f 50/50/50 56/56/56 49/49/49
f 56/56/56 41/41/41 42/42/42
f 48/48/48 53/53/53 47/47/47
f 46/46/46 54/54/54 45/45/45
f 45/45/45 54/54/54 38/38/38
f 54/54/54 46/46/46 47/47/47
f 53/53/53 48/48/48 56/56/56
f 42/42/42 55/55/55 56/56/56
f 40/40/40 55/55/55 39/39/39
f 42/42/42 39/39/39 55/55/55
f 40/40/40 51/51/51 55/55/55
f 44/44/44 52/52/52 43/43/43
f 40/40/40 52/52/52 51/51/51
f 54/54/54 52/52/52 44/44/44
f 52/52/52 40/40/40 43/43/43
f 38/38/38 54/54/54 44/44/44
f 47/47/47 53/53/53 54/54/54
f 66/66/66 65/65/65 62/62/62 64/64/64
f 62/62/62 61/61/61 59/59/59 60/60/60
f 71/71/71 70/70/70 69/69/69
f 69/69/69 59/59/59 71/71/71
f 61/61/61 71/71/71 59/59/59
f 60/60/60 59/59/59 69/69/69
f 60/60/60 68/68/68 67/67/67
f 64/64/64 60/60/60 67/67/67
f 69/69/69 68/68/68 60/60/60
f 61/61/61 72/72/72 71/71/71
f 65/65/65 61/61/61 62/62/62
f 73/73/73 61/61/61 65/65/65
f 73/73/73 72/72/72 61/61/61
f 57/57/57 73/73/73 65/65/65
f 63/63/63 58/58/58 64/64/64
f 66/66/66 64/64/64 58/58/58
f 66/66/66 58/58/58 57/57/57
f 65/65/65 66/66/66 57/57/57
f 67/67/67 63/63/63 64/64/64
f 60/60/60 64/64/64 62/62/62
f 83/83/83 81/81/81 79/79/79 82/82/82
f 79/79/79 77/77/77 76/76/76 78/78/78
f 88/88/88 86/86/86 87/87/87
f 86/86/86 88/88/88 76/76/76
f 78/78/78 76/76/76 88/88/88
f 77/77/77 86/86/86 76/76/76
f 77/77/77 84/84/84 85/85/85
f 81/81/81 84/84/84 77/77/77
f 86/86/86 77/77/77 85/85/85
f 78/78/78 88/88/88 89/89/89
f 82/82/82 79/79/79 78/78/78
f 90/90/90 82/82/82 78/78/78
f 90/90/90 78/78/78 89/89/89
f 74/74/74 82/82/82 90/90/90
f 80/80/80 81/81/81 75/75/75
f 83/83/83 75/75/75 81/81/81
f 83/83/83 74/74/74 75/75/75
f 82/82/82 74/74/74 83/83/83
f 84/84/84 81/81/81 80/80/80
f 77/77/77 79/79/79 81/81/81
f 98/98/98 95/95/95 91/91/91
f 98/98/98 92/92/92 96/96/96
f 97/97/97 95/95/95 98/98/98
f 98/98/98 96/96/96 97/97/97
f 97/97/97 96/96/96 94/94/94
f 93/93/93 95/95/95 97/97/97
f 104/104/104 99/99/99 106/106/106
f 104/104/104 103/103/103 100/100/100
f 105/105/105 104/104/104 106/106/106
f 104/104/104 105/105/105 103/103/103
f 105/105/105 102/102/102 103/103/103
f 101/101/101 105/105/105 106/106/106
