# Rhino

g Cantareira_Final
o object_1
v -15.000003814697266 23.704336166381836 15.000041961669922
v -15.000003814697266 23.704336166381836 -14.999958038330078
v -15.000003814697266 23.704336166381836 4.1630511987023056E-05
v 14.999996185302734 23.704336166381836 15.000041961669922
v 14.999996185302734 23.704336166381836 4.1630511987023056E-05
v -3.766533154703211E-06 23.704336166381836 15.000041961669922
v 14.999996185302734 23.704336166381836 -14.999958038330078
v -3.766533154703211E-06 23.704336166381836 -14.999958038330078
v 14.999996185302734 -2.3184079509519506E-06 -14.999958038330078
v 14.999996185302734 -2.3184079509519506E-06 15.000041961669922
v -15.000003814697266 -2.3184079509519506E-06 -14.999958038330078
v -15.000003814697266 -2.3184079509519506E-06 15.000041961669922
v -3.766533154703211E-06 -2.3184079509519506E-06 -14.999958038330078
v -15.000003814697266 -2.3184079509519506E-06 4.1630511987023056E-05
v -3.766533154703211E-06 -2.3184079509519506E-06 15.000041961669922
v 14.999996185302734 -2.3184079509519506E-06 4.1630511987023056E-05
v 14.999996185302734 23.704336166381836 -14.999958038330078
v 14.999996185302734 -2.3184079509519506E-06 -14.999958038330078
v 14.999996185302734 23.704336166381836 15.000041961669922
v 14.999996185302734 -2.3184079509519506E-06 15.000041961669922
v 14.999996185302734 23.704336166381836 4.1630511987023056E-05
v 14.999996185302734 -2.3184079509519506E-06 4.1630511987023056E-05
v 14.999996185302734 11.852170944213867 15.000041961669922
v 14.999996185302734 11.852170944213867 -14.999958038330078
v -15.000003814697266 23.704336166381836 -14.999958038330078
v -15.000003814697266 -2.3184079509519506E-06 -14.999958038330078
v -15.000003814697266 23.704336166381836 15.000041961669922
v -15.000003814697266 -2.3184079509519506E-06 15.000041961669922
v -15.000003814697266 23.704336166381836 4.1630511987023056E-05
v -15.000003814697266 -2.3184079509519506E-06 4.1630511987023056E-05
v -15.000003814697266 11.852170944213867 15.000041961669922
v -15.000003814697266 11.852170944213867 -14.999958038330078
v -15.000003814697266 -2.3184079509519506E-06 -14.999958038330078
v 14.999996185302734 23.704336166381836 -14.999958038330078
v -3.766533154703211E-06 23.704336166381836 -14.999958038330078
v -15.000003814697266 23.704336166381836 -14.999958038330078
v -3.766533154703211E-06 -2.3184079509519506E-06 -14.999958038330078
v 14.999996185302734 -2.3184079509519506E-06 -14.999958038330078
v 14.999996185302734 11.852170944213867 -14.999958038330078
v -15.000003814697266 11.852170944213867 -14.999958038330078
v -15.000003814697266 -2.3184079509519506E-06 15.000041961669922
v -15.000003814697266 23.704336166381836 15.000041961669922
v 14.999996185302734 23.704336166381836 15.000041961669922
v -3.766533154703211E-06 23.704336166381836 15.000041961669922
v -3.766533154703211E-06 -2.3184079509519506E-06 15.000041961669922
v 14.999996185302734 -2.3184079509519506E-06 15.000041961669922
v 14.999996185302734 11.852170944213867 15.000041961669922
v -15.000003814697266 11.852170944213867 15.000041961669922
vt 0.33333337306976318 0
vt 0 0
vt 0.16666668653488159 0
vt 0.33333337306976318 0.33186852931976318
vt 0.16666668653488159 0.33186852931976318
vt 0.33333337306976318 0.16593426465988159
vt 0 0.33186852931976318
vt 0 0.16593426465988159
vt 0 0.33333337306976318
vt 0 0.66666674613952637
vt 0.33186835050582886 0.33333337306976318
vt 0.33186835050582886 0.66666674613952637
vt 0.16593417525291443 0.33333337306976318
vt 0.33186835050582886 0.50000005960464478
vt 0.16593417525291443 0.66666674613952637
vt 0 0.50000005960464478
vt 0.66666662693023682 0.43004822731018066
vt 0.66666662693023682 0.69342976808547974
vt 0.99853515625 0.43004822731018066
vt 0.99853515625 0.69342976808547974
vt 0.83260089159011841 0.43004822731018066
vt 0.83260089159011841 0.69342976808547974
vt 0.99853515625 0.56173902750015259
vt 0.66666662693023682 0.56173902750015259
vt 0.66666662693023682 0
vt 0.66666662693023682 0.26338154077529907
vt 0.99853515625 0
vt 0.99853515625 0.26338154077529907
vt 0.83260089159011841 0
vt 0.83260089159011841 0.26338154077529907
vt 0.99853515625 0.13169077038764954
vt 0.66666662693023682 0.13169077038764954
vt 0.33333319425582886 0.59671491384506226
vt 0.66520178318023682 0.85863161087036133
vt 0.49926751852035522 0.85863161087036133
vt 0.33333328366279602 0.85863161087036133
vt 0.49926742911338806 0.59671491384506226
vt 0.66520160436630249 0.59671491384506226
vt 0.66520166397094727 0.72767329216003418
vt 0.33333322405815125 0.72767329216003418
vt 0.33333319425582886 0.33333337306976318
vt 0.33333319425582886 0.59525007009506226
vt 0.66520178318023682 0.59525007009506226
vt 0.49926751852035522 0.59525007009506226
vt 0.49926742911338806 0.33333337306976318
vt 0.66520160436630249 0.33333337306976318
vt 0.66520166397094727 0.46429172158241272
vt 0.33333319425582886 0.46429172158241272
vn 0 1 0
vn 0 1 0
vn 0 1 0
vn 0 1 0
vn 0 1 0
vn 0 1 0
vn 0 1 0
vn 0 1 0
vn -2.2222803153226778E-08 -1 0
vn -2.2222803153226778E-08 -1 0
vn -2.2222803153226778E-08 -1 0
vn -2.2222803153226778E-08 -1 0
vn -2.2222803153226778E-08 -1 0
vn -2.2222803153226778E-08 -1 0
vn -2.2222803153226778E-08 -1 0
vn -2.2222803153226778E-08 -1 0
vn 1 -6.9740019625896821E-07 5.5104698049035505E-07
vn 1 -6.9740019625896821E-07 0
vn 1 0 5.5104703733377391E-07
vn 1 0 0
vn 1 -3.4870012655119353E-07 5.5104698049035505E-07
vn 1 -3.4870012655119353E-07 0
vn 1 0 2.7552351866688696E-07
vn 1 -6.9740019625896821E-07 2.7552349024517753E-07
vn -1 6.9740019625896821E-07 -5.5104698049035505E-07
vn -1 6.9740019625896821E-07 0
vn -1 0 -5.5104703733377391E-07
vn -1 0 0
vn -1 3.4870012655119353E-07 -5.5104698049035505E-07
vn -1 3.4870012655119353E-07 0
vn -1 0 -2.7552351866688696E-07
vn -1 6.9740019625896821E-07 -2.7552349024517753E-07
vn 0 0 -1
vn 0 0 -1
vn 0 0 -1
vn 0 0 -1
vn 0 0 -1
vn 0 0 -1
vn 0 0 -1
vn 0 0 -1
vn 0 0 1
vn 0 0 1
vn 0 0 1
vn 0 0 1
vn 0 0 1
vn 0 0 1
vn 0 0 1
vn 0 0 1
f 6/6/6 8/8/8 3/3/3
f 3/3/3 8/8/8 2/2/2
f 6/6/6 3/3/3 1/1/1
f 5/5/5 6/6/6 4/4/4
f 5/5/5 7/7/7 8/8/8
f 6/6/6 5/5/5 8/8/8
f 16/16/16 13/13/13 9/9/9
f 16/16/16 10/10/10 15/15/15
f 14/14/14 13/13/13 16/16/16
f 16/16/16 15/15/15 14/14/14
f 14/14/14 15/15/15 12/12/12
f 11/11/11 13/13/13 14/14/14
f 24/24/24 17/17/17 21/21/21
f 24/24/24 22/22/22 18/18/18
f 23/23/23 24/24/24 21/21/21
f 24/24/24 23/23/23 22/22/22
f 23/23/23 20/20/20 22/22/22
f 19/19/19 23/23/23 21/21/21
f 32/32/32 29/29/29 25/25/25
f 32/32/32 26/26/26 30/30/30
f 30/30/30 29/29/29 32/32/32
f 29/29/29 30/30/30 31/31/31
f 31/31/31 30/30/30 28/28/28
f 27/27/27 29/29/29 31/31/31
f 40/40/40 37/37/37 33/33/33
f 40/40/40 36/36/36 35/35/35
f 39/39/39 37/37/37 40/40/40
f 40/40/40 35/35/35 39/39/39
f 39/39/39 35/35/35 34/34/34
f 38/38/38 37/37/37 39/39/39
f 48/48/48 41/41/41 45/45/45
f 48/48/48 44/44/44 42/42/42
f 47/47/47 48/48/48 45/45/45
f 48/48/48 47/47/47 44/44/44
f 47/47/47 43/43/43 44/44/44
f 46/46/46 47/47/47 45/45/45
