# Rhino

g Cantareira_Final
o object_1
v 14.999996185302734 22.499998092651367 -14.999958038330078
v -15.000003814697266 -2.3184079509519506E-06 -14.999958038330078
v 14.999996185302734 -2.3184079509519506E-06 -14.999958038330078
v -3.766533154703211E-06 -2.3184079509519506E-06 -14.999958038330078
v -15.000003814697266 22.499998092651367 -14.999958038330078
v -5.0000038146972656 22.499998092651367 -14.999958038330078
v 4.9999961853027344 22.499998092651367 -14.999958038330078
v 14.999996185302734 22.499998092651367 -14.999958038330078
v -15.000003814697266 22.499998092651367 -11.325031280517578
v -15.000003814697266 22.499998092651367 -14.999958038330078
v 14.999996185302734 22.499998092651367 -11.325031280517578
v 4.9999961853027344 22.499998092651367 -14.999958038330078
v -5.0000038146972656 22.499998092651367 -14.999958038330078
v -10.714298248291016 22.499998092651367 -11.325031280517578
v -6.4285926818847656 22.499998092651367 -11.325031280517578
v -2.1428871154785156 22.499998092651367 -11.325031280517578
v 2.1428794860839844 22.499998092651367 -11.325031280517578
v 6.4285850524902344 22.499998092651367 -11.325031280517578
v 10.714290618896484 22.499998092651367 -11.325031280517578
v 14.999996185302734 22.499998092651367 -11.325031280517578
v 14.999996185302734 23.704336166381836 -11.325031280517578
v -15.000003814697266 22.499998092651367 -11.325031280517578
v -15.000003814697266 23.704336166381836 -11.325031280517578
v -10.714298248291016 23.704336166381836 -11.325031280517578
v -6.4285926818847656 23.704336166381836 -11.325031280517578
v -2.1428871154785156 23.704336166381836 -11.325031280517578
v 2.1428794860839844 23.704336166381836 -11.325031280517578
v 6.4285850524902344 23.704336166381836 -11.325031280517578
v 10.714290618896484 23.704336166381836 -11.325031280517578
v 10.714290618896484 22.499998092651367 -11.325031280517578
v 6.4285850524902344 22.499998092651367 -11.325031280517578
v 2.1428794860839844 22.499998092651367 -11.325031280517578
v -2.1428871154785156 22.499998092651367 -11.325031280517578
v -6.4285926818847656 22.499998092651367 -11.325031280517578
v -10.714298248291016 22.499998092651367 -11.325031280517578
v -15.000003814697266 23.704336166381836 -11.325031280517578
v 14.999996185302734 23.704336166381836 15.000041961669922
v -15.000003814697266 23.704336166381836 1.8374439477920532
v 14.999996185302734 23.704336166381836 1.8374439477920532
v -15.000003814697266 23.704336166381836 15.000041961669922
v -3.766533154703211E-06 23.704336166381836 15.000041961669922
v 14.999996185302734 23.704336166381836 -11.325031280517578
v 10.714290618896484 23.704336166381836 -11.325031280517578
v 6.4285850524902344 23.704336166381836 -11.325031280517578
v 2.1428794860839844 23.704336166381836 -11.325031280517578
v -2.1428871154785156 23.704336166381836 -11.325031280517578
v -6.4285926818847656 23.704336166381836 -11.325031280517578
v -10.714298248291016 23.704336166381836 -11.325031280517578
v -3.766533154703211E-06 23.704336166381836 1.8374439477920532
v -3.766533154703211E-06 23.704336166381836 -4.7437329292297363
v 7.4999961853027344 23.704336166381836 1.8374439477920532
v 7.4999961853027344 23.704336166381836 -4.7437329292297363
v -7.5000038146972656 23.704336166381836 1.8374439477920532
v -7.5000038146972656 23.704336166381836 -4.7437329292297363
v -15.000003814697266 -2.3184079509519506E-06 -14.999958038330078
v -15.000003814697266 22.499998092651367 -14.999958038330078
v -15.000003814697266 22.499998092651367 -11.325031280517578
v -15.000003814697266 11.852170944213867 4.1630511987023056E-05
v -15.000003814697266 17.896772384643555 4.1630511987023056E-05
v -15.000003814697266 11.852170944213867 -7.6499829292297363
v -15.000003814697266 17.896772384643555 -7.6499829292297363
v -15.000003814697266 23.704336166381836 -11.325031280517578
v -15.000003814697266 20.91908073425293 -7.6499829292297363
v -15.000003814697266 17.896772384643555 -11.475055694580078
v -15.000003814697266 20.91908073425293 -11.475055694580078
v -15.000003814697266 23.704336166381836 1.8374439477920532
v -15.000003814697266 23.704336166381836 15.000041961669922
v -15.000003814697266 11.852170944213867 15.000041961669922
v -15.000003814697266 -2.3184079509519506E-06 15.000041961669922
v -15.000003814697266 -2.3184079509519506E-06 4.1630511987023056E-05
v 14.999996185302734 -2.3184079509519506E-06 -14.999958038330078
v 14.999996185302734 22.499998092651367 -14.999958038330078
v 14.999996185302734 22.499998092651367 -11.325031280517578
v 14.999996185302734 11.852170944213867 4.1630511987023056E-05
v 14.999996185302734 17.896772384643555 4.1630511987023056E-05
v 14.999996185302734 11.852170944213867 -7.6499829292297363
v 14.999996185302734 17.896772384643555 -7.6499829292297363
v 14.999996185302734 23.704336166381836 -11.325031280517578
v 14.999996185302734 20.91908073425293 -7.6499829292297363
v 14.999996185302734 17.896772384643555 -11.475055694580078
v 14.999996185302734 20.91908073425293 -11.475055694580078
v 14.999996185302734 23.704336166381836 1.8374439477920532
v 14.999996185302734 23.704336166381836 15.000041961669922
v 14.999996185302734 11.852170944213867 15.000041961669922
v 14.999996185302734 -2.3184079509519506E-06 15.000041961669922
v 14.999996185302734 -2.3184079509519506E-06 4.1630511987023056E-05
v -15.000003814697266 23.704336166381836 15.000041961669922
v -15.000003814697266 -2.3184079509519506E-06 15.000041961669922
v 14.999996185302734 23.704336166381836 15.000041961669922
v 14.999996185302734 -2.3184079509519506E-06 15.000041961669922
v -3.766533154703211E-06 23.704336166381836 15.000041961669922
v -15.000003814697266 11.852170944213867 15.000041961669922
v 14.999996185302734 11.852170944213867 15.000041961669922
v -3.766533154703211E-06 -2.3184079509519506E-06 15.000041961669922
v -15.000003814697266 -2.3184079509519506E-06 -14.999958038330078
v -15.000003814697266 -2.3184079509519506E-06 15.000041961669922
v 14.999996185302734 -2.3184079509519506E-06 -14.999958038330078
v 14.999996185302734 -2.3184079509519506E-06 15.000041961669922
v -3.766533154703211E-06 -2.3184079509519506E-06 -14.999958038330078
v -15.000003814697266 -2.3184079509519506E-06 4.1630511987023056E-05
v 14.999996185302734 -2.3184079509519506E-06 4.1630511987023056E-05
v -3.766533154703211E-06 -2.3184079509519506E-06 15.000041961669922
vt 0.33112582564353943 0.57800537347793579
vt 0.66078680753707886 0.33112582564353943
vt 0.33112582564353943 0.33112582564353943
vt 0.49595633149147034 0.33112582564353943
vt 0.66078680753707886 0.57800537347793579
vt 0.55089980363845825 0.57800537347793579
vt 0.44101282954216003 0.57800537347793579
vt 0.025559723377227783 0.32966098189353943
vt 0.066122636198997498 0
vt 0.025559723377227783 0
vt 0.066122636198997498 0.32966098189353943
vt 0.025559723377227783 0.21977399289608002
vt 0.025559723377227783 0.10988699644804001
vt 0.066122636198997498 0.047094427049160004
vt 0.066122636198997498 0.094188854098320007
vt 0.066122636198997498 0.14128327369689941
vt 0.066122636198997498 0.18837770819664001
vt 0.066122636198997498 0.23547214269638062
vt 0.066122636198997498 0.28256654739379883
vt 0.013292904011905193 0
vt 0 0
vt 0.013292904011905193 0.32966098189353943
vt 0 0.32966098189353943
vt 0 0.28256654739379883
vt 0 0.23547214269638062
vt 0 0.18837770819664001
vt 0 0.14128327369689941
vt 0 0.094188854098320007
vt 0 0.047094427049160004
vt 0.013292904011905193 0.047094427049160004
vt 0.013292904011905193 0.094188854098320007
vt 0.013292904011905193 0.14128327369689941
vt 0.013292904011905193 0.18837770819664001
vt 0.013292904011905193 0.23547214269638062
vt 0.013292904011905193 0.28256654739379883
vt 0.10355448722839355 0
vt 0.39411738514900208 0.32966098189353943
vt 0.24883593618869781 0
vt 0.24883593618869781 0.32966098189353943
vt 0.39411738514900208 0
vt 0.39411738514900208 0.16483049094676971
vt 0.10355448722839355 0.32966098189353943
vt 0.10355448722839355 0.28256654739379883
vt 0.10355448722839355 0.23547214269638062
vt 0.10355448722839355 0.18837770819664001
vt 0.10355448722839355 0.14128327369689941
vt 0.10355448722839355 0.094188854098320007
vt 0.10355448722839355 0.047094427049160004
vt 0.24883593618869781 0.16483049094676971
vt 0.17619521915912628 0.16483049094676971
vt 0.24883593618869781 0.24724574387073517
vt 0.17619521915912628 0.24724574387073517
vt 0.24883593618869781 0.082415245473384857
vt 0.17619521915912628 0.082415245473384857
vt 0.99523824453353882 0.42317011952400208
vt 0.99523824453353882 0.67151451110839844
vt 0.95485126972198486 0.67151451110839844
vt 0.83039343357086182 0.5539887547492981
vt 0.83039343357086182 0.62070626020431519
vt 0.91446429491043091 0.5539887547492981
vt 0.91446429491043091 0.62070626020431519
vt 0.95485126972198486 0.68480736017227173
vt 0.91446429491043091 0.65406501293182373
vt 0.95649969577789307 0.62070626020431519
vt 0.95649969577789307 0.65406501293182373
vt 0.81019991636276245 0.68480736017227173
vt 0.66554856300354004 0.68480736017227173
vt 0.66554856300354004 0.5539887547492981
vt 0.66554856300354004 0.42317011952400208
vt 0.83039343357086182 0.42317011952400208
vt 0.99523824453353882 0.0026163728907704353
vt 0.99523824453353882 0.25096073746681213
vt 0.95485126972198486 0.25096073746681213
vt 0.83039343357086182 0.13343501091003418
vt 0.83039343357086182 0.20015251636505127
vt 0.91446429491043091 0.13343501091003418
vt 0.91446429491043091 0.20015251636505127
vt 0.95485126972198486 0.2642536461353302
vt 0.91446429491043091 0.23351126909255981
vt 0.95649969577789307 0.20015251636505127
vt 0.95649969577789307 0.23351126909255981
vt 0.81019991636276245 0.2642536461353302
vt 0.66554856300354004 0.2642536461353302
vt 0.66554856300354004 0.13343501091003418
vt 0.66554856300354004 0.0026163728907704353
vt 0.83039343357086182 0.0026163728907704353
vt 0.33112582564353943 0.57947021722793579
vt 0.33112582564353943 0.83964264392852783
vt 0.66078680753707886 0.57947021722793579
vt 0.66078680753707886 0.83964264392852783
vt 0.49595633149147034 0.57947021722793579
vt 0.33112582564353943 0.70955640077590942
vt 0.66078680753707886 0.70955640077590942
vt 0.49595633149147034 0.83964264392852783
vt 0 0.33112582564353943
vt 0 0.66225165128707886
vt 0.32966098189353943 0.33112582564353943
vt 0.32966098189353943 0.66225165128707886
vt 0.16483049094676971 0.33112582564353943
vt 0 0.49668875336647034
vt 0.32966098189353943 0.49668875336647034
vt 0.16483049094676971 0.66225165128707886
vn 0 0 -1
vn 0 0 -1
vn 0 0 -1
vn 0 0 -1
vn 0 0 -1
vn 0 0 -1
vn 0 0 -1
vn 0 1 0
vn 0 1 0
vn 0 1 0
vn 0 1 0
vn 0 1 0
vn 0 1 0
vn 0 1 0
vn 0 1 0
vn 0 1 0
vn 0 1 0
vn 0 1 0
vn 0 1 0
vn 0 0 -1
vn 0 0 -1
vn 0 0 -1
vn 0 0 -1
vn 0 0 -1
vn 0 0 -1
vn 0 0 -1
vn 0 0 -1
vn 0 0 -1
vn 0 0 -1
vn 0 0 -1
vn 0 0 -1
vn 0 0 -1
vn 0 0 -1
vn 0 0 -1
vn 0 0 -1
vn 0 1 0
vn 0 1 0
vn 0 1 0
vn 0 1 0
vn 0 1 0
vn 0 1 0
vn 0 1 0
vn 0 1 0
vn 0 1 0
vn 0 1 0
vn 0 1 0
vn 0 1 0
vn 0 1 0
vn 0 1 0
vn 0 1 0
vn 0 1 0
vn 0 1 0
vn 0 1 0
vn 0 1 0
vn -1 0 0
vn -1 0 0
vn -1 0 0
vn -1 0 0
vn -1 0 0
vn -1 0 0
vn -1 0 0
vn -1 0 0
vn -1 0 0
vn -1 0 0
vn -1 0 0
vn -1 0 0
vn -1 0 0
vn -1 0 0
vn -1 0 0
vn -1 0 0
vn 1 0 0
vn 1 0 0
vn 1 0 0
vn 1 0 0
vn 1 0 0
vn 1 0 0
vn 1 0 0
vn 1 0 0
vn 1 0 0
vn 1 0 0
vn 1 0 0
vn 1 0 0
vn 1 0 0
vn 1 0 0
vn 1 0 0
vn 1 0 0
vn 0 0 1
vn 0 0 1
vn 0 0 1
vn 0 0 1
vn 0 0 1
vn 0 0 1
vn 0 0 1
vn 0 0 1
vn 0 -1 0
vn 0 -1 0
vn 0 -1 0
vn 0 -1 0
vn 0 -1 0
vn 0 -1 0
vn 0 -1 0
vn 0 -1 0
f 1/1/1 3/3/3 7/7/7
f 4/4/4 7/7/7 3/3/3
f 4/4/4 2/2/2 5/5/5 6/6/6
f 7/7/7 4/4/4 6/6/6
f 14/14/14 10/10/10 9/9/9
f 13/13/13 10/10/10 14/14/14 15/15/15
f 12/12/12 13/13/13 16/16/16 17/17/17
f 8/8/8 12/12/12 18/18/18 19/19/19
f 13/13/13 15/15/15 16/16/16
f 8/8/8 19/19/19 11/11/11
f 12/12/12 17/17/17 18/18/18
f 20/20/20 30/30/30 29/29/29 21/21/21
f 31/31/31 32/32/32 27/27/27 28/28/28
f 30/30/30 31/31/31 28/28/28 29/29/29
f 26/26/26 27/27/27 32/32/32 33/33/33
f 33/33/33 34/34/34 25/25/25 26/26/26
f 35/35/35 22/22/22 23/23/23 24/24/24
f 34/34/34 35/35/35 24/24/24 25/25/25
f 52/52/52 50/50/50 49/49/49 51/51/51
f 50/50/50 54/54/54 53/53/53 49/49/49
f 53/53/53 38/38/38 40/40/40
f 40/40/40 41/41/41 53/53/53
f 54/54/54 38/38/38 53/53/53
f 54/54/54 48/48/48 36/36/36
f 47/47/47 54/54/54 46/46/46
f 54/54/54 50/50/50 46/46/46
f 48/48/48 54/54/54 47/47/47
f 54/54/54 36/36/36 38/38/38
f 49/49/49 53/53/53 41/41/41
f 39/39/39 51/51/51 37/37/37
f 41/41/41 51/51/51 49/49/49
f 51/51/51 41/41/41 37/37/37
f 39/39/39 52/52/52 51/51/51
f 52/52/52 44/44/44 45/45/45
f 43/43/43 52/52/52 42/42/42
f 39/39/39 42/42/42 52/52/52
f 44/44/44 52/52/52 43/43/43
f 52/52/52 45/45/45 50/50/50
f 46/46/46 50/50/50 45/45/45
f 65/65/65 64/64/64 61/61/61 63/63/63
f 61/61/61 60/60/60 58/58/58 59/59/59
f 58/58/58 69/69/69 68/68/68
f 69/69/69 58/58/58 70/70/70
f 60/60/60 70/70/70 58/58/58
f 59/59/59 58/58/58 68/68/68
f 59/59/59 67/67/67 66/66/66
f 63/63/63 59/59/59 66/66/66
f 68/68/68 67/67/67 59/59/59
f 60/60/60 55/55/55 70/70/70
f 59/59/59 63/63/63 61/61/61
f 56/56/56 55/55/55 64/64/64
f 60/60/60 61/61/61 64/64/64
f 64/64/64 55/55/55 60/60/60
f 63/63/63 62/62/62 57/57/57
f 57/57/57 56/56/56 65/65/65
f 64/64/64 65/65/65 56/56/56
f 65/65/65 63/63/63 57/57/57
f 66/66/66 62/62/62 63/63/63
f 81/81/81 79/79/79 77/77/77 80/80/80
f 77/77/77 75/75/75 74/74/74 76/76/76
f 74/74/74 84/84/84 85/85/85
f 85/85/85 86/86/86 74/74/74
f 76/76/76 74/74/74 86/86/86
f 75/75/75 84/84/84 74/74/74
f 75/75/75 82/82/82 83/83/83
f 79/79/79 82/82/82 75/75/75
f 84/84/84 75/75/75 83/83/83
f 76/76/76 86/86/86 71/71/71
f 75/75/75 77/77/77 79/79/79
f 72/72/72 80/80/80 71/71/71
f 76/76/76 80/80/80 77/77/77
f 80/80/80 76/76/76 71/71/71
f 79/79/79 73/73/73 78/78/78
f 73/73/73 81/81/81 72/72/72
f 80/80/80 72/72/72 81/81/81
f 81/81/81 73/73/73 79/79/79
f 82/82/82 79/79/79 78/78/78
f 92/92/92 91/91/91 87/87/87
f 92/92/92 88/88/88 94/94/94
f 93/93/93 91/91/91 92/92/92
f 92/92/92 94/94/94 93/93/93
f 93/93/93 94/94/94 90/90/90
f 89/89/89 91/91/91 93/93/93
f 99/99/99 102/102/102 100/100/100
f 100/100/100 102/102/102 96/96/96
f 99/99/99 100/100/100 95/95/95
f 101/101/101 99/99/99 97/97/97
f 101/101/101 98/98/98 102/102/102
f 99/99/99 101/101/101 102/102/102
