# Rhino

g Cantareira_Final
o object_1
v 14.999996185302734 -4.1105928971774119E-07 4.1630511987023056E-05
v 14.999996185302734 30 4.1630511987023056E-05
v 14.999996185302734 30 -14.999958038330078
v 14.999996185302734 15 4.1630511987023056E-05
v 14.999996185302734 -4.1105928971774119E-07 -14.999958038330078
v 14.999996185302734 15 -14.999958038330078
v -15.000003814697266 -4.1105928971774119E-07 -14.999958038330078
v 14.999996185302734 -4.1105928971774119E-07 4.1630511987023056E-05
v 7.4999961853027344 -4.1105928971774119E-07 4.1630511987023056E-05
v -15.000003814697266 -4.1105928971774119E-07 -7.4999585151672363
v -3.7500038146972656 -4.1105928971774119E-07 -7.4999585151672363
v 7.4999961853027344 -4.1105928971774119E-07 -7.4999585151672363
v 14.999996185302734 -4.1105928971774119E-07 -14.999958038330078
v -3.766533154703211E-06 -4.1105928971774119E-07 -14.999958038330078
v 7.4999961853027344 22.5 4.1630511987023056E-05
v 7.4999961853027344 22.5 -7.4999585151672363
v -15.000003814697266 22.5 4.1630511987023056E-05
v -15.000003814697266 22.5 -7.4999585151672363
v -3.7500038146972656 22.5 -7.4999585151672363
v -3.7500038146972656 22.5 4.1630511987023056E-05
v 7.4999961853027344 -4.1105928971774119E-07 4.1630511987023056E-05
v 7.4999961853027344 -4.1105928971774119E-07 -7.4999585151672363
v 7.4999961853027344 22.5 4.1630511987023056E-05
v 7.4999961853027344 22.5 -7.4999585151672363
v 7.4999961853027344 11.25 -7.4999585151672363
v 7.4999961853027344 11.25 4.1630511987023056E-05
v -15.000003814697266 22.5 -7.4999585151672363
v -15.000003814697266 -4.1105928971774119E-07 -7.4999585151672363
v 7.4999961853027344 22.5 -7.4999585151672363
v 7.4999961853027344 -4.1105928971774119E-07 -7.4999585151672363
v 7.4999961853027344 11.25 -7.4999585151672363
v -3.7500038146972656 -4.1105928971774119E-07 -7.4999585151672363
v -15.000003814697266 11.25 -7.4999585151672363
v -3.7500038146972656 22.5 -7.4999585151672363
v 14.999996185302734 -4.1105928971774119E-07 4.1630511987023056E-05
v 14.999996185302734 30 4.1630511987023056E-05
v 14.999996185302734 15 4.1630511987023056E-05
v 7.4999961853027344 -4.1105928971774119E-07 4.1630511987023056E-05
v 7.4999961853027344 11.25 4.1630511987023056E-05
v 7.4999961853027344 22.5 4.1630511987023056E-05
v -15.000003814697266 22.5 4.1630511987023056E-05
v -3.7500038146972656 22.5 4.1630511987023056E-05
v -15.000003814697266 30 4.1630511987023056E-05
v -3.1250038146972656 30 4.1630511987023056E-05
v 8.7499961853027344 30 4.1630511987023056E-05
v 14.999996185302734 30 4.1630511987023056E-05
v -15.000003814697266 30 4.1630511987023056E-05
v 14.999996185302734 30 -14.999958038330078
v -15.000003814697266 30 -14.999958038330078
v -3.766533154703211E-06 30 -14.999958038330078
v -3.1250038146972656 30 4.1630511987023056E-05
v 8.7499961853027344 30 4.1630511987023056E-05
v 14.999996185302734 30 -14.999958038330078
v 14.999996185302734 -4.1105928971774119E-07 -14.999958038330078
v -15.000003814697266 30 -14.999958038330078
v -15.000003814697266 -4.1105928971774119E-07 -14.999958038330078
v 14.999996185302734 15 -14.999958038330078
v -3.766533154703211E-06 -4.1105928971774119E-07 -14.999958038330078
v -3.766533154703211E-06 30 -14.999958038330078
v -15.000003814697266 15 -14.999958038330078
v -15.000003814697266 -4.1105928971774119E-07 -14.999958038330078
v -15.000003814697266 -4.1105928971774119E-07 -7.4999585151672363
v -15.000003814697266 22.5 -7.4999585151672363
v -15.000003814697266 22.5 4.1630511987023056E-05
v -15.000003814697266 11.25 -7.4999585151672363
v -15.000003814697266 30 4.1630511987023056E-05
v -15.000003814697266 30 -14.999958038330078
v -15.000003814697266 15 -14.999958038330078
vt 0.99853515625 0.20545454323291779
vt 0.63636362552642822 0.20545454323291779
vt 0.63636362552642822 0.38727271556854248
vt 0.81744939088821411 0.20545454323291779
vt 0.99853515625 0.38727271556854248
vt 0.81744939088821411 0.38727271556854248
vt 0.99853515625 0
vt 0.63636362552642822 0.18181818723678589
vt 0.72690653800964355 0.18181818723678589
vt 0.99853515625 0.090909093618392944
vt 0.86272084712982178 0.090909093618392944
vt 0.72690653800964355 0.090909093618392944
vt 0.63636362552642822 0
vt 0.81744939088821411 0
vt 0.36363637447357178 0.36727273464202881
vt 0.36363637447357178 0.45671698451042175
vt 0.63489878177642822 0.36727273464202881
vt 0.63489878177642822 0.45671698451042175
vt 0.499267578125 0.45671698451042175
vt 0.499267578125 0.36727273464202881
vt 0.36363637447357178 0.45818182826042175
vt 0.36363637447357178 0.5476260781288147
vt 0.63489878177642822 0.45818182826042175
vt 0.63489878177642822 0.5476260781288147
vt 0.499267578125 0.5476260781288147
vt 0.499267578125 0.45818182826042175
vt 0.63489878177642822 0.5490909218788147
vt 0.36363637447357178 0.5490909218788147
vt 0.63489878177642822 0.82035332918167114
vt 0.36363637447357178 0.82035332918167114
vt 0.499267578125 0.82035332918167114
vt 0.36363637447357178 0.68472212553024292
vt 0.499267578125 0.5490909218788147
vt 0.63489878177642822 0.68472212553024292
vt 0 0.36727273464202881
vt 0 0.73090910911560059
vt 0 0.5490909218788147
vt 0.090542882680892944 0.36727273464202881
vt 0.090542882680892944 0.50363636016845703
vt 0.090542882680892944 0.63999998569488525
vt 0.36217153072357178 0.63999998569488525
vt 0.22635720670223236 0.63999998569488525
vt 0.36217153072357178 0.73090910911560059
vt 0.21881197392940521 0.73090910911560059
vt 0.075452394783496857 0.73090910911560059
vt 0.36363637447357178 0
vt 0 0
vt 0.36363637447357178 0.18035334348678589
vt 0 0.18035334348678589
vt 0.18181818723678589 0.18035334348678589
vt 0.14393939077854156 0
vt 0.28787878155708313 0
vt 0.99853515625 0.41090908646583557
vt 0.63636362552642822 0.41090908646583557
vt 0.99853515625 0.77454543113708496
vt 0.63636362552642822 0.77454543113708496
vt 0.81744939088821411 0.41090908646583557
vt 0.63636362552642822 0.59272724390029907
vt 0.99853515625 0.59272724390029907
vt 0.81744939088821411 0.77454543113708496
vt 0.0036363743711262941 0.36400404572486877
vt 0.0036363743711262941 0.27381303906440735
vt 0.27636364102363586 0.27381303906440735
vt 0.27636364102363586 0.18362200260162354
vt 0.14000001549720764 0.27381303906440735
vt 0.36727273464202881 0.18362200260162354
vt 0.36727273464202881 0.36400404572486877
vt 0.18545454740524292 0.36400404572486877
vn 1 0 0
vn 1 0 0
vn 1 0 0
vn 1 0 0
vn 1 0 0
vn 1 0 0
vn 0 -1 0
vn 0 -1 0
vn 0 -1 0
vn 0 -1 0
vn 0 -1 0
vn 0 -1 0
vn 0 -1 0
vn 0 -1 0
vn 0 -1 0
vn 0 -1 0
vn 0 -1 0
vn 0 -1 0
vn 0 -1 0
vn 0 -1 0
vn -1 0 0
vn -1 0 0
vn -1 0 0
vn -1 0 0
vn -1 0 0
vn -1 0 0
vn 0 0 1
vn 0 0 1
vn 0 0 1
vn 0 0 1
vn 0 0 1
vn 0 0 1
vn 0 0 1
vn 0 0 1
vn 0 0 1
vn 0 0 1
vn 0 0 1
vn 0 0 1
vn 0 0 1
vn 0 0 1
vn 0 0 1
vn 0 0 1
vn 0 0 1
vn 0 0 1
vn 0 0 1
vn 0 1 0
vn 0 1 0
vn 0 1 0
vn 0 1 0
vn 0 1 0
vn 0 1 0
vn 0 1 0
vn 0 0 -1
vn 0 0 -1
vn 0 0 -1
vn 0 0 -1
vn 0 0 -1
vn 0 0 -1
vn 0 0 -1
vn 0 0 -1
vn -1 0 0
vn -1 0 0
vn -1 0 0
vn -1 0 0
vn -1 0 0
vn -1 0 0
vn -1 0 0
vn -1 0 0
f 4/4/4 1/1/1 5/5/5 6/6/6
f 2/2/2 4/4/4 6/6/6 3/3/3
f 14/14/14 11/11/11 10/10/10 7/7/7
f 13/13/13 12/12/12 11/11/11 14/14/14
f 12/12/12 8/8/8 9/9/9
f 13/13/13 8/8/8 12/12/12
f 19/19/19 16/16/16 15/15/15 20/20/20
f 20/20/20 17/17/17 18/18/18 19/19/19
f 22/22/22 21/21/21 26/26/26 25/25/25
f 23/23/23 24/24/24 25/25/25 26/26/26
f 33/33/33 34/34/34 27/27/27
f 33/33/33 28/28/28 32/32/32
f 31/31/31 34/34/34 33/33/33
f 33/33/33 32/32/32 31/31/31
f 31/31/31 32/32/32 30/30/30
f 29/29/29 34/34/34 31/31/31
f 39/39/39 37/37/37 40/40/40
f 45/45/45 40/40/40 36/36/36
f 37/37/37 36/36/36 40/40/40
f 44/44/44 42/42/42 40/40/40 45/45/45
f 37/37/37 39/39/39 38/38/38 35/35/35
f 43/43/43 41/41/41 42/42/42 44/44/44
f 48/48/48 52/52/52 46/46/46
f 50/50/50 51/51/51 52/52/52
f 50/50/50 49/49/49 47/47/47 51/51/51
f 48/48/48 50/50/50 52/52/52
f 57/57/57 59/59/59 53/53/53
f 57/57/57 54/54/54 58/58/58
f 60/60/60 59/59/59 57/57/57
f 57/57/57 58/58/58 60/60/60
f 60/60/60 58/58/58 56/56/56
f 55/55/55 59/59/59 60/60/60
f 64/64/64 66/66/66 63/63/63
f 67/67/67 63/63/63 66/66/66
f 65/65/65 63/63/63 68/68/68
f 68/68/68 61/61/61 65/65/65
f 61/61/61 62/62/62 65/65/65
f 67/67/67 68/68/68 63/63/63
