# Rhino

g Cantareira_Final
o object_1
v -15.000003814697266 -4.1105928971774119E-07 -14.999958038330078
v 14.999996185302734 -4.1105928971774119E-07 15.000041961669922
v -15.000003814697266 -4.1105928971774119E-07 15.000041961669922
v -3.766533154703211E-06 -4.1105928971774119E-07 15.000041961669922
v -15.000003814697266 -4.1105928971774119E-07 4.1630511987023056E-05
v 14.999996185302734 -4.1105928971774119E-07 4.1630511987023056E-05
v 14.999996185302734 -4.1105928971774119E-07 -14.999958038330078
v -3.766533154703211E-06 -4.1105928971774119E-07 -14.999958038330078
v -15.000003814697266 30 -14.999958038330078
v 14.999996185302734 30 15.000041961669922
v -15.000003814697266 30 15.000041961669922
v -3.766533154703211E-06 30 15.000041961669922
v -15.000003814697266 30 4.1630511987023056E-05
v 14.999996185302734 30 4.1630511987023056E-05
v 14.999996185302734 30 -14.999958038330078
v -3.766533154703211E-06 30 -14.999958038330078
v -15.000003814697266 -4.1105928971774119E-07 15.000041961669922
v -15.000003814697266 -4.1105928971774119E-07 -14.999958038330078
v -15.000003814697266 30 15.000041961669922
v -15.000003814697266 30 -14.999958038330078
v -15.000003814697266 -4.1105928971774119E-07 4.1630511987023056E-05
v -15.000003814697266 30 4.1630511987023056E-05
v -15.000003814697266 15 15.000041961669922
v -15.000003814697266 15 -14.999958038330078
v 14.999996185302734 -4.1105928971774119E-07 15.000041961669922
v 14.999996185302734 -4.1105928971774119E-07 -14.999958038330078
v 14.999996185302734 30 15.000041961669922
v 14.999996185302734 30 -14.999958038330078
v 14.999996185302734 -4.1105928971774119E-07 4.1630511987023056E-05
v 14.999996185302734 30 4.1630511987023056E-05
v 14.999996185302734 15 15.000041961669922
v 14.999996185302734 15 -14.999958038330078
v -15.000003814697266 30 15.000041961669922
v -15.000003814697266 -4.1105928971774119E-07 15.000041961669922
v 14.999996185302734 30 15.000041961669922
v 14.999996185302734 -4.1105928971774119E-07 15.000041961669922
v -3.766533154703211E-06 -4.1105928971774119E-07 15.000041961669922
v -3.766533154703211E-06 30 15.000041961669922
v -15.000003814697266 15 15.000041961669922
v 14.999996185302734 15 15.000041961669922
v -15.000003814697266 -4.1105928971774119E-07 -14.999958038330078
v -15.000003814697266 30 -14.999958038330078
v 14.999996185302734 -4.1105928971774119E-07 -14.999958038330078
v 14.999996185302734 30 -14.999958038330078
v -3.766533154703211E-06 -4.1105928971774119E-07 -14.999958038330078
v -3.766533154703211E-06 30 -14.999958038330078
v -15.000003814697266 15 -14.999958038330078
v 14.999996185302734 15 -14.999958038330078
vt 0.3333333432674408 0.66666668653488159
vt 0.66520184278488159 0.99853515625
vt 0.66520184278488159 0.66666668653488159
vt 0.66520184278488159 0.83260089159011841
vt 0.499267578125 0.66666668653488159
vt 0.499267578125 0.99853515625
vt 0.3333333432674408 0.99853515625
vt 0.3333333432674408 0.83260089159011841
vt 0.3333333432674408 0.3333333432674408
vt 0.66520184278488159 0.66520184278488159
vt 0.66520184278488159 0.3333333432674408
vt 0.66520184278488159 0.499267578125
vt 0.499267578125 0.3333333432674408
vt 0.499267578125 0.66520184278488159
vt 0.3333333432674408 0.66520184278488159
vt 0.3333333432674408 0.499267578125
vt 0.99853515625 0.5
vt 0.66666668653488159 0.5
vt 0.99853515625 0.83333331346511841
vt 0.66666668653488159 0.83333331346511841
vt 0.83260089159011841 0.5
vt 0.83260089159011841 0.83333331346511841
vt 0.99853515625 0.66666668653488159
vt 0.66666668653488159 0.66666668653488159
vt 0.99853515625 0
vt 0.66666668653488159 0
vt 0.99853515625 0.3333333432674408
vt 0.66666668653488159 0.3333333432674408
vt 0.83260089159011841 0
vt 0.83260089159011841 0.3333333432674408
vt 0.99853515625 0.1666666716337204
vt 0.66666668653488159 0.1666666716337204
vt 0 0.3333333432674408
vt 0 0.66666668653488159
vt 0.3318684995174408 0.3333333432674408
vt 0.3318684995174408 0.66666668653488159
vt 0.1659342497587204 0.66666668653488159
vt 0.1659342497587204 0.3333333432674408
vt 0 0.5
vt 0.3318684995174408 0.5
vt 0.3333333432674408 0
vt 0 0
vt 0.3333333432674408 0.3318684995174408
vt 0 0.3318684995174408
vt 0.3333333432674408 0.1659342497587204
vt 0 0.1659342497587204
vt 0.1666666716337204 0
vt 0.1666666716337204 0.3318684995174408
vn 0 -1 0
vn 0 -1 0
vn 0 -1 0
vn 0 -1 0
vn 0 -1 0
vn 0 -1 0
vn 0 -1 0
vn 0 -1 0
vn 0 1 0
vn 0 1 0
vn 0 1 0
vn 0 1 0
vn 0 1 0
vn 0 1 0
vn 0 1 0
vn 0 1 0
vn -1 0 0
vn -1 0 0
vn -1 0 0
vn -1 0 0
vn -1 0 0
vn -1 0 0
vn -1 0 0
vn -1 0 0
vn 1 0 0
vn 1 0 0
vn 1 0 0
vn 1 0 0
vn 1 0 0
vn 1 0 0
vn 1 0 0
vn 1 0 0
vn 0 0 1
vn 0 0 1
vn 0 0 1
vn 0 0 1
vn 0 0 1
vn 0 0 1
vn 0 0 1
vn 0 0 1
vn 0 0 -1
vn 0 0 -1
vn 0 0 -1
vn 0 0 -1
vn 0 0 -1
vn 0 0 -1
vn 0 0 -1
vn 0 0 -1
f 4/4/4 8/8/8 6/6/6
f 8/8/8 7/7/7 6/6/6
f 5/5/5 1/1/1 8/8/8
f 4/4/4 3/3/3 5/5/5
f 4/4/4 6/6/6 2/2/2
f 5/5/5 8/8/8 4/4/4
f 12/12/12 14/14/14 16/16/16
f 16/16/16 14/14/14 15/15/15
f 13/13/13 16/16/16 9/9/9
f 12/12/12 13/13/13 11/11/11
f 12/12/12 10/10/10 14/14/14
f 13/13/13 12/12/12 16/16/16
f 21/21/21 17/17/17 23/23/23
f 21/21/21 24/24/24 18/18/18
f 22/22/22 21/21/21 23/23/23
f 21/21/21 22/22/22 24/24/24
f 22/22/22 20/20/20 24/24/24
f 19/19/19 22/22/22 23/23/23
f 29/29/29 31/31/31 25/25/25
f 29/29/29 26/26/26 32/32/32
f 32/32/32 31/31/31 29/29/29
f 32/32/32 30/30/30 27/27/27 31/31/31
f 30/30/30 32/32/32 28/28/28
f 39/39/39 38/38/38 33/33/33
f 39/39/39 34/34/34 37/37/37
f 40/40/40 38/38/38 39/39/39
f 39/39/39 37/37/37 40/40/40
f 40/40/40 37/37/37 36/36/36
f 35/35/35 38/38/38 40/40/40
f 47/47/47 45/45/45 41/41/41
f 47/47/47 42/42/42 46/46/46
f 48/48/48 43/43/43 45/45/45 47/47/47
f 47/47/47 46/46/46 44/44/44 48/48/48
