# Rhino

g Cantareira_Final
o object_1
v -15.000003814697266 -4.1105928971774119E-07 -14.999958038330078
v -15.000003814697266 30 -14.999958038330078
v -15.000003814697266 30 15.000041961669922
v -15.000003814697266 -4.1105928971774119E-07 4.1630511987023056E-05
v -15.000003814697266 15 -14.999958038330078
v -15.000003814697266 30 4.1630511987023056E-05
v -15.000003814697266 -4.1105928971774119E-07 15.000041961669922
v -15.000003814697266 15 15.000041961669922
v 14.999996185302734 -4.1105928971774119E-07 -14.999958038330078
v -15.000003814697266 -4.1105928971774119E-07 -14.999958038330078
v -15.000003814697266 30 -14.999958038330078
v -15.000003814697266 15 -14.999958038330078
v 14.999996185302734 30 -14.999958038330078
v 14.999996185302734 15 -14.999958038330078
v -3.766533154703211E-06 -4.1105928971774119E-07 -14.999958038330078
v -3.766533154703211E-06 30 -14.999958038330078
v -15.000003814697266 -4.1105928971774119E-07 -14.999958038330078
v 14.999996185302734 -4.1105928971774119E-07 -14.999958038330078
v -15.000003814697266 -4.1105928971774119E-07 15.000041961669922
v -15.000003814697266 -4.1105928971774119E-07 4.1630511987023056E-05
v -3.766533154703211E-06 -4.1105928971774119E-07 15.000041961669922
v 14.999996185302734 -4.1105928971774119E-07 15.000041961669922
v 14.999996185302734 -4.1105928971774119E-07 4.1630511987023056E-05
v -3.766533154703211E-06 -4.1105928971774119E-07 -14.999958038330078
v -15.000003814697266 30 15.000041961669922
v 14.999996185302734 30 15.000041961669922
v -15.000003814697266 30 -14.999958038330078
v 14.999996185302734 30 -14.999958038330078
v -15.000003814697266 30 4.1630511987023056E-05
v -3.766533154703211E-06 30 -14.999958038330078
v 14.999996185302734 30 4.1630511987023056E-05
v -3.766533154703211E-06 30 15.000041961669922
v -15.000003814697266 30 15.000041961669922
v -15.000003814697266 -4.1105928971774119E-07 15.000041961669922
v 14.999996185302734 30 15.000041961669922
v 14.999996185302734 -4.1105928971774119E-07 15.000041961669922
v -3.766533154703211E-06 -4.1105928971774119E-07 15.000041961669922
v -3.766533154703211E-06 30 15.000041961669922
v 14.999996185302734 15 15.000041961669922
v -15.000003814697266 15 15.000041961669922
v 14.999996185302734 -4.1105928971774119E-07 15.000041961669922
v 14.999996185302734 -4.1105928971774119E-07 -14.999958038330078
v 14.999996185302734 30 15.000041961669922
v 14.999996185302734 30 -14.999958038330078
v 14.999996185302734 15 -14.999958038330078
v 14.999996185302734 -4.1105928971774119E-07 4.1630511987023056E-05
v 14.999996185302734 30 4.1630511987023056E-05
v 14.999996185302734 15 15.000041961669922
vt 0.3333333432674408 0.66666668653488159
vt 0.3333333432674408 0.99853515625
vt 0.66520184278488159 0.99853515625
vt 0.499267578125 0.66666668653488159
vt 0.3333333432674408 0.83260089159011841
vt 0.499267578125 0.99853515625
vt 0.66520184278488159 0.66666668653488159
vt 0.66520184278488159 0.83260089159011841
vt 0 0
vt 0.3333333432674408 0
vt 0.3333333432674408 0.3318684995174408
vt 0.3333333432674408 0.1659342497587204
vt 0 0.3318684995174408
vt 0 0.1659342497587204
vt 0.1666666716337204 0
vt 0.1666666716337204 0.3318684995174408
vt 0 0.66666668653488159
vt 0 0.99853515625
vt 0.3318684995174408 0.66666668653488159
vt 0.1659342497587204 0.66666668653488159
vt 0.3318684995174408 0.83260089159011841
vt 0.3318684995174408 0.99853515625
vt 0.1659342497587204 0.99853515625
vt 0 0.83260089159011841
vt 0.99853515625 0.5
vt 0.66666668653488159 0.5
vt 0.99853515625 0.83333331346511841
vt 0.66666668653488159 0.83333331346511841
vt 0.99853515625 0.66666668653488159
vt 0.83260089159011841 0.83333331346511841
vt 0.66666668653488159 0.66666668653488159
vt 0.83260089159011841 0.5
vt 0.99853515625 0
vt 0.66666668653488159 0
vt 0.99853515625 0.3333333432674408
vt 0.66666668653488159 0.3333333432674408
vt 0.66666668653488159 0.1666666716337204
vt 0.99853515625 0.1666666716337204
vt 0.83260089159011841 0.3333333432674408
vt 0.83260089159011841 0
vt 0 0.3333333432674408
vt 0 0.66520184278488159
vt 0.3333333432674408 0.3333333432674408
vt 0.3333333432674408 0.66520184278488159
vt 0.1666666716337204 0.66520184278488159
vt 0 0.499267578125
vt 0.3333333432674408 0.499267578125
vt 0.1666666716337204 0.3333333432674408
vn -1 0 0
vn -1 0 0
vn -1 0 0
vn -1 0 0
vn -1 0 0
vn -1 0 0
vn -1 0 0
vn -1 0 0
vn 0 0 -1
vn 0 0 -1
vn 0 0 -1
vn 0 0 -1
vn 0 0 -1
vn 0 0 -1
vn 0 0 -1
vn 0 0 -1
vn 0 -1 0
vn 0 -1 0
vn 0 -1 0
vn 0 -1 0
vn 0 -1 0
vn 0 -1 0
vn 0 -1 0
vn 0 -1 0
vn 0 1 0
vn 0 1 0
vn 0 1 0
vn 0 1 0
vn 0 1 0
vn 0 1 0
vn 0 1 0
vn 0 1 0
vn 0 0 1
vn 0 0 1
vn 0 0 1
vn 0 0 1
vn 0 0 1
vn 0 0 1
vn 0 0 1
vn 0 0 1
vn 1 0 0
vn 1 0 0
vn 1 0 0
vn 1 0 0
vn 1 0 0
vn 1 0 0
vn 1 0 0
vn 1 0 0
f 5/5/5 1/1/1 4/4/4
f 5/5/5 6/6/6 2/2/2
f 8/8/8 5/5/5 4/4/4 7/7/7
f 5/5/5 8/8/8 6/6/6
f 8/8/8 3/3/3 6/6/6
f 14/14/14 9/9/9 15/15/15
f 14/14/14 16/16/16 13/13/13
f 16/16/16 14/14/14 15/15/15
f 15/15/15 12/12/12 16/16/16
f 12/12/12 11/11/11 16/16/16
f 10/10/10 12/12/12 15/15/15
f 20/20/20 24/24/24 23/23/23
f 24/24/24 18/18/18 23/23/23
f 20/20/20 17/17/17 24/24/24
f 21/21/21 19/19/19 20/20/20
f 21/21/21 23/23/23 22/22/22
f 20/20/20 23/23/23 21/21/21
f 32/32/32 29/29/29 25/25/25
f 32/32/32 26/26/26 31/31/31
f 30/30/30 29/29/29 32/32/32
f 32/32/32 31/31/31 30/30/30
f 30/30/30 31/31/31 28/28/28
f 27/27/27 29/29/29 30/30/30
f 40/40/40 38/38/38 33/33/33
f 40/40/40 34/34/34 37/37/37
f 39/39/39 38/38/38 40/40/40
f 40/40/40 37/37/37 39/39/39
f 39/39/39 37/37/37 36/36/36
f 35/35/35 38/38/38 39/39/39
f 48/48/48 46/46/46 45/45/45
f 46/46/46 42/42/42 45/45/45
f 48/48/48 41/41/41 46/46/46
f 47/47/47 43/43/43 48/48/48
f 47/47/47 45/45/45 44/44/44
f 48/48/48 45/45/45 47/47/47
