# Rhino

g Est_dio_Braga_Final
o object_1
v 14.999943733215332 0 -14.999979019165039
v -5.6157598010031506E-05 0 -14.999979019165039
v -15.000056266784668 0 -14.999979019165039
v -15.000056266784668 15 -14.999979019165039
v -15.000056266784668 30 -14.999979019165039
v 4.252995491027832 30 -14.999979019165039
v 14.999943733215332 15.347385406494141 -14.999979019165039
v 14.999943733215332 0 15.000020980834961
v -5.6157598010031506E-05 0 15.000020980834961
v -15.000056266784668 0 15.000020980834961
v -15.000056266784668 15 15.000020980834961
v -15.000056266784668 30 15.000020980834961
v 4.252995491027832 30 15.000020980834961
v 14.999943733215332 15.347385406494141 15.000020980834961
v -15.000056266784668 30 -14.999979019165039
v -15.000056266784668 0 -14.999979019165039
v -15.000056266784668 30 15.000020980834961
v -15.000056266784668 0 15.000020980834961
v -15.000056266784668 30 2.0733205019496381E-05
v -15.000056266784668 15 15.000020980834961
v -15.000056266784668 0 2.0733205019496381E-05
v -15.000056266784668 15 -14.999979019165039
v -15.000056266784668 30 -14.999979019165039
v -15.000056266784668 30 15.000020980834961
v 4.252995491027832 30 -14.999979019165039
v 4.252995491027832 30 15.000020980834961
v -15.000056266784668 30 2.0733205019496381E-05
v 4.252995491027832 30 2.0733205019496381E-05
v 4.252995491027832 30 -14.999979019165039
v 4.252995491027832 30 2.0733205019496381E-05
v 14.999943733215332 15.347385406494141 -14.999979019165039
v 4.252995491027832 30 15.000020980834961
v 14.999943733215332 15.347385406494141 15.000020980834961
v 14.999943733215332 15.347385406494141 2.0733205019496381E-05
v 14.999943733215332 15.347385406494141 15.000020980834961
v 14.999943733215332 0 15.000020980834961
v 14.999943733215332 15.347385406494141 -14.999979019165039
v 14.999943733215332 0 -14.999979019165039
v 14.999943733215332 15.347385406494141 2.0733205019496381E-05
v 14.999943733215332 0 2.0733205019496381E-05
v -15.000056266784668 0 15.000020980834961
v 14.999943733215332 0 15.000020980834961
v -15.000056266784668 0 -14.999979019165039
v 14.999943733215332 0 -14.999979019165039
v -5.6157598010031506E-05 0 -14.999979019165039
v -5.6157598010031506E-05 0 15.000020980834961
v -15.000056266784668 0 2.0733205019496381E-05
v 14.999943733215332 0 2.0733205019496381E-05
vt 0.33443710207939148 0.33298659324645996
vt 0.16887418925762177 0.33298659324645996
vt 0.0033112585078924894 0.33298659324645996
vt 0.0033112585078924894 0.16814175248146057
vt 0.0033112585078924894 0.0032968970481306314
vt 0.21581731736660004 0.0032968970481306314
vt 0.33443710207939148 0.16432411968708038
vt 0.99523824453353882 0.77076387405395508
vt 0.83039337396621704 0.77076387405395508
vt 0.66554856300354004 0.77076387405395508
vt 0.66554856300354004 0.60520100593566895
vt 0.66554856300354004 0.43963807821273804
vt 0.87713295221328735 0.43963807821273804
vt 0.99523824453353882 0.60136675834655762
vt 0.66078680753707886 0.55025440454483032
vt 0.33112582564353943 0.55025440454483032
vt 0.66078680753707886 0.87991535663604736
vt 0.33112582564353943 0.87991535663604736
vt 0.66078680753707886 0.71508485078811646
vt 0.49595630168914795 0.87991535663604736
vt 0.33112582564353943 0.71508485078811646
vt 0.49595630168914795 0.55025440454483032
vt 0.66078680753707886 0.33774834871292114
vt 0.33112582564353943 0.33774834871292114
vt 0.66078680753707886 0.54878956079483032
vt 0.33112582564353943 0.54878956079483032
vt 0.49595630168914795 0.33774834871292114
vt 0.49595630168914795 0.54878956079483032
vt 0.32966098189353943 0.78723025321960449
vt 0.16483049094676971 0.78723025321960449
vt 0.32966098189353943 0.58666402101516724
vt 0 0.78723025321960449
vt 0 0.58666402101516724
vt 0.16483049094676971 0.58666402101516724
vt 0 0.33774834871292114
vt 0 0.50714552402496338
vt 0.32966098189353943 0.33774834871292114
vt 0.32966098189353943 0.50714552402496338
vt 0.16483049094676971 0.33774834871292114
vt 0.16483049094676971 0.50714552402496338
vt 0.99337750673294067 0
vt 0.66225165128707886 0
vt 0.99337750673294067 0.33112582564353943
vt 0.66225165128707886 0.33112582564353943
vt 0.82781457901000977 0.33112582564353943
vt 0.82781457901000977 0
vt 0.99337750673294067 0.16556291282176971
vt 0.66225165128707886 0.16556291282176971
vn 6.9608091735062771E-08 2.4935831177685941E-08 -1
vn 6.9608091735062771E-08 2.4935831177685941E-08 -1
vn 6.9608091735062771E-08 2.4935831177685941E-08 -1
vn 6.9608091735062771E-08 2.4935831177685941E-08 -1
vn 6.9608091735062771E-08 2.4935831177685941E-08 -1
vn 6.9608091735062771E-08 2.4935831177685941E-08 -1
vn 6.9608091735062771E-08 2.4935831177685941E-08 -1
vn -6.9608091735062771E-08 -2.4935831177685941E-08 1
vn -6.9608091735062771E-08 -2.4935831177685941E-08 1
vn -6.9608091735062771E-08 -2.4935831177685941E-08 1
vn -6.9608091735062771E-08 -2.4935831177685941E-08 1
vn -6.9608091735062771E-08 -2.4935831177685941E-08 1
vn -6.9608091735062771E-08 -2.4935831177685941E-08 1
vn -6.9608091735062771E-08 -2.4935831177685941E-08 1
vn -1 0 0
vn -1 0 0
vn -1 0 0
vn -1 0 0
vn -1 0 0
vn -1 0 0
vn -1 0 0
vn -1 0 0
vn 0 1 0
vn 0 1 0
vn 0 1 0
vn 0 1 0
vn 0 1 0
vn 0 1 0
vn 0.80636030435562134 0.59142458438873291 0
vn 0.80636030435562134 0.59142458438873291 0
vn 0.80636030435562134 0.59142458438873291 0
vn 0.80636030435562134 0.59142458438873291 0
vn 0.80636030435562134 0.59142458438873291 0
vn 0.80636030435562134 0.59142458438873291 0
vn 1 0 0
vn 1 0 0
vn 1 0 0
vn 1 0 0
vn 1 0 0
vn 1 0 0
vn 0 -1 0
vn 0 -1 0
vn 0 -1 0
vn 0 -1 0
vn 0 -1 0
vn 0 -1 0
vn 0 -1 0
vn 0 -1 0
f 6/6/6 4/4/4 5/5/5
f 2/2/2 3/3/3 4/4/4
f 4/4/4 7/7/7 2/2/2
f 7/7/7 1/1/1 2/2/2
f 6/6/6 7/7/7 4/4/4
f 13/13/13 12/12/12 11/11/11
f 9/9/9 11/11/11 10/10/10
f 11/11/11 9/9/9 14/14/14
f 14/14/14 9/9/9 8/8/8
f 13/13/13 11/11/11 14/14/14
f 22/22/22 19/19/19 15/15/15
f 22/22/22 16/16/16 21/21/21
f 20/20/20 19/19/19 22/22/22
f 22/22/22 21/21/21 20/20/20
f 20/20/20 21/21/21 18/18/18
f 17/17/17 19/19/19 20/20/20
f 27/27/27 28/28/28 25/25/25 23/23/23
f 24/24/24 26/26/26 28/28/28 27/27/27
f 34/34/34 31/31/31 29/29/29 30/30/30
f 33/33/33 34/34/34 30/30/30 32/32/32
f 40/40/40 39/39/39 35/35/35 36/36/36
f 39/39/39 40/40/40 38/38/38 37/37/37
f 46/46/46 41/41/41 47/47/47
f 46/46/46 48/48/48 42/42/42
f 45/45/45 46/46/46 47/47/47
f 46/46/46 45/45/45 48/48/48
f 45/45/45 44/44/44 48/48/48
f 43/43/43 45/45/45 47/47/47
