# Rhino

g Sete_Cidades_Final
o object_1
v 15.000011444091797 30 -15.000025749206543
v -14.999988555908203 7.5 14.999974250793457
v -14.999988555908203 7.5 -15.000025749206543
v 1.1366731996531598E-05 18.75 -15.000025749206543
v 15.000011444091797 30 14.999974250793457
v 1.1366731996531598E-05 18.75 14.999974250793457
v -14.999988555908203 7.5 -2.6039859221782535E-05
v 15.000011444091797 30 -2.6039859221782535E-05
v -14.999988555908203 7.5 -15.000025749206543
v -14.999988555908203 7.5 14.999974250793457
v -14.999988555908203 7.5 -2.6039859221782535E-05
v -14.999988555908203 0 -15.000025749206543
v -14.999988555908203 0 -2.6039859221782535E-05
v -14.999988555908203 0 14.999974250793457
v -14.999988555908203 0 14.999974250793457
v -14.999988555908203 0 -15.000025749206543
v 15.000011444091797 0 14.999974250793457
v 15.000011444091797 0 -15.000025749206543
v -14.999988555908203 0 -2.6039859221782535E-05
v 15.000011444091797 0 -2.6039859221782535E-05
v 1.1366731996531598E-05 0 14.999974250793457
v 1.1366731996531598E-05 0 -15.000025749206543
v 15.000011444091797 0 14.999974250793457
v 15.000011444091797 0 -15.000025749206543
v 15.000011444091797 30 14.999974250793457
v 15.000011444091797 30 -15.000025749206543
v 15.000011444091797 30 -2.6039859221782535E-05
v 15.000011444091797 0 -2.6039859221782535E-05
v 15.000011444091797 18.75 -15.000025749206543
v 15.000011444091797 7.5 -15.000025749206543
v 15.000011444091797 7.5 14.999974250793457
v 15.000011444091797 18.75 14.999974250793457
v -14.999988555908203 7.5 14.999974250793457
v -14.999988555908203 0 14.999974250793457
v 15.000011444091797 7.5 14.999974250793457
v 15.000011444091797 0 14.999974250793457
v 1.1366731996531598E-05 7.5 14.999974250793457
v 1.1366731996531598E-05 0 14.999974250793457
v -14.999988555908203 7.5 -15.000025749206543
v -14.999988555908203 0 -15.000025749206543
v 15.000011444091797 7.5 -15.000025749206543
v 15.000011444091797 0 -15.000025749206543
v 1.1366731996531598E-05 7.5 -15.000025749206543
v 1.1366731996531598E-05 0 -15.000025749206543
v -14.999988555908203 7.5 14.999974250793457
v 15.000011444091797 30 14.999974250793457
v 15.000011444091797 7.5 14.999974250793457
v 1.1366731996531598E-05 18.75 14.999974250793457
v 15.000011444091797 18.75 14.999974250793457
v 1.1366731996531598E-05 7.5 14.999974250793457
v -14.999988555908203 7.5 -15.000025749206543
v 15.000011444091797 30 -15.000025749206543
v 15.000011444091797 7.5 -15.000025749206543
v 1.1366731996531598E-05 18.75 -15.000025749206543
v 15.000011444091797 18.75 -15.000025749206543
v 1.1366731996531598E-05 7.5 -15.000025749206543
vt 0.61538463830947876 0.69230771064758301
vt 0.99853515625 0.38461539149284363
vt 0.99853515625 0.69230771064758301
vt 0.80695986747741699 0.69230771064758301
vt 0.61538463830947876 0.38461539149284363
vt 0.80695986747741699 0.38461539149284363
vt 0.99853515625 0.53846156597137451
vt 0.61538463830947876 0.53846156597137451
vt 0 0
vt 0 0.30769231915473938
vt 0 0.15384615957736969
vt 0.076923079788684845 0
vt 0.076923079788684845 0.15384615957736969
vt 0.076923079788684845 0.30769231915473938
vt 0.5128205418586731 0.076923079788684845
vt 0.20512820780277252 0.076923079788684845
vt 0.5128205418586731 0.38315054774284363
vt 0.20512820780277252 0.38315054774284363
vt 0.35897436738014221 0.076923079788684845
vt 0.35897436738014221 0.38315054774284363
vt 0.5128205418586731 0.23003681004047394
vt 0.20512820780277252 0.23003681004047394
vt 0.92307692766189575 0
vt 0.61538463830947876 0
vt 0.92307692766189575 0.30769231915473938
vt 0.61538463830947876 0.30769231915473938
vt 0.76923078298568726 0.30769231915473938
vt 0.76923078298568726 0
vt 0.61538463830947876 0.19230769574642181
vt 0.61538463830947876 0.076923079788684845
vt 0.92307692766189575 0.076923079788684845
vt 0.92307692766189575 0.19230769574642181
vt 0.20512820780277252 0
vt 0.20512820780277252 0.075458236038684845
vt 0.5128205418586731 0
vt 0.5128205418586731 0.075458236038684845
vt 0.35897436738014221 0
vt 0.35897436738014221 0.075458236038684845
vt 0.17948718369007111 0
vt 0.10256410390138626 0
vt 0.17948718369007111 0.30769231915473938
vt 0.10256410390138626 0.30769231915473938
vt 0.17948718369007111 0.15384615957736969
vt 0.10256410390138626 0.15384615957736969
vt 0.30769231915473938 0.38461539149284363
vt 0.30769231915473938 0.76776593923568726
vt 0.61391979455947876 0.38461539149284363
vt 0.30769231915473938 0.57619065046310425
vt 0.46080604195594788 0.57619065046310425
vt 0.46080604195594788 0.38461539149284363
vt 0 0.38461539149284363
vt 0 0.76776593923568726
vt 0.30622747540473938 0.38461539149284363
vt 0 0.57619065046310425
vt 0.15311373770236969 0.57619065046310425
vt 0.15311373770236969 0.38461539149284363
vn -0.60000002384185791 0.80000001192092896 0
vn -0.60000002384185791 0.80000001192092896 0
vn -0.60000002384185791 0.80000001192092896 0
vn -0.60000002384185791 0.80000001192092896 0
vn -0.60000002384185791 0.80000001192092896 0
vn -0.60000002384185791 0.80000001192092896 0
vn -0.60000002384185791 0.80000001192092896 0
vn -0.60000002384185791 0.80000001192092896 0
vn -1 0 0
vn -1 0 0
vn -1 0 0
vn -1 0 0
vn -1 0 0
vn -1 0 0
vn 0 -1 0
vn 0 -1 0
vn 0 -1 0
vn 0 -1 0
vn 0 -1 0
vn 0 -1 0
vn 0 -1 0
vn 0 -1 0
vn 1 0 0
vn 1 0 0
vn 1 0 0
vn 1 0 0
vn 1 0 0
vn 1 0 0
vn 1 0 0
vn 1 0 0
vn 1 0 0
vn 1 0 0
vn 0 0 1
vn 0 0 1
vn 0 0 1
vn 0 0 1
vn 0 0 1
vn 0 0 1
vn 0 0 -1
vn 0 0 -1
vn 0 0 -1
vn 0 0 -1
vn 0 0 -1
vn 0 0 -1
vn 0 0 1
vn 0 0 1
vn 0 0 1
vn 0 0 1
vn 0 0 1
vn 0 0 1
vn 0 0 -1
vn 0 0 -1
vn 0 0 -1
vn 0 0 -1
vn 0 0 -1
vn 0 0 -1
f 8/8/8 6/6/6 5/5/5
f 8/8/8 1/1/1 4/4/4
f 4/4/4 6/6/6 8/8/8
f 4/4/4 3/3/3 7/7/7 6/6/6
f 2/2/2 6/6/6 7/7/7
f 11/11/11 9/9/9 12/12/12 13/13/13
f 13/13/13 14/14/14 10/10/10 11/11/11
f 19/19/19 21/21/21 15/15/15
f 19/19/19 16/16/16 22/22/22
f 20/20/20 21/21/21 19/19/19
f 19/19/19 22/22/22 20/20/20
f 20/20/20 22/22/22 18/18/18
f 17/17/17 21/21/21 20/20/20
f 28/28/28 31/31/31 23/23/23
f 24/24/24 30/30/30 28/28/28
f 28/28/28 30/30/30 29/29/29
f 32/32/32 31/31/31 28/28/28
f 27/27/27 25/25/25 32/32/32
f 26/26/26 27/27/27 29/29/29
f 27/27/27 28/28/28 29/29/29
f 32/32/32 28/28/28 27/27/27
f 38/38/38 37/37/37 33/33/33 34/34/34
f 37/37/37 38/38/38 36/36/36 35/35/35
f 44/44/44 40/40/40 39/39/39 43/43/43
f 43/43/43 41/41/41 42/42/42 44/44/44
f 48/48/48 45/45/45 50/50/50 49/49/49
f 49/49/49 46/46/46 48/48/48
f 49/49/49 50/50/50 47/47/47
f 54/54/54 55/55/55 56/56/56 51/51/51
f 55/55/55 54/54/54 52/52/52
f 55/55/55 53/53/53 56/56/56
