# Rhino

g Sete_Cidades_Final
o object_1
v 15.000011444091797 22.5 -14.000025749206543
v 15.000011444091797 2 -14.000025749206543
v 15.000011444091797 22.5 -6.5000262260437012
v 15.000011444091797 2 -6.5000262260437012
v 15.000011444091797 12.25 -14.000025749206543
v 15.000011444091797 12.25 -6.5000262260437012
v 15.000011444091797 2 -10.250025749206543
v 15.000011444091797 0 -6.5000262260437012
v 15.000011444091797 2 -6.5000262260437012
v 15.000011444091797 0 -14.000025749206543
v 15.000011444091797 2 -14.000025749206543
v 15.000011444091797 2 -10.250025749206543
v 15.000011444091797 0 -10.250025749206543
v 12.500011444091797 0 -6.5000262260437012
v 12.500011444091797 0 -14.000025749206543
v 15.000011444091797 0 -6.5000262260437012
v 15.000011444091797 0 -14.000025749206543
v 15.000011444091797 0 -10.250025749206543
v 12.500011444091797 0 -10.250025749206543
v 15.000011444091797 0 -15.000025749206543
v 15.000011444091797 30 -15.000025749206543
v -14.999988555908203 0 -15.000025749206543
v -14.999988555908203 30 -15.000025749206543
v 1.1366731996531598E-05 30 -15.000025749206543
v 15.000011444091797 15 -15.000025749206543
v 1.1366731996531598E-05 0 -15.000025749206543
v -14.999988555908203 2 -15.000025749206543
v -14.999988555908203 16 -15.000025749206543
v 1.1366731996531598E-05 15 -15.000025749206543
v -7.4999885559082031 15 -15.000025749206543
v 1.1366731996531598E-05 7.5 -15.000025749206543
v -7.4999885559082031 7.5 -15.000025749206543
v -11.249988555908203 7.5 -15.000025749206543
v -7.4999885559082031 3.75 -15.000025749206543
v -11.249988555908203 3.75 -15.000025749206543
v -14.999988555908203 0 -15.000025749206543
v 15.000011444091797 0 14.999974250793457
v 15.000011444091797 0 -15.000025749206543
v 15.000011444091797 0 -6.5000262260437012
v 12.500011444091797 0 -6.5000262260437012
v 1.1366731996531598E-05 0 -15.000025749206543
v 1.1366731996531598E-05 0 -2.6039859221782535E-05
v 1.1366731996531598E-05 0 -7.5000262260437012
v 7.5000114440917969 0 -2.6039859221782535E-05
v 7.5000114440917969 0 -7.5000262260437012
v 12.500011444091797 0 -14.000025749206543
v 15.000011444091797 0 -14.000025749206543
v 12.500011444091797 0 -10.250025749206543
v -14.999988555908203 0 -2.6039859221782535E-05
v 7.5000114440917969 0 -11.250025749206543
v 11.250011444091797 0 -11.250025749206543
v -14.999988555908203 0 14.999974250793457
v 1.1366731996531598E-05 0 14.999974250793457
v 15.000011444091797 0 14.999974250793457
v 15.000011444091797 0 -15.000025749206543
v 15.000011444091797 30 -15.000025749206543
v 15.000011444091797 22.5 -14.000025749206543
v 15.000011444091797 12.25 -14.000025749206543
v 15.000011444091797 2 -14.000025749206543
v 15.000011444091797 22.5 -6.5000262260437012
v 15.000011444091797 15 -15.000025749206543
v 15.000011444091797 15 -2.6039859221782535E-05
v 15.000011444091797 2 -6.5000262260437012
v 15.000011444091797 12.25 -6.5000262260437012
v 15.000011444091797 0 -6.5000262260437012
v 15.000011444091797 7.5 -2.6039859221782535E-05
v 15.000011444091797 7.5 -3.7500259876251221
v 15.000011444091797 3.75 -2.6039859221782535E-05
v 15.000011444091797 3.75 -3.7500259876251221
v 15.000011444091797 15 7.4999737739562988
v 15.000011444091797 7.5 7.4999737739562988
v 15.000011444091797 0 -14.000025749206543
v 15.000011444091797 30 14.999974250793457
v 15.000011444091797 15 14.999974250793457
v 15.000011444091797 30 -2.6039859221782535E-05
v -14.999988555908203 0 14.999974250793457
v -14.999988555908203 30 14.999974250793457
v -14.999988555908203 0 -15.000025749206543
v -14.999988555908203 30 -15.000025749206543
v -14.999988555908203 0 -2.6039859221782535E-05
v -14.999988555908203 30 -2.6039859221782535E-05
v -14.999988555908203 15 14.999974250793457
v -14.999988555908203 2 -15.000025749206543
v -14.999988555908203 16 -15.000025749206543
v -14.999988555908203 15 -2.6039859221782535E-05
v -14.999988555908203 15 -7.5000262260437012
v -14.999988555908203 7.5 -2.6039859221782535E-05
v -14.999988555908203 7.5 -7.5000262260437012
v -14.999988555908203 7.5 -11.250025749206543
v -14.999988555908203 3.75 -7.5000262260437012
v -14.999988555908203 3.75 -11.250025749206543
v -14.999988555908203 0 14.999974250793457
v -14.999988555908203 30 14.999974250793457
v 15.000011444091797 0 14.999974250793457
v 15.000011444091797 30 14.999974250793457
v 1.1366731996531598E-05 0 14.999974250793457
v 15.000011444091797 15 14.999974250793457
v -14.999988555908203 15 14.999974250793457
v 1.1366731996531598E-05 30 14.999974250793457
v -14.999988555908203 30 -15.000025749206543
v 15.000011444091797 30 -15.000025749206543
v -14.999988555908203 30 14.999974250793457
v 15.000011444091797 30 14.999974250793457
v 1.1366731996531598E-05 30 -15.000025749206543
v 15.000011444091797 30 -2.6039859221782535E-05
v -14.999988555908203 30 -2.6039859221782535E-05
v 1.1366731996531598E-05 30 14.999974250793457
vt 0.22777777910232544 0.3333333432674408
vt 0 0.3333333432674408
vt 0.22777777910232544 0.4166666567325592
vt 0 0.4166666567325592
vt 0.11388888955116272 0.3333333432674408
vt 0.11388888955116272 0.4166666567325592
vt 0 0.375
vt 0.02222222276031971 0
vt 0 0
vt 0.02222222276031971 0.083333335816860199
vt 0 0.083333335816860199
vt 0 0.041666667908430099
vt 0.02222222276031971 0.041666667908430099
vt 0.038647342473268509 0
vt 0.038647342473268509 0.083333335816860199
vt 0.066425122320652008 0
vt 0.066425122320652008 0.083333335816860199
vt 0.066425122320652008 0.041666667908430099
vt 0.038647342473268509 0.041666667908430099
vt 0.086956523358821869 0
vt 0.086956523358821869 0.3318684995174408
vt 0.42028984427452087 0
vt 0.42028984427452087 0.3318684995174408
vt 0.25362318754196167 0.3318684995174408
vt 0.086956523358821869 0.1659342497587204
vt 0.25362318754196167 0
vt 0.42028984427452087 0.022124568000435829
vt 0.42028984427452087 0.17699654400348663
vt 0.25362318754196167 0.1659342497587204
vt 0.33695653080940247 0.1659342497587204
vt 0.25362318754196167 0.082967124879360199
vt 0.33695653080940247 0.082967124879360199
vt 0.37862318754196167 0.082967124879360199
vt 0.33695653080940247 0.041483562439680099
vt 0.37862318754196167 0.041483562439680099
vt 0.3333333432674408 0.66666668653488159
vt 0.66520184278488159 0.99853515625
vt 0.3333333432674408 0.99853515625
vt 0.42736274003982544 0.99853515625
vt 0.42736274003982544 0.97087943553924561
vt 0.3333333432674408 0.83260089159011841
vt 0.499267578125 0.83260089159011841
vt 0.4163004457950592 0.83260089159011841
vt 0.499267578125 0.91556805372238159
vt 0.4163004457950592 0.91556805372238159
vt 0.34439563751220703 0.97087943553924561
vt 0.34439563751220703 0.99853515625
vt 0.38587918877601624 0.97087943553924561
vt 0.499267578125 0.66666668653488159
vt 0.37481689453125 0.91556805372238159
vt 0.37481689453125 0.95705157518386841
vt 0.66520184278488159 0.66666668653488159
vt 0.66520184278488159 0.83260089159011841
vt 0.3333333432674408 0.3333333432674408
vt 0.66520184278488159 0.3333333432674408
vt 0.66520184278488159 0.66520184278488159
vt 0.65413951873779297 0.58223468065261841
vt 0.65413951873779297 0.46884629130363464
vt 0.65413951873779297 0.35545790195465088
vt 0.57117241621017456 0.58223468065261841
vt 0.66520184278488159 0.499267578125
vt 0.499267578125 0.499267578125
vt 0.57117241621017456 0.35545790195465088
vt 0.57117241621017456 0.46884629130363464
vt 0.57117241621017456 0.3333333432674408
vt 0.499267578125 0.4163004457950592
vt 0.54075115919113159 0.4163004457950592
vt 0.499267578125 0.37481689453125
vt 0.54075115919113159 0.37481689453125
vt 0.4163004457950592 0.499267578125
vt 0.4163004457950592 0.4163004457950592
vt 0.65413951873779297 0.3333333432674408
vt 0.3333333432674408 0.66520184278488159
vt 0.3333333432674408 0.499267578125
vt 0.499267578125 0.66520184278488159
vt 0.99853515625 0.5
vt 0.66666668653488159 0.5
vt 0.99853515625 0.83333331346511841
vt 0.66666668653488159 0.83333331346511841
vt 0.99853515625 0.66666668653488159
vt 0.66666668653488159 0.66666668653488159
vt 0.83260089159011841 0.5
vt 0.97641056776046753 0.83333331346511841
vt 0.82153862714767456 0.83333331346511841
vt 0.83260089159011841 0.66666668653488159
vt 0.83260089159011841 0.75
vt 0.91556805372238159 0.66666668653488159
vt 0.91556805372238159 0.75
vt 0.91556805372238159 0.79166668653488159
vt 0.95705157518386841 0.75
vt 0.95705157518386841 0.79166668653488159
vt 0.99853515625 0
vt 0.66666668653488159 0
vt 0.99853515625 0.3333333432674408
vt 0.66666668653488159 0.3333333432674408
vt 0.99853515625 0.1666666716337204
vt 0.83260089159011841 0.3333333432674408
vt 0.83260089159011841 0
vt 0.66666668653488159 0.1666666716337204
vt 0.3318684995174408 0.46666666865348816
vt 0 0.46666666865348816
vt 0.3318684995174408 0.80000001192092896
vt 0 0.80000001192092896
vt 0.1659342497587204 0.46666666865348816
vt 0 0.63333332538604736
vt 0.3318684995174408 0.63333332538604736
vt 0.1659342497587204 0.80000001192092896
vn 1 0 0
vn 1 0 0
vn 1 0 0
vn 1 0 0
vn 1 0 0
vn 1 0 0
vn 1 0 0
vn 1 0 0
vn 1 0 0
vn 1 0 0
vn 1 0 0
vn 1 0 0
vn 1 0 0
vn 0 -1 0
vn 0 -1 0
vn 0 -1 0
vn 0 -1 0
vn 0 -1 0
vn 0 -1 0
vn 0 0 -1
vn 0 0 -1
vn 0 0 -1
vn 0 0 -1
vn 0 0 -1
vn 0 0 -1
vn 0 0 -1
vn 0 0 -1
vn 0 0 -1
vn 0 0 -1
vn 0 0 -1
vn 0 0 -1
vn 0 0 -1
vn 0 0 -1
vn 0 0 -1
vn 0 0 -1
vn 0 -1 0
vn 0 -1 0
vn 0 -1 0
vn 0 -1 0
vn 0 -1 0
vn 0 -1 0
vn 0 -1 0
vn 0 -1 0
vn 0 -1 0
vn 0 -1 0
vn 0 -1 0
vn 0 -1 0
vn 0 -1 0
vn 0 -1 0
vn 0 -1 0
vn 0 -1 0
vn 0 -1 0
vn 0 -1 0
vn 1 0 0
vn 1 0 0
vn 1 0 0
vn 1 0 0
vn 1 0 0
vn 1 0 0
vn 1 0 0
vn 1 0 0
vn 1 0 0
vn 1 0 0
vn 1 0 0
vn 1 0 0
vn 1 0 0
vn 1 0 0
vn 1 0 0
vn 1 0 0
vn 1 0 0
vn 1 0 0
vn 1 0 0
vn 1 0 0
vn 1 0 0
vn 1 0 0
vn -1 0 0
vn -1 0 0
vn -1 0 0
vn -1 0 0
vn -1 0 0
vn -1 0 0
vn -1 0 0
vn -1 0 0
vn -1 0 0
vn -1 0 0
vn -1 0 0
vn -1 0 0
vn -1 0 0
vn -1 0 0
vn -1 0 0
vn -1 0 0
vn 0 0 1
vn 0 0 1
vn 0 0 1
vn 0 0 1
vn 0 0 1
vn 0 0 1
vn 0 0 1
vn 0 0 1
vn 0 1 0
vn 0 1 0
vn 0 1 0
vn 0 1 0
vn 0 1 0
vn 0 1 0
vn 0 1 0
vn 0 1 0
f 5/5/5 1/1/1 3/3/3 6/6/6
f 7/7/7 2/2/2 5/5/5
f 5/5/5 6/6/6 7/7/7
f 6/6/6 4/4/4 7/7/7
f 9/9/9 8/8/8 13/13/13 12/12/12
f 10/10/10 11/11/11 12/12/12 13/13/13
f 19/19/19 18/18/18 16/16/16 14/14/14
f 15/15/15 17/17/17 18/18/18 19/19/19
f 30/30/30 29/29/29 31/31/31 32/32/32
f 33/33/33 32/32/32 34/34/34 35/35/35
f 31/31/31 20/20/20 26/26/26
f 26/26/26 34/34/34 31/31/31
f 34/34/34 26/26/26 22/22/22
f 25/25/25 20/20/20 31/31/31
f 21/21/21 25/25/25 29/29/29 24/24/24
f 29/29/29 30/30/30 24/24/24
f 29/29/29 25/25/25 31/31/31
f 34/34/34 32/32/32 31/31/31
f 35/35/35 22/22/22 27/27/27
f 22/22/22 35/35/35 34/34/34
f 27/27/27 33/33/33 35/35/35
f 28/28/28 30/30/30 33/33/33
f 32/32/32 33/33/33 30/30/30
f 30/30/30 28/28/28 23/23/23
f 28/28/28 33/33/33 27/27/27
f 24/24/24 30/30/30 23/23/23
f 51/51/51 45/45/45 50/50/50
f 45/45/45 44/44/44 42/42/42 43/43/43
f 53/53/53 52/52/52 49/49/49 42/42/42
f 53/53/53 42/42/42 44/44/44
f 44/44/44 37/37/37 53/53/53
f 36/36/36 41/41/41 43/43/43 49/49/49
f 50/50/50 43/43/43 41/41/41
f 42/42/42 49/49/49 43/43/43
f 45/45/45 43/43/43 50/50/50
f 45/45/45 40/40/40 44/44/44
f 45/45/45 51/51/51 48/48/48
f 44/44/44 40/40/40 39/39/39
f 45/45/45 48/48/48 40/40/40
f 46/46/46 51/51/51 50/50/50
f 38/38/38 47/47/47 46/46/46
f 48/48/48 51/51/51 46/46/46
f 41/41/41 38/38/38 46/46/46
f 41/41/41 46/46/46 50/50/50
f 39/39/39 37/37/37 44/44/44
f 62/62/62 70/70/70 71/71/71 66/66/66
f 67/67/67 66/66/66 68/68/68 69/69/69
f 74/74/74 54/54/54 71/71/71
f 68/68/68 71/71/71 54/54/54
f 68/68/68 65/65/65 69/69/69
f 71/71/71 68/68/68 66/66/66
f 65/65/65 68/68/68 54/54/54
f 73/73/73 74/74/74 70/70/70
f 70/70/70 74/74/74 71/71/71
f 75/75/75 73/73/73 70/70/70 62/62/62
f 60/60/60 75/75/75 62/62/62
f 67/67/67 64/64/64 62/62/62
f 66/66/66 67/67/67 62/62/62
f 67/67/67 69/69/69 63/63/63
f 69/69/69 65/65/65 63/63/63
f 59/59/59 72/72/72 55/55/55
f 58/58/58 59/59/59 55/55/55 61/61/61
f 61/61/61 57/57/57 58/58/58
f 62/62/62 64/64/64 60/60/60
f 56/56/56 57/57/57 61/61/61
f 60/60/60 57/57/57 56/56/56
f 75/75/75 60/60/60 56/56/56
f 67/67/67 63/63/63 64/64/64
f 86/86/86 88/88/88 87/87/87 85/85/85
f 89/89/89 91/91/91 90/90/90 88/88/88
f 87/87/87 80/80/80 76/76/76
f 80/80/80 87/87/87 90/90/90
f 90/90/90 78/78/78 80/80/80
f 82/82/82 87/87/87 76/76/76
f 77/77/77 81/81/81 85/85/85 82/82/82
f 85/85/85 81/81/81 86/86/86
f 85/85/85 87/87/87 82/82/82
f 90/90/90 87/87/87 88/88/88
f 91/91/91 83/83/83 78/78/78
f 78/78/78 90/90/90 91/91/91
f 83/83/83 91/91/91 89/89/89
f 84/84/84 89/89/89 86/86/86
f 88/88/88 86/86/86 89/89/89
f 86/86/86 79/79/79 84/84/84
f 84/84/84 83/83/83 89/89/89
f 81/81/81 79/79/79 86/86/86
f 98/98/98 92/92/92 96/96/96
f 98/98/98 99/99/99 93/93/93
f 99/99/99 98/98/98 96/96/96
f 96/96/96 97/97/97 99/99/99
f 97/97/97 95/95/95 99/99/99
f 94/94/94 97/97/97 96/96/96
f 104/104/104 107/107/107 103/103/103 105/105/105
f 104/104/104 105/105/105 101/101/101
f 106/106/106 104/104/104 100/100/100
f 107/107/107 106/106/106 102/102/102
f 106/106/106 107/107/107 104/104/104
